<svg width="162" height="44" viewBox="0 0 162 44" fill="none" xmlns="http://www.w3.org/2000/svg">
<mask id="path-1-inside-1_4631_14" fill="white">
<path fill-rule="evenodd" clip-rule="evenodd" d="M161.245 7C161.245 3.13414 158.111 0.000211189 154.245 0H32.0066C29.5513 0 27.3598 1.45435 25.319 2.81952C23.6187 3.95699 21.4738 4.63574 19.1416 4.63574C16.5327 4.63568 14.1581 3.78635 12.3781 2.39563C10.797 1.16039 9.00641 0 7 0C3.13401 0 0 3.13401 0 7V31.9619C9.48103e-05 35.8278 3.13407 38.9619 7 38.9619C8.40286 38.9619 9.66464 39.741 10.6829 40.7059C12.6786 42.5969 15.7073 43.8164 19.1024 43.8164C21.8322 43.8164 24.3301 43.0281 26.2451 41.7363C28.2621 40.3756 30.4491 38.9619 32.8822 38.9619H154.245C158.111 38.9617 161.245 35.8277 161.245 31.9619V7Z"/>
</mask>
<path fill-rule="evenodd" clip-rule="evenodd" d="M161.245 7C161.245 3.13414 158.111 0.000211189 154.245 0H32.0066C29.5513 0 27.3598 1.45435 25.319 2.81952C23.6187 3.95699 21.4738 4.63574 19.1416 4.63574C16.5327 4.63568 14.1581 3.78635 12.3781 2.39563C10.797 1.16039 9.00641 0 7 0C3.13401 0 0 3.13401 0 7V31.9619C9.48103e-05 35.8278 3.13407 38.9619 7 38.9619C8.40286 38.9619 9.66464 39.741 10.6829 40.7059C12.6786 42.5969 15.7073 43.8164 19.1024 43.8164C21.8322 43.8164 24.3301 43.0281 26.2451 41.7363C28.2621 40.3756 30.4491 38.9619 32.8822 38.9619H154.245C158.111 38.9617 161.245 35.8277 161.245 31.9619V7Z" fill="#CCB3F8"/>
<path d="M154.245 0L154.245 -1.5H154.245V0ZM19.1416 4.63574L19.1416 6.13574H19.1416V4.63574ZM0 31.9619L-1.5 31.9619L-1.5 31.962L0 31.9619ZM7 38.9619L7 40.4619H7V38.9619ZM154.245 38.9619L154.245 40.4619L154.245 40.4619L154.245 38.9619ZM161.245 31.9619L162.745 31.9619V31.9619H161.245ZM10.6829 40.7059L11.7147 39.6171L10.6829 40.7059ZM25.319 2.81952L24.485 1.57276L25.319 2.81952ZM154.245 0L154.245 1.5C157.283 1.50017 159.745 3.96265 159.745 7H161.245H162.745C162.745 2.30563 158.939 -1.49974 154.245 -1.5L154.245 0ZM32.0066 0V1.5H154.245V0V-1.5H32.0066V0ZM19.1416 4.63574V6.13574C21.7633 6.13574 24.1998 5.37292 26.1531 4.06629L25.319 2.81952L24.485 1.57276C23.0375 2.54105 21.1842 3.13574 19.1416 3.13574V4.63574ZM12.3781 2.39563L11.4546 3.57766C13.5076 5.18165 16.21 6.13567 19.1416 6.13574L19.1416 4.63574L19.1416 3.13574C16.8555 3.13569 14.8086 2.39105 13.3015 1.2136L12.3781 2.39563ZM0 7H1.5C1.5 3.96243 3.96243 1.5 7 1.5V0V-1.5C2.30558 -1.5 -1.5 2.30558 -1.5 7H0ZM0 31.9619H1.5V7H0H-1.5V31.9619H0ZM7 38.9619L7 37.4619C3.96253 37.4619 1.50007 34.9994 1.5 31.9619L0 31.9619L-1.5 31.962C-1.49988 36.6562 2.30561 40.4619 7 40.4619L7 38.9619ZM19.1024 43.8164V42.3164C16.0523 42.3164 13.4047 41.2185 11.7147 39.6171L10.6829 40.7059L9.6512 41.7947C11.9524 43.9753 15.3622 45.3164 19.1024 45.3164V43.8164ZM26.2451 41.7363L25.4063 40.4927C23.752 41.6087 21.5492 42.3164 19.1024 42.3164V43.8164V45.3164C22.1152 45.3164 24.9082 44.4475 27.084 42.9798L26.2451 41.7363ZM154.245 38.9619V37.4619H32.8822V38.9619V40.4619H154.245V38.9619ZM161.245 31.9619L159.745 31.9619C159.745 34.9992 157.282 37.4618 154.245 37.4619L154.245 38.9619L154.245 40.4619C158.939 40.4617 162.745 36.6562 162.745 31.9619L161.245 31.9619ZM161.245 7H159.745V31.9619H161.245H162.745V7H161.245ZM26.2451 41.7363L27.084 42.9798C29.1668 41.5748 30.98 40.4619 32.8822 40.4619V38.9619V37.4619C29.9183 37.4619 27.3575 39.1765 25.4063 40.4927L26.2451 41.7363ZM7 38.9619V40.4619C7.84311 40.4619 8.75027 40.941 9.6512 41.7947L10.6829 40.7059L11.7147 39.6171C10.579 38.541 8.96261 37.4619 7 37.4619V38.9619ZM12.3781 2.39563L13.3015 1.2136C11.7111 -0.0289488 9.562 -1.5 7 -1.5V0V1.5C8.45082 1.5 9.88284 2.34972 11.4546 3.57766L12.3781 2.39563ZM32.0066 0V-1.5C29.0154 -1.5 26.4389 0.265739 24.485 1.57276L25.319 2.81952L26.1531 4.06629C28.2808 2.64296 30.0872 1.5 32.0066 1.5V0Z" fill="#A67AF4" mask="url(#path-1-inside-1_4631_14)"/>
<path d="M12.7822 24.8437C12.1849 24.8437 11.6515 24.7424 11.1822 24.5397C10.7129 24.337 10.3129 24.049 9.9822 23.6757C9.65154 23.2917 9.39554 22.833 9.2142 22.2997C9.04354 21.7557 8.9582 21.153 8.9582 20.4917C8.9582 19.8304 9.04354 19.233 9.2142 18.6997C9.39554 18.1557 9.65154 17.697 9.9822 17.3237C10.3129 16.9397 10.7129 16.6464 11.1822 16.4437C11.6515 16.241 12.1849 16.1397 12.7822 16.1397C13.3902 16.1397 13.9235 16.2464 14.3822 16.4597C14.8515 16.673 15.2409 16.9717 15.5502 17.3557C15.8595 17.729 16.0889 18.1664 16.2382 18.6677C16.3982 19.169 16.4782 19.7077 16.4782 20.2837V20.9397H10.7662V21.2117C10.7662 21.8517 10.9529 22.3797 11.3262 22.7957C11.7102 23.201 12.2542 23.4037 12.9582 23.4037C13.4702 23.4037 13.9022 23.2917 14.2542 23.0677C14.6062 22.8437 14.9049 22.5397 15.1502 22.1557L16.1742 23.1637C15.8649 23.6757 15.4169 24.0864 14.8302 24.3957C14.2435 24.6944 13.5609 24.8437 12.7822 24.8437ZM12.7822 17.4997C12.4835 17.4997 12.2062 17.553 11.9502 17.6597C11.7049 17.7664 11.4915 17.9157 11.3102 18.1077C11.1395 18.2997 11.0062 18.529 10.9102 18.7957C10.8142 19.0624 10.7662 19.3557 10.7662 19.6757V19.7877H14.6382V19.6277C14.6382 18.9877 14.4729 18.4757 14.1422 18.0917C13.8115 17.697 13.3582 17.4997 12.7822 17.4997ZM18.4088 24.6517V16.3317H20.1528V17.7077H20.2328C20.4142 17.2597 20.6862 16.8864 21.0488 16.5877C21.4222 16.289 21.9288 16.1397 22.5688 16.1397C23.4222 16.1397 24.0835 16.4224 24.5528 16.9877C25.0328 17.5424 25.2728 18.337 25.2728 19.3717V24.6517H23.5288V19.5957C23.5288 18.2944 23.0062 17.6437 21.9608 17.6437C21.7368 17.6437 21.5128 17.6757 21.2888 17.7397C21.0755 17.793 20.8835 17.8784 20.7128 17.9957C20.5422 18.113 20.4035 18.2624 20.2968 18.4437C20.2008 18.625 20.1528 18.8384 20.1528 19.0837V24.6517H18.4088ZM32.9221 23.2757H32.8421C32.6607 23.7664 32.3621 24.1504 31.9461 24.4277C31.5407 24.705 31.0607 24.8437 30.5061 24.8437C29.4501 24.8437 28.6341 24.465 28.0581 23.7077C27.4821 22.9397 27.1941 21.8677 27.1941 20.4917C27.1941 19.1157 27.4821 18.049 28.0581 17.2917C28.6341 16.5237 29.4501 16.1397 30.5061 16.1397C31.0607 16.1397 31.5407 16.2784 31.9461 16.5557C32.3621 16.8224 32.6607 17.2064 32.8421 17.7077H32.9221V12.8117H34.6661V24.6517H32.9221V23.2757ZM31.0341 23.3397C31.5674 23.3397 32.0154 23.2117 32.3781 22.9557C32.7407 22.689 32.9221 22.3424 32.9221 21.9157V19.0677C32.9221 18.641 32.7407 18.2997 32.3781 18.0437C32.0154 17.777 31.5674 17.6437 31.0341 17.6437C30.4261 17.6437 29.9407 17.841 29.5781 18.2357C29.2154 18.6197 29.0341 19.1317 29.0341 19.7717V21.2117C29.0341 21.8517 29.2154 22.369 29.5781 22.7637C29.9407 23.1477 30.4261 23.3397 31.0341 23.3397ZM47.0361 24.6517C46.5774 24.6517 46.2254 24.5237 45.9801 24.2677C45.7347 24.001 45.5854 23.665 45.5321 23.2597H45.4521C45.2921 23.7824 44.9987 24.177 44.5721 24.4437C44.1454 24.7104 43.6281 24.8437 43.0201 24.8437C42.1561 24.8437 41.4894 24.6197 41.0201 24.1717C40.5614 23.7237 40.3321 23.121 40.3321 22.3637C40.3321 21.5317 40.6307 20.9077 41.2281 20.4917C41.8361 20.0757 42.7214 19.8677 43.8841 19.8677H45.3881V19.1637C45.3881 18.6517 45.2494 18.257 44.9721 17.9797C44.6947 17.7024 44.2627 17.5637 43.6761 17.5637C43.1854 17.5637 42.7854 17.6704 42.4761 17.8837C42.1667 18.097 41.9054 18.369 41.6921 18.6997L40.6521 17.7557C40.9294 17.2864 41.3187 16.9024 41.8201 16.6037C42.3214 16.2944 42.9774 16.1397 43.7881 16.1397C44.8654 16.1397 45.6921 16.3904 46.2681 16.8917C46.8441 17.393 47.1321 18.113 47.1321 19.0517V23.2277H48.0121V24.6517H47.0361ZM43.5161 23.5157C44.0601 23.5157 44.5081 23.3984 44.8601 23.1637C45.2121 22.9184 45.3881 22.593 45.3881 22.1877V20.9877H43.9161C42.7107 20.9877 42.1081 21.361 42.1081 22.1077V22.3957C42.1081 22.769 42.2307 23.0517 42.4761 23.2437C42.7321 23.425 43.0787 23.5157 43.5161 23.5157ZM49.7213 24.6517V16.3317H51.4653V17.7077H51.5453C51.7267 17.2597 51.9987 16.8864 52.3613 16.5877C52.7347 16.289 53.2413 16.1397 53.8813 16.1397C54.7347 16.1397 55.396 16.4224 55.8653 16.9877C56.3453 17.5424 56.5853 18.337 56.5853 19.3717V24.6517H54.8413V19.5957C54.8413 18.2944 54.3187 17.6437 53.2733 17.6437C53.0493 17.6437 52.8253 17.6757 52.6013 17.7397C52.388 17.793 52.196 17.8784 52.0253 17.9957C51.8547 18.113 51.716 18.2624 51.6093 18.4437C51.5133 18.625 51.4653 18.8384 51.4653 19.0837V24.6517H49.7213ZM59.8826 14.8437C59.5199 14.8437 59.2532 14.7584 59.0826 14.5877C58.9226 14.417 58.8426 14.1984 58.8426 13.9317V13.6597C58.8426 13.393 58.9226 13.1744 59.0826 13.0037C59.2532 12.833 59.5199 12.7477 59.8826 12.7477C60.2452 12.7477 60.5066 12.833 60.6666 13.0037C60.8266 13.1744 60.9066 13.393 60.9066 13.6597V13.9317C60.9066 14.1984 60.8266 14.417 60.6666 14.5877C60.5066 14.7584 60.2452 14.8437 59.8826 14.8437ZM59.0026 16.3317H60.7466V24.6517H59.0026V16.3317ZM63.237 24.6517V16.3317H64.981V17.7077H65.061C65.1463 17.4944 65.2476 17.2917 65.365 17.0997C65.493 16.9077 65.6423 16.7424 65.813 16.6037C65.9943 16.4544 66.2023 16.3424 66.437 16.2677C66.6823 16.1824 66.965 16.1397 67.285 16.1397C67.8503 16.1397 68.3516 16.2784 68.789 16.5557C69.2263 16.833 69.5463 17.2597 69.749 17.8357H69.797C69.9463 17.3664 70.2343 16.9664 70.661 16.6357C71.0876 16.305 71.637 16.1397 72.309 16.1397C73.141 16.1397 73.7863 16.4224 74.245 16.9877C74.7036 17.5424 74.933 18.337 74.933 19.3717V24.6517H73.189V19.5797C73.189 18.9397 73.0663 18.4597 72.821 18.1397C72.5756 17.809 72.1863 17.6437 71.653 17.6437C71.429 17.6437 71.2156 17.6757 71.013 17.7397C70.8103 17.793 70.629 17.8784 70.469 17.9957C70.3196 18.113 70.197 18.2624 70.101 18.4437C70.005 18.625 69.957 18.833 69.957 19.0677V24.6517H68.213V19.5797C68.213 18.289 67.7063 17.6437 66.693 17.6437C66.4796 17.6437 66.2663 17.6757 66.053 17.7397C65.8503 17.793 65.669 17.8784 65.509 17.9957C65.349 18.113 65.221 18.2624 65.125 18.4437C65.029 18.625 64.981 18.833 64.981 19.0677V24.6517H63.237ZM83.4423 24.6517C82.9837 24.6517 82.6317 24.5237 82.3863 24.2677C82.141 24.001 81.9917 23.665 81.9383 23.2597H81.8583C81.6983 23.7824 81.405 24.177 80.9783 24.4437C80.5517 24.7104 80.0343 24.8437 79.4263 24.8437C78.5623 24.8437 77.8957 24.6197 77.4263 24.1717C76.9677 23.7237 76.7383 23.121 76.7383 22.3637C76.7383 21.5317 77.037 20.9077 77.6343 20.4917C78.2423 20.0757 79.1277 19.8677 80.2903 19.8677H81.7943V19.1637C81.7943 18.6517 81.6557 18.257 81.3783 17.9797C81.101 17.7024 80.669 17.5637 80.0823 17.5637C79.5917 17.5637 79.1917 17.6704 78.8823 17.8837C78.573 18.097 78.3117 18.369 78.0983 18.6997L77.0583 17.7557C77.3357 17.2864 77.725 16.9024 78.2263 16.6037C78.7277 16.2944 79.3837 16.1397 80.1943 16.1397C81.2717 16.1397 82.0983 16.3904 82.6743 16.8917C83.2503 17.393 83.5383 18.113 83.5383 19.0517V23.2277H84.4183V24.6517H83.4423ZM79.9223 23.5157C80.4663 23.5157 80.9143 23.3984 81.2663 23.1637C81.6183 22.9184 81.7943 22.593 81.7943 22.1877V20.9877H80.3223C79.117 20.9877 78.5143 21.361 78.5143 22.1077V22.3957C78.5143 22.769 78.637 23.0517 78.8823 23.2437C79.1383 23.425 79.485 23.5157 79.9223 23.5157ZM88.3847 24.6517C87.7767 24.6517 87.318 24.497 87.0087 24.1877C86.6994 23.8677 86.5447 23.4197 86.5447 22.8437V17.7557H85.2487V16.3317H85.9527C86.2407 16.3317 86.438 16.2677 86.5447 16.1397C86.662 16.0117 86.7207 15.8037 86.7207 15.5157V14.0597L88.2887 14.0597V16.3317H90.0327V17.7557H88.2887V23.2277H89.9047V24.6517H88.3847ZM92.8045 14.8437C92.4418 14.8437 92.1751 14.7584 92.0045 14.5877C91.8445 14.417 91.7645 14.1984 91.7645 13.9317V13.6597C91.7645 13.393 91.8445 13.1744 92.0045 13.0037C92.1751 12.833 92.4418 12.7477 92.8045 12.7477C93.1671 12.7477 93.4285 12.833 93.5885 13.0037C93.7485 13.1744 93.8285 13.393 93.8285 13.6597V13.9317C93.8285 14.1984 93.7485 14.417 93.5885 14.5877C93.4285 14.7584 93.1671 14.8437 92.8045 14.8437ZM91.9245 16.3317H93.6685V24.6517H91.9245V16.3317ZM99.4228 24.8437C98.8468 24.8437 98.3188 24.7424 97.8388 24.5397C97.3695 24.337 96.9695 24.049 96.6388 23.6757C96.3082 23.2917 96.0522 22.833 95.8708 22.2997C95.6895 21.7557 95.5988 21.153 95.5988 20.4917C95.5988 19.8304 95.6895 19.233 95.8708 18.6997C96.0522 18.1557 96.3082 17.697 96.6388 17.3237C96.9695 16.9397 97.3695 16.6464 97.8388 16.4437C98.3188 16.241 98.8468 16.1397 99.4228 16.1397C99.9988 16.1397 100.521 16.241 100.991 16.4437C101.471 16.6464 101.876 16.9397 102.207 17.3237C102.537 17.697 102.793 18.1557 102.975 18.6997C103.156 19.233 103.247 19.8304 103.247 20.4917C103.247 21.153 103.156 21.7557 102.975 22.2997C102.793 22.833 102.537 23.2917 102.207 23.6757C101.876 24.049 101.471 24.337 100.991 24.5397C100.521 24.7424 99.9988 24.8437 99.4228 24.8437ZM99.4228 23.4037C100.02 23.4037 100.5 23.2224 100.863 22.8597C101.225 22.4864 101.407 21.9317 101.407 21.1957V19.7877C101.407 19.0517 101.225 18.5024 100.863 18.1397C100.5 17.7664 100.02 17.5797 99.4228 17.5797C98.8255 17.5797 98.3455 17.7664 97.9828 18.1397C97.6202 18.5024 97.4388 19.0517 97.4388 19.7877V21.1957C97.4388 21.9317 97.6202 22.4864 97.9828 22.8597C98.3455 23.2224 98.8255 23.4037 99.4228 23.4037ZM105.19 24.6517V16.3317H106.934V17.7077H107.014C107.195 17.2597 107.467 16.8864 107.83 16.5877C108.203 16.289 108.71 16.1397 109.35 16.1397C110.203 16.1397 110.865 16.4224 111.334 16.9877C111.814 17.5424 112.054 18.337 112.054 19.3717V24.6517H110.31V19.5957C110.31 18.2944 109.787 17.6437 108.742 17.6437C108.518 17.6437 108.294 17.6757 108.07 17.7397C107.857 17.793 107.665 17.8784 107.494 17.9957C107.323 18.113 107.185 18.2624 107.078 18.4437C106.982 18.625 106.934 18.8384 106.934 19.0837V24.6517H105.19Z" fill="#181818"/>
</svg>
