<svg width="162" height="44" viewBox="0 0 162 44" fill="none" xmlns="http://www.w3.org/2000/svg">
<mask id="path-1-inside-1_55_496" fill="white">
<path fill-rule="evenodd" clip-rule="evenodd" d="M7 0C9.00451 0 10.7934 1.15939 12.3727 2.39379C14.1539 3.78595 16.5311 4.63599 19.1419 4.63599C21.4745 4.63599 23.6205 3.95747 25.3217 2.82004C27.3633 1.45502 29.5553 0 32.0112 0H154.245C158.111 0 161.245 3.13401 161.245 7V31.9618C161.245 35.8278 158.111 38.9618 154.245 38.9618L32.8824 38.9617C30.4493 38.9617 28.2623 40.3755 26.2452 41.7362C24.3302 43.0281 21.8322 43.8164 19.1024 43.8164C15.7071 43.8164 12.6783 42.5968 10.6827 40.7057C9.6645 39.7408 8.40279 38.9617 7.00001 38.9617C3.13402 38.9617 0 35.8277 0 31.9617V6.99999C0 3.134 3.13401 0 7 0Z"/>
</mask>
<path fill-rule="evenodd" clip-rule="evenodd" d="M7 0C9.00451 0 10.7934 1.15939 12.3727 2.39379C14.1539 3.78595 16.5311 4.63599 19.1419 4.63599C21.4745 4.63599 23.6205 3.95747 25.3217 2.82004C27.3633 1.45502 29.5553 0 32.0112 0H154.245C158.111 0 161.245 3.13401 161.245 7V31.9618C161.245 35.8278 158.111 38.9618 154.245 38.9618L32.8824 38.9617C30.4493 38.9617 28.2623 40.3755 26.2452 41.7362C24.3302 43.0281 21.8322 43.8164 19.1024 43.8164C15.7071 43.8164 12.6783 42.5968 10.6827 40.7057C9.6645 39.7408 8.40279 38.9617 7.00001 38.9617C3.13402 38.9617 0 35.8277 0 31.9617V6.99999C0 3.134 3.13401 0 7 0Z" fill="#CCB3F8"/>
<path d="M154.245 38.9618V37.4618V38.9618ZM32.8824 38.9617V37.4617V38.9617ZM12.3727 2.39379L11.449 3.57563L12.3727 2.39379ZM19.1419 3.13599C16.8538 3.13599 14.8045 2.3906 13.2964 1.21194L11.449 3.57563C13.5034 5.1813 16.2085 6.13599 19.1419 6.13599V3.13599ZM24.488 1.57308C23.0397 2.5414 21.1852 3.13599 19.1419 3.13599V6.13599C21.7637 6.13599 24.2013 5.37355 26.1554 4.06699L24.488 1.57308ZM154.245 -1.5H32.0112V1.5H154.245V-1.5ZM162.745 7C162.745 2.30558 158.939 -1.5 154.245 -1.5V1.5C157.282 1.5 159.745 3.96244 159.745 7H162.745ZM162.745 31.9618V7H159.745V31.9618H162.745ZM154.245 40.4618C158.939 40.4618 162.745 36.6562 162.745 31.9618H159.745C159.745 34.9993 157.282 37.4618 154.245 37.4618V40.4618ZM32.8824 40.4617L154.245 40.4618V37.4618L32.8824 37.4617V40.4617ZM25.4063 40.4927C23.752 41.6087 21.5492 42.3164 19.1024 42.3164V45.3164C22.1152 45.3164 24.9083 44.4475 27.0841 42.9797L25.4063 40.4927ZM19.1024 42.3164C16.0521 42.3164 13.4045 41.2185 11.7145 39.6169L9.65093 41.7945C11.9522 43.9752 15.3621 45.3164 19.1024 45.3164V42.3164ZM-1.5 31.9617C-1.5 36.6562 2.30559 40.4617 7.00001 40.4617V37.4617C3.96244 37.4617 1.5 34.9993 1.5 31.9617H-1.5ZM-1.5 6.99999V31.9617H1.5V6.99999H-1.5ZM7 -1.5C2.30558 -1.5 -1.5 2.30557 -1.5 6.99999H1.5C1.5 3.96243 3.96243 1.5 7 1.5V-1.5ZM32.8824 37.4617C29.9184 37.4617 27.3576 39.1764 25.4063 40.4927L27.0841 42.9797C29.1669 41.5746 30.9802 40.4617 32.8824 40.4617V37.4617ZM26.1554 4.06699C28.2844 2.64357 30.0912 1.5 32.0112 1.5V-1.5C29.0195 -1.5 26.4422 0.266466 24.488 1.57308L26.1554 4.06699ZM11.7145 39.6169C10.5789 38.5408 8.96256 37.4617 7.00001 37.4617V40.4617C7.84302 40.4617 8.7501 40.9408 9.65093 41.7945L11.7145 39.6169ZM7 1.5C8.44884 1.5 9.87917 2.34867 11.449 3.57563L13.2964 1.21194C11.7076 -0.0298763 9.56019 -1.5 7 -1.5V1.5Z" fill="#A67AF4" mask="url(#path-1-inside-1_55_496)"/>
<path d="M12.7822 24.8437C12.1849 24.8437 11.6515 24.7424 11.1822 24.5397C10.7129 24.337 10.3129 24.049 9.9822 23.6757C9.65153 23.2917 9.39553 22.833 9.2142 22.2997C9.04353 21.7557 8.9582 21.153 8.9582 20.4917C8.9582 19.8304 9.04353 19.233 9.2142 18.6997C9.39553 18.1557 9.65153 17.697 9.9822 17.3237C10.3129 16.9397 10.7129 16.6464 11.1822 16.4437C11.6515 16.241 12.1849 16.1397 12.7822 16.1397C13.3902 16.1397 13.9235 16.2464 14.3822 16.4597C14.8515 16.673 15.2409 16.9717 15.5502 17.3557C15.8595 17.729 16.0889 18.1664 16.2382 18.6677C16.3982 19.169 16.4782 19.7077 16.4782 20.2837V20.9397H10.7662V21.2117C10.7662 21.8517 10.9529 22.3797 11.3262 22.7957C11.7102 23.201 12.2542 23.4037 12.9582 23.4037C13.4702 23.4037 13.9022 23.2917 14.2542 23.0677C14.6062 22.8437 14.9049 22.5397 15.1502 22.1557L16.1742 23.1637C15.8649 23.6757 15.4169 24.0864 14.8302 24.3957C14.2435 24.6944 13.5609 24.8437 12.7822 24.8437ZM12.7822 17.4997C12.4835 17.4997 12.2062 17.553 11.9502 17.6597C11.7049 17.7664 11.4915 17.9157 11.3102 18.1077C11.1395 18.2997 11.0062 18.529 10.9102 18.7957C10.8142 19.0624 10.7662 19.3557 10.7662 19.6757V19.7877H14.6382V19.6277C14.6382 18.9877 14.4729 18.4757 14.1422 18.0917C13.8115 17.697 13.3582 17.4997 12.7822 17.4997ZM18.4088 24.6517V16.3317H20.1528V17.7077H20.2328C20.4142 17.2597 20.6862 16.8864 21.0488 16.5877C21.4222 16.289 21.9288 16.1397 22.5688 16.1397C23.4222 16.1397 24.0835 16.4224 24.5528 16.9877C25.0328 17.5424 25.2728 18.337 25.2728 19.3717V24.6517H23.5288V19.5957C23.5288 18.2944 23.0062 17.6437 21.9608 17.6437C21.7368 17.6437 21.5128 17.6757 21.2888 17.7397C21.0755 17.793 20.8835 17.8784 20.7128 17.9957C20.5422 18.113 20.4035 18.2624 20.2968 18.4437C20.2008 18.625 20.1528 18.8384 20.1528 19.0837V24.6517H18.4088ZM32.9221 23.2757H32.8421C32.6607 23.7664 32.3621 24.1504 31.9461 24.4277C31.5407 24.705 31.0607 24.8437 30.5061 24.8437C29.4501 24.8437 28.6341 24.465 28.0581 23.7077C27.4821 22.9397 27.1941 21.8677 27.1941 20.4917C27.1941 19.1157 27.4821 18.049 28.0581 17.2917C28.6341 16.5237 29.4501 16.1397 30.5061 16.1397C31.0607 16.1397 31.5407 16.2784 31.9461 16.5557C32.3621 16.8224 32.6607 17.2064 32.8421 17.7077H32.9221V12.8117H34.6661V24.6517H32.9221V23.2757ZM31.0341 23.3397C31.5674 23.3397 32.0154 23.2117 32.3781 22.9557C32.7407 22.689 32.9221 22.3424 32.9221 21.9157V19.0677C32.9221 18.641 32.7407 18.2997 32.3781 18.0437C32.0154 17.777 31.5674 17.6437 31.0341 17.6437C30.4261 17.6437 29.9407 17.841 29.5781 18.2357C29.2154 18.6197 29.0341 19.1317 29.0341 19.7717V21.2117C29.0341 21.8517 29.2154 22.369 29.5781 22.7637C29.9407 23.1477 30.4261 23.3397 31.0341 23.3397ZM43.2441 24.6517C42.6361 24.6517 42.1774 24.497 41.8681 24.1877C41.5587 23.8677 41.4041 23.4197 41.4041 22.8437V17.7557H40.1081V16.3317H40.8121C41.1001 16.3317 41.2974 16.2677 41.4041 16.1397C41.5214 16.0117 41.5801 15.8037 41.5801 15.5157V14.0597H43.1481V16.3317H44.8921V17.7557H43.1481V23.2277H44.7641V24.6517H43.2441ZM46.7838 24.6517V16.3317H48.5278V17.9317H48.6078C48.7252 17.505 48.9705 17.1317 49.3438 16.8117C49.7172 16.4917 50.2345 16.3317 50.8958 16.3317H51.3598V18.0117H50.6718C49.9785 18.0117 49.4452 18.1237 49.0718 18.3477C48.7092 18.5717 48.5278 18.9024 48.5278 19.3397V24.6517H46.7838ZM58.8798 24.6517C58.4212 24.6517 58.0692 24.5237 57.8238 24.2677C57.5785 24.001 57.4292 23.665 57.3758 23.2597H57.2958C57.1358 23.7824 56.8425 24.177 56.4158 24.4437C55.9892 24.7104 55.4718 24.8437 54.8638 24.8437C53.9998 24.8437 53.3332 24.6197 52.8638 24.1717C52.4052 23.7237 52.1758 23.121 52.1758 22.3637C52.1758 21.5317 52.4745 20.9077 53.0718 20.4917C53.6798 20.0757 54.5652 19.8677 55.7278 19.8677H57.2318V19.1637C57.2318 18.6517 57.0932 18.257 56.8158 17.9797C56.5385 17.7024 56.1065 17.5637 55.5198 17.5637C55.0292 17.5637 54.6292 17.6704 54.3198 17.8837C54.0105 18.097 53.7492 18.369 53.5358 18.6997L52.4958 17.7557C52.7732 17.2864 53.1625 16.9024 53.6638 16.6037C54.1652 16.2944 54.8212 16.1397 55.6318 16.1397C56.7092 16.1397 57.5358 16.3904 58.1118 16.8917C58.6878 17.393 58.9758 18.113 58.9758 19.0517V23.2277H59.8558V24.6517H58.8798ZM55.3598 23.5157C55.9038 23.5157 56.3518 23.3984 56.7038 23.1637C57.0558 22.9184 57.2318 22.593 57.2318 22.1877V20.9877H55.7598C54.5545 20.9877 53.9518 21.361 53.9518 22.1077V22.3957C53.9518 22.769 54.0745 23.0517 54.3198 23.2437C54.5758 23.425 54.9225 23.5157 55.3598 23.5157ZM62.4451 14.8437C62.0824 14.8437 61.8157 14.7584 61.6451 14.5877C61.4851 14.417 61.4051 14.1984 61.4051 13.9317V13.6597C61.4051 13.393 61.4851 13.1744 61.6451 13.0037C61.8157 12.833 62.0824 12.7477 62.4451 12.7477C62.8077 12.7477 63.0691 12.833 63.2291 13.0037C63.3891 13.1744 63.4691 13.393 63.4691 13.6597V13.9317C63.4691 14.1984 63.3891 14.417 63.2291 14.5877C63.0691 14.7584 62.8077 14.8437 62.4451 14.8437ZM61.5651 16.3317H63.3091V24.6517H61.5651V16.3317ZM67.5754 24.6517C66.9781 24.6517 66.5301 24.5024 66.2314 24.2037C65.9434 23.8944 65.7994 23.4677 65.7994 22.9237V12.8117H67.5434V23.2277H68.6954V24.6517H67.5754Z" fill="#181818"/>
</svg>
