<svg width="162" height="44" viewBox="0 0 162 44" fill="none" xmlns="http://www.w3.org/2000/svg">
<mask id="path-1-inside-1_55_508" fill="white">
<path fill-rule="evenodd" clip-rule="evenodd" d="M7 0C9.00451 0 10.7934 1.15939 12.3727 2.39379C14.1539 3.78595 16.5311 4.63599 19.1419 4.63599C21.4745 4.63599 23.6205 3.95747 25.3217 2.82004C27.3633 1.45502 29.5553 0 32.0112 0H154.245C158.111 0 161.245 3.13401 161.245 7V31.9618C161.245 35.8278 158.111 38.9618 154.245 38.9618L32.8824 38.9617C30.4493 38.9617 28.2623 40.3755 26.2452 41.7362C24.3302 43.0281 21.8322 43.8164 19.1024 43.8164C15.7071 43.8164 12.6783 42.5968 10.6827 40.7057C9.6645 39.7408 8.40279 38.9617 7.00001 38.9617C3.13402 38.9617 0 35.8277 0 31.9617V6.99999C0 3.134 3.13401 0 7 0Z"/>
</mask>
<path fill-rule="evenodd" clip-rule="evenodd" d="M7 0C9.00451 0 10.7934 1.15939 12.3727 2.39379C14.1539 3.78595 16.5311 4.63599 19.1419 4.63599C21.4745 4.63599 23.6205 3.95747 25.3217 2.82004C27.3633 1.45502 29.5553 0 32.0112 0H154.245C158.111 0 161.245 3.13401 161.245 7V31.9618C161.245 35.8278 158.111 38.9618 154.245 38.9618L32.8824 38.9617C30.4493 38.9617 28.2623 40.3755 26.2452 41.7362C24.3302 43.0281 21.8322 43.8164 19.1024 43.8164C15.7071 43.8164 12.6783 42.5968 10.6827 40.7057C9.6645 39.7408 8.40279 38.9617 7.00001 38.9617C3.13402 38.9617 0 35.8277 0 31.9617V6.99999C0 3.134 3.13401 0 7 0Z" fill="#CCB3F8"/>
<path d="M154.245 38.9618V37.4618V38.9618ZM32.8824 38.9617V37.4617V38.9617ZM12.3727 2.39379L11.449 3.57563L12.3727 2.39379ZM19.1419 3.13599C16.8538 3.13599 14.8045 2.3906 13.2964 1.21194L11.449 3.57563C13.5034 5.1813 16.2085 6.13599 19.1419 6.13599V3.13599ZM24.488 1.57308C23.0397 2.5414 21.1852 3.13599 19.1419 3.13599V6.13599C21.7637 6.13599 24.2013 5.37355 26.1554 4.06699L24.488 1.57308ZM154.245 -1.5H32.0112V1.5H154.245V-1.5ZM162.745 7C162.745 2.30558 158.939 -1.5 154.245 -1.5V1.5C157.282 1.5 159.745 3.96244 159.745 7H162.745ZM162.745 31.9618V7H159.745V31.9618H162.745ZM154.245 40.4618C158.939 40.4618 162.745 36.6562 162.745 31.9618H159.745C159.745 34.9993 157.282 37.4618 154.245 37.4618V40.4618ZM32.8824 40.4617L154.245 40.4618V37.4618L32.8824 37.4617V40.4617ZM25.4063 40.4927C23.752 41.6087 21.5492 42.3164 19.1024 42.3164V45.3164C22.1152 45.3164 24.9083 44.4475 27.0841 42.9797L25.4063 40.4927ZM19.1024 42.3164C16.0521 42.3164 13.4045 41.2185 11.7145 39.6169L9.65093 41.7945C11.9522 43.9752 15.3621 45.3164 19.1024 45.3164V42.3164ZM-1.5 31.9617C-1.5 36.6562 2.30559 40.4617 7.00001 40.4617V37.4617C3.96244 37.4617 1.5 34.9993 1.5 31.9617H-1.5ZM-1.5 6.99999V31.9617H1.5V6.99999H-1.5ZM7 -1.5C2.30558 -1.5 -1.5 2.30557 -1.5 6.99999H1.5C1.5 3.96243 3.96243 1.5 7 1.5V-1.5ZM32.8824 37.4617C29.9184 37.4617 27.3576 39.1764 25.4063 40.4927L27.0841 42.9797C29.1669 41.5746 30.9802 40.4617 32.8824 40.4617V37.4617ZM26.1554 4.06699C28.2844 2.64357 30.0912 1.5 32.0112 1.5V-1.5C29.0195 -1.5 26.4422 0.266466 24.488 1.57308L26.1554 4.06699ZM11.7145 39.6169C10.5789 38.5408 8.96256 37.4617 7.00001 37.4617V40.4617C7.84302 40.4617 8.7501 40.9408 9.65093 41.7945L11.7145 39.6169ZM7 1.5C8.44884 1.5 9.87917 2.34867 11.449 3.57563L13.2964 1.21194C11.7076 -0.0298763 9.56019 -1.5 7 -1.5V1.5Z" fill="#A67AF4" mask="url(#path-1-inside-1_55_508)"/>
<path d="M12.1582 24.8437C11.3689 24.8437 10.7075 24.705 10.1742 24.4277C9.64086 24.1504 9.17686 23.7664 8.7822 23.2757L9.9022 22.2517C10.2115 22.625 10.5529 22.9184 10.9262 23.1317C11.3102 23.3344 11.7529 23.4357 12.2542 23.4357C12.7662 23.4357 13.1449 23.3397 13.3902 23.1477C13.6462 22.945 13.7742 22.6677 13.7742 22.3157C13.7742 22.049 13.6835 21.825 13.5022 21.6437C13.3315 21.4517 13.0275 21.329 12.5902 21.2757L11.8222 21.1797C10.9689 21.073 10.2969 20.8277 9.8062 20.4437C9.3262 20.049 9.0862 19.4677 9.0862 18.6997C9.0862 18.2944 9.16086 17.937 9.3102 17.6277C9.45953 17.3077 9.66753 17.041 9.9342 16.8277C10.2115 16.6037 10.5369 16.433 10.9102 16.3157C11.2942 16.1984 11.7155 16.1397 12.1742 16.1397C12.9209 16.1397 13.5289 16.257 13.9982 16.4917C14.4782 16.7264 14.9049 17.0517 15.2782 17.4677L14.2062 18.4917C13.9929 18.2357 13.7102 18.017 13.3582 17.8357C13.0169 17.6437 12.6222 17.5477 12.1742 17.5477C11.6942 17.5477 11.3369 17.6437 11.1022 17.8357C10.8782 18.0277 10.7662 18.2784 10.7662 18.5877C10.7662 18.9077 10.8675 19.1477 11.0702 19.3077C11.2729 19.4677 11.5982 19.585 12.0462 19.6597L12.8142 19.7557C13.7315 19.8944 14.3982 20.1664 14.8142 20.5717C15.2409 20.9664 15.4542 21.4997 15.4542 22.1717C15.4542 22.577 15.3742 22.945 15.2142 23.2757C15.0649 23.5957 14.8462 23.873 14.5582 24.1077C14.2702 24.3424 13.9235 24.5237 13.5182 24.6517C13.1129 24.7797 12.6595 24.8437 12.1582 24.8437ZM19.6191 24.6517C19.0111 24.6517 18.5524 24.497 18.2431 24.1877C17.9337 23.8677 17.7791 23.4197 17.7791 22.8437V17.7557H16.4831V16.3317H17.1871C17.4751 16.3317 17.6724 16.2677 17.7791 16.1397C17.8964 16.0117 17.9551 15.8037 17.9551 15.5157V14.0597H19.5231V16.3317H21.2671V17.7557H19.5231V23.2277H21.1391V24.6517H19.6191ZM29.2548 24.6517C28.7962 24.6517 28.4442 24.5237 28.1988 24.2677C27.9535 24.001 27.8042 23.665 27.7508 23.2597H27.6708C27.5108 23.7824 27.2175 24.177 26.7908 24.4437C26.3642 24.7104 25.8468 24.8437 25.2388 24.8437C24.3748 24.8437 23.7082 24.6197 23.2388 24.1717C22.7802 23.7237 22.5508 23.121 22.5508 22.3637C22.5508 21.5317 22.8495 20.9077 23.4468 20.4917C24.0548 20.0757 24.9402 19.8677 26.1028 19.8677H27.6068V19.1637C27.6068 18.6517 27.4682 18.257 27.1908 17.9797C26.9135 17.7024 26.4815 17.5637 25.8948 17.5637C25.4042 17.5637 25.0042 17.6704 24.6948 17.8837C24.3855 18.097 24.1242 18.369 23.9108 18.6997L22.8708 17.7557C23.1482 17.2864 23.5375 16.9024 24.0388 16.6037C24.5402 16.2944 25.1962 16.1397 26.0068 16.1397C27.0842 16.1397 27.9108 16.3904 28.4868 16.8917C29.0628 17.393 29.3508 18.113 29.3508 19.0517V23.2277H30.2308V24.6517H29.2548ZM25.7348 23.5157C26.2788 23.5157 26.7268 23.3984 27.0788 23.1637C27.4308 22.9184 27.6068 22.593 27.6068 22.1877V20.9877H26.1348C24.9295 20.9877 24.3268 21.361 24.3268 22.1077V22.3957C24.3268 22.769 24.4495 23.0517 24.6948 23.2437C24.9508 23.425 25.2975 23.5157 25.7348 23.5157ZM31.9401 24.6517V16.3317H33.6841V17.9317H33.7641C33.8814 17.505 34.1267 17.1317 34.5001 16.8117C34.8734 16.4917 35.3907 16.3317 36.0521 16.3317H36.5161V18.0117H35.8281C35.1347 18.0117 34.6014 18.1237 34.2281 18.3477C33.8654 18.5717 33.6841 18.9024 33.6841 19.3397V24.6517H31.9401ZM40.4316 24.6517C39.8236 24.6517 39.3649 24.497 39.0556 24.1877C38.7462 23.8677 38.5916 23.4197 38.5916 22.8437V17.7557H37.2956V16.3317H37.9996C38.2876 16.3317 38.4849 16.2677 38.5916 16.1397C38.7089 16.0117 38.7676 15.8037 38.7676 15.5157V14.0597H40.3356V16.3317H42.0796V17.7557H40.3356V23.2277H41.9516V24.6517H40.4316ZM50.0566 24.6517C49.4486 24.6517 48.9899 24.497 48.6806 24.1877C48.3712 23.8677 48.2166 23.4197 48.2166 22.8437V17.7557H46.9206V16.3317H47.6246C47.9126 16.3317 48.1099 16.2677 48.2166 16.1397C48.3339 16.0117 48.3926 15.8037 48.3926 15.5157V14.0597H49.9606V16.3317H51.7046V17.7557H49.9606V23.2277H51.5766V24.6517H50.0566ZM53.5963 24.6517V16.3317H55.3403V17.9317H55.4203C55.5377 17.505 55.783 17.1317 56.1563 16.8117C56.5297 16.4917 57.047 16.3317 57.7083 16.3317H58.1723V18.0117H57.4843C56.791 18.0117 56.2577 18.1237 55.8843 18.3477C55.5217 18.5717 55.3403 18.9024 55.3403 19.3397V24.6517H53.5963ZM65.6923 24.6517C65.2337 24.6517 64.8817 24.5237 64.6363 24.2677C64.391 24.001 64.2417 23.665 64.1883 23.2597H64.1083C63.9483 23.7824 63.655 24.177 63.2283 24.4437C62.8017 24.7104 62.2843 24.8437 61.6763 24.8437C60.8123 24.8437 60.1457 24.6197 59.6763 24.1717C59.2177 23.7237 58.9883 23.121 58.9883 22.3637C58.9883 21.5317 59.287 20.9077 59.8843 20.4917C60.4923 20.0757 61.3777 19.8677 62.5403 19.8677H64.0443V19.1637C64.0443 18.6517 63.9057 18.257 63.6283 17.9797C63.351 17.7024 62.919 17.5637 62.3323 17.5637C61.8417 17.5637 61.4417 17.6704 61.1323 17.8837C60.823 18.097 60.5617 18.369 60.3483 18.6997L59.3083 17.7557C59.5857 17.2864 59.975 16.9024 60.4763 16.6037C60.9777 16.2944 61.6337 16.1397 62.4443 16.1397C63.5217 16.1397 64.3483 16.3904 64.9243 16.8917C65.5003 17.393 65.7883 18.113 65.7883 19.0517V23.2277H66.6683V24.6517H65.6923ZM62.1723 23.5157C62.7163 23.5157 63.1643 23.3984 63.5163 23.1637C63.8683 22.9184 64.0443 22.593 64.0443 22.1877V20.9877H62.5723C61.367 20.9877 60.7643 21.361 60.7643 22.1077V22.3957C60.7643 22.769 60.887 23.0517 61.1323 23.2437C61.3883 23.425 61.735 23.5157 62.1723 23.5157ZM69.2576 14.8437C68.8949 14.8437 68.6282 14.7584 68.4576 14.5877C68.2976 14.417 68.2176 14.1984 68.2176 13.9317V13.6597C68.2176 13.393 68.2976 13.1744 68.4576 13.0037C68.6282 12.833 68.8949 12.7477 69.2576 12.7477C69.6202 12.7477 69.8816 12.833 70.0416 13.0037C70.2016 13.1744 70.2816 13.393 70.2816 13.6597V13.9317C70.2816 14.1984 70.2016 14.417 70.0416 14.5877C69.8816 14.7584 69.6202 14.8437 69.2576 14.8437ZM68.3776 16.3317H70.1216V24.6517H68.3776V16.3317ZM74.3879 24.6517C73.7906 24.6517 73.3426 24.5024 73.0439 24.2037C72.7559 23.8944 72.6119 23.4677 72.6119 22.9237V12.8117H74.3559V23.2277H75.5079V24.6517H74.3879Z" fill="#181818"/>
</svg>
