<svg width="162" height="44" viewBox="0 0 162 44" fill="none" xmlns="http://www.w3.org/2000/svg">
<mask id="path-1-inside-1_4631_26" fill="white">
<path fill-rule="evenodd" clip-rule="evenodd" d="M161.245 7C161.245 3.13414 158.111 0.000211189 154.245 0H32.0066C29.5513 0 27.3598 1.45435 25.319 2.81952C23.6187 3.95699 21.4738 4.63574 19.1416 4.63574C16.5327 4.63568 14.1581 3.78635 12.3781 2.39563C10.797 1.16039 9.00641 0 7 0C3.13401 0 0 3.13401 0 7V31.9619C9.48103e-05 35.8278 3.13407 38.9619 7 38.9619C8.40286 38.9619 9.66464 39.741 10.6829 40.7059C12.6786 42.5969 15.7073 43.8164 19.1024 43.8164C21.8322 43.8164 24.3301 43.0281 26.2451 41.7363C28.2621 40.3756 30.4491 38.9619 32.8822 38.9619H154.245C158.111 38.9617 161.245 35.8277 161.245 31.9619V7Z"/>
</mask>
<path fill-rule="evenodd" clip-rule="evenodd" d="M161.245 7C161.245 3.13414 158.111 0.000211189 154.245 0H32.0066C29.5513 0 27.3598 1.45435 25.319 2.81952C23.6187 3.95699 21.4738 4.63574 19.1416 4.63574C16.5327 4.63568 14.1581 3.78635 12.3781 2.39563C10.797 1.16039 9.00641 0 7 0C3.13401 0 0 3.13401 0 7V31.9619C9.48103e-05 35.8278 3.13407 38.9619 7 38.9619C8.40286 38.9619 9.66464 39.741 10.6829 40.7059C12.6786 42.5969 15.7073 43.8164 19.1024 43.8164C21.8322 43.8164 24.3301 43.0281 26.2451 41.7363C28.2621 40.3756 30.4491 38.9619 32.8822 38.9619H154.245C158.111 38.9617 161.245 35.8277 161.245 31.9619V7Z" fill="#CCB3F8"/>
<path d="M154.245 0L154.245 -1.5H154.245V0ZM19.1416 4.63574L19.1416 6.13574H19.1416V4.63574ZM0 31.9619L-1.5 31.9619L-1.5 31.962L0 31.9619ZM7 38.9619L7 40.4619H7V38.9619ZM154.245 38.9619L154.245 40.4619L154.245 40.4619L154.245 38.9619ZM161.245 31.9619L162.745 31.9619V31.9619H161.245ZM10.6829 40.7059L11.7147 39.6171L10.6829 40.7059ZM25.319 2.81952L24.485 1.57276L25.319 2.81952ZM154.245 0L154.245 1.5C157.283 1.50017 159.745 3.96265 159.745 7H161.245H162.745C162.745 2.30563 158.939 -1.49974 154.245 -1.5L154.245 0ZM32.0066 0V1.5H154.245V0V-1.5H32.0066V0ZM19.1416 4.63574V6.13574C21.7633 6.13574 24.1998 5.37292 26.1531 4.06629L25.319 2.81952L24.485 1.57276C23.0375 2.54105 21.1842 3.13574 19.1416 3.13574V4.63574ZM12.3781 2.39563L11.4546 3.57766C13.5076 5.18165 16.21 6.13567 19.1416 6.13574L19.1416 4.63574L19.1416 3.13574C16.8555 3.13569 14.8086 2.39105 13.3015 1.2136L12.3781 2.39563ZM0 7H1.5C1.5 3.96243 3.96243 1.5 7 1.5V0V-1.5C2.30558 -1.5 -1.5 2.30558 -1.5 7H0ZM0 31.9619H1.5V7H0H-1.5V31.9619H0ZM7 38.9619L7 37.4619C3.96253 37.4619 1.50007 34.9994 1.5 31.9619L0 31.9619L-1.5 31.962C-1.49988 36.6562 2.30561 40.4619 7 40.4619L7 38.9619ZM19.1024 43.8164V42.3164C16.0523 42.3164 13.4047 41.2185 11.7147 39.6171L10.6829 40.7059L9.6512 41.7947C11.9524 43.9753 15.3622 45.3164 19.1024 45.3164V43.8164ZM26.2451 41.7363L25.4063 40.4927C23.752 41.6087 21.5492 42.3164 19.1024 42.3164V43.8164V45.3164C22.1152 45.3164 24.9082 44.4475 27.084 42.9798L26.2451 41.7363ZM154.245 38.9619V37.4619H32.8822V38.9619V40.4619H154.245V38.9619ZM161.245 31.9619L159.745 31.9619C159.745 34.9992 157.282 37.4618 154.245 37.4619L154.245 38.9619L154.245 40.4619C158.939 40.4617 162.745 36.6562 162.745 31.9619L161.245 31.9619ZM161.245 7H159.745V31.9619H161.245H162.745V7H161.245ZM26.2451 41.7363L27.084 42.9798C29.1668 41.5748 30.98 40.4619 32.8822 40.4619V38.9619V37.4619C29.9183 37.4619 27.3575 39.1765 25.4063 40.4927L26.2451 41.7363ZM7 38.9619V40.4619C7.84311 40.4619 8.75027 40.941 9.6512 41.7947L10.6829 40.7059L11.7147 39.6171C10.579 38.541 8.96261 37.4619 7 37.4619V38.9619ZM12.3781 2.39563L13.3015 1.2136C11.7111 -0.0289488 9.562 -1.5 7 -1.5V0V1.5C8.45082 1.5 9.88284 2.34972 11.4546 3.57766L12.3781 2.39563ZM32.0066 0V-1.5C29.0154 -1.5 26.4389 0.265739 24.485 1.57276L25.319 2.81952L26.1531 4.06629C28.2808 2.64296 30.0872 1.5 32.0066 1.5V0Z" fill="#A67AF4" mask="url(#path-1-inside-1_4631_26)"/>
<rect x="121.481" y="7.65161" width="37.1555" height="24" rx="12" fill="#FCFAF3"/>
<path d="M12.1582 24.8437C11.3689 24.8437 10.7075 24.705 10.1742 24.4277C9.64087 24.1504 9.17687 23.7664 8.7822 23.2757L9.9022 22.2517C10.2115 22.625 10.5529 22.9184 10.9262 23.1317C11.3102 23.3344 11.7529 23.4357 12.2542 23.4357C12.7662 23.4357 13.1449 23.3397 13.3902 23.1477C13.6462 22.945 13.7742 22.6677 13.7742 22.3157C13.7742 22.049 13.6835 21.825 13.5022 21.6437C13.3315 21.4517 13.0275 21.329 12.5902 21.2757L11.8222 21.1797C10.9689 21.073 10.2969 20.8277 9.8062 20.4437C9.3262 20.049 9.0862 19.4677 9.0862 18.6997C9.0862 18.2944 9.16087 17.937 9.3102 17.6277C9.45954 17.3077 9.66754 17.041 9.9342 16.8277C10.2115 16.6037 10.5369 16.433 10.9102 16.3157C11.2942 16.1984 11.7155 16.1397 12.1742 16.1397C12.9209 16.1397 13.5289 16.257 13.9982 16.4917C14.4782 16.7264 14.9049 17.0517 15.2782 17.4677L14.2062 18.4917C13.9929 18.2357 13.7102 18.017 13.3582 17.8357C13.0169 17.6437 12.6222 17.5477 12.1742 17.5477C11.6942 17.5477 11.3369 17.6437 11.1022 17.8357C10.8782 18.0277 10.7662 18.2784 10.7662 18.5877C10.7662 18.9077 10.8675 19.1477 11.0702 19.3077C11.2729 19.4677 11.5982 19.585 12.0462 19.6597L12.8142 19.7557C13.7315 19.8944 14.3982 20.1664 14.8142 20.5717C15.2409 20.9664 15.4542 21.4997 15.4542 22.1717C15.4542 22.577 15.3742 22.945 15.2142 23.2757C15.0649 23.5957 14.8462 23.873 14.5582 24.1077C14.2702 24.3424 13.9235 24.5237 13.5182 24.6517C13.1129 24.7797 12.6595 24.8437 12.1582 24.8437ZM19.6191 24.6517C19.0111 24.6517 18.5524 24.497 18.2431 24.1877C17.9337 23.8677 17.7791 23.4197 17.7791 22.8437V17.7557H16.4831V16.3317H17.1871C17.4751 16.3317 17.6724 16.2677 17.7791 16.1397C17.8964 16.0117 17.9551 15.8037 17.9551 15.5157V14.0597H19.5231V16.3317H21.2671V17.7557H19.5231V23.2277H21.1391V24.6517H19.6191ZM29.2548 24.6517C28.7962 24.6517 28.4442 24.5237 28.1988 24.2677C27.9535 24.001 27.8042 23.665 27.7508 23.2597H27.6708C27.5108 23.7824 27.2175 24.177 26.7908 24.4437C26.3642 24.7104 25.8468 24.8437 25.2388 24.8437C24.3748 24.8437 23.7082 24.6197 23.2388 24.1717C22.7802 23.7237 22.5508 23.121 22.5508 22.3637C22.5508 21.5317 22.8495 20.9077 23.4468 20.4917C24.0548 20.0757 24.9402 19.8677 26.1028 19.8677H27.6068V19.1637C27.6068 18.6517 27.4682 18.257 27.1908 17.9797C26.9135 17.7024 26.4815 17.5637 25.8948 17.5637C25.4042 17.5637 25.0042 17.6704 24.6948 17.8837C24.3855 18.097 24.1242 18.369 23.9108 18.6997L22.8708 17.7557C23.1482 17.2864 23.5375 16.9024 24.0388 16.6037C24.5402 16.2944 25.1962 16.1397 26.0068 16.1397C27.0842 16.1397 27.9108 16.3904 28.4868 16.8917C29.0628 17.393 29.3508 18.113 29.3508 19.0517V23.2277H30.2308V24.6517H29.2548ZM25.7348 23.5157C26.2788 23.5157 26.7268 23.3984 27.0788 23.1637C27.4308 22.9184 27.6068 22.593 27.6068 22.1877V20.9877H26.1348C24.9295 20.9877 24.3268 21.361 24.3268 22.1077V22.3957C24.3268 22.769 24.4495 23.0517 24.6948 23.2437C24.9508 23.425 25.2975 23.5157 25.7348 23.5157ZM31.9401 24.6517V16.3317H33.6841V17.9317H33.7641C33.8814 17.505 34.1267 17.1317 34.5001 16.8117C34.8734 16.4917 35.3907 16.3317 36.0521 16.3317H36.5161V18.0117H35.8281C35.1347 18.0117 34.6014 18.1237 34.2281 18.3477C33.8654 18.5717 33.6841 18.9024 33.6841 19.3397V24.6517H31.9401ZM40.4316 24.6517C39.8236 24.6517 39.3649 24.497 39.0556 24.1877C38.7462 23.8677 38.5916 23.4197 38.5916 22.8437V17.7557H37.2956V16.3317H37.9996C38.2876 16.3317 38.4849 16.2677 38.5916 16.1397C38.7089 16.0117 38.7676 15.8037 38.7676 15.5157V14.0597H40.3356V16.3317H42.0796V17.7557H40.3356V23.2277H41.9516V24.6517H40.4316ZM53.8486 24.6517C53.3899 24.6517 53.0379 24.5237 52.7926 24.2677C52.5472 24.001 52.3979 23.665 52.3446 23.2597H52.2646C52.1046 23.7824 51.8112 24.177 51.3846 24.4437C50.9579 24.7104 50.4406 24.8437 49.8326 24.8437C48.9686 24.8437 48.3019 24.6197 47.8326 24.1717C47.3739 23.7237 47.1446 23.121 47.1446 22.3637C47.1446 21.5317 47.4432 20.9077 48.0406 20.4917C48.6486 20.0757 49.5339 19.8677 50.6966 19.8677H52.2006V19.1637C52.2006 18.6517 52.0619 18.257 51.7846 17.9797C51.5072 17.7024 51.0752 17.5637 50.4886 17.5637C49.9979 17.5637 49.5979 17.6704 49.2886 17.8837C48.9792 18.097 48.7179 18.369 48.5046 18.6997L47.4646 17.7557C47.7419 17.2864 48.1312 16.9024 48.6326 16.6037C49.1339 16.2944 49.7899 16.1397 50.6006 16.1397C51.6779 16.1397 52.5046 16.3904 53.0806 16.8917C53.6566 17.393 53.9446 18.113 53.9446 19.0517V23.2277H54.8246V24.6517H53.8486ZM50.3286 23.5157C50.8726 23.5157 51.3206 23.3984 51.6726 23.1637C52.0246 22.9184 52.2006 22.593 52.2006 22.1877V20.9877H50.7286C49.5232 20.9877 48.9206 21.361 48.9206 22.1077V22.3957C48.9206 22.769 49.0432 23.0517 49.2886 23.2437C49.5446 23.425 49.8912 23.5157 50.3286 23.5157ZM56.5338 24.6517V16.3317H58.2778V17.7077H58.3578C58.5392 17.2597 58.8112 16.8864 59.1738 16.5877C59.5472 16.289 60.0538 16.1397 60.6938 16.1397C61.5472 16.1397 62.2085 16.4224 62.6778 16.9877C63.1578 17.5424 63.3978 18.337 63.3978 19.3717V24.6517H61.6538V19.5957C61.6538 18.2944 61.1312 17.6437 60.0858 17.6437C59.8618 17.6437 59.6378 17.6757 59.4138 17.7397C59.2005 17.793 59.0085 17.8784 58.8378 17.9957C58.6672 18.113 58.5285 18.2624 58.4218 18.4437C58.3258 18.625 58.2778 18.8384 58.2778 19.0837V24.6517H56.5338ZM66.6951 14.8437C66.3324 14.8437 66.0657 14.7584 65.8951 14.5877C65.7351 14.417 65.6551 14.1984 65.6551 13.9317V13.6597C65.6551 13.393 65.7351 13.1744 65.8951 13.0037C66.0657 12.833 66.3324 12.7477 66.6951 12.7477C67.0577 12.7477 67.3191 12.833 67.4791 13.0037C67.6391 13.1744 67.7191 13.393 67.7191 13.6597V13.9317C67.7191 14.1984 67.6391 14.417 67.4791 14.5877C67.3191 14.7584 67.0577 14.8437 66.6951 14.8437ZM65.8151 16.3317H67.5591V24.6517H65.8151V16.3317ZM70.0495 24.6517V16.3317H71.7935V17.7077H71.8735C71.9588 17.4944 72.0601 17.2917 72.1775 17.0997C72.3055 16.9077 72.4548 16.7424 72.6255 16.6037C72.8068 16.4544 73.0148 16.3424 73.2495 16.2677C73.4948 16.1824 73.7775 16.1397 74.0975 16.1397C74.6628 16.1397 75.1641 16.2784 75.6015 16.5557C76.0388 16.833 76.3588 17.2597 76.5615 17.8357H76.6095C76.7588 17.3664 77.0468 16.9664 77.4735 16.6357C77.9001 16.305 78.4495 16.1397 79.1215 16.1397C79.9535 16.1397 80.5988 16.4224 81.0575 16.9877C81.5161 17.5424 81.7455 18.337 81.7455 19.3717V24.6517H80.0015V19.5797C80.0015 18.9397 79.8788 18.4597 79.6335 18.1397C79.3881 17.809 78.9988 17.6437 78.4655 17.6437C78.2415 17.6437 78.0281 17.6757 77.8255 17.7397C77.6228 17.793 77.4415 17.8784 77.2815 17.9957C77.1321 18.113 77.0095 18.2624 76.9135 18.4437C76.8175 18.625 76.7695 18.833 76.7695 19.0677V24.6517H75.0255V19.5797C75.0255 18.289 74.5188 17.6437 73.5055 17.6437C73.2921 17.6437 73.0788 17.6757 72.8655 17.7397C72.6628 17.793 72.4815 17.8784 72.3215 17.9957C72.1615 18.113 72.0335 18.2624 71.9375 18.4437C71.8415 18.625 71.7935 18.833 71.7935 19.0677V24.6517H70.0495ZM90.2548 24.6517C89.7962 24.6517 89.4442 24.5237 89.1988 24.2677C88.9535 24.001 88.8042 23.665 88.7508 23.2597H88.6708C88.5108 23.7824 88.2175 24.177 87.7908 24.4437C87.3642 24.7104 86.8468 24.8437 86.2388 24.8437C85.3748 24.8437 84.7082 24.6197 84.2388 24.1717C83.7802 23.7237 83.5508 23.121 83.5508 22.3637C83.5508 21.5317 83.8495 20.9077 84.4468 20.4917C85.0548 20.0757 85.9402 19.8677 87.1028 19.8677H88.6068V19.1637C88.6068 18.6517 88.4682 18.257 88.1908 17.9797C87.9135 17.7024 87.4815 17.5637 86.8948 17.5637C86.4042 17.5637 86.0042 17.6704 85.6948 17.8837C85.3855 18.097 85.1242 18.369 84.9108 18.6997L83.8708 17.7557C84.1482 17.2864 84.5375 16.9024 85.0388 16.6037C85.5402 16.2944 86.1962 16.1397 87.0068 16.1397C88.0842 16.1397 88.9108 16.3904 89.4868 16.8917C90.0628 17.393 90.3508 18.113 90.3508 19.0517V23.2277H91.2308V24.6517H90.2548ZM86.7348 23.5157C87.2788 23.5157 87.7268 23.3984 88.0788 23.1637C88.4308 22.9184 88.6068 22.593 88.6068 22.1877V20.9877H87.1348C85.9295 20.9877 85.3268 21.361 85.3268 22.1077V22.3957C85.3268 22.769 85.4495 23.0517 85.6948 23.2437C85.9508 23.425 86.2975 23.5157 86.7348 23.5157ZM95.1972 24.6517C94.5892 24.6517 94.1305 24.497 93.8212 24.1877C93.5119 23.8677 93.3572 23.4197 93.3572 22.8437V17.7557H92.0612V16.3317H92.7652C93.0532 16.3317 93.2505 16.2677 93.3572 16.1397C93.4745 16.0117 93.5332 15.8037 93.5332 15.5157V14.0597H95.1012V16.3317H96.8452V17.7557H95.1012V23.2277H96.7172V24.6517H95.1972ZM99.617 14.8437C99.2543 14.8437 98.9876 14.7584 98.817 14.5877C98.657 14.417 98.577 14.1984 98.577 13.9317V13.6597C98.577 13.393 98.657 13.1744 98.817 13.0037C98.9876 12.833 99.2543 12.7477 99.617 12.7477C99.9796 12.7477 100.241 12.833 100.401 13.0037C100.561 13.1744 100.641 13.393 100.641 13.6597V13.9317C100.641 14.1984 100.561 14.417 100.401 14.5877C100.241 14.7584 99.9796 14.8437 99.617 14.8437ZM98.737 16.3317H100.481V24.6517H98.737V16.3317ZM106.235 24.8437C105.659 24.8437 105.131 24.7424 104.651 24.5397C104.182 24.337 103.782 24.049 103.451 23.6757C103.121 23.2917 102.865 22.833 102.683 22.2997C102.502 21.7557 102.411 21.153 102.411 20.4917C102.411 19.8304 102.502 19.233 102.683 18.6997C102.865 18.1557 103.121 17.697 103.451 17.3237C103.782 16.9397 104.182 16.6464 104.651 16.4437C105.131 16.241 105.659 16.1397 106.235 16.1397C106.811 16.1397 107.334 16.241 107.803 16.4437C108.283 16.6464 108.689 16.9397 109.019 17.3237C109.35 17.697 109.606 18.1557 109.787 18.6997C109.969 19.233 110.059 19.8304 110.059 20.4917C110.059 21.153 109.969 21.7557 109.787 22.2997C109.606 22.833 109.35 23.2917 109.019 23.6757C108.689 24.049 108.283 24.337 107.803 24.5397C107.334 24.7424 106.811 24.8437 106.235 24.8437ZM106.235 23.4037C106.833 23.4037 107.313 23.2224 107.675 22.8597C108.038 22.4864 108.219 21.9317 108.219 21.1957V19.7877C108.219 19.0517 108.038 18.5024 107.675 18.1397C107.313 17.7664 106.833 17.5797 106.235 17.5797C105.638 17.5797 105.158 17.7664 104.795 18.1397C104.433 18.5024 104.251 19.0517 104.251 19.7877V21.1957C104.251 21.9317 104.433 22.4864 104.795 22.8597C105.158 23.2224 105.638 23.4037 106.235 23.4037ZM112.003 24.6517V16.3317H113.747V17.7077H113.827C114.008 17.2597 114.28 16.8864 114.643 16.5877C115.016 16.289 115.523 16.1397 116.163 16.1397C117.016 16.1397 117.677 16.4224 118.147 16.9877C118.627 17.5424 118.867 18.337 118.867 19.3717V24.6517H117.123V19.5957C117.123 18.2944 116.6 17.6437 115.555 17.6437C115.331 17.6437 115.107 17.6757 114.883 17.7397C114.669 17.793 114.477 17.8784 114.307 17.9957C114.136 18.113 113.997 18.2624 113.891 18.4437C113.795 18.625 113.747 18.8384 113.747 19.0837V24.6517H112.003Z" fill="#181818"/>
</svg>
