<svg width="171" height="145" viewBox="0 0 171 145" fill="none" xmlns="http://www.w3.org/2000/svg">
<path d="M85.4297 0.75C104.359 0.75004 115.692 4.46746 124.618 7.39551C127.542 8.35453 130.238 9.23949 132.854 9.87598C133.421 10.0137 133.997 10.0752 134.567 10.0752H163.96C167.412 10.0752 170.21 12.8734 170.21 16.3252V58.8623C170.21 62.3141 167.412 65.1123 163.96 65.1123H32.9639C30.239 65.1125 27.8398 66.7119 25.834 68.0479C24.056 69.232 21.7073 69.9639 19.1143 69.9639C15.8476 69.9638 12.9777 68.8038 11.1416 67.0498C10.0842 66.0396 8.66465 65.1123 7 65.1123C3.54822 65.1123 0.75 62.3141 0.75 58.8623V16.3252C0.75 12.8734 3.54822 10.0752 7 10.0752H36.4404C37.0089 10.0752 37.5836 10.0139 38.1484 9.87695C40.7945 9.23535 43.5082 8.34101 46.4492 7.37207C55.3246 4.44806 66.5479 0.75 85.4297 0.75Z" fill="#FFD06A" stroke="#FFB109" stroke-width="1.5"/>
<path d="M9.21458 25.3812H10.9106L11.7586 28.8692L12.5106 32.0212H12.5586L13.4226 28.8692L14.4306 25.3812H15.9986L17.0226 28.8692L17.9026 32.0212H17.9506L18.6866 28.8692L19.5506 25.3812H21.1666L18.9266 33.7012H16.9586L15.8706 29.9092L15.1986 27.5732H15.1666L14.5106 29.9092L13.4066 33.7012H11.4866L9.21458 25.3812ZM22.8278 21.8612H24.5718V26.7572H24.6518C24.8332 26.3092 25.1052 25.9358 25.4678 25.6372C25.8412 25.3385 26.3478 25.1892 26.9878 25.1892C27.8412 25.1892 28.5025 25.4718 28.9718 26.0372C29.4518 26.5918 29.6918 27.3865 29.6918 28.4212V33.7012H27.9478V28.6292C27.9478 27.3385 27.4252 26.6932 26.3798 26.6932C26.1558 26.6932 25.9318 26.7252 25.7078 26.7892C25.4945 26.8425 25.3025 26.9278 25.1318 27.0452C24.9612 27.1625 24.8225 27.3118 24.7158 27.4932C24.6198 27.6745 24.5718 27.8825 24.5718 28.1172V33.7012H22.8278V21.8612ZM35.3731 33.8932C34.7758 33.8932 34.2424 33.7918 33.7731 33.5892C33.3038 33.3865 32.9038 33.0985 32.5731 32.7252C32.2424 32.3412 31.9864 31.8825 31.8051 31.3492C31.6344 30.8052 31.5491 30.2025 31.5491 29.5412C31.5491 28.8798 31.6344 28.2825 31.8051 27.7492C31.9864 27.2052 32.2424 26.7465 32.5731 26.3732C32.9038 25.9892 33.3038 25.6958 33.7731 25.4932C34.2424 25.2905 34.7758 25.1892 35.3731 25.1892C35.9811 25.1892 36.5144 25.2958 36.9731 25.5092C37.4424 25.7225 37.8318 26.0212 38.1411 26.4052C38.4504 26.7785 38.6798 27.2158 38.8291 27.7172C38.9891 28.2185 39.0691 28.7572 39.0691 29.3332V29.9892H33.3571V30.2612C33.3571 30.9012 33.5438 31.4292 33.9171 31.8452C34.3011 32.2505 34.8451 32.4532 35.5491 32.4532C36.0611 32.4532 36.4931 32.3412 36.8451 32.1172C37.1971 31.8932 37.4958 31.5892 37.7411 31.2052L38.7651 32.2132C38.4558 32.7252 38.0078 33.1358 37.4211 33.4452C36.8344 33.7438 36.1518 33.8932 35.3731 33.8932ZM35.3731 26.5492C35.0744 26.5492 34.7971 26.6025 34.5411 26.7092C34.2958 26.8158 34.0824 26.9652 33.9011 27.1572C33.7304 27.3492 33.5971 27.5785 33.5011 27.8452C33.4051 28.1118 33.3571 28.4052 33.3571 28.7252V28.8372H37.2291V28.6772C37.2291 28.0372 37.0638 27.5252 36.7331 27.1412C36.4024 26.7465 35.9491 26.5492 35.3731 26.5492ZM40.9997 33.7012V25.3812H42.7437V26.7572H42.8237C43.005 26.3092 43.277 25.9358 43.6397 25.6372C44.013 25.3385 44.5197 25.1892 45.1597 25.1892C46.013 25.1892 46.6744 25.4718 47.1437 26.0372C47.6237 26.5918 47.8637 27.3865 47.8637 28.4212V33.7012H46.1197V28.6452C46.1197 27.3438 45.597 26.6932 44.5517 26.6932C44.3277 26.6932 44.1037 26.7252 43.8797 26.7892C43.6664 26.8425 43.4744 26.9278 43.3037 27.0452C43.133 27.1625 42.9944 27.3118 42.8877 27.4932C42.7917 27.6745 42.7437 27.8878 42.7437 28.1332V33.7012H40.9997ZM57.2782 33.8932C56.6809 33.8932 56.1475 33.7918 55.6782 33.5892C55.2089 33.3865 54.8142 33.0985 54.4942 32.7252C54.1742 32.3412 53.9289 31.8825 53.7582 31.3492C53.5875 30.8052 53.5022 30.2025 53.5022 29.5412C53.5022 28.8798 53.5875 28.2825 53.7582 27.7492C53.9289 27.2052 54.1742 26.7465 54.4942 26.3732C54.8142 25.9892 55.2089 25.6958 55.6782 25.4932C56.1475 25.2905 56.6809 25.1892 57.2782 25.1892C58.1102 25.1892 58.7929 25.3758 59.3262 25.7492C59.8595 26.1225 60.2489 26.6185 60.4942 27.2372L59.0542 27.9092C58.9369 27.5252 58.7289 27.2212 58.4302 26.9972C58.1422 26.7625 57.7582 26.6452 57.2782 26.6452C56.6382 26.6452 56.1529 26.8478 55.8222 27.2532C55.5022 27.6478 55.3422 28.1652 55.3422 28.8052V30.2932C55.3422 30.9332 55.5022 31.4558 55.8222 31.8612C56.1529 32.2558 56.6382 32.4532 57.2782 32.4532C57.7902 32.4532 58.1955 32.3305 58.4942 32.0852C58.8035 31.8292 59.0489 31.4932 59.2302 31.0772L60.5582 31.7812C60.2809 32.4638 59.8649 32.9865 59.3102 33.3492C58.7555 33.7118 58.0782 33.8932 57.2782 33.8932ZM62.2185 21.8612H63.9625V26.7572H64.0425C64.2238 26.3092 64.4958 25.9358 64.8585 25.6372C65.2318 25.3385 65.7385 25.1892 66.3785 25.1892C67.2318 25.1892 67.8931 25.4718 68.3625 26.0372C68.8425 26.5918 69.0825 27.3865 69.0825 28.4212V33.7012H67.3385V28.6292C67.3385 27.3385 66.8158 26.6932 65.7705 26.6932C65.5465 26.6932 65.3225 26.7252 65.0985 26.7892C64.8851 26.8425 64.6931 26.9278 64.5225 27.0452C64.3518 27.1625 64.2131 27.3118 64.1065 27.4932C64.0105 27.6745 63.9625 27.8825 63.9625 28.1172V33.7012H62.2185V21.8612ZM77.5957 33.7012C77.137 33.7012 76.785 33.5732 76.5397 33.3172C76.2944 33.0505 76.145 32.7145 76.0917 32.3092H76.0117C75.8517 32.8318 75.5584 33.2265 75.1317 33.4932C74.705 33.7598 74.1877 33.8932 73.5797 33.8932C72.7157 33.8932 72.049 33.6692 71.5797 33.2212C71.121 32.7732 70.8917 32.1705 70.8917 31.4132C70.8917 30.5812 71.1904 29.9572 71.7877 29.5412C72.3957 29.1252 73.281 28.9172 74.4437 28.9172H75.9477V28.2132C75.9477 27.7012 75.809 27.3065 75.5317 27.0292C75.2544 26.7518 74.8224 26.6132 74.2357 26.6132C73.745 26.6132 73.345 26.7198 73.0357 26.9332C72.7264 27.1465 72.465 27.4185 72.2517 27.7492L71.2117 26.8052C71.489 26.3358 71.8784 25.9518 72.3797 25.6532C72.881 25.3438 73.537 25.1892 74.3477 25.1892C75.425 25.1892 76.2517 25.4398 76.8277 25.9412C77.4037 26.4425 77.6917 27.1625 77.6917 28.1012V32.2772H78.5717V33.7012H77.5957ZM74.0757 32.5652C74.6197 32.5652 75.0677 32.4478 75.4197 32.2132C75.7717 31.9678 75.9477 31.6425 75.9477 31.2372V30.0372H74.4757C73.2704 30.0372 72.6677 30.4105 72.6677 31.1572V31.4452C72.6677 31.8185 72.7904 32.1012 73.0357 32.2932C73.2917 32.4745 73.6384 32.5652 74.0757 32.5652ZM80.281 33.7012V25.3812H82.025V26.9812H82.105C82.2223 26.5545 82.4676 26.1812 82.841 25.8612C83.2143 25.5412 83.7316 25.3812 84.393 25.3812H84.857V27.0612H84.169C83.4756 27.0612 82.9423 27.1732 82.569 27.3972C82.2063 27.6212 82.025 27.9518 82.025 28.3892V33.7012H80.281ZM92.377 33.7012C91.9183 33.7012 91.5663 33.5732 91.321 33.3172C91.0756 33.0505 90.9263 32.7145 90.873 32.3092H90.793C90.633 32.8318 90.3396 33.2265 89.913 33.4932C89.4863 33.7598 88.969 33.8932 88.361 33.8932C87.497 33.8932 86.8303 33.6692 86.361 33.2212C85.9023 32.7732 85.673 32.1705 85.673 31.4132C85.673 30.5812 85.9716 29.9572 86.569 29.5412C87.177 29.1252 88.0623 28.9172 89.225 28.9172H90.729V28.2132C90.729 27.7012 90.5903 27.3065 90.313 27.0292C90.0356 26.7518 89.6036 26.6132 89.017 26.6132C88.5263 26.6132 88.1263 26.7198 87.817 26.9332C87.5076 27.1465 87.2463 27.4185 87.033 27.7492L85.993 26.8052C86.2703 26.3358 86.6596 25.9518 87.161 25.6532C87.6623 25.3438 88.3183 25.1892 89.129 25.1892C90.2063 25.1892 91.033 25.4398 91.609 25.9412C92.185 26.4425 92.473 27.1625 92.473 28.1012V32.2772H93.353V33.7012H92.377ZM88.857 32.5652C89.401 32.5652 89.849 32.4478 90.201 32.2132C90.553 31.9678 90.729 31.6425 90.729 31.2372V30.0372H89.257C88.0516 30.0372 87.449 30.4105 87.449 31.1572V31.4452C87.449 31.8185 87.5716 32.1012 87.817 32.2932C88.073 32.4745 88.4196 32.5652 88.857 32.5652ZM98.2782 33.8932C97.6809 33.8932 97.1475 33.7918 96.6782 33.5892C96.2089 33.3865 95.8142 33.0985 95.4942 32.7252C95.1742 32.3412 94.9289 31.8825 94.7582 31.3492C94.5875 30.8052 94.5022 30.2025 94.5022 29.5412C94.5022 28.8798 94.5875 28.2825 94.7582 27.7492C94.9289 27.2052 95.1742 26.7465 95.4942 26.3732C95.8142 25.9892 96.2089 25.6958 96.6782 25.4932C97.1475 25.2905 97.6809 25.1892 98.2782 25.1892C99.1102 25.1892 99.7929 25.3758 100.326 25.7492C100.86 26.1225 101.249 26.6185 101.494 27.2372L100.054 27.9092C99.9369 27.5252 99.7289 27.2212 99.4302 26.9972C99.1422 26.7625 98.7582 26.6452 98.2782 26.6452C97.6382 26.6452 97.1529 26.8478 96.8222 27.2532C96.5022 27.6478 96.3422 28.1652 96.3422 28.8052V30.2932C96.3422 30.9332 96.5022 31.4558 96.8222 31.8612C97.1529 32.2558 97.6382 32.4532 98.2782 32.4532C98.7902 32.4532 99.1955 32.3305 99.4942 32.0852C99.8035 31.8292 100.049 31.4932 100.23 31.0772L101.558 31.7812C101.281 32.4638 100.865 32.9865 100.31 33.3492C99.7555 33.7118 99.0782 33.8932 98.2782 33.8932ZM105.522 33.7012C104.914 33.7012 104.456 33.5465 104.146 33.2372C103.837 32.9172 103.682 32.4692 103.682 31.8932V26.8052H102.386V25.3812H103.09C103.378 25.3812 103.576 25.3172 103.682 25.1892C103.8 25.0612 103.858 24.8532 103.858 24.5652V23.1092H105.426V25.3812H107.17V26.8052L105.426 26.8052V32.2772H107.042V33.7012H105.522ZM112.264 33.8932C111.666 33.8932 111.133 33.7918 110.664 33.5892C110.194 33.3865 109.794 33.0985 109.464 32.7252C109.133 32.3412 108.877 31.8825 108.696 31.3492C108.525 30.8052 108.44 30.2025 108.44 29.5412C108.44 28.8798 108.525 28.2825 108.696 27.7492C108.877 27.2052 109.133 26.7465 109.464 26.3732C109.794 25.9892 110.194 25.6958 110.664 25.4932C111.133 25.2905 111.666 25.1892 112.264 25.1892C112.872 25.1892 113.405 25.2958 113.864 25.5092C114.333 25.7225 114.722 26.0212 115.032 26.4052C115.341 26.7785 115.57 27.2158 115.72 27.7172C115.88 28.2185 115.96 28.7572 115.96 29.3332V29.9892H110.248V30.2612C110.248 30.9012 110.434 31.4292 110.808 31.8452C111.192 32.2505 111.736 32.4532 112.44 32.4532C112.952 32.4532 113.384 32.3412 113.736 32.1172C114.088 31.8932 114.386 31.5892 114.632 31.2052L115.656 32.2132C115.346 32.7252 114.898 33.1358 114.312 33.4452C113.725 33.7438 113.042 33.8932 112.264 33.8932ZM112.264 26.5492C111.965 26.5492 111.688 26.6025 111.432 26.7092C111.186 26.8158 110.973 26.9652 110.792 27.1572C110.621 27.3492 110.488 27.5785 110.392 27.8452C110.296 28.1118 110.248 28.4052 110.248 28.7252V28.8372H114.12V28.6772C114.12 28.0372 113.954 27.5252 113.624 27.1412C113.293 26.7465 112.84 26.5492 112.264 26.5492ZM117.89 33.7012V25.3812H119.634V26.9812H119.714C119.832 26.5545 120.077 26.1812 120.45 25.8612C120.824 25.5412 121.341 25.3812 122.002 25.3812H122.466V27.0612H121.778C121.085 27.0612 120.552 27.1732 120.178 27.3972C119.816 27.6212 119.634 27.9518 119.634 28.3892V33.7012H117.89ZM10.9266 42.8932C10.5639 42.8932 10.2973 42.8078 10.1266 42.6372C9.96658 42.4665 9.88658 42.2478 9.88658 41.9812V41.7092C9.88658 41.4425 9.96658 41.2238 10.1266 41.0532C10.2973 40.8825 10.5639 40.7972 10.9266 40.7972C11.2893 40.7972 11.5506 40.8825 11.7106 41.0532C11.8706 41.2238 11.9506 41.4425 11.9506 41.7092V41.9812C11.9506 42.2478 11.8706 42.4665 11.7106 42.6372C11.5506 42.8078 11.2893 42.8932 10.9266 42.8932ZM10.0466 44.3812H11.7906V52.7012H10.0466V44.3812ZM16.921 52.8932C16.1316 52.8932 15.4703 52.7545 14.937 52.4772C14.4036 52.1998 13.9396 51.8158 13.545 51.3252L14.665 50.3012C14.9743 50.6745 15.3156 50.9678 15.689 51.1812C16.073 51.3838 16.5156 51.4852 17.017 51.4852C17.529 51.4852 17.9076 51.3892 18.153 51.1972C18.409 50.9945 18.537 50.7172 18.537 50.3652C18.537 50.0985 18.4463 49.8745 18.265 49.6932C18.0943 49.5012 17.7903 49.3785 17.353 49.3252L16.585 49.2292C15.7316 49.1225 15.0596 48.8772 14.569 48.4932C14.089 48.0985 13.849 47.5172 13.849 46.7492C13.849 46.3438 13.9236 45.9865 14.073 45.6772C14.2223 45.3572 14.4303 45.0905 14.697 44.8772C14.9743 44.6532 15.2996 44.4825 15.673 44.3652C16.057 44.2478 16.4783 44.1892 16.937 44.1892C17.6836 44.1892 18.2916 44.3065 18.761 44.5412C19.241 44.7758 19.6676 45.1012 20.041 45.5172L18.969 46.5412C18.7556 46.2852 18.473 46.0665 18.121 45.8852C17.7796 45.6932 17.385 45.5972 16.937 45.5972C16.457 45.5972 16.0996 45.6932 15.865 45.8852C15.641 46.0772 15.529 46.3278 15.529 46.6372C15.529 46.9572 15.6303 47.1972 15.833 47.3572C16.0356 47.5172 16.361 47.6345 16.809 47.7092L17.577 47.8052C18.4943 47.9438 19.161 48.2158 19.577 48.6212C20.0036 49.0158 20.217 49.5492 20.217 50.2212C20.217 50.6265 20.137 50.9945 19.977 51.3252C19.8276 51.6452 19.609 51.9225 19.321 52.1572C19.033 52.3918 18.6863 52.5732 18.281 52.7012C17.8756 52.8292 17.4223 52.8932 16.921 52.8932ZM28.2725 52.7012C27.6645 52.7012 27.2058 52.5465 26.8965 52.2372C26.5871 51.9172 26.4325 51.4692 26.4325 50.8932V45.8052H25.1365V44.3812H25.8405C26.1285 44.3812 26.3258 44.3172 26.4325 44.1892C26.5498 44.0612 26.6085 43.8532 26.6085 43.5652V42.1092H28.1765V44.3812H29.9205V45.8052H28.1765V51.2772H29.7925V52.7012H28.2725ZM35.0137 52.8932C34.4377 52.8932 33.9097 52.7918 33.4297 52.5892C32.9604 52.3865 32.5604 52.0985 32.2297 51.7252C31.899 51.3412 31.643 50.8825 31.4617 50.3492C31.2804 49.8052 31.1897 49.2025 31.1897 48.5412C31.1897 47.8798 31.2804 47.2825 31.4617 46.7492C31.643 46.2052 31.899 45.7465 32.2297 45.3732C32.5604 44.9892 32.9604 44.6958 33.4297 44.4932C33.9097 44.2905 34.4377 44.1892 35.0137 44.1892C35.5897 44.1892 36.1124 44.2905 36.5817 44.4932C37.0617 44.6958 37.467 44.9892 37.7977 45.3732C38.1284 45.7465 38.3844 46.2052 38.5657 46.7492C38.747 47.2825 38.8377 47.8798 38.8377 48.5412C38.8377 49.2025 38.747 49.8052 38.5657 50.3492C38.3844 50.8825 38.1284 51.3412 37.7977 51.7252C37.467 52.0985 37.0617 52.3865 36.5817 52.5892C36.1124 52.7918 35.5897 52.8932 35.0137 52.8932ZM35.0137 51.4532C35.611 51.4532 36.091 51.2718 36.4537 50.9092C36.8164 50.5358 36.9977 49.9812 36.9977 49.2452V47.8372C36.9977 47.1012 36.8164 46.5518 36.4537 46.1892C36.091 45.8158 35.611 45.6292 35.0137 45.6292C34.4164 45.6292 33.9364 45.8158 33.5737 46.1892C33.211 46.5518 33.0297 47.1012 33.0297 47.8372V49.2452C33.0297 49.9812 33.211 50.5358 33.5737 50.9092C33.9364 51.2718 34.4164 51.4532 35.0137 51.4532ZM45.821 51.3252H45.757C45.6823 51.5278 45.581 51.7252 45.453 51.9172C45.3356 52.1092 45.181 52.2798 44.989 52.4292C44.8076 52.5678 44.5836 52.6798 44.317 52.7652C44.061 52.8505 43.7623 52.8932 43.421 52.8932C42.557 52.8932 41.885 52.6158 41.405 52.0612C40.9356 51.5065 40.701 50.7118 40.701 49.6772V44.3812H42.445V49.4532C42.445 50.7438 42.9783 51.3892 44.045 51.3892C44.269 51.3892 44.4876 51.3625 44.701 51.3092C44.9143 51.2452 45.101 51.1545 45.261 51.0372C45.4316 50.9198 45.565 50.7705 45.661 50.5892C45.7676 50.4078 45.821 50.1945 45.821 49.9492V44.3812H47.565V52.7012H45.821V51.3252ZM53.2782 52.8932C52.6809 52.8932 52.1475 52.7918 51.6782 52.5892C51.2089 52.3865 50.8142 52.0985 50.4942 51.7252C50.1742 51.3412 49.9289 50.8825 49.7582 50.3492C49.5875 49.8052 49.5022 49.2025 49.5022 48.5412C49.5022 47.8798 49.5875 47.2825 49.7582 46.7492C49.9289 46.2052 50.1742 45.7465 50.4942 45.3732C50.8142 44.9892 51.2089 44.6958 51.6782 44.4932C52.1475 44.2905 52.6809 44.1892 53.2782 44.1892C54.1102 44.1892 54.7929 44.3758 55.3262 44.7492C55.8595 45.1225 56.2489 45.6185 56.4942 46.2372L55.0542 46.9092C54.9369 46.5252 54.7289 46.2212 54.4302 45.9972C54.1422 45.7625 53.7582 45.6452 53.2782 45.6452C52.6382 45.6452 52.1529 45.8478 51.8222 46.2532C51.5022 46.6478 51.3422 47.1652 51.3422 47.8052V49.2932C51.3422 49.9332 51.5022 50.4558 51.8222 50.8612C52.1529 51.2558 52.6382 51.4532 53.2782 51.4532C53.7902 51.4532 54.1955 51.3305 54.4942 51.0852C54.8035 50.8292 55.0489 50.4932 55.2302 50.0772L56.5582 50.7812C56.2809 51.4638 55.8649 51.9865 55.3102 52.3492C54.7555 52.7118 54.0782 52.8932 53.2782 52.8932ZM58.2185 40.8612H59.9625V45.7572H60.0425C60.2238 45.3092 60.4958 44.9358 60.8585 44.6372C61.2318 44.3385 61.7385 44.1892 62.3785 44.1892C63.2318 44.1892 63.8931 44.4718 64.3625 45.0372C64.8425 45.5918 65.0825 46.3865 65.0825 47.4212V52.7012H63.3385V47.6292C63.3385 46.3385 62.8158 45.6932 61.7705 45.6932C61.5465 45.6932 61.3225 45.7252 61.0985 45.7892C60.8851 45.8425 60.6931 45.9278 60.5225 46.0452C60.3518 46.1625 60.2131 46.3118 60.1065 46.4932C60.0105 46.6745 59.9625 46.8825 59.9625 47.1172V52.7012H58.2185V40.8612ZM70.7637 52.8932C70.1664 52.8932 69.633 52.7918 69.1637 52.5892C68.6944 52.3865 68.2944 52.0985 67.9637 51.7252C67.633 51.3412 67.377 50.8825 67.1957 50.3492C67.025 49.8052 66.9397 49.2025 66.9397 48.5412C66.9397 47.8798 67.025 47.2825 67.1957 46.7492C67.377 46.2052 67.633 45.7465 67.9637 45.3732C68.2944 44.9892 68.6944 44.6958 69.1637 44.4932C69.633 44.2905 70.1664 44.1892 70.7637 44.1892C71.3717 44.1892 71.905 44.2958 72.3637 44.5092C72.833 44.7225 73.2224 45.0212 73.5317 45.4052C73.841 45.7785 74.0704 46.2158 74.2197 46.7172C74.3797 47.2185 74.4597 47.7572 74.4597 48.3332V48.9892H68.7477V49.2612C68.7477 49.9012 68.9344 50.4292 69.3077 50.8452C69.6917 51.2505 70.2357 51.4532 70.9397 51.4532C71.4517 51.4532 71.8837 51.3412 72.2357 51.1172C72.5877 50.8932 72.8864 50.5892 73.1317 50.2052L74.1557 51.2132C73.8464 51.7252 73.3984 52.1358 72.8117 52.4452C72.225 52.7438 71.5424 52.8932 70.7637 52.8932ZM70.7637 45.5492C70.465 45.5492 70.1877 45.6025 69.9317 45.7092C69.6864 45.8158 69.473 45.9652 69.2917 46.1572C69.121 46.3492 68.9877 46.5785 68.8917 46.8452C68.7957 47.1118 68.7477 47.4052 68.7477 47.7252V47.8372H72.6197V47.6772C72.6197 47.0372 72.4544 46.5252 72.1237 46.1412C71.793 45.7465 71.3397 45.5492 70.7637 45.5492ZM81.6223 51.3252H81.5423C81.361 51.8158 81.0623 52.1998 80.6463 52.4772C80.241 52.7545 79.761 52.8932 79.2063 52.8932C78.1503 52.8932 77.3343 52.5145 76.7583 51.7572C76.1823 50.9892 75.8943 49.9172 75.8943 48.5412C75.8943 47.1652 76.1823 46.0985 76.7583 45.3412C77.3343 44.5732 78.1503 44.1892 79.2063 44.1892C79.761 44.1892 80.241 44.3278 80.6463 44.6052C81.0623 44.8718 81.361 45.2558 81.5423 45.7572H81.6223V40.8612H83.3663V52.7012H81.6223V51.3252ZM79.7343 51.3892C80.2677 51.3892 80.7157 51.2612 81.0783 51.0052C81.441 50.7385 81.6223 50.3918 81.6223 49.9652V47.1172C81.6223 46.6905 81.441 46.3492 81.0783 46.0932C80.7157 45.8265 80.2677 45.6932 79.7343 45.6932C79.1263 45.6932 78.641 45.8905 78.2783 46.2852C77.9157 46.6692 77.7343 47.1812 77.7343 47.8212V49.2612C77.7343 49.9012 77.9157 50.4185 78.2783 50.8132C78.641 51.1972 79.1263 51.3892 79.7343 51.3892Z" fill="#181818"/>
<mask id="path-3-inside-1_6027_416" fill="white">
<path fill-rule="evenodd" clip-rule="evenodd" d="M161.245 72C161.245 68.1341 158.111 65.0002 154.245 65H32.0066C29.5513 65 27.3598 66.4543 25.319 67.8195C23.6187 68.957 21.4738 69.6357 19.1416 69.6357C16.5327 69.6357 14.1581 68.7863 12.3781 67.3956C10.797 66.1604 9.00641 65 7 65C3.13401 65 0 68.134 0 72V96.9619C9.48103e-05 100.828 3.13407 103.962 7 103.962C8.40286 103.962 9.66464 104.741 10.6829 105.706C12.6786 107.597 15.7073 108.816 19.1024 108.816C21.8322 108.816 24.3301 108.028 26.2451 106.736C28.2621 105.376 30.4491 103.962 32.8822 103.962H154.245C158.111 103.962 161.245 100.828 161.245 96.9619V72Z"/>
</mask>
<path fill-rule="evenodd" clip-rule="evenodd" d="M161.245 72C161.245 68.1341 158.111 65.0002 154.245 65H32.0066C29.5513 65 27.3598 66.4543 25.319 67.8195C23.6187 68.957 21.4738 69.6357 19.1416 69.6357C16.5327 69.6357 14.1581 68.7863 12.3781 67.3956C10.797 66.1604 9.00641 65 7 65C3.13401 65 0 68.134 0 72V96.9619C9.48103e-05 100.828 3.13407 103.962 7 103.962C8.40286 103.962 9.66464 104.741 10.6829 105.706C12.6786 107.597 15.7073 108.816 19.1024 108.816C21.8322 108.816 24.3301 108.028 26.2451 106.736C28.2621 105.376 30.4491 103.962 32.8822 103.962H154.245C158.111 103.962 161.245 100.828 161.245 96.9619V72Z" fill="#CCB3F8"/>
<path d="M154.245 65L154.245 63.5H154.245V65ZM19.1416 69.6357L19.1416 71.1357H19.1416V69.6357ZM0 96.9619L-1.5 96.9619L-1.5 96.962L0 96.9619ZM7 103.962L7 105.462H7V103.962ZM154.245 103.962L154.245 105.462L154.245 105.462L154.245 103.962ZM161.245 96.9619L162.745 96.9619V96.9619H161.245ZM10.6829 105.706L11.7147 104.617L10.6829 105.706ZM25.319 67.8195L24.485 66.5728L25.319 67.8195ZM154.245 65L154.245 66.5C157.283 66.5002 159.745 68.9626 159.745 72H161.245H162.745C162.745 67.3056 158.939 63.5003 154.245 63.5L154.245 65ZM32.0066 65V66.5H154.245V65V63.5H32.0066V65ZM19.1416 69.6357V71.1357C21.7633 71.1357 24.1998 70.3729 26.1531 69.0663L25.319 67.8195L24.485 66.5728C23.0375 67.5411 21.1842 68.1357 19.1416 68.1357V69.6357ZM12.3781 67.3956L11.4546 68.5777C13.5076 70.1816 16.21 71.1357 19.1416 71.1357L19.1416 69.6357L19.1416 68.1357C16.8555 68.1357 14.8086 67.391 13.3015 66.2136L12.3781 67.3956ZM0 72H1.5C1.5 68.9624 3.96243 66.5 7 66.5V65V63.5C2.30558 63.5 -1.5 67.3056 -1.5 72H0ZM0 96.9619H1.5V72H0H-1.5V96.9619H0ZM7 103.962L7 102.462C3.96253 102.462 1.50007 99.9994 1.5 96.9619L0 96.9619L-1.5 96.962C-1.49988 101.656 2.30561 105.462 7 105.462L7 103.962ZM19.1024 108.816V107.316C16.0523 107.316 13.4047 106.219 11.7147 104.617L10.6829 105.706L9.6512 106.795C11.9524 108.975 15.3622 110.316 19.1024 110.316V108.816ZM26.2451 106.736L25.4063 105.493C23.752 106.609 21.5492 107.316 19.1024 107.316V108.816V110.316C22.1152 110.316 24.9082 109.447 27.084 107.98L26.2451 106.736ZM154.245 103.962V102.462H32.8822V103.962V105.462H154.245V103.962ZM161.245 96.9619L159.745 96.9619C159.745 99.9992 157.282 102.462 154.245 102.462L154.245 103.962L154.245 105.462C158.939 105.462 162.745 101.656 162.745 96.9619L161.245 96.9619ZM161.245 72H159.745V96.9619H161.245H162.745V72H161.245ZM26.2451 106.736L27.084 107.98C29.1668 106.575 30.98 105.462 32.8822 105.462V103.962V102.462C29.9183 102.462 27.3575 104.176 25.4063 105.493L26.2451 106.736ZM7 103.962V105.462C7.84311 105.462 8.75027 105.941 9.6512 106.795L10.6829 105.706L11.7147 104.617C10.579 103.541 8.96261 102.462 7 102.462V103.962ZM12.3781 67.3956L13.3015 66.2136C11.7111 64.9711 9.562 63.5 7 63.5V65V66.5C8.45082 66.5 9.88284 67.3497 11.4546 68.5777L12.3781 67.3956ZM32.0066 65V63.5C29.0154 63.5 26.4389 65.2657 24.485 66.5728L25.319 67.8195L26.1531 69.0663C28.2808 67.643 30.0872 66.5 32.0066 66.5V65Z" fill="#A67AF4" mask="url(#path-3-inside-1_6027_416)"/>
<path d="M12.1582 89.8437C11.3689 89.8437 10.7075 89.7051 10.1742 89.4277C9.64086 89.1504 9.17686 88.7664 8.7822 88.2757L9.9022 87.2517C10.2115 87.6251 10.5529 87.9184 10.9262 88.1317C11.3102 88.3344 11.7529 88.4357 12.2542 88.4357C12.7662 88.4357 13.1449 88.3397 13.3902 88.1477C13.6462 87.9451 13.7742 87.6677 13.7742 87.3157C13.7742 87.0491 13.6835 86.8251 13.5022 86.6437C13.3315 86.4517 13.0275 86.3291 12.5902 86.2757L11.8222 86.1797C10.9689 86.0731 10.2969 85.8277 9.8062 85.4437C9.3262 85.0491 9.0862 84.4677 9.0862 83.6997C9.0862 83.2944 9.16086 82.9371 9.3102 82.6277C9.45953 82.3077 9.66753 82.0411 9.9342 81.8277C10.2115 81.6037 10.5369 81.4331 10.9102 81.3157C11.2942 81.1984 11.7155 81.1397 12.1742 81.1397C12.9209 81.1397 13.5289 81.2571 13.9982 81.4917C14.4782 81.7264 14.9049 82.0517 15.2782 82.4677L14.2062 83.4917C13.9929 83.2357 13.7102 83.0171 13.3582 82.8357C13.0169 82.6437 12.6222 82.5477 12.1742 82.5477C11.6942 82.5477 11.3369 82.6437 11.1022 82.8357C10.8782 83.0277 10.7662 83.2784 10.7662 83.5877C10.7662 83.9077 10.8675 84.1477 11.0702 84.3077C11.2729 84.4677 11.5982 84.5851 12.0462 84.6597L12.8142 84.7557C13.7315 84.8944 14.3982 85.1664 14.8142 85.5717C15.2409 85.9664 15.4542 86.4997 15.4542 87.1717C15.4542 87.5771 15.3742 87.9451 15.2142 88.2757C15.0649 88.5957 14.8462 88.8731 14.5582 89.1077C14.2702 89.3424 13.9235 89.5237 13.5182 89.6517C13.1129 89.7797 12.6595 89.8437 12.1582 89.8437ZM19.6191 89.6517C19.0111 89.6517 18.5524 89.4971 18.2431 89.1877C17.9337 88.8677 17.7791 88.4197 17.7791 87.8437V82.7557H16.4831V81.3317H17.1871C17.4751 81.3317 17.6724 81.2677 17.7791 81.1397C17.8964 81.0117 17.9551 80.8037 17.9551 80.5157V79.0597H19.5231V81.3317H21.2671V82.7557H19.5231V88.2277H21.1391V89.6517H19.6191ZM29.2548 89.6517C28.7962 89.6517 28.4442 89.5237 28.1988 89.2677C27.9535 89.0011 27.8042 88.6651 27.7508 88.2597H27.6708C27.5108 88.7824 27.2175 89.1771 26.7908 89.4437C26.3642 89.7104 25.8468 89.8437 25.2388 89.8437C24.3748 89.8437 23.7082 89.6197 23.2388 89.1717C22.7802 88.7237 22.5508 88.1211 22.5508 87.3637C22.5508 86.5317 22.8495 85.9077 23.4468 85.4917C24.0548 85.0757 24.9402 84.8677 26.1028 84.8677H27.6068V84.1637C27.6068 83.6517 27.4682 83.2571 27.1908 82.9797C26.9135 82.7024 26.4815 82.5637 25.8948 82.5637C25.4042 82.5637 25.0042 82.6704 24.6948 82.8837C24.3855 83.0971 24.1242 83.3691 23.9108 83.6997L22.8708 82.7557C23.1482 82.2864 23.5375 81.9024 24.0388 81.6037C24.5402 81.2944 25.1962 81.1397 26.0068 81.1397C27.0842 81.1397 27.9108 81.3904 28.4868 81.8917C29.0628 82.3931 29.3508 83.1131 29.3508 84.0517V88.2277H30.2308V89.6517H29.2548ZM25.7348 88.5157C26.2788 88.5157 26.7268 88.3984 27.0788 88.1637C27.4308 87.9184 27.6068 87.5931 27.6068 87.1877V85.9877H26.1348C24.9295 85.9877 24.3268 86.3611 24.3268 87.1077V87.3957C24.3268 87.7691 24.4495 88.0517 24.6948 88.2437C24.9508 88.4251 25.2975 88.5157 25.7348 88.5157ZM31.9401 89.6517V81.3317H33.6841V82.9317H33.7641C33.8814 82.5051 34.1267 82.1317 34.5001 81.8117C34.8734 81.4917 35.3907 81.3317 36.0521 81.3317H36.5161V83.0117H35.8281C35.1347 83.0117 34.6014 83.1237 34.2281 83.3477C33.8654 83.5717 33.6841 83.9024 33.6841 84.3397V89.6517H31.9401ZM40.4316 89.6517C39.8236 89.6517 39.3649 89.4971 39.0556 89.1877C38.7462 88.8677 38.5916 88.4197 38.5916 87.8437V82.7557H37.2956V81.3317H37.9996C38.2876 81.3317 38.4849 81.2677 38.5916 81.1397C38.7089 81.0117 38.7676 80.8037 38.7676 80.5157V79.0597H40.3356V81.3317H42.0796V82.7557H40.3356V88.2277H41.9516V89.6517H40.4316ZM50.0566 89.6517C49.4486 89.6517 48.9899 89.4971 48.6806 89.1877C48.3712 88.8677 48.2166 88.4197 48.2166 87.8437V82.7557H46.9206V81.3317H47.6246C47.9126 81.3317 48.1099 81.2677 48.2166 81.1397C48.3339 81.0117 48.3926 80.8037 48.3926 80.5157V79.0597H49.9606V81.3317H51.7046V82.7557H49.9606V88.2277H51.5766V89.6517H50.0566ZM53.5963 89.6517V81.3317H55.3403V82.9317H55.4203C55.5377 82.5051 55.783 82.1317 56.1563 81.8117C56.5297 81.4917 57.047 81.3317 57.7083 81.3317H58.1723V83.0117H57.4843C56.791 83.0117 56.2577 83.1237 55.8843 83.3477C55.5217 83.5717 55.3403 83.9024 55.3403 84.3397V89.6517H53.5963ZM65.6923 89.6517C65.2337 89.6517 64.8817 89.5237 64.6363 89.2677C64.391 89.0011 64.2417 88.6651 64.1883 88.2597H64.1083C63.9483 88.7824 63.655 89.1771 63.2283 89.4437C62.8017 89.7104 62.2843 89.8437 61.6763 89.8437C60.8123 89.8437 60.1457 89.6197 59.6763 89.1717C59.2177 88.7237 58.9883 88.1211 58.9883 87.3637C58.9883 86.5317 59.287 85.9077 59.8843 85.4917C60.4923 85.0757 61.3777 84.8677 62.5403 84.8677H64.0443V84.1637C64.0443 83.6517 63.9057 83.2571 63.6283 82.9797C63.351 82.7024 62.919 82.5637 62.3323 82.5637C61.8417 82.5637 61.4417 82.6704 61.1323 82.8837C60.823 83.0971 60.5617 83.3691 60.3483 83.6997L59.3083 82.7557C59.5857 82.2864 59.975 81.9024 60.4763 81.6037C60.9777 81.2944 61.6337 81.1397 62.4443 81.1397C63.5217 81.1397 64.3483 81.3904 64.9243 81.8917C65.5003 82.3931 65.7883 83.1131 65.7883 84.0517V88.2277H66.6683V89.6517H65.6923ZM62.1723 88.5157C62.7163 88.5157 63.1643 88.3984 63.5163 88.1637C63.8683 87.9184 64.0443 87.5931 64.0443 87.1877V85.9877H62.5723C61.367 85.9877 60.7643 86.3611 60.7643 87.1077V87.3957C60.7643 87.7691 60.887 88.0517 61.1323 88.2437C61.3883 88.4251 61.735 88.5157 62.1723 88.5157ZM69.2576 79.8437C68.8949 79.8437 68.6282 79.7584 68.4576 79.5877C68.2976 79.4171 68.2176 79.1984 68.2176 78.9317V78.6597C68.2176 78.3931 68.2976 78.1744 68.4576 78.0037C68.6282 77.8331 68.8949 77.7477 69.2576 77.7477C69.6202 77.7477 69.8816 77.8331 70.0416 78.0037C70.2016 78.1744 70.2816 78.3931 70.2816 78.6597V78.9317C70.2816 79.1984 70.2016 79.4171 70.0416 79.5877C69.8816 79.7584 69.6202 79.8437 69.2576 79.8437ZM68.3776 81.3317H70.1216V89.6517H68.3776V81.3317ZM74.3879 89.6517C73.7906 89.6517 73.3426 89.5024 73.0439 89.2037C72.7559 88.8944 72.6119 88.4677 72.6119 87.9237V77.8117H74.3559V88.2277H75.5079V89.6517H74.3879Z" fill="#181818"/>
<g clip-path="url(#clip0_6027_416)">
<path fill-rule="evenodd" clip-rule="evenodd" d="M0 107.054C0 104.458 2.11324 102.354 4.72005 102.354H5.6578C7.33747 102.354 8.83054 103.313 10.0471 104.466C11.734 106.065 14.0068 107.054 16.5095 107.054C19.0154 107.054 21.2957 106.063 22.9884 104.46C24.2035 103.31 25.6949 102.354 27.3717 102.354H158.122C160.729 102.354 162.842 104.458 162.842 107.054V135.248C162.842 137.843 160.729 139.947 158.122 139.947H27.3717C25.6949 139.947 24.2035 140.902 22.9884 142.052C21.2957 143.655 19.0154 144.646 16.5095 144.646C14.0068 144.646 11.734 143.657 10.0471 142.059C8.83054 140.906 7.33747 139.947 5.6578 139.947H4.72005C2.11324 139.947 0 137.843 0 135.248V107.054Z" fill="#A0C6FF"/>
<mask id="mask0_6027_416" style="mask-type:luminance" maskUnits="userSpaceOnUse" x="0" y="102" width="163" height="43">
<path fill-rule="evenodd" clip-rule="evenodd" d="M0 107.054C0 104.458 2.11324 102.354 4.72005 102.354H5.6578C7.33747 102.354 8.83054 103.313 10.0471 104.466C11.734 106.065 14.0068 107.054 16.5095 107.054C19.0154 107.054 21.2957 106.063 22.9884 104.46C24.2035 103.31 25.6949 102.354 27.3717 102.354H158.122C160.729 102.354 162.842 104.458 162.842 107.054V135.248C162.842 137.843 160.729 139.947 158.122 139.947H27.3717C25.6949 139.947 24.2035 140.902 22.9884 142.052C21.2957 143.655 19.0154 144.646 16.5095 144.646C14.0068 144.646 11.734 143.657 10.0471 142.059C8.83054 140.906 7.33747 139.947 5.6578 139.947H4.72005C2.11324 139.947 0 137.843 0 135.248V107.054Z" fill="white"/>
</mask>
<g mask="url(#mask0_6027_416)">
<path d="M5.6578 101.18H4.72005V103.529H5.6578V101.18ZM16.5095 105.879C14.3259 105.879 12.3402 105.018 10.8607 103.615L9.23346 105.317C11.1277 107.112 13.6877 108.228 16.5095 108.228V105.879ZM22.1752 103.609C20.6897 105.015 18.6962 105.879 16.5095 105.879V108.228C19.3346 108.228 21.9017 107.11 23.8015 105.312L22.1752 103.609ZM158.122 101.18H27.3717V103.529H158.122V101.18ZM164.022 135.248V107.053H161.662V135.248H164.022ZM27.3717 141.121H158.122V138.772H27.3717V141.121ZM22.1752 141.201C20.6897 142.607 18.6962 143.471 16.5095 143.471V145.82C19.3346 145.82 21.9017 144.702 23.8015 142.904L22.1752 141.201ZM16.5095 143.471C14.3259 143.471 12.3402 142.61 10.8607 141.208L9.23346 142.909C11.1277 144.705 13.6877 145.82 16.5095 145.82V143.471ZM4.72005 141.121H5.6578V138.772H4.72005V141.121ZM-1.18001 107.053V135.248H1.18001V107.053H-1.18001ZM4.72005 138.772C2.76495 138.772 1.18001 137.194 1.18001 135.248H-1.18001C-1.18001 138.492 1.46153 141.121 4.72005 141.121V138.772ZM10.8607 141.208C9.56651 139.981 7.7916 138.772 5.6578 138.772V141.121C6.88338 141.121 8.09457 141.83 9.23346 142.909L10.8607 141.208ZM27.3717 138.772C25.2416 138.772 23.4686 139.977 22.1752 141.201L23.8015 142.904C24.9385 141.827 26.1482 141.121 27.3717 141.121V138.772ZM158.122 103.529C160.077 103.529 161.662 105.107 161.662 107.053H164.022C164.022 103.809 161.38 101.18 158.122 101.18V103.529ZM23.8015 105.312C24.9385 104.235 26.1482 103.529 27.3717 103.529V101.18C25.2416 101.18 23.4686 102.385 22.1752 103.609L23.8015 105.312ZM4.72005 101.18C1.46154 101.18 -1.18001 103.809 -1.18001 107.053H1.18001C1.18001 105.107 2.76494 103.529 4.72005 103.529V101.18ZM161.662 135.248C161.662 137.194 160.077 138.772 158.122 138.772V141.121C161.38 141.121 164.022 138.492 164.022 135.248H161.662ZM5.6578 103.529C6.88338 103.529 8.09457 104.238 9.23346 105.317L10.8607 103.615C9.56651 102.389 7.79155 101.18 5.6578 101.18V103.529Z" fill="#3F76C9"/>
</g>
<path d="M96.7609 109.403H82.6007C76.0837 109.403 70.8006 114.662 70.8006 121.15C70.8006 127.638 76.0837 132.898 82.6007 132.898H96.7609C103.278 132.898 108.561 127.638 108.561 121.15C108.561 114.662 103.278 109.403 96.7609 109.403Z" fill="#FCFAF3"/>
<path d="M92.652 117.586H88.214L87.962 121.058H88.074C88.298 120.675 88.5687 120.372 88.886 120.148C89.2034 119.915 89.6374 119.798 90.188 119.798C90.608 119.798 90.9954 119.868 91.35 120.008C91.714 120.148 92.0267 120.349 92.288 120.61C92.5587 120.871 92.7687 121.193 92.918 121.576C93.0767 121.949 93.156 122.374 93.156 122.85C93.156 123.335 93.0767 123.783 92.918 124.194C92.7594 124.595 92.5307 124.945 92.232 125.244C91.9334 125.533 91.5647 125.762 91.126 125.93C90.6874 126.089 90.188 126.168 89.628 126.168C89.1894 126.168 88.7974 126.117 88.452 126.014C88.116 125.921 87.8127 125.795 87.542 125.636C87.2807 125.468 87.052 125.281 86.856 125.076C86.66 124.861 86.4874 124.642 86.338 124.418L87.486 123.522C87.6074 123.709 87.7334 123.886 87.864 124.054C88.004 124.213 88.158 124.353 88.326 124.474C88.494 124.595 88.6854 124.689 88.9 124.754C89.124 124.819 89.376 124.852 89.656 124.852C90.2627 124.852 90.7247 124.689 91.042 124.362C91.3594 124.026 91.518 123.573 91.518 123.004V122.892C91.518 122.323 91.3547 121.879 91.028 121.562C90.7107 121.245 90.2534 121.086 89.656 121.086C89.2174 121.086 88.872 121.165 88.62 121.324C88.368 121.483 88.1487 121.66 87.962 121.856L86.66 121.674L87.024 116.228H92.652V117.586Z" fill="#181818"/>
<path d="M10.68 120.104H9.416V118.68H10.68V117.304C10.68 116.632 10.856 116.109 11.208 115.736C11.56 115.352 12.088 115.16 12.792 115.16H14.168V116.584H12.424V118.68H14.168V120.104H12.424V127H10.68V120.104ZM18.887 127.192C18.311 127.192 17.783 127.091 17.303 126.888C16.8337 126.685 16.4337 126.397 16.103 126.024C15.7723 125.64 15.5163 125.181 15.335 124.648C15.1537 124.104 15.063 123.501 15.063 122.84C15.063 122.179 15.1537 121.581 15.335 121.048C15.5163 120.504 15.7723 120.045 16.103 119.672C16.4337 119.288 16.8337 118.995 17.303 118.792C17.783 118.589 18.311 118.488 18.887 118.488C19.463 118.488 19.9857 118.589 20.455 118.792C20.935 118.995 21.3403 119.288 21.671 119.672C22.0017 120.045 22.2577 120.504 22.439 121.048C22.6203 121.581 22.711 122.179 22.711 122.84C22.711 123.501 22.6203 124.104 22.439 124.648C22.2577 125.181 22.0017 125.64 21.671 126.024C21.3403 126.397 20.935 126.685 20.455 126.888C19.9857 127.091 19.463 127.192 18.887 127.192ZM18.887 125.752C19.4843 125.752 19.9643 125.571 20.327 125.208C20.6897 124.835 20.871 124.28 20.871 123.544V122.136C20.871 121.4 20.6897 120.851 20.327 120.488C19.9643 120.115 19.4843 119.928 18.887 119.928C18.2897 119.928 17.8097 120.115 17.447 120.488C17.0843 120.851 16.903 121.4 16.903 122.136V123.544C16.903 124.28 17.0843 124.835 17.447 125.208C17.8097 125.571 18.2897 125.752 18.887 125.752ZM24.6543 127V118.68H26.3983V120.28H26.4783C26.5956 119.853 26.8409 119.48 27.2143 119.16C27.5876 118.84 28.1049 118.68 28.7663 118.68H29.2303V120.36H28.5423C27.8489 120.36 27.3156 120.472 26.9423 120.696C26.5796 120.92 26.3983 121.251 26.3983 121.688V127H24.6543ZM30.0254 118.68H31.7214L32.5694 122.168L33.3214 125.32H33.3694L34.2334 122.168L35.2414 118.68H36.8094L37.8334 122.168L38.7134 125.32H38.7614L39.4974 122.168L40.3614 118.68H41.9774L39.7374 127H37.7694L36.6814 123.208L36.0094 120.872H35.9774L35.3214 123.208L34.2174 127H32.2974L30.0254 118.68ZM49.5628 127C49.1041 127 48.7521 126.872 48.5068 126.616C48.2614 126.349 48.1121 126.013 48.0588 125.608H47.9788C47.8188 126.131 47.5254 126.525 47.0988 126.792C46.6721 127.059 46.1548 127.192 45.5468 127.192C44.6828 127.192 44.0161 126.968 43.5468 126.52C43.0881 126.072 42.8588 125.469 42.8588 124.712C42.8588 123.88 43.1574 123.256 43.7548 122.84C44.3628 122.424 45.2481 122.216 46.4108 122.216H47.9148V121.512C47.9148 121 47.7761 120.605 47.4988 120.328C47.2214 120.051 46.7894 119.912 46.2028 119.912C45.7121 119.912 45.3121 120.019 45.0028 120.232C44.6934 120.445 44.4321 120.717 44.2188 121.048L43.1788 120.104C43.4561 119.635 43.8454 119.251 44.3468 118.952C44.8481 118.643 45.5041 118.488 46.3148 118.488C47.3921 118.488 48.2188 118.739 48.7948 119.24C49.3708 119.741 49.6588 120.461 49.6588 121.4V125.576H50.5388V127H49.5628ZM46.0428 125.864C46.5868 125.864 47.0348 125.747 47.3868 125.512C47.7388 125.267 47.9148 124.941 47.9148 124.536V123.336H46.4427C45.2374 123.336 44.6348 123.709 44.6348 124.456V124.744C44.6348 125.117 44.7574 125.4 45.0028 125.592C45.2588 125.773 45.6054 125.864 46.0428 125.864ZM52.248 127V118.68H53.992V120.28H54.072C54.1893 119.853 54.4347 119.48 54.808 119.16C55.1813 118.84 55.6987 118.68 56.36 118.68H56.824V120.36H56.136C55.4427 120.36 54.9093 120.472 54.536 120.696C54.1733 120.92 53.992 121.251 53.992 121.688V127H52.248ZM63.5269 125.624H63.4469C63.2655 126.115 62.9669 126.499 62.5509 126.776C62.1455 127.053 61.6655 127.192 61.1109 127.192C60.0549 127.192 59.2389 126.813 58.6629 126.056C58.0869 125.288 57.7989 124.216 57.7989 122.84C57.7989 121.464 58.0869 120.397 58.6629 119.64C59.2389 118.872 60.0549 118.488 61.1109 118.488C61.6655 118.488 62.1455 118.627 62.5509 118.904C62.9669 119.171 63.2655 119.555 63.4469 120.056H63.5269V115.16H65.2709V127H63.5269V125.624ZM61.6389 125.688C62.1722 125.688 62.6202 125.56 62.9829 125.304C63.3455 125.037 63.5269 124.691 63.5269 124.264V121.416C63.5269 120.989 63.3455 120.648 62.9829 120.392C62.6202 120.125 62.1722 119.992 61.6389 119.992C61.0309 119.992 60.5455 120.189 60.1829 120.584C59.8202 120.968 59.6389 121.48 59.6389 122.12V123.56C59.6389 124.2 59.8202 124.717 60.1829 125.112C60.5455 125.496 61.0309 125.688 61.6389 125.688Z" fill="#181818"/>
<path d="M120.888 126.844C120.099 126.844 119.437 126.705 118.904 126.428C118.371 126.15 117.907 125.766 117.512 125.276L118.632 124.252C118.941 124.625 119.283 124.918 119.656 125.132C120.04 125.334 120.483 125.436 120.984 125.436C121.496 125.436 121.875 125.34 122.12 125.148C122.376 124.945 122.504 124.668 122.504 124.316C122.504 124.049 122.413 123.825 122.232 123.644C122.061 123.452 121.757 123.329 121.32 123.276L120.552 123.18C119.699 123.073 119.027 122.828 118.536 122.444C118.056 122.049 117.816 121.468 117.816 120.7C117.816 120.294 117.891 119.937 118.04 119.628C118.189 119.308 118.397 119.041 118.664 118.828C118.941 118.604 119.267 118.433 119.64 118.316C120.024 118.198 120.445 118.14 120.904 118.14C121.651 118.14 122.259 118.257 122.728 118.492C123.208 118.726 123.635 119.052 124.008 119.468L122.936 120.492C122.723 120.236 122.44 120.017 122.088 119.836C121.747 119.644 121.352 119.548 120.904 119.548C120.424 119.548 120.067 119.644 119.832 119.836C119.608 120.028 119.496 120.278 119.496 120.588C119.496 120.908 119.597 121.148 119.8 121.308C120.003 121.468 120.328 121.585 120.776 121.66L121.544 121.756C122.461 121.894 123.128 122.166 123.544 122.572C123.971 122.966 124.184 123.5 124.184 124.172C124.184 124.577 124.104 124.945 123.944 125.276C123.795 125.596 123.576 125.873 123.288 126.108C123 126.342 122.653 126.524 122.248 126.652C121.843 126.78 121.389 126.844 120.888 126.844ZM128.349 126.652C127.741 126.652 127.282 126.497 126.973 126.188C126.664 125.868 126.509 125.42 126.509 124.844V119.756H125.213V118.332H125.917C126.205 118.332 126.402 118.268 126.509 118.14C126.626 118.012 126.685 117.804 126.685 117.516V116.06H128.253V118.332H129.997V119.756H128.253V125.228H129.869V126.652H128.349ZM135.09 126.844C134.493 126.844 133.959 126.742 133.49 126.54C133.021 126.337 132.621 126.049 132.29 125.676C131.959 125.292 131.703 124.833 131.522 124.3C131.351 123.756 131.266 123.153 131.266 122.492C131.266 121.83 131.351 121.233 131.522 120.7C131.703 120.156 131.959 119.697 132.29 119.324C132.621 118.94 133.021 118.646 133.49 118.444C133.959 118.241 134.493 118.14 135.09 118.14C135.698 118.14 136.231 118.246 136.69 118.46C137.159 118.673 137.549 118.972 137.858 119.356C138.167 119.729 138.397 120.166 138.546 120.668C138.706 121.169 138.786 121.708 138.786 122.284V122.94H133.074V123.212C133.074 123.852 133.261 124.38 133.634 124.796C134.018 125.201 134.562 125.404 135.266 125.404C135.778 125.404 136.21 125.292 136.562 125.068C136.914 124.844 137.213 124.54 137.458 124.156L138.482 125.164C138.173 125.676 137.725 126.086 137.138 126.396C136.551 126.694 135.869 126.844 135.09 126.844ZM135.09 119.5C134.791 119.5 134.514 119.553 134.258 119.66C134.013 119.766 133.799 119.916 133.618 120.108C133.447 120.3 133.314 120.529 133.218 120.796C133.122 121.062 133.074 121.356 133.074 121.676V121.788H136.946V121.628C136.946 120.988 136.781 120.476 136.45 120.092C136.119 119.697 135.666 119.5 135.09 119.5ZM140.717 118.332H142.461V119.708H142.541C142.722 119.206 143.015 118.822 143.421 118.556C143.837 118.278 144.322 118.14 144.877 118.14C145.933 118.14 146.749 118.524 147.325 119.292C147.901 120.049 148.189 121.116 148.189 122.492C148.189 123.868 147.901 124.94 147.325 125.708C146.749 126.465 145.933 126.844 144.877 126.844C144.322 126.844 143.837 126.705 143.421 126.428C143.015 126.15 142.722 125.766 142.541 125.276H142.461V129.852H140.717V118.332ZM144.349 125.34C144.957 125.34 145.442 125.148 145.805 124.764C146.167 124.369 146.349 123.852 146.349 123.212V121.772C146.349 121.132 146.167 120.62 145.805 120.236C145.442 119.841 144.957 119.644 144.349 119.644C143.815 119.644 143.367 119.777 143.005 120.044C142.642 120.3 142.461 120.641 142.461 121.068V123.916C142.461 124.342 142.642 124.689 143.005 124.956C143.367 125.212 143.815 125.34 144.349 125.34ZM152.826 126.844C152.036 126.844 151.375 126.705 150.842 126.428C150.308 126.15 149.844 125.766 149.45 125.276L150.57 124.252C150.879 124.625 151.22 124.918 151.594 125.132C151.978 125.334 152.42 125.436 152.922 125.436C153.434 125.436 153.812 125.34 154.058 125.148C154.314 124.945 154.442 124.668 154.442 124.316C154.442 124.049 154.351 123.825 154.17 123.644C153.999 123.452 153.695 123.329 153.258 123.276L152.49 123.18C151.636 123.073 150.964 122.828 150.474 122.444C149.994 122.049 149.754 121.468 149.754 120.7C149.754 120.294 149.828 119.937 149.978 119.628C150.127 119.308 150.335 119.041 150.602 118.828C150.879 118.604 151.204 118.433 151.578 118.316C151.962 118.198 152.383 118.14 152.842 118.14C153.588 118.14 154.196 118.257 154.666 118.492C155.146 118.726 155.572 119.052 155.946 119.468L154.874 120.492C154.66 120.236 154.378 120.017 154.026 119.836C153.684 119.644 153.29 119.548 152.842 119.548C152.362 119.548 152.004 119.644 151.77 119.836C151.546 120.028 151.434 120.278 151.434 120.588C151.434 120.908 151.535 121.148 151.738 121.308C151.94 121.468 152.266 121.585 152.714 121.66L153.482 121.756C154.399 121.894 155.066 122.166 155.482 122.572C155.908 122.966 156.122 123.5 156.122 124.172C156.122 124.577 156.042 124.945 155.882 125.276C155.732 125.596 155.514 125.873 155.226 126.108C154.938 126.342 154.591 126.524 154.186 126.652C153.78 126.78 153.327 126.844 152.826 126.844Z" fill="#181818"/>
</g>
<defs>
<clipPath id="clip0_6027_416">
<rect width="163" height="43" fill="white" transform="translate(0 102)"/>
</clipPath>
</defs>
</svg>
