<svg width="171" height="107" viewBox="0 0 171 107" fill="none" xmlns="http://www.w3.org/2000/svg">
<path d="M85.4297 0.75C104.359 0.75004 115.692 4.46746 124.618 7.39551C127.542 8.35453 130.238 9.23949 132.854 9.87598C133.421 10.0137 133.997 10.0752 134.567 10.0752H163.96C167.412 10.0752 170.21 12.8734 170.21 16.3252V58.8623C170.21 62.3141 167.412 65.1123 163.96 65.1123H32.9639C30.239 65.1125 27.8398 66.7119 25.834 68.0479C24.056 69.232 21.7073 69.9639 19.1143 69.9639C15.8476 69.9638 12.9777 68.8038 11.1416 67.0498C10.0842 66.0396 8.66465 65.1123 7 65.1123C3.54822 65.1123 0.75 62.3141 0.75 58.8623V16.3252C0.75 12.8734 3.54822 10.0752 7 10.0752H36.4404C37.0089 10.0752 37.5836 10.0139 38.1484 9.87695C40.7945 9.23535 43.5082 8.34101 46.4492 7.37207C55.3246 4.44806 66.5479 0.75 85.4297 0.75Z" fill="#FFD06A" stroke="#FFB109" stroke-width="1.5"/>
<path d="M9.21458 25.3812H10.9106L11.7586 28.8692L12.5106 32.0212H12.5586L13.4226 28.8692L14.4306 25.3812H15.9986L17.0226 28.8692L17.9026 32.0212H17.9506L18.6866 28.8692L19.5506 25.3812H21.1666L18.9266 33.7012H16.9586L15.8706 29.9092L15.1986 27.5732H15.1666L14.5106 29.9092L13.4066 33.7012H11.4866L9.21458 25.3812ZM22.8278 21.8612H24.5718V26.7572H24.6518C24.8332 26.3092 25.1052 25.9358 25.4678 25.6372C25.8412 25.3385 26.3478 25.1892 26.9878 25.1892C27.8412 25.1892 28.5025 25.4718 28.9718 26.0372C29.4518 26.5918 29.6918 27.3865 29.6918 28.4212V33.7012H27.9478V28.6292C27.9478 27.3385 27.4252 26.6932 26.3798 26.6932C26.1558 26.6932 25.9318 26.7252 25.7078 26.7892C25.4945 26.8425 25.3025 26.9278 25.1318 27.0452C24.9612 27.1625 24.8225 27.3118 24.7158 27.4932C24.6198 27.6745 24.5718 27.8825 24.5718 28.1172V33.7012H22.8278V21.8612ZM35.3731 33.8932C34.7758 33.8932 34.2424 33.7918 33.7731 33.5892C33.3038 33.3865 32.9038 33.0985 32.5731 32.7252C32.2424 32.3412 31.9864 31.8825 31.8051 31.3492C31.6344 30.8052 31.5491 30.2025 31.5491 29.5412C31.5491 28.8798 31.6344 28.2825 31.8051 27.7492C31.9864 27.2052 32.2424 26.7465 32.5731 26.3732C32.9038 25.9892 33.3038 25.6958 33.7731 25.4932C34.2424 25.2905 34.7758 25.1892 35.3731 25.1892C35.9811 25.1892 36.5144 25.2958 36.9731 25.5092C37.4424 25.7225 37.8318 26.0212 38.1411 26.4052C38.4504 26.7785 38.6798 27.2158 38.8291 27.7172C38.9891 28.2185 39.0691 28.7572 39.0691 29.3332V29.9892H33.3571V30.2612C33.3571 30.9012 33.5438 31.4292 33.9171 31.8452C34.3011 32.2505 34.8451 32.4532 35.5491 32.4532C36.0611 32.4532 36.4931 32.3412 36.8451 32.1172C37.1971 31.8932 37.4958 31.5892 37.7411 31.2052L38.7651 32.2132C38.4558 32.7252 38.0078 33.1358 37.4211 33.4452C36.8344 33.7438 36.1518 33.8932 35.3731 33.8932ZM35.3731 26.5492C35.0744 26.5492 34.7971 26.6025 34.5411 26.7092C34.2958 26.8158 34.0824 26.9652 33.9011 27.1572C33.7304 27.3492 33.5971 27.5785 33.5011 27.8452C33.4051 28.1118 33.3571 28.4052 33.3571 28.7252V28.8372H37.2291V28.6772C37.2291 28.0372 37.0638 27.5252 36.7331 27.1412C36.4024 26.7465 35.9491 26.5492 35.3731 26.5492ZM40.9997 33.7012V25.3812H42.7437V26.7572H42.8237C43.005 26.3092 43.277 25.9358 43.6397 25.6372C44.013 25.3385 44.5197 25.1892 45.1597 25.1892C46.013 25.1892 46.6744 25.4718 47.1437 26.0372C47.6237 26.5918 47.8637 27.3865 47.8637 28.4212V33.7012H46.1197V28.6452C46.1197 27.3438 45.597 26.6932 44.5517 26.6932C44.3277 26.6932 44.1037 26.7252 43.8797 26.7892C43.6664 26.8425 43.4744 26.9278 43.3037 27.0452C43.133 27.1625 42.9944 27.3118 42.8877 27.4932C42.7917 27.6745 42.7437 27.8878 42.7437 28.1332V33.7012H40.9997ZM57.2782 33.8932C56.6809 33.8932 56.1475 33.7918 55.6782 33.5892C55.2089 33.3865 54.8142 33.0985 54.4942 32.7252C54.1742 32.3412 53.9289 31.8825 53.7582 31.3492C53.5875 30.8052 53.5022 30.2025 53.5022 29.5412C53.5022 28.8798 53.5875 28.2825 53.7582 27.7492C53.9289 27.2052 54.1742 26.7465 54.4942 26.3732C54.8142 25.9892 55.2089 25.6958 55.6782 25.4932C56.1475 25.2905 56.6809 25.1892 57.2782 25.1892C58.1102 25.1892 58.7929 25.3758 59.3262 25.7492C59.8595 26.1225 60.2489 26.6185 60.4942 27.2372L59.0542 27.9092C58.9369 27.5252 58.7289 27.2212 58.4302 26.9972C58.1422 26.7625 57.7582 26.6452 57.2782 26.6452C56.6382 26.6452 56.1529 26.8478 55.8222 27.2532C55.5022 27.6478 55.3422 28.1652 55.3422 28.8052V30.2932C55.3422 30.9332 55.5022 31.4558 55.8222 31.8612C56.1529 32.2558 56.6382 32.4532 57.2782 32.4532C57.7902 32.4532 58.1955 32.3305 58.4942 32.0852C58.8035 31.8292 59.0489 31.4932 59.2302 31.0772L60.5582 31.7812C60.2809 32.4638 59.8649 32.9865 59.3102 33.3492C58.7555 33.7118 58.0782 33.8932 57.2782 33.8932ZM62.2185 21.8612H63.9625V26.7572H64.0425C64.2238 26.3092 64.4958 25.9358 64.8585 25.6372C65.2318 25.3385 65.7385 25.1892 66.3785 25.1892C67.2318 25.1892 67.8931 25.4718 68.3625 26.0372C68.8425 26.5918 69.0825 27.3865 69.0825 28.4212V33.7012H67.3385V28.6292C67.3385 27.3385 66.8158 26.6932 65.7705 26.6932C65.5465 26.6932 65.3225 26.7252 65.0985 26.7892C64.8851 26.8425 64.6931 26.9278 64.5225 27.0452C64.3518 27.1625 64.2131 27.3118 64.1065 27.4932C64.0105 27.6745 63.9625 27.8825 63.9625 28.1172V33.7012H62.2185V21.8612ZM77.5957 33.7012C77.137 33.7012 76.785 33.5732 76.5397 33.3172C76.2944 33.0505 76.145 32.7145 76.0917 32.3092H76.0117C75.8517 32.8318 75.5584 33.2265 75.1317 33.4932C74.705 33.7598 74.1877 33.8932 73.5797 33.8932C72.7157 33.8932 72.049 33.6692 71.5797 33.2212C71.121 32.7732 70.8917 32.1705 70.8917 31.4132C70.8917 30.5812 71.1904 29.9572 71.7877 29.5412C72.3957 29.1252 73.281 28.9172 74.4437 28.9172H75.9477V28.2132C75.9477 27.7012 75.809 27.3065 75.5317 27.0292C75.2544 26.7518 74.8224 26.6132 74.2357 26.6132C73.745 26.6132 73.345 26.7198 73.0357 26.9332C72.7264 27.1465 72.465 27.4185 72.2517 27.7492L71.2117 26.8052C71.489 26.3358 71.8784 25.9518 72.3797 25.6532C72.881 25.3438 73.537 25.1892 74.3477 25.1892C75.425 25.1892 76.2517 25.4398 76.8277 25.9412C77.4037 26.4425 77.6917 27.1625 77.6917 28.1012V32.2772H78.5717V33.7012H77.5957ZM74.0757 32.5652C74.6197 32.5652 75.0677 32.4478 75.4197 32.2132C75.7717 31.9678 75.9477 31.6425 75.9477 31.2372V30.0372H74.4757C73.2704 30.0372 72.6677 30.4105 72.6677 31.1572V31.4452C72.6677 31.8185 72.7904 32.1012 73.0357 32.2932C73.2917 32.4745 73.6384 32.5652 74.0757 32.5652ZM80.281 33.7012V25.3812H82.025V26.9812H82.105C82.2223 26.5545 82.4676 26.1812 82.841 25.8612C83.2143 25.5412 83.7316 25.3812 84.393 25.3812H84.857V27.0612H84.169C83.4756 27.0612 82.9423 27.1732 82.569 27.3972C82.2063 27.6212 82.025 27.9518 82.025 28.3892V33.7012H80.281ZM92.377 33.7012C91.9183 33.7012 91.5663 33.5732 91.321 33.3172C91.0756 33.0505 90.9263 32.7145 90.873 32.3092H90.793C90.633 32.8318 90.3396 33.2265 89.913 33.4932C89.4863 33.7598 88.969 33.8932 88.361 33.8932C87.497 33.8932 86.8303 33.6692 86.361 33.2212C85.9023 32.7732 85.673 32.1705 85.673 31.4132C85.673 30.5812 85.9716 29.9572 86.569 29.5412C87.177 29.1252 88.0623 28.9172 89.225 28.9172H90.729V28.2132C90.729 27.7012 90.5903 27.3065 90.313 27.0292C90.0356 26.7518 89.6036 26.6132 89.017 26.6132C88.5263 26.6132 88.1263 26.7198 87.817 26.9332C87.5076 27.1465 87.2463 27.4185 87.033 27.7492L85.993 26.8052C86.2703 26.3358 86.6596 25.9518 87.161 25.6532C87.6623 25.3438 88.3183 25.1892 89.129 25.1892C90.2063 25.1892 91.033 25.4398 91.609 25.9412C92.185 26.4425 92.473 27.1625 92.473 28.1012V32.2772H93.353V33.7012H92.377ZM88.857 32.5652C89.401 32.5652 89.849 32.4478 90.201 32.2132C90.553 31.9678 90.729 31.6425 90.729 31.2372V30.0372H89.257C88.0516 30.0372 87.449 30.4105 87.449 31.1572V31.4452C87.449 31.8185 87.5716 32.1012 87.817 32.2932C88.073 32.4745 88.4196 32.5652 88.857 32.5652ZM98.2782 33.8932C97.6809 33.8932 97.1475 33.7918 96.6782 33.5892C96.2089 33.3865 95.8142 33.0985 95.4942 32.7252C95.1742 32.3412 94.9289 31.8825 94.7582 31.3492C94.5875 30.8052 94.5022 30.2025 94.5022 29.5412C94.5022 28.8798 94.5875 28.2825 94.7582 27.7492C94.9289 27.2052 95.1742 26.7465 95.4942 26.3732C95.8142 25.9892 96.2089 25.6958 96.6782 25.4932C97.1475 25.2905 97.6809 25.1892 98.2782 25.1892C99.1102 25.1892 99.7929 25.3758 100.326 25.7492C100.86 26.1225 101.249 26.6185 101.494 27.2372L100.054 27.9092C99.9369 27.5252 99.7289 27.2212 99.4302 26.9972C99.1422 26.7625 98.7582 26.6452 98.2782 26.6452C97.6382 26.6452 97.1529 26.8478 96.8222 27.2532C96.5022 27.6478 96.3422 28.1652 96.3422 28.8052V30.2932C96.3422 30.9332 96.5022 31.4558 96.8222 31.8612C97.1529 32.2558 97.6382 32.4532 98.2782 32.4532C98.7902 32.4532 99.1955 32.3305 99.4942 32.0852C99.8035 31.8292 100.049 31.4932 100.23 31.0772L101.558 31.7812C101.281 32.4638 100.865 32.9865 100.31 33.3492C99.7555 33.7118 99.0782 33.8932 98.2782 33.8932ZM105.522 33.7012C104.914 33.7012 104.456 33.5465 104.146 33.2372C103.837 32.9172 103.682 32.4692 103.682 31.8932V26.8052H102.386V25.3812H103.09C103.378 25.3812 103.576 25.3172 103.682 25.1892C103.8 25.0612 103.858 24.8532 103.858 24.5652V23.1092H105.426V25.3812H107.17V26.8052L105.426 26.8052V32.2772H107.042V33.7012H105.522ZM112.264 33.8932C111.666 33.8932 111.133 33.7918 110.664 33.5892C110.194 33.3865 109.794 33.0985 109.464 32.7252C109.133 32.3412 108.877 31.8825 108.696 31.3492C108.525 30.8052 108.44 30.2025 108.44 29.5412C108.44 28.8798 108.525 28.2825 108.696 27.7492C108.877 27.2052 109.133 26.7465 109.464 26.3732C109.794 25.9892 110.194 25.6958 110.664 25.4932C111.133 25.2905 111.666 25.1892 112.264 25.1892C112.872 25.1892 113.405 25.2958 113.864 25.5092C114.333 25.7225 114.722 26.0212 115.032 26.4052C115.341 26.7785 115.57 27.2158 115.72 27.7172C115.88 28.2185 115.96 28.7572 115.96 29.3332V29.9892H110.248V30.2612C110.248 30.9012 110.434 31.4292 110.808 31.8452C111.192 32.2505 111.736 32.4532 112.44 32.4532C112.952 32.4532 113.384 32.3412 113.736 32.1172C114.088 31.8932 114.386 31.5892 114.632 31.2052L115.656 32.2132C115.346 32.7252 114.898 33.1358 114.312 33.4452C113.725 33.7438 113.042 33.8932 112.264 33.8932ZM112.264 26.5492C111.965 26.5492 111.688 26.6025 111.432 26.7092C111.186 26.8158 110.973 26.9652 110.792 27.1572C110.621 27.3492 110.488 27.5785 110.392 27.8452C110.296 28.1118 110.248 28.4052 110.248 28.7252V28.8372H114.12V28.6772C114.12 28.0372 113.954 27.5252 113.624 27.1412C113.293 26.7465 112.84 26.5492 112.264 26.5492ZM117.89 33.7012V25.3812H119.634V26.9812H119.714C119.832 26.5545 120.077 26.1812 120.45 25.8612C120.824 25.5412 121.341 25.3812 122.002 25.3812H122.466V27.0612H121.778C121.085 27.0612 120.552 27.1732 120.178 27.3972C119.816 27.6212 119.634 27.9518 119.634 28.3892V33.7012H117.89ZM10.9266 42.8932C10.5639 42.8932 10.2973 42.8078 10.1266 42.6372C9.96658 42.4665 9.88658 42.2478 9.88658 41.9812V41.7092C9.88658 41.4425 9.96658 41.2238 10.1266 41.0532C10.2973 40.8825 10.5639 40.7972 10.9266 40.7972C11.2893 40.7972 11.5506 40.8825 11.7106 41.0532C11.8706 41.2238 11.9506 41.4425 11.9506 41.7092V41.9812C11.9506 42.2478 11.8706 42.4665 11.7106 42.6372C11.5506 42.8078 11.2893 42.8932 10.9266 42.8932ZM10.0466 44.3812H11.7906V52.7012H10.0466V44.3812ZM16.921 52.8932C16.1316 52.8932 15.4703 52.7545 14.937 52.4772C14.4036 52.1998 13.9396 51.8158 13.545 51.3252L14.665 50.3012C14.9743 50.6745 15.3156 50.9678 15.689 51.1812C16.073 51.3838 16.5156 51.4852 17.017 51.4852C17.529 51.4852 17.9076 51.3892 18.153 51.1972C18.409 50.9945 18.537 50.7172 18.537 50.3652C18.537 50.0985 18.4463 49.8745 18.265 49.6932C18.0943 49.5012 17.7903 49.3785 17.353 49.3252L16.585 49.2292C15.7316 49.1225 15.0596 48.8772 14.569 48.4932C14.089 48.0985 13.849 47.5172 13.849 46.7492C13.849 46.3438 13.9236 45.9865 14.073 45.6772C14.2223 45.3572 14.4303 45.0905 14.697 44.8772C14.9743 44.6532 15.2996 44.4825 15.673 44.3652C16.057 44.2478 16.4783 44.1892 16.937 44.1892C17.6836 44.1892 18.2916 44.3065 18.761 44.5412C19.241 44.7758 19.6676 45.1012 20.041 45.5172L18.969 46.5412C18.7556 46.2852 18.473 46.0665 18.121 45.8852C17.7796 45.6932 17.385 45.5972 16.937 45.5972C16.457 45.5972 16.0996 45.6932 15.865 45.8852C15.641 46.0772 15.529 46.3278 15.529 46.6372C15.529 46.9572 15.6303 47.1972 15.833 47.3572C16.0356 47.5172 16.361 47.6345 16.809 47.7092L17.577 47.8052C18.4943 47.9438 19.161 48.2158 19.577 48.6212C20.0036 49.0158 20.217 49.5492 20.217 50.2212C20.217 50.6265 20.137 50.9945 19.977 51.3252C19.8276 51.6452 19.609 51.9225 19.321 52.1572C19.033 52.3918 18.6863 52.5732 18.281 52.7012C17.8756 52.8292 17.4223 52.8932 16.921 52.8932ZM28.2725 52.7012C27.6645 52.7012 27.2058 52.5465 26.8965 52.2372C26.5871 51.9172 26.4325 51.4692 26.4325 50.8932V45.8052H25.1365V44.3812H25.8405C26.1285 44.3812 26.3258 44.3172 26.4325 44.1892C26.5498 44.0612 26.6085 43.8532 26.6085 43.5652V42.1092H28.1765V44.3812H29.9205V45.8052H28.1765V51.2772H29.7925V52.7012H28.2725ZM35.0137 52.8932C34.4377 52.8932 33.9097 52.7918 33.4297 52.5892C32.9604 52.3865 32.5604 52.0985 32.2297 51.7252C31.899 51.3412 31.643 50.8825 31.4617 50.3492C31.2804 49.8052 31.1897 49.2025 31.1897 48.5412C31.1897 47.8798 31.2804 47.2825 31.4617 46.7492C31.643 46.2052 31.899 45.7465 32.2297 45.3732C32.5604 44.9892 32.9604 44.6958 33.4297 44.4932C33.9097 44.2905 34.4377 44.1892 35.0137 44.1892C35.5897 44.1892 36.1124 44.2905 36.5817 44.4932C37.0617 44.6958 37.467 44.9892 37.7977 45.3732C38.1284 45.7465 38.3844 46.2052 38.5657 46.7492C38.747 47.2825 38.8377 47.8798 38.8377 48.5412C38.8377 49.2025 38.747 49.8052 38.5657 50.3492C38.3844 50.8825 38.1284 51.3412 37.7977 51.7252C37.467 52.0985 37.0617 52.3865 36.5817 52.5892C36.1124 52.7918 35.5897 52.8932 35.0137 52.8932ZM35.0137 51.4532C35.611 51.4532 36.091 51.2718 36.4537 50.9092C36.8164 50.5358 36.9977 49.9812 36.9977 49.2452V47.8372C36.9977 47.1012 36.8164 46.5518 36.4537 46.1892C36.091 45.8158 35.611 45.6292 35.0137 45.6292C34.4164 45.6292 33.9364 45.8158 33.5737 46.1892C33.211 46.5518 33.0297 47.1012 33.0297 47.8372V49.2452C33.0297 49.9812 33.211 50.5358 33.5737 50.9092C33.9364 51.2718 34.4164 51.4532 35.0137 51.4532ZM45.821 51.3252H45.757C45.6823 51.5278 45.581 51.7252 45.453 51.9172C45.3356 52.1092 45.181 52.2798 44.989 52.4292C44.8076 52.5678 44.5836 52.6798 44.317 52.7652C44.061 52.8505 43.7623 52.8932 43.421 52.8932C42.557 52.8932 41.885 52.6158 41.405 52.0612C40.9356 51.5065 40.701 50.7118 40.701 49.6772V44.3812H42.445V49.4532C42.445 50.7438 42.9783 51.3892 44.045 51.3892C44.269 51.3892 44.4876 51.3625 44.701 51.3092C44.9143 51.2452 45.101 51.1545 45.261 51.0372C45.4316 50.9198 45.565 50.7705 45.661 50.5892C45.7676 50.4078 45.821 50.1945 45.821 49.9492V44.3812H47.565V52.7012H45.821V51.3252ZM53.2782 52.8932C52.6809 52.8932 52.1475 52.7918 51.6782 52.5892C51.2089 52.3865 50.8142 52.0985 50.4942 51.7252C50.1742 51.3412 49.9289 50.8825 49.7582 50.3492C49.5875 49.8052 49.5022 49.2025 49.5022 48.5412C49.5022 47.8798 49.5875 47.2825 49.7582 46.7492C49.9289 46.2052 50.1742 45.7465 50.4942 45.3732C50.8142 44.9892 51.2089 44.6958 51.6782 44.4932C52.1475 44.2905 52.6809 44.1892 53.2782 44.1892C54.1102 44.1892 54.7929 44.3758 55.3262 44.7492C55.8595 45.1225 56.2489 45.6185 56.4942 46.2372L55.0542 46.9092C54.9369 46.5252 54.7289 46.2212 54.4302 45.9972C54.1422 45.7625 53.7582 45.6452 53.2782 45.6452C52.6382 45.6452 52.1529 45.8478 51.8222 46.2532C51.5022 46.6478 51.3422 47.1652 51.3422 47.8052V49.2932C51.3422 49.9332 51.5022 50.4558 51.8222 50.8612C52.1529 51.2558 52.6382 51.4532 53.2782 51.4532C53.7902 51.4532 54.1955 51.3305 54.4942 51.0852C54.8035 50.8292 55.0489 50.4932 55.2302 50.0772L56.5582 50.7812C56.2809 51.4638 55.8649 51.9865 55.3102 52.3492C54.7555 52.7118 54.0782 52.8932 53.2782 52.8932ZM58.2185 40.8612H59.9625V45.7572H60.0425C60.2238 45.3092 60.4958 44.9358 60.8585 44.6372C61.2318 44.3385 61.7385 44.1892 62.3785 44.1892C63.2318 44.1892 63.8931 44.4718 64.3625 45.0372C64.8425 45.5918 65.0825 46.3865 65.0825 47.4212V52.7012H63.3385V47.6292C63.3385 46.3385 62.8158 45.6932 61.7705 45.6932C61.5465 45.6932 61.3225 45.7252 61.0985 45.7892C60.8851 45.8425 60.6931 45.9278 60.5225 46.0452C60.3518 46.1625 60.2131 46.3118 60.1065 46.4932C60.0105 46.6745 59.9625 46.8825 59.9625 47.1172V52.7012H58.2185V40.8612ZM70.7637 52.8932C70.1664 52.8932 69.633 52.7918 69.1637 52.5892C68.6944 52.3865 68.2944 52.0985 67.9637 51.7252C67.633 51.3412 67.377 50.8825 67.1957 50.3492C67.025 49.8052 66.9397 49.2025 66.9397 48.5412C66.9397 47.8798 67.025 47.2825 67.1957 46.7492C67.377 46.2052 67.633 45.7465 67.9637 45.3732C68.2944 44.9892 68.6944 44.6958 69.1637 44.4932C69.633 44.2905 70.1664 44.1892 70.7637 44.1892C71.3717 44.1892 71.905 44.2958 72.3637 44.5092C72.833 44.7225 73.2224 45.0212 73.5317 45.4052C73.841 45.7785 74.0704 46.2158 74.2197 46.7172C74.3797 47.2185 74.4597 47.7572 74.4597 48.3332V48.9892H68.7477V49.2612C68.7477 49.9012 68.9344 50.4292 69.3077 50.8452C69.6917 51.2505 70.2357 51.4532 70.9397 51.4532C71.4517 51.4532 71.8837 51.3412 72.2357 51.1172C72.5877 50.8932 72.8864 50.5892 73.1317 50.2052L74.1557 51.2132C73.8464 51.7252 73.3984 52.1358 72.8117 52.4452C72.225 52.7438 71.5424 52.8932 70.7637 52.8932ZM70.7637 45.5492C70.465 45.5492 70.1877 45.6025 69.9317 45.7092C69.6864 45.8158 69.473 45.9652 69.2917 46.1572C69.121 46.3492 68.9877 46.5785 68.8917 46.8452C68.7957 47.1118 68.7477 47.4052 68.7477 47.7252V47.8372H72.6197V47.6772C72.6197 47.0372 72.4544 46.5252 72.1237 46.1412C71.793 45.7465 71.3397 45.5492 70.7637 45.5492ZM81.6223 51.3252H81.5423C81.361 51.8158 81.0623 52.1998 80.6463 52.4772C80.241 52.7545 79.761 52.8932 79.2063 52.8932C78.1503 52.8932 77.3343 52.5145 76.7583 51.7572C76.1823 50.9892 75.8943 49.9172 75.8943 48.5412C75.8943 47.1652 76.1823 46.0985 76.7583 45.3412C77.3343 44.5732 78.1503 44.1892 79.2063 44.1892C79.761 44.1892 80.241 44.3278 80.6463 44.6052C81.0623 44.8718 81.361 45.2558 81.5423 45.7572H81.6223V40.8612H83.3663V52.7012H81.6223V51.3252ZM79.7343 51.3892C80.2677 51.3892 80.7157 51.2612 81.0783 51.0052C81.441 50.7385 81.6223 50.3918 81.6223 49.9652V47.1172C81.6223 46.6905 81.441 46.3492 81.0783 46.0932C80.7157 45.8265 80.2677 45.6932 79.7343 45.6932C79.1263 45.6932 78.641 45.8905 78.2783 46.2852C77.9157 46.6692 77.7343 47.1812 77.7343 47.8212V49.2612C77.7343 49.9012 77.9157 50.4185 78.2783 50.8132C78.641 51.1972 79.1263 51.3892 79.7343 51.3892Z" fill="#181818"/>
<g clip-path="url(#clip0_6027_442)">
<path fill-rule="evenodd" clip-rule="evenodd" d="M1 69.0535C1 66.4583 3.11324 64.3545 5.72005 64.3545H6.6578C8.33747 64.3545 9.83054 65.3134 11.0471 66.4663C12.734 68.0651 15.0068 69.0535 17.5095 69.0535C20.0154 69.0535 22.2957 68.0626 23.9884 66.4603C25.2035 65.3099 26.6949 64.3545 28.3717 64.3545H159.122C161.729 64.3545 163.842 66.4583 163.842 69.0535V97.2477C163.842 99.8429 161.729 101.947 159.122 101.947H28.3717C26.6949 101.947 25.2035 102.902 23.9884 104.052C22.2957 105.655 20.0154 106.646 17.5095 106.646C15.0068 106.646 12.734 105.657 11.0471 104.059C9.83054 102.906 8.33747 101.947 6.6578 101.947H5.72005C3.11324 101.947 1 99.8429 1 97.2477V69.0535Z" fill="#A0C6FF"/>
<mask id="mask0_6027_442" style="mask-type:luminance" maskUnits="userSpaceOnUse" x="1" y="64" width="163" height="43">
<path fill-rule="evenodd" clip-rule="evenodd" d="M1 69.0535C1 66.4583 3.11324 64.3545 5.72005 64.3545H6.6578C8.33747 64.3545 9.83054 65.3134 11.0471 66.4663C12.734 68.0651 15.0068 69.0535 17.5095 69.0535C20.0154 69.0535 22.2957 68.0626 23.9884 66.4603C25.2035 65.3099 26.6949 64.3545 28.3717 64.3545H159.122C161.729 64.3545 163.842 66.4583 163.842 69.0535V97.2477C163.842 99.8429 161.729 101.947 159.122 101.947H28.3717C26.6949 101.947 25.2035 102.902 23.9884 104.052C22.2957 105.655 20.0154 106.646 17.5095 106.646C15.0068 106.646 12.734 105.657 11.0471 104.059C9.83054 102.906 8.33747 101.947 6.6578 101.947H5.72005C3.11324 101.947 1 99.8429 1 97.2477V69.0535Z" fill="white"/>
</mask>
<g mask="url(#mask0_6027_442)">
<path d="M6.6578 63.1797H5.72006V65.5292H6.6578V63.1797ZM17.5095 67.8787C15.3259 67.8787 13.3402 67.0177 11.8607 65.6155L10.2335 67.3171C12.1277 69.1125 14.6877 70.2282 17.5095 70.2282V67.8787ZM23.1753 65.6089C21.6897 67.0152 19.6962 67.8787 17.5095 67.8787V70.2282C20.3346 70.2282 22.9018 69.11 24.8015 67.3116L23.1753 65.6089ZM159.122 63.1797H28.3717V65.5292H159.122V63.1797ZM165.022 97.2476V69.0535H162.662V97.2476H165.022ZM28.3717 103.121H159.122V100.772H28.3717V103.121ZM23.1753 103.201C21.6897 104.607 19.6962 105.471 17.5095 105.471V107.82C20.3346 107.82 22.9018 106.702 24.8015 104.904L23.1753 103.201ZM17.5095 105.471C15.3259 105.471 13.3402 104.61 11.8607 103.208L10.2335 104.909C12.1277 106.705 14.6877 107.82 17.5095 107.82V105.471ZM5.72006 103.121H6.6578V100.772H5.72006V103.121ZM-0.180008 69.0535V97.2476H2.18002V69.0535H-0.180008ZM5.72006 100.772C3.76495 100.772 2.18002 99.194 2.18002 97.2476H-0.180008C-0.180008 100.492 2.46154 103.121 5.72006 103.121V100.772ZM11.8607 103.208C10.5665 101.981 8.79161 100.772 6.6578 100.772V103.121C7.88339 103.121 9.09457 103.83 10.2335 104.909L11.8607 103.208ZM28.3717 100.772C26.2416 100.772 24.4686 101.977 23.1753 103.201L24.8015 104.904C25.9385 103.827 27.1482 103.121 28.3717 103.121V100.772ZM159.122 65.5292C161.077 65.5292 162.662 67.1071 162.662 69.0535H165.022C165.022 65.8095 162.38 63.1797 159.122 63.1797V65.5292ZM24.8015 67.3116C25.9385 66.2353 27.1482 65.5292 28.3717 65.5292V63.1797C26.2416 63.1797 24.4686 64.3845 23.1753 65.6089L24.8015 67.3116ZM5.72006 63.1797C2.46154 63.1797 -0.180008 65.8095 -0.180008 69.0535H2.18002C2.18002 67.1071 3.76495 65.5292 5.72006 65.5292V63.1797ZM162.662 97.2476C162.662 99.194 161.077 100.772 159.122 100.772V103.121C162.38 103.121 165.022 100.492 165.022 97.2476H162.662ZM6.6578 65.5292C7.88339 65.5292 9.09457 66.2378 10.2335 67.3171L11.8607 65.6155C10.5665 64.3889 8.79156 63.1797 6.6578 63.1797V65.5292Z" fill="#3F76C9"/>
</g>
<path d="M97.7609 71.4028H83.6007C77.0837 71.4028 71.8006 76.6624 71.8006 83.1504C71.8006 89.6384 77.0837 94.8979 83.6007 94.8979H97.7609C104.278 94.8979 109.561 89.6384 109.561 83.1504C109.561 76.6624 104.278 71.4028 97.7609 71.4028Z" fill="#FCFAF3"/>
<path d="M84.3868 84.5V82.974H88.6148V84.5H84.3868ZM97.8493 79.586H93.4113L93.1593 83.058H93.2713C93.4953 82.6753 93.766 82.372 94.0833 82.148C94.4006 81.9147 94.8346 81.798 95.3853 81.798C95.8053 81.798 96.1926 81.868 96.5473 82.008C96.9113 82.148 97.224 82.3487 97.4853 82.61C97.756 82.8713 97.966 83.1933 98.1153 83.576C98.274 83.9493 98.3533 84.374 98.3533 84.85C98.3533 85.3353 98.274 85.7833 98.1153 86.194C97.9566 86.5953 97.728 86.9453 97.4293 87.244C97.1306 87.5333 96.762 87.762 96.3233 87.93C95.8846 88.0887 95.3853 88.168 94.8253 88.168C94.3866 88.168 93.9946 88.1167 93.6493 88.014C93.3133 87.9207 93.01 87.7947 92.7393 87.636C92.478 87.468 92.2493 87.2813 92.0533 87.076C91.8573 86.8613 91.6846 86.642 91.5353 86.418L92.6833 85.522C92.8046 85.7087 92.9306 85.886 93.0613 86.054C93.2013 86.2127 93.3553 86.3527 93.5233 86.474C93.6913 86.5953 93.8826 86.6887 94.0973 86.754C94.3213 86.8193 94.5733 86.852 94.8533 86.852C95.46 86.852 95.922 86.6887 96.2393 86.362C96.5566 86.026 96.7153 85.5733 96.7153 85.004V84.892C96.7153 84.3227 96.552 83.8793 96.2253 83.562C95.908 83.2447 95.4506 83.086 94.8533 83.086C94.4146 83.086 94.0693 83.1653 93.8173 83.324C93.5653 83.4827 93.346 83.66 93.1593 83.856L91.8573 83.674L92.2213 78.228H97.8493V79.586Z" fill="#181818"/>
<path d="M11.68 82.104H10.416V80.68H11.68V79.304C11.68 78.632 11.856 78.1093 12.208 77.736C12.56 77.352 13.088 77.16 13.792 77.16H15.168V78.584H13.424V80.68H15.168V82.104H13.424V89H11.68V82.104ZM19.887 89.192C19.311 89.192 18.783 89.0907 18.303 88.888C17.8337 88.6853 17.4337 88.3973 17.103 88.024C16.7723 87.64 16.5163 87.1813 16.335 86.648C16.1537 86.104 16.063 85.5013 16.063 84.84C16.063 84.1787 16.1537 83.5813 16.335 83.048C16.5163 82.504 16.7723 82.0453 17.103 81.672C17.4337 81.288 17.8337 80.9947 18.303 80.792C18.783 80.5893 19.311 80.488 19.887 80.488C20.463 80.488 20.9857 80.5893 21.455 80.792C21.935 80.9947 22.3403 81.288 22.671 81.672C23.0017 82.0453 23.2577 82.504 23.439 83.048C23.6203 83.5813 23.711 84.1787 23.711 84.84C23.711 85.5013 23.6203 86.104 23.439 86.648C23.2577 87.1813 23.0017 87.64 22.671 88.024C22.3403 88.3973 21.935 88.6853 21.455 88.888C20.9857 89.0907 20.463 89.192 19.887 89.192ZM19.887 87.752C20.4843 87.752 20.9643 87.5707 21.327 87.208C21.6897 86.8347 21.871 86.28 21.871 85.544V84.136C21.871 83.4 21.6897 82.8507 21.327 82.488C20.9643 82.1147 20.4843 81.928 19.887 81.928C19.2897 81.928 18.8097 82.1147 18.447 82.488C18.0843 82.8507 17.903 83.4 17.903 84.136V85.544C17.903 86.28 18.0843 86.8347 18.447 87.208C18.8097 87.5707 19.2897 87.752 19.887 87.752ZM25.6543 89V80.68H27.3983V82.28H27.4783C27.5956 81.8533 27.8409 81.48 28.2143 81.16C28.5876 80.84 29.1049 80.68 29.7663 80.68H30.2303V82.36H29.5423C28.8489 82.36 28.3156 82.472 27.9423 82.696C27.5796 82.92 27.3983 83.2507 27.3983 83.688V89H25.6543ZM31.0254 80.68H32.7214L33.5694 84.168L34.3214 87.32H34.3694L35.2334 84.168L36.2414 80.68H37.8094L38.8334 84.168L39.7134 87.32H39.7614L40.4974 84.168L41.3614 80.68H42.9774L40.7374 89H38.7694L37.6814 85.208L37.0094 82.872H36.9774L36.3214 85.208L35.2174 89H33.2974L31.0254 80.68ZM50.5628 89C50.1041 89 49.7521 88.872 49.5068 88.616C49.2614 88.3493 49.1121 88.0133 49.0588 87.608H48.9788C48.8188 88.1307 48.5254 88.5253 48.0988 88.792C47.6721 89.0587 47.1548 89.192 46.5468 89.192C45.6828 89.192 45.0161 88.968 44.5468 88.52C44.0881 88.072 43.8588 87.4693 43.8588 86.712C43.8588 85.88 44.1574 85.256 44.7548 84.84C45.3628 84.424 46.2481 84.216 47.4108 84.216H48.9148V83.512C48.9148 83 48.7761 82.6053 48.4988 82.328C48.2214 82.0507 47.7894 81.912 47.2028 81.912C46.7121 81.912 46.3121 82.0187 46.0028 82.232C45.6934 82.4453 45.4321 82.7173 45.2188 83.048L44.1788 82.104C44.4561 81.6347 44.8454 81.2507 45.3468 80.952C45.8481 80.6427 46.5041 80.488 47.3148 80.488C48.3921 80.488 49.2188 80.7387 49.7948 81.24C50.3708 81.7413 50.6588 82.4613 50.6588 83.4V87.576H51.5388V89H50.5628ZM47.0428 87.864C47.5868 87.864 48.0348 87.7467 48.3868 87.512C48.7388 87.2667 48.9148 86.9413 48.9148 86.536V85.336H47.4427C46.2374 85.336 45.6348 85.7093 45.6348 86.456V86.744C45.6348 87.1173 45.7574 87.4 46.0028 87.592C46.2588 87.7733 46.6054 87.864 47.0428 87.864ZM53.248 89V80.68H54.992V82.28H55.072C55.1893 81.8533 55.4347 81.48 55.808 81.16C56.1813 80.84 56.6987 80.68 57.36 80.68H57.824V82.36H57.136C56.4427 82.36 55.9093 82.472 55.536 82.696C55.1733 82.92 54.992 83.2507 54.992 83.688V89H53.248ZM64.5269 87.624H64.4469C64.2655 88.1147 63.9669 88.4987 63.5509 88.776C63.1455 89.0533 62.6655 89.192 62.1109 89.192C61.0549 89.192 60.2389 88.8133 59.6629 88.056C59.0869 87.288 58.7989 86.216 58.7989 84.84C58.7989 83.464 59.0869 82.3973 59.6629 81.64C60.2389 80.872 61.0549 80.488 62.1109 80.488C62.6655 80.488 63.1455 80.6267 63.5509 80.904C63.9669 81.1707 64.2655 81.5547 64.4469 82.056H64.5269V77.16H66.2709V89H64.5269V87.624ZM62.6389 87.688C63.1722 87.688 63.6202 87.56 63.9829 87.304C64.3455 87.0373 64.5269 86.6907 64.5269 86.264V83.416C64.5269 82.9893 64.3455 82.648 63.9829 82.392C63.6202 82.1253 63.1722 81.992 62.6389 81.992C62.0309 81.992 61.5455 82.1893 61.1829 82.584C60.8202 82.968 60.6389 83.48 60.6389 84.12V85.56C60.6389 86.2 60.8202 86.7173 61.1829 87.112C61.5455 87.496 62.0309 87.688 62.6389 87.688Z" fill="#181818"/>
<path d="M121.888 88.8437C121.099 88.8437 120.437 88.7051 119.904 88.4277C119.371 88.1504 118.907 87.7664 118.512 87.2757L119.632 86.2517C119.941 86.6251 120.283 86.9184 120.656 87.1317C121.04 87.3344 121.483 87.4357 121.984 87.4357C122.496 87.4357 122.875 87.3397 123.12 87.1477C123.376 86.9451 123.504 86.6677 123.504 86.3157C123.504 86.0491 123.413 85.8251 123.232 85.6437C123.061 85.4517 122.757 85.3291 122.32 85.2757L121.552 85.1797C120.699 85.0731 120.027 84.8277 119.536 84.4437C119.056 84.0491 118.816 83.4677 118.816 82.6997C118.816 82.2944 118.891 81.9371 119.04 81.6277C119.189 81.3077 119.397 81.0411 119.664 80.8277C119.941 80.6037 120.267 80.4331 120.64 80.3157C121.024 80.1984 121.445 80.1397 121.904 80.1397C122.651 80.1397 123.259 80.2571 123.728 80.4917C124.208 80.7264 124.635 81.0517 125.008 81.4677L123.936 82.4917C123.723 82.2357 123.44 82.0171 123.088 81.8357C122.747 81.6437 122.352 81.5477 121.904 81.5477C121.424 81.5477 121.067 81.6437 120.832 81.8357C120.608 82.0277 120.496 82.2784 120.496 82.5877C120.496 82.9077 120.597 83.1477 120.8 83.3077C121.003 83.4677 121.328 83.5851 121.776 83.6597L122.544 83.7557C123.461 83.8944 124.128 84.1664 124.544 84.5717C124.971 84.9664 125.184 85.4997 125.184 86.1717C125.184 86.5771 125.104 86.9451 124.944 87.2757C124.795 87.5957 124.576 87.8731 124.288 88.1077C124 88.3424 123.653 88.5237 123.248 88.6517C122.843 88.7797 122.389 88.8437 121.888 88.8437ZM129.349 88.6517C128.741 88.6517 128.282 88.4971 127.973 88.1877C127.664 87.8677 127.509 87.4197 127.509 86.8437V81.7557H126.213V80.3317H126.917C127.205 80.3317 127.402 80.2677 127.509 80.1397C127.626 80.0117 127.685 79.8037 127.685 79.5157V78.0597H129.253V80.3317H130.997V81.7557H129.253V87.2277H130.869V88.6517H129.349ZM136.09 88.8437C135.493 88.8437 134.959 88.7424 134.49 88.5397C134.021 88.3371 133.621 88.0491 133.29 87.6757C132.959 87.2917 132.703 86.8331 132.522 86.2997C132.351 85.7557 132.266 85.1531 132.266 84.4917C132.266 83.8304 132.351 83.2331 132.522 82.6997C132.703 82.1557 132.959 81.6971 133.29 81.3237C133.621 80.9397 134.021 80.6464 134.49 80.4437C134.959 80.2411 135.493 80.1397 136.09 80.1397C136.698 80.1397 137.231 80.2464 137.69 80.4597C138.159 80.6731 138.549 80.9717 138.858 81.3557C139.167 81.7291 139.397 82.1664 139.546 82.6677C139.706 83.1691 139.786 83.7077 139.786 84.2837V84.9397H134.074V85.2117C134.074 85.8517 134.261 86.3797 134.634 86.7957C135.018 87.2011 135.562 87.4037 136.266 87.4037C136.778 87.4037 137.21 87.2917 137.562 87.0677C137.914 86.8437 138.213 86.5397 138.458 86.1557L139.482 87.1637C139.173 87.6757 138.725 88.0864 138.138 88.3957C137.551 88.6944 136.869 88.8437 136.09 88.8437ZM136.09 81.4997C135.791 81.4997 135.514 81.5531 135.258 81.6597C135.013 81.7664 134.799 81.9157 134.618 82.1077C134.447 82.2997 134.314 82.5291 134.218 82.7957C134.122 83.0624 134.074 83.3557 134.074 83.6757V83.7877H137.946V83.6277C137.946 82.9877 137.781 82.4757 137.45 82.0917C137.119 81.6971 136.666 81.4997 136.09 81.4997ZM141.717 80.3317H143.461V81.7077H143.541C143.722 81.2064 144.015 80.8224 144.421 80.5557C144.837 80.2784 145.322 80.1397 145.877 80.1397C146.933 80.1397 147.749 80.5237 148.325 81.2917C148.901 82.0491 149.189 83.1157 149.189 84.4917C149.189 85.8677 148.901 86.9397 148.325 87.7077C147.749 88.4651 146.933 88.8437 145.877 88.8437C145.322 88.8437 144.837 88.7051 144.421 88.4277C144.015 88.1504 143.722 87.7664 143.541 87.2757H143.461V91.8517H141.717V80.3317ZM145.349 87.3397C145.957 87.3397 146.442 87.1477 146.805 86.7637C147.167 86.3691 147.349 85.8517 147.349 85.2117V83.7717C147.349 83.1317 147.167 82.6197 146.805 82.2357C146.442 81.8411 145.957 81.6437 145.349 81.6437C144.815 81.6437 144.367 81.7771 144.005 82.0437C143.642 82.2997 143.461 82.6411 143.461 83.0677V85.9157C143.461 86.3424 143.642 86.6891 144.005 86.9557C144.367 87.2117 144.815 87.3397 145.349 87.3397ZM153.826 88.8437C153.036 88.8437 152.375 88.7051 151.842 88.4277C151.308 88.1504 150.844 87.7664 150.45 87.2757L151.57 86.2517C151.879 86.6251 152.22 86.9184 152.594 87.1317C152.978 87.3344 153.42 87.4357 153.922 87.4357C154.434 87.4357 154.812 87.3397 155.058 87.1477C155.314 86.9451 155.442 86.6677 155.442 86.3157C155.442 86.0491 155.351 85.8251 155.17 85.6437C154.999 85.4517 154.695 85.3291 154.258 85.2757L153.49 85.1797C152.636 85.0731 151.964 84.8277 151.474 84.4437C150.994 84.0491 150.754 83.4677 150.754 82.6997C150.754 82.2944 150.828 81.9371 150.978 81.6277C151.127 81.3077 151.335 81.0411 151.602 80.8277C151.879 80.6037 152.204 80.4331 152.578 80.3157C152.962 80.1984 153.383 80.1397 153.842 80.1397C154.588 80.1397 155.196 80.2571 155.666 80.4917C156.146 80.7264 156.572 81.0517 156.946 81.4677L155.874 82.4917C155.66 82.2357 155.378 82.0171 155.026 81.8357C154.684 81.6437 154.29 81.5477 153.842 81.5477C153.362 81.5477 153.004 81.6437 152.77 81.8357C152.546 82.0277 152.434 82.2784 152.434 82.5877C152.434 82.9077 152.535 83.1477 152.738 83.3077C152.94 83.4677 153.266 83.5851 153.714 83.6597L154.482 83.7557C155.399 83.8944 156.066 84.1664 156.482 84.5717C156.908 84.9664 157.122 85.4997 157.122 86.1717C157.122 86.5771 157.042 86.9451 156.882 87.2757C156.732 87.5957 156.514 87.8731 156.226 88.1077C155.938 88.3424 155.591 88.5237 155.186 88.6517C154.78 88.7797 154.327 88.8437 153.826 88.8437Z" fill="#181818"/>
</g>
<defs>
<clipPath id="clip0_6027_442">
<rect width="163" height="43" fill="white" transform="translate(1 64)"/>
</clipPath>
</defs>
</svg>
