<svg width="161" height="38" viewBox="0 0 161 38" fill="none" xmlns="http://www.w3.org/2000/svg">
<g clip-path="url(#clip0_4622_3)">
<path fill-rule="evenodd" clip-rule="evenodd" d="M0 4.46585C0 2.17241 1.84826 0.313221 4.12821 0.313221H4.94837C6.41742 0.313221 7.72328 1.16059 8.78727 2.17951C10.2627 3.59239 12.2505 4.46585 14.4394 4.46585C16.6311 4.46585 18.6255 3.59018 20.1059 2.17415C21.1687 1.15758 22.473 0.313221 23.9396 0.313221H156.872C159.152 0.313221 161 2.17242 161 4.46586V29.3816C161 31.675 159.152 33.5342 156.872 33.5342H23.9396C22.473 33.5342 21.1687 34.3786 20.1059 35.3951C18.6255 36.8112 16.6311 37.6869 14.4394 37.6869C12.2505 37.6869 10.2627 36.8134 8.78727 35.4005C7.72328 34.3816 6.41742 33.5342 4.94837 33.5342H4.12821C1.84826 33.5342 0 31.675 0 29.3816V4.46585Z" fill="#A0C6FF"/>
<mask id="mask0_4622_3" style="mask-type:luminance" maskUnits="userSpaceOnUse" x="0" y="0" width="161" height="38">
<path fill-rule="evenodd" clip-rule="evenodd" d="M0 4.46585C0 2.17241 1.84826 0.313221 4.12821 0.313221H4.94837C6.41742 0.313221 7.72328 1.16059 8.78727 2.17951C10.2627 3.59239 12.2505 4.46585 14.4394 4.46585C16.6311 4.46585 18.6255 3.59018 20.1059 2.17415C21.1687 1.15758 22.473 0.313221 23.9396 0.313221H156.872C159.152 0.313221 161 2.17242 161 4.46586V29.3816C161 31.675 159.152 33.5342 156.872 33.5342H23.9396C22.473 33.5342 21.1687 34.3786 20.1059 35.3951C18.6255 36.8112 16.6311 37.6869 14.4394 37.6869C12.2505 37.6869 10.2627 36.8134 8.78727 35.4005C7.72328 34.3816 6.41742 33.5342 4.94837 33.5342H4.12821C1.84826 33.5342 0 31.675 0 29.3816V4.46585Z" fill="white"/>
</mask>
<g mask="url(#mask0_4622_3)">
<path d="M4.94837 -0.724936H4.12821V1.35138H4.94837V-0.724936ZM14.4394 3.42769C12.5296 3.42769 10.7929 2.6668 9.49892 1.4276L8.07569 2.93142C9.73241 4.51798 11.9714 5.50398 14.4394 5.50398V3.42769ZM19.3947 1.42182C18.0954 2.6646 16.3519 3.42769 14.4394 3.42769V5.50398C16.9102 5.50398 19.1555 4.51576 20.817 2.92648L19.3947 1.42182ZM156.872 -0.724936H23.9396V1.35138H156.872V-0.724936ZM162.032 29.3816V4.46586H159.968V29.3816H162.032ZM23.9396 34.5724H156.872V32.4961H23.9396V34.5724ZM19.3947 34.6428C18.0954 35.8856 16.3519 36.6487 14.4394 36.6487V38.725C16.9102 38.725 19.1555 37.7368 20.817 36.1475L19.3947 34.6428ZM14.4394 36.6487C12.5296 36.6487 10.7929 35.8878 9.49892 34.6486L8.07569 36.1524C9.73241 37.739 11.9714 38.725 14.4394 38.725V36.6487ZM4.12821 34.5724H4.94837V32.4961H4.12821V34.5724ZM-1.03204 4.46585V29.3816H1.03206V4.46585H-1.03204ZM4.12821 32.4961C2.41825 32.4961 1.03206 31.1017 1.03206 29.3816H-1.03204C-1.03204 32.2484 1.27828 34.5724 4.12821 34.5724V32.4961ZM9.49892 34.6486C8.36697 33.5646 6.81458 32.4961 4.94837 32.4961V34.5724C6.02028 34.5724 7.0796 35.1985 8.07569 36.1524L9.49892 34.6486ZM23.9396 32.4961C22.0766 32.4961 20.5259 33.5608 19.3947 34.6428L20.817 36.1475C21.8115 35.1963 22.8695 34.5724 23.9396 34.5724V32.4961ZM156.872 1.35138C158.582 1.35138 159.968 2.74578 159.968 4.46586H162.032C162.032 1.59907 159.722 -0.724936 156.872 -0.724936V1.35138ZM20.817 2.92648C21.8115 1.97534 22.8695 1.35138 23.9396 1.35138V-0.724936C22.0766 -0.724936 20.5259 0.339819 19.3947 1.42182L20.817 2.92648ZM4.12821 -0.724936C1.27828 -0.724936 -1.03204 1.59906 -1.03204 4.46585H1.03206C1.03206 2.74577 2.41825 1.35138 4.12821 1.35138V-0.724936ZM159.968 29.3816C159.968 31.1017 158.582 32.4961 156.872 32.4961V34.5724C159.722 34.5724 162.032 32.2484 162.032 29.3816H159.968ZM4.94837 1.35138C6.02028 1.35138 7.0796 1.97754 8.07569 2.93142L9.49892 1.4276C8.36697 0.343633 6.81458 -0.724936 4.94837 -0.724936V1.35138Z" fill="#3F76C9"/>
</g>
<path d="M111.317 20.6661H111.255C111.115 21.0482 110.884 21.3471 110.562 21.5631C110.248 21.779 109.876 21.887 109.447 21.887C108.63 21.887 107.998 21.5921 107.552 21.0025C107.106 20.4045 106.883 19.5698 106.883 18.4984C106.883 17.4271 107.106 16.5965 107.552 16.0069C107.998 15.4089 108.63 15.1099 109.447 15.1099C109.876 15.1099 110.248 15.2179 110.562 15.4338C110.884 15.6414 111.115 15.9404 111.255 16.3308H111.317V12.5186H112.667V21.7375H111.317V20.6661ZM109.856 20.7159C110.268 20.7159 110.615 20.6163 110.896 20.4169C111.177 20.2093 111.317 19.9394 111.317 19.6072V17.3897C111.317 17.0575 111.177 16.7917 110.896 16.5924C110.615 16.3847 110.268 16.2809 109.856 16.2809C109.385 16.2809 109.01 16.4346 108.729 16.7418C108.448 17.0409 108.308 17.4395 108.308 17.9378V19.059C108.308 19.5573 108.448 19.9601 108.729 20.2674C109.01 20.5665 109.385 20.7159 109.856 20.7159ZM117.123 21.887C116.661 21.887 116.248 21.8081 115.884 21.6503C115.521 21.4925 115.212 21.2682 114.956 20.9775C114.699 20.6786 114.502 20.3215 114.361 19.9062C114.229 19.4826 114.163 19.0133 114.163 18.4984C114.163 17.9835 114.229 17.5184 114.361 17.1032C114.502 16.6796 114.699 16.3224 114.956 16.0318C115.212 15.7328 115.521 15.5044 115.884 15.3466C116.248 15.1888 116.661 15.1099 117.123 15.1099C117.593 15.1099 118.006 15.1929 118.362 15.3591C118.724 15.5252 119.026 15.7577 119.265 16.0567C119.505 16.3474 119.682 16.6879 119.798 17.0782C119.922 17.4686 119.984 17.888 119.984 18.3365V18.8472H115.562V19.059C115.562 19.5573 115.707 19.9685 115.996 20.2924C116.293 20.6079 116.714 20.7658 117.259 20.7658C117.655 20.7658 117.99 20.6786 118.262 20.5042C118.535 20.3297 118.766 20.093 118.956 19.7941L119.748 20.5789C119.509 20.9775 119.162 21.2973 118.708 21.5382C118.254 21.7707 117.726 21.887 117.123 21.887ZM117.123 16.1688C116.892 16.1688 116.677 16.2103 116.479 16.2934C116.289 16.3765 116.124 16.4927 115.983 16.6422C115.852 16.7917 115.748 16.9703 115.674 17.1779C115.6 17.3855 115.562 17.6139 115.562 17.8631V17.9503H118.559V17.8257C118.559 17.3274 118.432 16.9287 118.176 16.6298C117.919 16.3224 117.569 16.1688 117.123 16.1688ZM127.126 22.3479C127.126 23.0206 126.87 23.5272 126.358 23.8678C125.846 24.2083 125.012 24.3785 123.856 24.3785C123.328 24.3785 122.878 24.3412 122.506 24.2664C122.143 24.2 121.841 24.1003 121.602 23.9675C121.371 23.8345 121.202 23.6726 121.094 23.4816C120.987 23.2906 120.933 23.0705 120.933 22.8213C120.933 22.4642 121.028 22.186 121.218 21.9866C121.416 21.7873 121.689 21.6503 122.035 21.5755V21.4385C121.548 21.2807 121.305 20.9485 121.305 20.4419C121.305 20.1096 121.416 19.8564 121.639 19.6819C121.862 19.4992 122.13 19.3705 122.444 19.2957V19.2459C122.065 19.0632 121.771 18.8099 121.565 18.486C121.367 18.1538 121.268 17.7676 121.268 17.3274C121.268 16.663 121.486 16.1273 121.924 15.7203C122.37 15.3134 123.006 15.1099 123.831 15.1099C124.285 15.1099 124.673 15.1763 124.995 15.3092V15.1348C124.995 14.8441 125.061 14.6199 125.194 14.4621C125.334 14.296 125.549 14.2129 125.838 14.2129H126.828V15.3092H125.516V15.5708C125.804 15.7619 126.027 16.011 126.184 16.3183C126.341 16.6173 126.42 16.9537 126.42 17.3274C126.42 17.9835 126.197 18.515 125.751 18.922C125.305 19.3206 124.669 19.52 123.844 19.52C123.53 19.52 123.249 19.4868 123.001 19.4203C122.836 19.4784 122.692 19.5615 122.568 19.6695C122.444 19.7691 122.382 19.902 122.382 20.0681C122.382 20.2426 122.461 20.3671 122.618 20.4419C122.774 20.5166 122.997 20.554 123.286 20.554H124.872C125.664 20.554 126.238 20.7159 126.593 21.0398C126.948 21.3555 127.126 21.7915 127.126 22.3479ZM125.862 22.4974C125.862 22.2732 125.776 22.0946 125.602 21.9617C125.437 21.8288 125.132 21.7624 124.686 21.7624H122.506C122.209 21.9368 122.06 22.186 122.06 22.5099C122.06 22.7756 122.163 22.9874 122.37 23.1452C122.584 23.3113 122.944 23.3944 123.447 23.3944H124.289C125.338 23.3944 125.862 23.0954 125.862 22.4974ZM123.844 18.5358C124.24 18.5358 124.545 18.4486 124.76 18.2742C124.983 18.0915 125.094 17.8133 125.094 17.4395V17.1903C125.094 16.8166 124.983 16.5425 124.76 16.3681C124.545 16.1854 124.24 16.094 123.844 16.094C123.447 16.094 123.138 16.1854 122.915 16.3681C122.7 16.5425 122.593 16.8166 122.593 17.1903V17.4395C122.593 17.8133 122.7 18.0915 122.915 18.2742C123.138 18.4486 123.447 18.5358 123.844 18.5358ZM128.13 21.7375V15.2594H129.48V16.5052H129.542C129.633 16.173 129.823 15.8823 130.111 15.6331C130.401 15.384 130.801 15.2594 131.313 15.2594H131.672V16.5675H131.139C130.603 16.5675 130.19 16.6547 129.901 16.8291C129.62 17.0035 129.48 17.261 129.48 17.6015V21.7375H128.13ZM135.337 21.887C134.875 21.887 134.462 21.8081 134.099 21.6503C133.735 21.4925 133.426 21.2682 133.17 20.9775C132.914 20.6786 132.716 20.3215 132.575 19.9062C132.443 19.4826 132.377 19.0133 132.377 18.4984C132.377 17.9835 132.443 17.5184 132.575 17.1032C132.716 16.6796 132.914 16.3224 133.17 16.0318C133.426 15.7328 133.735 15.5044 134.099 15.3466C134.462 15.1888 134.875 15.1099 135.337 15.1099C135.808 15.1099 136.22 15.1929 136.576 15.3591C136.939 15.5252 137.24 15.7577 137.48 16.0567C137.719 16.3474 137.896 16.6879 138.012 17.0782C138.136 17.4686 138.198 17.888 138.198 18.3365V18.8472H133.777V19.059C133.777 19.5573 133.921 19.9685 134.21 20.2924C134.507 20.6079 134.928 20.7658 135.473 20.7658C135.87 20.7658 136.204 20.6786 136.476 20.5042C136.749 20.3297 136.98 20.093 137.17 19.7941L137.963 20.5789C137.723 20.9775 137.376 21.2973 136.922 21.5382C136.468 21.7707 135.94 21.887 135.337 21.887ZM135.337 16.1688C135.106 16.1688 134.891 16.2103 134.693 16.2934C134.503 16.3765 134.338 16.4927 134.198 16.6422C134.065 16.7917 133.962 16.9703 133.888 17.1779C133.814 17.3855 133.777 17.6139 133.777 17.8631V17.9503H136.774V17.8257C136.774 17.3274 136.646 16.9287 136.39 16.6298C136.134 16.3224 135.783 16.1688 135.337 16.1688ZM142.219 21.887C141.756 21.887 141.344 21.8081 140.98 21.6503C140.617 21.4925 140.307 21.2682 140.052 20.9775C139.796 20.6786 139.597 20.3215 139.457 19.9062C139.325 19.4826 139.259 19.0133 139.259 18.4984C139.259 17.9835 139.325 17.5184 139.457 17.1032C139.597 16.6796 139.796 16.3224 140.052 16.0318C140.307 15.7328 140.617 15.5044 140.98 15.3466C141.344 15.1888 141.756 15.1099 142.219 15.1099C142.689 15.1099 143.102 15.1929 143.457 15.3591C143.821 15.5252 144.122 15.7577 144.361 16.0567C144.6 16.3474 144.778 16.6879 144.894 17.0782C145.018 17.4686 145.079 17.888 145.079 18.3365V18.8472H140.658V19.059C140.658 19.5573 140.803 19.9685 141.092 20.2924C141.389 20.6079 141.81 20.7658 142.355 20.7658C142.751 20.7658 143.086 20.6786 143.358 20.5042C143.63 20.3297 143.862 20.093 144.052 19.7941L144.844 20.5789C144.605 20.9775 144.258 21.2973 143.804 21.5382C143.35 21.7707 142.821 21.887 142.219 21.887ZM142.219 16.1688C141.988 16.1688 141.773 16.2103 141.575 16.2934C141.385 16.3765 141.219 16.4927 141.079 16.6422C140.947 16.7917 140.844 16.9703 140.77 17.1779C140.696 17.3855 140.658 17.6139 140.658 17.8631V17.9503H143.655V17.8257C143.655 17.3274 143.527 16.9287 143.272 16.6298C143.016 16.3224 142.664 16.1688 142.219 16.1688ZM148.617 21.887C148.006 21.887 147.494 21.779 147.082 21.5631C146.669 21.3471 146.31 21.0482 146.004 20.6661L146.871 19.8688C147.111 20.1595 147.375 20.3879 147.664 20.554C147.961 20.7118 148.303 20.7907 148.692 20.7907C149.088 20.7907 149.381 20.7159 149.571 20.5665C149.769 20.4086 149.868 20.1927 149.868 19.9186C149.868 19.711 149.798 19.5366 149.658 19.3954C149.526 19.2459 149.29 19.1504 148.952 19.1089L148.357 19.0341C147.697 18.9511 147.176 18.7601 146.797 18.4611C146.425 18.1538 146.24 17.7011 146.24 17.1032C146.24 16.7875 146.297 16.5093 146.413 16.2685C146.528 16.0193 146.689 15.8117 146.896 15.6456C147.111 15.4712 147.362 15.3383 147.651 15.2469C147.949 15.1556 148.275 15.1099 148.63 15.1099C149.208 15.1099 149.678 15.2013 150.042 15.384C150.413 15.5667 150.743 15.82 151.032 16.1439L150.203 16.9412C150.038 16.7419 149.819 16.5716 149.546 16.4304C149.282 16.2809 148.977 16.2062 148.63 16.2062C148.258 16.2062 147.981 16.2809 147.8 16.4304C147.627 16.5799 147.54 16.7751 147.54 17.0159C147.54 17.2651 147.619 17.452 147.775 17.5765C147.932 17.7011 148.184 17.7925 148.531 17.8506L149.125 17.9254C149.835 18.0334 150.351 18.2451 150.673 18.5607C151.004 18.868 151.169 19.2833 151.169 19.8065C151.169 20.1221 151.107 20.4086 150.983 20.6661C150.867 20.9152 150.698 21.1312 150.475 21.3139C150.252 21.4966 149.984 21.6378 149.67 21.7375C149.356 21.8372 149.005 21.887 148.617 21.887Z" fill="#181818"/>
<path d="M87.7244 6.54206H75.3398C69.6399 6.54206 65.0193 11.19 65.0193 16.9236C65.0193 22.6572 69.6399 27.3052 75.3398 27.3052H87.7244C93.4243 27.3052 98.0449 22.6572 98.0449 16.9236C98.0449 11.19 93.4243 6.54206 87.7244 6.54206Z" fill="#FCFAF3"/>
<path d="M55.7316 14.3282V18.481C55.7316 18.6187 55.6772 18.7507 55.5805 18.8481C55.4838 18.9454 55.3525 19.0001 55.2154 19.0001H51.0869C50.9848 19.0002 50.885 18.9698 50.8 18.9128C50.7155 18.8557 50.6489 18.7747 50.6098 18.6798C50.5706 18.5848 50.5608 18.4804 50.5805 18.3797C50.6003 18.2789 50.6498 18.1863 50.7222 18.1138L52.4114 16.415C51.6059 15.6473 50.5945 15.1339 49.5026 14.9381C48.4102 14.7424 47.2845 14.8729 46.265 15.3137C45.246 15.7544 44.3773 16.4859 43.7668 17.4179C43.1563 18.3499 42.8307 19.4414 42.8302 20.5575C42.8302 20.6952 42.7759 20.8272 42.6791 20.9245C42.5823 21.0219 42.451 21.0766 42.3142 21.0766C42.1773 21.0766 42.0461 21.0219 41.9493 20.9245C41.8525 20.8272 41.7981 20.6952 41.7981 20.5575C41.7981 19.2357 42.184 17.9431 42.9078 16.84C43.6316 15.7369 44.6615 14.8719 45.8697 14.3524C47.0781 13.8328 48.4111 13.6816 49.704 13.9175C50.997 14.1533 52.1923 14.7659 53.1422 15.6792L54.8506 13.9609C54.9226 13.8882 55.0148 13.8387 55.1146 13.8187C55.2149 13.7986 55.3188 13.8089 55.4132 13.8482C55.5072 13.8875 55.5882 13.9541 55.6448 14.0396C55.7015 14.125 55.7316 14.2254 55.7316 14.3282Z" fill="#181818"/>
<path d="M11.0057 21.7375C10.5351 21.7375 10.1801 21.6171 9.94066 21.3762C9.70123 21.1271 9.58152 20.7782 9.58152 20.3297V16.3681H8.57837V15.2594H9.1233C9.34622 15.2594 9.49895 15.2095 9.58152 15.1099C9.67236 15.0102 9.71774 14.8483 9.71774 14.624V13.4904H10.9314V15.2594H12.2814V16.3681H10.9314V20.6287H12.1823V21.7375H11.0057ZM17.6468 20.6661H17.5972C17.5395 20.8239 17.461 20.9775 17.362 21.1271C17.2712 21.2765 17.1514 21.4094 17.0028 21.5257C16.8624 21.6337 16.6891 21.7209 16.4827 21.7873C16.2845 21.8538 16.0533 21.887 15.7891 21.887C15.1203 21.887 14.6002 21.671 14.2287 21.2391C13.8654 20.8073 13.6837 20.1885 13.6837 19.3829V15.2594H15.0337V19.2085C15.0337 20.2135 15.4465 20.7159 16.2721 20.7159C16.4455 20.7159 16.6147 20.6952 16.7799 20.6536C16.945 20.6038 17.0895 20.5332 17.2133 20.4419C17.3454 20.3505 17.4487 20.2342 17.523 20.093C17.6055 19.9519 17.6468 19.7857 17.6468 19.5947V15.2594H18.9967V21.7375H17.6468V20.6661ZM20.9297 21.7375V15.2594H22.2796V16.5052H22.3415C22.4324 16.173 22.6222 15.8823 22.9112 15.6331C23.2002 15.384 23.6007 15.2594 24.1125 15.2594H24.4717V16.5675H23.9392C23.4025 16.5675 22.9897 16.6547 22.7007 16.8291C22.42 17.0035 22.2796 17.261 22.2796 17.6015V21.7375H20.9297ZM25.6707 21.7375V15.2594H27.0206V16.3308H27.0825C27.2229 15.9819 27.4334 15.6912 27.7142 15.4587C28.0031 15.2261 28.3953 15.1099 28.8907 15.1099C29.5512 15.1099 30.0631 15.33 30.4264 15.7701C30.7979 16.202 30.9837 16.8208 30.9837 17.6264V21.7375H29.6338V17.8008C29.6338 16.7875 29.2292 16.2809 28.42 16.2809C28.2467 16.2809 28.0733 16.3058 27.8999 16.3557C27.7348 16.3972 27.5862 16.4636 27.454 16.555C27.322 16.6464 27.2146 16.7626 27.132 16.9038C27.0577 17.045 27.0206 17.2111 27.0206 17.4021V21.7375H25.6707Z" fill="#181818"/>
<path d="M80.9588 15.868C80.9588 16.5773 80.8514 17.2447 80.6368 17.87C80.4221 18.4953 80.1421 19.0693 79.7968 19.592C79.4514 20.1147 79.0688 20.5813 78.6488 20.992C78.2288 21.4027 77.8134 21.7387 77.4028 22H75.3028C75.8628 21.5987 76.3668 21.2113 76.8148 20.838C77.2628 20.4647 77.6501 20.082 77.9768 19.69C78.3128 19.298 78.5928 18.8873 78.8168 18.458C79.0408 18.0193 79.2134 17.534 79.3348 17.002L79.2368 16.974C79.1341 17.17 79.0128 17.3567 78.8728 17.534C78.7328 17.702 78.5694 17.8513 78.3828 17.982C78.1961 18.1127 77.9814 18.2153 77.7388 18.29C77.4961 18.3647 77.2208 18.402 76.9128 18.402C76.4928 18.402 76.1054 18.332 75.7508 18.192C75.3961 18.052 75.0881 17.8513 74.8268 17.59C74.5654 17.3193 74.3601 16.9973 74.2108 16.624C74.0708 16.2507 74.0008 15.8307 74.0008 15.364C74.0008 14.8787 74.0801 14.4353 74.2388 14.034C74.4068 13.6233 74.6401 13.2733 74.9388 12.984C75.2468 12.6947 75.6154 12.4707 76.0448 12.312C76.4741 12.144 76.9501 12.06 77.4728 12.06C78.0141 12.06 78.4994 12.1487 78.9288 12.326C79.3674 12.5033 79.7361 12.76 80.0348 13.096C80.3334 13.4227 80.5621 13.8193 80.7208 14.286C80.8794 14.7527 80.9588 15.28 80.9588 15.868ZM77.4868 17.156C78.0748 17.156 78.5321 16.9973 78.8588 16.68C79.1854 16.3533 79.3488 15.896 79.3488 15.308V15.168C79.3488 14.58 79.1854 14.1273 78.8588 13.81C78.5321 13.4833 78.0748 13.32 77.4868 13.32C76.8894 13.32 76.4274 13.4833 76.1008 13.81C75.7741 14.1273 75.6108 14.58 75.6108 15.168V15.308C75.6108 15.896 75.7741 16.3533 76.1008 16.68C76.4274 16.9973 76.8894 17.156 77.4868 17.156ZM85.8953 22.168C85.2793 22.168 84.7426 22.056 84.2853 21.832C83.8373 21.5987 83.464 21.2673 83.1653 20.838C82.876 20.4087 82.6613 19.8813 82.5213 19.256C82.3813 18.6307 82.3113 17.9167 82.3113 17.114C82.3113 16.3207 82.3813 15.6113 82.5213 14.986C82.6613 14.3513 82.876 13.8193 83.1653 13.39C83.464 12.9607 83.8373 12.634 84.2853 12.41C84.7426 12.1767 85.2793 12.06 85.8953 12.06C86.5113 12.06 87.0433 12.1767 87.4913 12.41C87.9486 12.634 88.322 12.9607 88.6113 13.39C88.91 13.8193 89.1293 14.3513 89.2693 14.986C89.4093 15.6113 89.4793 16.3207 89.4793 17.114C89.4793 17.9167 89.4093 18.6307 89.2693 19.256C89.1293 19.8813 88.91 20.4087 88.6113 20.838C88.322 21.2673 87.9486 21.5987 87.4913 21.832C87.0433 22.056 86.5113 22.168 85.8953 22.168ZM85.8953 20.88C86.6046 20.88 87.1086 20.6187 87.4073 20.096C87.7153 19.564 87.8693 18.85 87.8693 17.954V16.274C87.8693 15.378 87.7153 14.6687 87.4073 14.146C87.1086 13.614 86.6046 13.348 85.8953 13.348C85.5406 13.348 85.2373 13.418 84.9853 13.558C84.7333 13.6887 84.528 13.8847 84.3693 14.146C84.2106 14.398 84.094 14.706 84.0193 15.07C83.954 15.4247 83.9213 15.826 83.9213 16.274V17.954C83.9213 18.402 83.954 18.808 84.0193 19.172C84.094 19.5267 84.2106 19.8347 84.3693 20.096C84.528 20.348 84.7333 20.544 84.9853 20.684C85.2373 20.8147 85.5406 20.88 85.8953 20.88ZM85.8953 17.94C85.5686 17.94 85.34 17.8747 85.2093 17.744C85.088 17.6133 85.0273 17.4547 85.0273 17.268V16.96C85.0273 16.7733 85.088 16.6147 85.2093 16.484C85.34 16.3533 85.5686 16.288 85.8953 16.288C86.222 16.288 86.446 16.3533 86.5673 16.484C86.698 16.6147 86.7633 16.7733 86.7633 16.96V17.268C86.7633 17.4547 86.698 17.6133 86.5673 17.744C86.446 17.8747 86.222 17.94 85.8953 17.94Z" fill="#181818"/>
</g>
<defs>
<clipPath id="clip0_4622_3">
<rect width="161" height="38" fill="white"/>
</clipPath>
</defs>
</svg>
