<svg width="163" height="45" viewBox="0 0 163 45" fill="none" xmlns="http://www.w3.org/2000/svg">
<g clip-path="url(#clip0_55_455)">
<path fill-rule="evenodd" clip-rule="evenodd" d="M0 5.05345C0 2.45826 2.11324 0.354431 4.72005 0.354431H5.6578C7.33747 0.354431 8.83054 1.31329 10.0471 2.46628C11.734 4.06507 14.0068 5.05346 16.5095 5.05346C19.0154 5.05346 21.2957 4.06257 22.9884 2.46022C24.2035 1.30988 25.6949 0.354431 27.3717 0.354431H158.122C160.729 0.354431 162.842 2.45827 162.842 5.05346V33.2476C162.842 35.8428 160.729 37.9466 158.122 37.9466H27.3717C25.6949 37.9466 24.2035 38.902 22.9884 40.0524C21.2957 41.6548 19.0154 42.6457 16.5095 42.6457C14.0068 42.6457 11.734 41.6573 10.0471 40.0585C8.83054 38.9055 7.33747 37.9466 5.6578 37.9466H4.72005C2.11324 37.9466 0 35.8428 0 33.2476V5.05345Z" fill="#A0C6FF"/>
<mask id="mask0_55_455" style="mask-type:luminance" maskUnits="userSpaceOnUse" x="0" y="0" width="163" height="43">
<path fill-rule="evenodd" clip-rule="evenodd" d="M0 5.05345C0 2.45826 2.11324 0.354431 4.72005 0.354431H5.6578C7.33747 0.354431 8.83054 1.31329 10.0471 2.46628C11.734 4.06507 14.0068 5.05346 16.5095 5.05346C19.0154 5.05346 21.2957 4.06257 22.9884 2.46022C24.2035 1.30988 25.6949 0.354431 27.3717 0.354431H158.122C160.729 0.354431 162.842 2.45827 162.842 5.05346V33.2476C162.842 35.8428 160.729 37.9466 158.122 37.9466H27.3717C25.6949 37.9466 24.2035 38.902 22.9884 40.0524C21.2957 41.6548 19.0154 42.6457 16.5095 42.6457C14.0068 42.6457 11.734 41.6573 10.0471 40.0585C8.83054 38.9055 7.33747 37.9466 5.6578 37.9466H4.72005C2.11324 37.9466 0 35.8428 0 33.2476V5.05345Z" fill="white"/>
</mask>
<g mask="url(#mask0_55_455)">
<path d="M5.65778 -0.820328H4.72004V1.52918H5.65778V-0.820328ZM16.5095 3.8787C14.3259 3.8787 12.3402 3.01768 10.8607 1.61544L9.23345 3.31713C11.1277 5.11245 13.6877 6.22819 16.5095 6.22819V3.8787ZM22.1752 1.60889C20.6897 3.0152 18.6962 3.8787 16.5095 3.8787V6.22819C19.3346 6.22819 21.9017 5.10994 23.8015 3.31154L22.1752 1.60889ZM158.122 -0.820328H27.3717V1.52918H158.122V-0.820328ZM164.022 33.2476V5.05346H161.662V33.2476H164.022ZM27.3717 39.1213H158.122V36.7719H27.3717V39.1213ZM22.1752 39.201C20.6897 40.6074 18.6962 41.4709 16.5095 41.4709V43.8204C19.3346 43.8204 21.9017 42.7021 23.8015 40.9037L22.1752 39.201ZM16.5095 41.4709C14.3259 41.4709 12.3402 40.6099 10.8607 39.2076L9.23345 40.9093C11.1277 42.7046 13.6877 43.8204 16.5095 43.8204V41.4709ZM4.72004 39.1213H5.65778V36.7719H4.72004V39.1213ZM-1.18002 5.05345V33.2476H1.18V5.05345H-1.18002ZM4.72004 36.7719C2.76494 36.7719 1.18 35.194 1.18 33.2476H-1.18002C-1.18002 36.4916 1.46152 39.1213 4.72004 39.1213V36.7719ZM10.8607 39.2076C9.56649 37.981 7.79159 36.7719 5.65778 36.7719V39.1213C6.88337 39.1213 8.09456 39.8299 9.23345 40.9093L10.8607 39.2076ZM27.3717 36.7719C25.2416 36.7719 23.4686 37.9767 22.1752 39.201L23.8015 40.9037C24.9385 39.8274 26.1482 39.1213 27.3717 39.1213V36.7719ZM158.122 1.52918C160.077 1.52918 161.662 3.10706 161.662 5.05346H164.022C164.022 1.80947 161.38 -0.820328 158.122 -0.820328V1.52918ZM23.8015 3.31154C24.9385 2.23524 26.1482 1.52918 27.3717 1.52918V-0.820328C25.2416 -0.820328 23.4686 0.384526 22.1752 1.60889L23.8015 3.31154ZM4.72004 -0.820328C1.46153 -0.820328 -1.18002 1.80945 -1.18002 5.05345H1.18C1.18 3.10705 2.76493 1.52918 4.72004 1.52918V-0.820328ZM161.662 33.2476C161.662 35.194 160.077 36.7719 158.122 36.7719V39.1213C161.38 39.1213 164.022 36.4916 164.022 33.2476H161.662ZM5.65778 1.52918C6.88337 1.52918 8.09456 2.23774 9.23345 3.31713L10.8607 1.61544C9.56649 0.388841 7.79154 -0.820328 5.65778 -0.820328V1.52918Z" fill="#3F76C9"/>
</g>
<path d="M96.7609 7.40286H82.6007C76.0837 7.40286 70.8006 12.6624 70.8006 19.1504C70.8006 25.6384 76.0837 30.898 82.6007 30.898H96.7609C103.278 30.898 108.561 25.6384 108.561 19.1504C108.561 12.6624 103.278 7.40286 96.7609 7.40286Z" fill="#FCFAF3"/>
<path d="M89.292 18.26C89.9174 18.26 90.3794 18.1293 90.678 17.868C90.986 17.5973 91.14 17.2613 91.14 16.86V16.762C91.14 16.314 90.9907 15.9733 90.692 15.74C90.4027 15.4973 90.0107 15.376 89.516 15.376C89.04 15.376 88.634 15.4833 88.298 15.698C87.9714 15.9127 87.696 16.2067 87.472 16.58L86.408 15.67C86.5574 15.4553 86.73 15.25 86.926 15.054C87.122 14.858 87.346 14.69 87.598 14.55C87.85 14.4007 88.1394 14.284 88.466 14.2C88.7927 14.1067 89.1614 14.06 89.572 14.06C90.0294 14.06 90.454 14.116 90.846 14.228C91.238 14.34 91.5787 14.508 91.868 14.732C92.1574 14.9467 92.3814 15.2127 92.54 15.53C92.6987 15.838 92.778 16.188 92.778 16.58C92.778 16.888 92.7267 17.168 92.624 17.42C92.5307 17.672 92.3954 17.896 92.218 18.092C92.05 18.2787 91.8494 18.4327 91.616 18.554C91.3827 18.6753 91.1354 18.764 90.874 18.82V18.89C91.154 18.946 91.42 19.0393 91.672 19.17C91.924 19.2913 92.148 19.4547 92.344 19.66C92.54 19.856 92.694 20.094 92.806 20.374C92.918 20.6447 92.974 20.9573 92.974 21.312C92.974 21.7413 92.89 22.1333 92.722 22.488C92.554 22.8333 92.3114 23.132 91.994 23.384C91.686 23.636 91.3127 23.832 90.874 23.972C90.4354 24.1027 89.9454 24.168 89.404 24.168C88.9467 24.168 88.5407 24.1167 88.186 24.014C87.8407 23.9207 87.5327 23.7947 87.262 23.636C86.9914 23.468 86.7534 23.2813 86.548 23.076C86.352 22.8613 86.1794 22.642 86.03 22.418L87.192 21.522C87.4347 21.914 87.7194 22.236 88.046 22.488C88.382 22.7307 88.8394 22.852 89.418 22.852C90.034 22.852 90.5054 22.712 90.832 22.432C91.1587 22.1427 91.322 21.746 91.322 21.242V21.13C91.322 20.626 91.1494 20.2433 90.804 19.982C90.468 19.7113 89.978 19.576 89.334 19.576H88.284V18.26H89.292Z" fill="#181818"/>
<path d="M10.68 18.104H9.416V16.68H10.68V15.304C10.68 14.632 10.856 14.1093 11.208 13.736C11.56 13.352 12.088 13.16 12.792 13.16H14.168V14.584H12.424V16.68H14.168V18.104H12.424V25H10.68V18.104ZM18.887 25.192C18.311 25.192 17.783 25.0907 17.303 24.888C16.8337 24.6853 16.4337 24.3973 16.103 24.024C15.7723 23.64 15.5163 23.1813 15.335 22.648C15.1537 22.104 15.063 21.5013 15.063 20.84C15.063 20.1787 15.1537 19.5813 15.335 19.048C15.5163 18.504 15.7723 18.0453 16.103 17.672C16.4337 17.288 16.8337 16.9947 17.303 16.792C17.783 16.5893 18.311 16.488 18.887 16.488C19.463 16.488 19.9857 16.5893 20.455 16.792C20.935 16.9947 21.3403 17.288 21.671 17.672C22.0017 18.0453 22.2577 18.504 22.439 19.048C22.6203 19.5813 22.711 20.1787 22.711 20.84C22.711 21.5013 22.6203 22.104 22.439 22.648C22.2577 23.1813 22.0017 23.64 21.671 24.024C21.3403 24.3973 20.935 24.6853 20.455 24.888C19.9857 25.0907 19.463 25.192 18.887 25.192ZM18.887 23.752C19.4843 23.752 19.9643 23.5707 20.327 23.208C20.6897 22.8347 20.871 22.28 20.871 21.544V20.136C20.871 19.4 20.6897 18.8507 20.327 18.488C19.9643 18.1147 19.4843 17.928 18.887 17.928C18.2897 17.928 17.8097 18.1147 17.447 18.488C17.0843 18.8507 16.903 19.4 16.903 20.136V21.544C16.903 22.28 17.0843 22.8347 17.447 23.208C17.8097 23.5707 18.2897 23.752 18.887 23.752ZM24.6543 25V16.68H26.3983V18.28H26.4783C26.5956 17.8533 26.8409 17.48 27.2143 17.16C27.5876 16.84 28.1049 16.68 28.7663 16.68H29.2303V18.36H28.5423C27.8489 18.36 27.3156 18.472 26.9423 18.696C26.5796 18.92 26.3983 19.2507 26.3983 19.688V25H24.6543ZM30.0254 16.68H31.7214L32.5694 20.168L33.3214 23.32H33.3694L34.2334 20.168L35.2414 16.68H36.8094L37.8334 20.168L38.7134 23.32H38.7614L39.4974 20.168L40.3614 16.68H41.9774L39.7374 25H37.7694L36.6814 21.208L36.0094 18.872H35.9774L35.3214 21.208L34.2174 25H32.2974L30.0254 16.68ZM49.5628 25C49.1041 25 48.7521 24.872 48.5068 24.616C48.2614 24.3493 48.1121 24.0133 48.0588 23.608H47.9788C47.8188 24.1307 47.5254 24.5253 47.0988 24.792C46.6721 25.0587 46.1548 25.192 45.5468 25.192C44.6828 25.192 44.0161 24.968 43.5468 24.52C43.0881 24.072 42.8588 23.4693 42.8588 22.712C42.8588 21.88 43.1574 21.256 43.7548 20.84C44.3628 20.424 45.2481 20.216 46.4108 20.216H47.9148V19.512C47.9148 19 47.7761 18.6053 47.4988 18.328C47.2214 18.0507 46.7894 17.912 46.2028 17.912C45.7121 17.912 45.3121 18.0187 45.0028 18.232C44.6934 18.4453 44.4321 18.7173 44.2188 19.048L43.1788 18.104C43.4561 17.6347 43.8454 17.2507 44.3468 16.952C44.8481 16.6427 45.5041 16.488 46.3148 16.488C47.3921 16.488 48.2188 16.7387 48.7948 17.24C49.3708 17.7413 49.6588 18.4613 49.6588 19.4V23.576H50.5388V25H49.5628ZM46.0428 23.864C46.5868 23.864 47.0348 23.7467 47.3868 23.512C47.7388 23.2667 47.9148 22.9413 47.9148 22.536V21.336H46.4427C45.2374 21.336 44.6348 21.7093 44.6348 22.456V22.744C44.6348 23.1173 44.7574 23.4 45.0028 23.592C45.2588 23.7733 45.6054 23.864 46.0428 23.864ZM52.248 25V16.68H53.992V18.28H54.072C54.1893 17.8533 54.4347 17.48 54.808 17.16C55.1813 16.84 55.6987 16.68 56.36 16.68H56.824V18.36H56.136C55.4427 18.36 54.9093 18.472 54.536 18.696C54.1733 18.92 53.992 19.2507 53.992 19.688V25H52.248ZM63.5269 23.624H63.4469C63.2655 24.1147 62.9669 24.4987 62.5509 24.776C62.1455 25.0533 61.6655 25.192 61.1109 25.192C60.0549 25.192 59.2389 24.8133 58.6629 24.056C58.0869 23.288 57.7989 22.216 57.7989 20.84C57.7989 19.464 58.0869 18.3973 58.6629 17.64C59.2389 16.872 60.0549 16.488 61.1109 16.488C61.6655 16.488 62.1455 16.6267 62.5509 16.904C62.9669 17.1707 63.2655 17.5547 63.4469 18.056H63.5269V13.16H65.2709V25H63.5269V23.624ZM61.6389 23.688C62.1722 23.688 62.6202 23.56 62.9829 23.304C63.3455 23.0373 63.5269 22.6907 63.5269 22.264V19.416C63.5269 18.9893 63.3455 18.648 62.9829 18.392C62.6202 18.1253 62.1722 17.992 61.6389 17.992C61.0309 17.992 60.5455 18.1893 60.1829 18.584C59.8202 18.968 59.6389 19.48 59.6389 20.12V21.56C59.6389 22.2 59.8202 22.7173 60.1829 23.112C60.5455 23.496 61.0309 23.688 61.6389 23.688Z" fill="#181818"/>
<path d="M120.888 24.8437C120.099 24.8437 119.437 24.705 118.904 24.4277C118.371 24.1504 117.907 23.7664 117.512 23.2757L118.632 22.2517C118.941 22.625 119.283 22.9184 119.656 23.1317C120.04 23.3344 120.483 23.4357 120.984 23.4357C121.496 23.4357 121.875 23.3397 122.12 23.1477C122.376 22.945 122.504 22.6677 122.504 22.3157C122.504 22.049 122.413 21.825 122.232 21.6437C122.061 21.4517 121.757 21.329 121.32 21.2757L120.552 21.1797C119.699 21.073 119.027 20.8277 118.536 20.4437C118.056 20.049 117.816 19.4677 117.816 18.6997C117.816 18.2944 117.891 17.937 118.04 17.6277C118.189 17.3077 118.397 17.041 118.664 16.8277C118.941 16.6037 119.267 16.433 119.64 16.3157C120.024 16.1984 120.445 16.1397 120.904 16.1397C121.651 16.1397 122.259 16.257 122.728 16.4917C123.208 16.7264 123.635 17.0517 124.008 17.4677L122.936 18.4917C122.723 18.2357 122.44 18.017 122.088 17.8357C121.747 17.6437 121.352 17.5477 120.904 17.5477C120.424 17.5477 120.067 17.6437 119.832 17.8357C119.608 18.0277 119.496 18.2784 119.496 18.5877C119.496 18.9077 119.597 19.1477 119.8 19.3077C120.003 19.4677 120.328 19.585 120.776 19.6597L121.544 19.7557C122.461 19.8944 123.128 20.1664 123.544 20.5717C123.971 20.9664 124.184 21.4997 124.184 22.1717C124.184 22.577 124.104 22.945 123.944 23.2757C123.795 23.5957 123.576 23.873 123.288 24.1077C123 24.3424 122.653 24.5237 122.248 24.6517C121.843 24.7797 121.389 24.8437 120.888 24.8437ZM128.349 24.6517C127.741 24.6517 127.282 24.497 126.973 24.1877C126.664 23.8677 126.509 23.4197 126.509 22.8437V17.7557H125.213V16.3317H125.917C126.205 16.3317 126.402 16.2677 126.509 16.1397C126.626 16.0117 126.685 15.8037 126.685 15.5157V14.0597H128.253V16.3317H129.997V17.7557H128.253V23.2277H129.869V24.6517H128.349ZM135.09 24.8437C134.493 24.8437 133.959 24.7424 133.49 24.5397C133.021 24.337 132.621 24.049 132.29 23.6757C131.959 23.2917 131.703 22.833 131.522 22.2997C131.351 21.7557 131.266 21.153 131.266 20.4917C131.266 19.8304 131.351 19.233 131.522 18.6997C131.703 18.1557 131.959 17.697 132.29 17.3237C132.621 16.9397 133.021 16.6464 133.49 16.4437C133.959 16.241 134.493 16.1397 135.09 16.1397C135.698 16.1397 136.231 16.2464 136.69 16.4597C137.159 16.673 137.549 16.9717 137.858 17.3557C138.167 17.729 138.397 18.1664 138.546 18.6677C138.706 19.169 138.786 19.7077 138.786 20.2837V20.9397H133.074V21.2117C133.074 21.8517 133.261 22.3797 133.634 22.7957C134.018 23.201 134.562 23.4037 135.266 23.4037C135.778 23.4037 136.21 23.2917 136.562 23.0677C136.914 22.8437 137.213 22.5397 137.458 22.1557L138.482 23.1637C138.173 23.6757 137.725 24.0864 137.138 24.3957C136.551 24.6944 135.869 24.8437 135.09 24.8437ZM135.09 17.4997C134.791 17.4997 134.514 17.553 134.258 17.6597C134.013 17.7664 133.799 17.9157 133.618 18.1077C133.447 18.2997 133.314 18.529 133.218 18.7957C133.122 19.0624 133.074 19.3557 133.074 19.6757V19.7877H136.946V19.6277C136.946 18.9877 136.781 18.4757 136.45 18.0917C136.119 17.697 135.666 17.4997 135.09 17.4997ZM140.717 16.3317H142.461V17.7077H142.541C142.722 17.2064 143.015 16.8224 143.421 16.5557C143.837 16.2784 144.322 16.1397 144.877 16.1397C145.933 16.1397 146.749 16.5237 147.325 17.2917C147.901 18.049 148.189 19.1157 148.189 20.4917C148.189 21.8677 147.901 22.9397 147.325 23.7077C146.749 24.465 145.933 24.8437 144.877 24.8437C144.322 24.8437 143.837 24.705 143.421 24.4277C143.015 24.1504 142.722 23.7664 142.541 23.2757H142.461V27.8517H140.717V16.3317ZM144.349 23.3397C144.957 23.3397 145.442 23.1477 145.805 22.7637C146.167 22.369 146.349 21.8517 146.349 21.2117V19.7717C146.349 19.1317 146.167 18.6197 145.805 18.2357C145.442 17.841 144.957 17.6437 144.349 17.6437C143.815 17.6437 143.367 17.777 143.005 18.0437C142.642 18.2997 142.461 18.641 142.461 19.0677V21.9157C142.461 22.3424 142.642 22.689 143.005 22.9557C143.367 23.2117 143.815 23.3397 144.349 23.3397ZM152.826 24.8437C152.036 24.8437 151.375 24.705 150.842 24.4277C150.308 24.1504 149.844 23.7664 149.45 23.2757L150.57 22.2517C150.879 22.625 151.22 22.9184 151.594 23.1317C151.978 23.3344 152.42 23.4357 152.922 23.4357C153.434 23.4357 153.812 23.3397 154.058 23.1477C154.314 22.945 154.442 22.6677 154.442 22.3157C154.442 22.049 154.351 21.825 154.17 21.6437C153.999 21.4517 153.695 21.329 153.258 21.2757L152.49 21.1797C151.636 21.073 150.964 20.8277 150.474 20.4437C149.994 20.049 149.754 19.4677 149.754 18.6997C149.754 18.2944 149.828 17.937 149.978 17.6277C150.127 17.3077 150.335 17.041 150.602 16.8277C150.879 16.6037 151.204 16.433 151.578 16.3157C151.962 16.1984 152.383 16.1397 152.842 16.1397C153.588 16.1397 154.196 16.257 154.666 16.4917C155.146 16.7264 155.572 17.0517 155.946 17.4677L154.874 18.4917C154.66 18.2357 154.378 18.017 154.026 17.8357C153.684 17.6437 153.29 17.5477 152.842 17.5477C152.362 17.5477 152.004 17.6437 151.77 17.8357C151.546 18.0277 151.434 18.2784 151.434 18.5877C151.434 18.9077 151.535 19.1477 151.738 19.3077C151.94 19.4677 152.266 19.585 152.714 19.6597L153.482 19.7557C154.399 19.8944 155.066 20.1664 155.482 20.5717C155.908 20.9664 156.122 21.4997 156.122 22.1717C156.122 22.577 156.042 22.945 155.882 23.2757C155.732 23.5957 155.514 23.873 155.226 24.1077C154.938 24.3424 154.591 24.5237 154.186 24.6517C153.78 24.7797 153.327 24.8437 152.826 24.8437Z" fill="#181818"/>
</g>
<defs>
<clipPath id="clip0_55_455">
<rect width="163" height="43" fill="white"/>
</clipPath>
</defs>
</svg>
