<svg width="187" height="186" viewBox="0 0 187 186" fill="none" xmlns="http://www.w3.org/2000/svg">
<path d="M85.4297 0.75C104.359 0.75004 115.692 4.46746 124.618 7.39551C127.542 8.35453 130.238 9.23949 132.854 9.87598C133.421 10.0137 133.997 10.0752 134.567 10.0752H163.96C167.412 10.0752 170.21 12.8734 170.21 16.3252V58.8623C170.21 62.3141 167.412 65.1123 163.96 65.1123H32.9639C30.239 65.1125 27.8398 66.7119 25.834 68.0479C24.056 69.232 21.7073 69.9639 19.1143 69.9639C15.8476 69.9638 12.9777 68.8038 11.1416 67.0498C10.0842 66.0396 8.66465 65.1123 7 65.1123C3.54822 65.1123 0.75 62.3141 0.75 58.8623V16.3252C0.75 12.8734 3.54822 10.0752 7 10.0752H36.4404C37.0089 10.0752 37.5836 10.0139 38.1484 9.87695C40.7945 9.23535 43.5082 8.34101 46.4492 7.37207C55.3246 4.44806 66.5479 0.75 85.4297 0.75Z" fill="#FFD06A" stroke="#FFB109" stroke-width="1.5"/>
<path d="M9.21458 25.3812H10.9106L11.7586 28.8692L12.5106 32.0212H12.5586L13.4226 28.8692L14.4306 25.3812H15.9986L17.0226 28.8692L17.9026 32.0212H17.9506L18.6866 28.8692L19.5506 25.3812H21.1666L18.9266 33.7012H16.9586L15.8706 29.9092L15.1986 27.5732H15.1666L14.5106 29.9092L13.4066 33.7012H11.4866L9.21458 25.3812ZM22.8278 21.8612H24.5718V26.7572H24.6518C24.8332 26.3092 25.1052 25.9358 25.4678 25.6372C25.8412 25.3385 26.3478 25.1892 26.9878 25.1892C27.8412 25.1892 28.5025 25.4718 28.9718 26.0372C29.4518 26.5918 29.6918 27.3865 29.6918 28.4212V33.7012H27.9478V28.6292C27.9478 27.3385 27.4252 26.6932 26.3798 26.6932C26.1558 26.6932 25.9318 26.7252 25.7078 26.7892C25.4945 26.8425 25.3025 26.9278 25.1318 27.0452C24.9612 27.1625 24.8225 27.3118 24.7158 27.4932C24.6198 27.6745 24.5718 27.8825 24.5718 28.1172V33.7012H22.8278V21.8612ZM35.3731 33.8932C34.7758 33.8932 34.2424 33.7918 33.7731 33.5892C33.3038 33.3865 32.9038 33.0985 32.5731 32.7252C32.2424 32.3412 31.9864 31.8825 31.8051 31.3492C31.6344 30.8052 31.5491 30.2025 31.5491 29.5412C31.5491 28.8798 31.6344 28.2825 31.8051 27.7492C31.9864 27.2052 32.2424 26.7465 32.5731 26.3732C32.9038 25.9892 33.3038 25.6958 33.7731 25.4932C34.2424 25.2905 34.7758 25.1892 35.3731 25.1892C35.9811 25.1892 36.5144 25.2958 36.9731 25.5092C37.4424 25.7225 37.8318 26.0212 38.1411 26.4052C38.4504 26.7785 38.6798 27.2158 38.8291 27.7172C38.9891 28.2185 39.0691 28.7572 39.0691 29.3332V29.9892H33.3571V30.2612C33.3571 30.9012 33.5438 31.4292 33.9171 31.8452C34.3011 32.2505 34.8451 32.4532 35.5491 32.4532C36.0611 32.4532 36.4931 32.3412 36.8451 32.1172C37.1971 31.8932 37.4958 31.5892 37.7411 31.2052L38.7651 32.2132C38.4558 32.7252 38.0078 33.1358 37.4211 33.4452C36.8344 33.7438 36.1518 33.8932 35.3731 33.8932ZM35.3731 26.5492C35.0744 26.5492 34.7971 26.6025 34.5411 26.7092C34.2958 26.8158 34.0824 26.9652 33.9011 27.1572C33.7304 27.3492 33.5971 27.5785 33.5011 27.8452C33.4051 28.1118 33.3571 28.4052 33.3571 28.7252V28.8372H37.2291V28.6772C37.2291 28.0372 37.0638 27.5252 36.7331 27.1412C36.4024 26.7465 35.9491 26.5492 35.3731 26.5492ZM40.9997 33.7012V25.3812H42.7437V26.7572H42.8237C43.005 26.3092 43.277 25.9358 43.6397 25.6372C44.013 25.3385 44.5197 25.1892 45.1597 25.1892C46.013 25.1892 46.6744 25.4718 47.1437 26.0372C47.6237 26.5918 47.8637 27.3865 47.8637 28.4212V33.7012H46.1197V28.6452C46.1197 27.3438 45.597 26.6932 44.5517 26.6932C44.3277 26.6932 44.1037 26.7252 43.8797 26.7892C43.6664 26.8425 43.4744 26.9278 43.3037 27.0452C43.133 27.1625 42.9944 27.3118 42.8877 27.4932C42.7917 27.6745 42.7437 27.8878 42.7437 28.1332V33.7012H40.9997ZM57.2782 33.8932C56.6809 33.8932 56.1475 33.7918 55.6782 33.5892C55.2089 33.3865 54.8142 33.0985 54.4942 32.7252C54.1742 32.3412 53.9289 31.8825 53.7582 31.3492C53.5875 30.8052 53.5022 30.2025 53.5022 29.5412C53.5022 28.8798 53.5875 28.2825 53.7582 27.7492C53.9289 27.2052 54.1742 26.7465 54.4942 26.3732C54.8142 25.9892 55.2089 25.6958 55.6782 25.4932C56.1475 25.2905 56.6809 25.1892 57.2782 25.1892C58.1102 25.1892 58.7929 25.3758 59.3262 25.7492C59.8595 26.1225 60.2489 26.6185 60.4942 27.2372L59.0542 27.9092C58.9369 27.5252 58.7289 27.2212 58.4302 26.9972C58.1422 26.7625 57.7582 26.6452 57.2782 26.6452C56.6382 26.6452 56.1529 26.8478 55.8222 27.2532C55.5022 27.6478 55.3422 28.1652 55.3422 28.8052V30.2932C55.3422 30.9332 55.5022 31.4558 55.8222 31.8612C56.1529 32.2558 56.6382 32.4532 57.2782 32.4532C57.7902 32.4532 58.1955 32.3305 58.4942 32.0852C58.8035 31.8292 59.0489 31.4932 59.2302 31.0772L60.5582 31.7812C60.2809 32.4638 59.8649 32.9865 59.3102 33.3492C58.7555 33.7118 58.0782 33.8932 57.2782 33.8932ZM62.2185 21.8612H63.9625V26.7572H64.0425C64.2238 26.3092 64.4958 25.9358 64.8585 25.6372C65.2318 25.3385 65.7385 25.1892 66.3785 25.1892C67.2318 25.1892 67.8931 25.4718 68.3625 26.0372C68.8425 26.5918 69.0825 27.3865 69.0825 28.4212V33.7012H67.3385V28.6292C67.3385 27.3385 66.8158 26.6932 65.7705 26.6932C65.5465 26.6932 65.3225 26.7252 65.0985 26.7892C64.8851 26.8425 64.6931 26.9278 64.5225 27.0452C64.3518 27.1625 64.2131 27.3118 64.1065 27.4932C64.0105 27.6745 63.9625 27.8825 63.9625 28.1172V33.7012H62.2185V21.8612ZM77.5957 33.7012C77.137 33.7012 76.785 33.5732 76.5397 33.3172C76.2944 33.0505 76.145 32.7145 76.0917 32.3092H76.0117C75.8517 32.8318 75.5584 33.2265 75.1317 33.4932C74.705 33.7598 74.1877 33.8932 73.5797 33.8932C72.7157 33.8932 72.049 33.6692 71.5797 33.2212C71.121 32.7732 70.8917 32.1705 70.8917 31.4132C70.8917 30.5812 71.1904 29.9572 71.7877 29.5412C72.3957 29.1252 73.281 28.9172 74.4437 28.9172H75.9477V28.2132C75.9477 27.7012 75.809 27.3065 75.5317 27.0292C75.2544 26.7518 74.8224 26.6132 74.2357 26.6132C73.745 26.6132 73.345 26.7198 73.0357 26.9332C72.7264 27.1465 72.465 27.4185 72.2517 27.7492L71.2117 26.8052C71.489 26.3358 71.8784 25.9518 72.3797 25.6532C72.881 25.3438 73.537 25.1892 74.3477 25.1892C75.425 25.1892 76.2517 25.4398 76.8277 25.9412C77.4037 26.4425 77.6917 27.1625 77.6917 28.1012V32.2772H78.5717V33.7012H77.5957ZM74.0757 32.5652C74.6197 32.5652 75.0677 32.4478 75.4197 32.2132C75.7717 31.9678 75.9477 31.6425 75.9477 31.2372V30.0372H74.4757C73.2704 30.0372 72.6677 30.4105 72.6677 31.1572V31.4452C72.6677 31.8185 72.7904 32.1012 73.0357 32.2932C73.2917 32.4745 73.6384 32.5652 74.0757 32.5652ZM80.281 33.7012V25.3812H82.025V26.9812H82.105C82.2223 26.5545 82.4676 26.1812 82.841 25.8612C83.2143 25.5412 83.7316 25.3812 84.393 25.3812H84.857V27.0612H84.169C83.4756 27.0612 82.9423 27.1732 82.569 27.3972C82.2063 27.6212 82.025 27.9518 82.025 28.3892V33.7012H80.281ZM92.377 33.7012C91.9183 33.7012 91.5663 33.5732 91.321 33.3172C91.0756 33.0505 90.9263 32.7145 90.873 32.3092H90.793C90.633 32.8318 90.3396 33.2265 89.913 33.4932C89.4863 33.7598 88.969 33.8932 88.361 33.8932C87.497 33.8932 86.8303 33.6692 86.361 33.2212C85.9023 32.7732 85.673 32.1705 85.673 31.4132C85.673 30.5812 85.9716 29.9572 86.569 29.5412C87.177 29.1252 88.0623 28.9172 89.225 28.9172H90.729V28.2132C90.729 27.7012 90.5903 27.3065 90.313 27.0292C90.0356 26.7518 89.6036 26.6132 89.017 26.6132C88.5263 26.6132 88.1263 26.7198 87.817 26.9332C87.5076 27.1465 87.2463 27.4185 87.033 27.7492L85.993 26.8052C86.2703 26.3358 86.6596 25.9518 87.161 25.6532C87.6623 25.3438 88.3183 25.1892 89.129 25.1892C90.2063 25.1892 91.033 25.4398 91.609 25.9412C92.185 26.4425 92.473 27.1625 92.473 28.1012V32.2772H93.353V33.7012H92.377ZM88.857 32.5652C89.401 32.5652 89.849 32.4478 90.201 32.2132C90.553 31.9678 90.729 31.6425 90.729 31.2372V30.0372H89.257C88.0516 30.0372 87.449 30.4105 87.449 31.1572V31.4452C87.449 31.8185 87.5716 32.1012 87.817 32.2932C88.073 32.4745 88.4196 32.5652 88.857 32.5652ZM98.2782 33.8932C97.6809 33.8932 97.1475 33.7918 96.6782 33.5892C96.2089 33.3865 95.8142 33.0985 95.4942 32.7252C95.1742 32.3412 94.9289 31.8825 94.7582 31.3492C94.5875 30.8052 94.5022 30.2025 94.5022 29.5412C94.5022 28.8798 94.5875 28.2825 94.7582 27.7492C94.9289 27.2052 95.1742 26.7465 95.4942 26.3732C95.8142 25.9892 96.2089 25.6958 96.6782 25.4932C97.1475 25.2905 97.6809 25.1892 98.2782 25.1892C99.1102 25.1892 99.7929 25.3758 100.326 25.7492C100.86 26.1225 101.249 26.6185 101.494 27.2372L100.054 27.9092C99.9369 27.5252 99.7289 27.2212 99.4302 26.9972C99.1422 26.7625 98.7582 26.6452 98.2782 26.6452C97.6382 26.6452 97.1529 26.8478 96.8222 27.2532C96.5022 27.6478 96.3422 28.1652 96.3422 28.8052V30.2932C96.3422 30.9332 96.5022 31.4558 96.8222 31.8612C97.1529 32.2558 97.6382 32.4532 98.2782 32.4532C98.7902 32.4532 99.1955 32.3305 99.4942 32.0852C99.8035 31.8292 100.049 31.4932 100.23 31.0772L101.558 31.7812C101.281 32.4638 100.865 32.9865 100.31 33.3492C99.7555 33.7118 99.0782 33.8932 98.2782 33.8932ZM105.522 33.7012C104.914 33.7012 104.456 33.5465 104.146 33.2372C103.837 32.9172 103.682 32.4692 103.682 31.8932V26.8052H102.386V25.3812H103.09C103.378 25.3812 103.576 25.3172 103.682 25.1892C103.8 25.0612 103.858 24.8532 103.858 24.5652V23.1092H105.426V25.3812H107.17V26.8052L105.426 26.8052V32.2772H107.042V33.7012H105.522ZM112.264 33.8932C111.666 33.8932 111.133 33.7918 110.664 33.5892C110.194 33.3865 109.794 33.0985 109.464 32.7252C109.133 32.3412 108.877 31.8825 108.696 31.3492C108.525 30.8052 108.44 30.2025 108.44 29.5412C108.44 28.8798 108.525 28.2825 108.696 27.7492C108.877 27.2052 109.133 26.7465 109.464 26.3732C109.794 25.9892 110.194 25.6958 110.664 25.4932C111.133 25.2905 111.666 25.1892 112.264 25.1892C112.872 25.1892 113.405 25.2958 113.864 25.5092C114.333 25.7225 114.722 26.0212 115.032 26.4052C115.341 26.7785 115.57 27.2158 115.72 27.7172C115.88 28.2185 115.96 28.7572 115.96 29.3332V29.9892H110.248V30.2612C110.248 30.9012 110.434 31.4292 110.808 31.8452C111.192 32.2505 111.736 32.4532 112.44 32.4532C112.952 32.4532 113.384 32.3412 113.736 32.1172C114.088 31.8932 114.386 31.5892 114.632 31.2052L115.656 32.2132C115.346 32.7252 114.898 33.1358 114.312 33.4452C113.725 33.7438 113.042 33.8932 112.264 33.8932ZM112.264 26.5492C111.965 26.5492 111.688 26.6025 111.432 26.7092C111.186 26.8158 110.973 26.9652 110.792 27.1572C110.621 27.3492 110.488 27.5785 110.392 27.8452C110.296 28.1118 110.248 28.4052 110.248 28.7252V28.8372H114.12V28.6772C114.12 28.0372 113.954 27.5252 113.624 27.1412C113.293 26.7465 112.84 26.5492 112.264 26.5492ZM117.89 33.7012V25.3812H119.634V26.9812H119.714C119.832 26.5545 120.077 26.1812 120.45 25.8612C120.824 25.5412 121.341 25.3812 122.002 25.3812H122.466V27.0612H121.778C121.085 27.0612 120.552 27.1732 120.178 27.3972C119.816 27.6212 119.634 27.9518 119.634 28.3892V33.7012H117.89ZM10.9266 42.8932C10.5639 42.8932 10.2973 42.8078 10.1266 42.6372C9.96658 42.4665 9.88658 42.2478 9.88658 41.9812V41.7092C9.88658 41.4425 9.96658 41.2238 10.1266 41.0532C10.2973 40.8825 10.5639 40.7972 10.9266 40.7972C11.2893 40.7972 11.5506 40.8825 11.7106 41.0532C11.8706 41.2238 11.9506 41.4425 11.9506 41.7092V41.9812C11.9506 42.2478 11.8706 42.4665 11.7106 42.6372C11.5506 42.8078 11.2893 42.8932 10.9266 42.8932ZM10.0466 44.3812H11.7906V52.7012H10.0466V44.3812ZM16.921 52.8932C16.1316 52.8932 15.4703 52.7545 14.937 52.4772C14.4036 52.1998 13.9396 51.8158 13.545 51.3252L14.665 50.3012C14.9743 50.6745 15.3156 50.9678 15.689 51.1812C16.073 51.3838 16.5156 51.4852 17.017 51.4852C17.529 51.4852 17.9076 51.3892 18.153 51.1972C18.409 50.9945 18.537 50.7172 18.537 50.3652C18.537 50.0985 18.4463 49.8745 18.265 49.6932C18.0943 49.5012 17.7903 49.3785 17.353 49.3252L16.585 49.2292C15.7316 49.1225 15.0596 48.8772 14.569 48.4932C14.089 48.0985 13.849 47.5172 13.849 46.7492C13.849 46.3438 13.9236 45.9865 14.073 45.6772C14.2223 45.3572 14.4303 45.0905 14.697 44.8772C14.9743 44.6532 15.2996 44.4825 15.673 44.3652C16.057 44.2478 16.4783 44.1892 16.937 44.1892C17.6836 44.1892 18.2916 44.3065 18.761 44.5412C19.241 44.7758 19.6676 45.1012 20.041 45.5172L18.969 46.5412C18.7556 46.2852 18.473 46.0665 18.121 45.8852C17.7796 45.6932 17.385 45.5972 16.937 45.5972C16.457 45.5972 16.0996 45.6932 15.865 45.8852C15.641 46.0772 15.529 46.3278 15.529 46.6372C15.529 46.9572 15.6303 47.1972 15.833 47.3572C16.0356 47.5172 16.361 47.6345 16.809 47.7092L17.577 47.8052C18.4943 47.9438 19.161 48.2158 19.577 48.6212C20.0036 49.0158 20.217 49.5492 20.217 50.2212C20.217 50.6265 20.137 50.9945 19.977 51.3252C19.8276 51.6452 19.609 51.9225 19.321 52.1572C19.033 52.3918 18.6863 52.5732 18.281 52.7012C17.8756 52.8292 17.4223 52.8932 16.921 52.8932ZM28.2725 52.7012C27.6645 52.7012 27.2058 52.5465 26.8965 52.2372C26.5871 51.9172 26.4325 51.4692 26.4325 50.8932V45.8052H25.1365V44.3812H25.8405C26.1285 44.3812 26.3258 44.3172 26.4325 44.1892C26.5498 44.0612 26.6085 43.8532 26.6085 43.5652V42.1092H28.1765V44.3812H29.9205V45.8052H28.1765V51.2772H29.7925V52.7012H28.2725ZM35.0137 52.8932C34.4377 52.8932 33.9097 52.7918 33.4297 52.5892C32.9604 52.3865 32.5604 52.0985 32.2297 51.7252C31.899 51.3412 31.643 50.8825 31.4617 50.3492C31.2804 49.8052 31.1897 49.2025 31.1897 48.5412C31.1897 47.8798 31.2804 47.2825 31.4617 46.7492C31.643 46.2052 31.899 45.7465 32.2297 45.3732C32.5604 44.9892 32.9604 44.6958 33.4297 44.4932C33.9097 44.2905 34.4377 44.1892 35.0137 44.1892C35.5897 44.1892 36.1124 44.2905 36.5817 44.4932C37.0617 44.6958 37.467 44.9892 37.7977 45.3732C38.1284 45.7465 38.3844 46.2052 38.5657 46.7492C38.747 47.2825 38.8377 47.8798 38.8377 48.5412C38.8377 49.2025 38.747 49.8052 38.5657 50.3492C38.3844 50.8825 38.1284 51.3412 37.7977 51.7252C37.467 52.0985 37.0617 52.3865 36.5817 52.5892C36.1124 52.7918 35.5897 52.8932 35.0137 52.8932ZM35.0137 51.4532C35.611 51.4532 36.091 51.2718 36.4537 50.9092C36.8164 50.5358 36.9977 49.9812 36.9977 49.2452V47.8372C36.9977 47.1012 36.8164 46.5518 36.4537 46.1892C36.091 45.8158 35.611 45.6292 35.0137 45.6292C34.4164 45.6292 33.9364 45.8158 33.5737 46.1892C33.211 46.5518 33.0297 47.1012 33.0297 47.8372V49.2452C33.0297 49.9812 33.211 50.5358 33.5737 50.9092C33.9364 51.2718 34.4164 51.4532 35.0137 51.4532ZM45.821 51.3252H45.757C45.6823 51.5278 45.581 51.7252 45.453 51.9172C45.3356 52.1092 45.181 52.2798 44.989 52.4292C44.8076 52.5678 44.5836 52.6798 44.317 52.7652C44.061 52.8505 43.7623 52.8932 43.421 52.8932C42.557 52.8932 41.885 52.6158 41.405 52.0612C40.9356 51.5065 40.701 50.7118 40.701 49.6772V44.3812H42.445V49.4532C42.445 50.7438 42.9783 51.3892 44.045 51.3892C44.269 51.3892 44.4876 51.3625 44.701 51.3092C44.9143 51.2452 45.101 51.1545 45.261 51.0372C45.4316 50.9198 45.565 50.7705 45.661 50.5892C45.7676 50.4078 45.821 50.1945 45.821 49.9492V44.3812H47.565V52.7012H45.821V51.3252ZM53.2782 52.8932C52.6809 52.8932 52.1475 52.7918 51.6782 52.5892C51.2089 52.3865 50.8142 52.0985 50.4942 51.7252C50.1742 51.3412 49.9289 50.8825 49.7582 50.3492C49.5875 49.8052 49.5022 49.2025 49.5022 48.5412C49.5022 47.8798 49.5875 47.2825 49.7582 46.7492C49.9289 46.2052 50.1742 45.7465 50.4942 45.3732C50.8142 44.9892 51.2089 44.6958 51.6782 44.4932C52.1475 44.2905 52.6809 44.1892 53.2782 44.1892C54.1102 44.1892 54.7929 44.3758 55.3262 44.7492C55.8595 45.1225 56.2489 45.6185 56.4942 46.2372L55.0542 46.9092C54.9369 46.5252 54.7289 46.2212 54.4302 45.9972C54.1422 45.7625 53.7582 45.6452 53.2782 45.6452C52.6382 45.6452 52.1529 45.8478 51.8222 46.2532C51.5022 46.6478 51.3422 47.1652 51.3422 47.8052V49.2932C51.3422 49.9332 51.5022 50.4558 51.8222 50.8612C52.1529 51.2558 52.6382 51.4532 53.2782 51.4532C53.7902 51.4532 54.1955 51.3305 54.4942 51.0852C54.8035 50.8292 55.0489 50.4932 55.2302 50.0772L56.5582 50.7812C56.2809 51.4638 55.8649 51.9865 55.3102 52.3492C54.7555 52.7118 54.0782 52.8932 53.2782 52.8932ZM58.2185 40.8612H59.9625V45.7572H60.0425C60.2238 45.3092 60.4958 44.9358 60.8585 44.6372C61.2318 44.3385 61.7385 44.1892 62.3785 44.1892C63.2318 44.1892 63.8931 44.4718 64.3625 45.0372C64.8425 45.5918 65.0825 46.3865 65.0825 47.4212V52.7012H63.3385V47.6292C63.3385 46.3385 62.8158 45.6932 61.7705 45.6932C61.5465 45.6932 61.3225 45.7252 61.0985 45.7892C60.8851 45.8425 60.6931 45.9278 60.5225 46.0452C60.3518 46.1625 60.2131 46.3118 60.1065 46.4932C60.0105 46.6745 59.9625 46.8825 59.9625 47.1172V52.7012H58.2185V40.8612ZM70.7637 52.8932C70.1664 52.8932 69.633 52.7918 69.1637 52.5892C68.6944 52.3865 68.2944 52.0985 67.9637 51.7252C67.633 51.3412 67.377 50.8825 67.1957 50.3492C67.025 49.8052 66.9397 49.2025 66.9397 48.5412C66.9397 47.8798 67.025 47.2825 67.1957 46.7492C67.377 46.2052 67.633 45.7465 67.9637 45.3732C68.2944 44.9892 68.6944 44.6958 69.1637 44.4932C69.633 44.2905 70.1664 44.1892 70.7637 44.1892C71.3717 44.1892 71.905 44.2958 72.3637 44.5092C72.833 44.7225 73.2224 45.0212 73.5317 45.4052C73.841 45.7785 74.0704 46.2158 74.2197 46.7172C74.3797 47.2185 74.4597 47.7572 74.4597 48.3332V48.9892H68.7477V49.2612C68.7477 49.9012 68.9344 50.4292 69.3077 50.8452C69.6917 51.2505 70.2357 51.4532 70.9397 51.4532C71.4517 51.4532 71.8837 51.3412 72.2357 51.1172C72.5877 50.8932 72.8864 50.5892 73.1317 50.2052L74.1557 51.2132C73.8464 51.7252 73.3984 52.1358 72.8117 52.4452C72.225 52.7438 71.5424 52.8932 70.7637 52.8932ZM70.7637 45.5492C70.465 45.5492 70.1877 45.6025 69.9317 45.7092C69.6864 45.8158 69.473 45.9652 69.2917 46.1572C69.121 46.3492 68.9877 46.5785 68.8917 46.8452C68.7957 47.1118 68.7477 47.4052 68.7477 47.7252V47.8372H72.6197V47.6772C72.6197 47.0372 72.4544 46.5252 72.1237 46.1412C71.793 45.7465 71.3397 45.5492 70.7637 45.5492ZM81.6223 51.3252H81.5423C81.361 51.8158 81.0623 52.1998 80.6463 52.4772C80.241 52.7545 79.761 52.8932 79.2063 52.8932C78.1503 52.8932 77.3343 52.5145 76.7583 51.7572C76.1823 50.9892 75.8943 49.9172 75.8943 48.5412C75.8943 47.1652 76.1823 46.0985 76.7583 45.3412C77.3343 44.5732 78.1503 44.1892 79.2063 44.1892C79.761 44.1892 80.241 44.3278 80.6463 44.6052C81.0623 44.8718 81.361 45.2558 81.5423 45.7572H81.6223V40.8612H83.3663V52.7012H81.6223V51.3252ZM79.7343 51.3892C80.2677 51.3892 80.7157 51.2612 81.0783 51.0052C81.441 50.7385 81.6223 50.3918 81.6223 49.9652V47.1172C81.6223 46.6905 81.441 46.3492 81.0783 46.0932C80.7157 45.8265 80.2677 45.6932 79.7343 45.6932C79.1263 45.6932 78.641 45.8905 78.2783 46.2852C77.9157 46.6692 77.7343 47.1812 77.7343 47.8212V49.2612C77.7343 49.9012 77.9157 50.4185 78.2783 50.8132C78.641 51.1972 79.1263 51.3892 79.7343 51.3892Z" fill="#181818"/>
<mask id="path-3-inside-1_6010_7673" fill="white">
<path fill-rule="evenodd" clip-rule="evenodd" d="M161.245 71C161.245 67.1341 158.111 64.0002 154.245 64H32.0066C29.5513 64 27.3598 65.4543 25.319 66.8195C23.6187 67.957 21.4738 68.6357 19.1416 68.6357C16.5327 68.6357 14.1581 67.7863 12.3781 66.3956C10.797 65.1604 9.00641 64 7 64C3.13401 64 0 67.134 0 71V95.9619C9.48103e-05 99.8278 3.13407 102.962 7 102.962C8.40286 102.962 9.66464 103.741 10.6829 104.706C12.6786 106.597 15.7073 107.816 19.1024 107.816C21.8322 107.816 24.3301 107.028 26.2451 105.736C28.2621 104.376 30.4491 102.962 32.8822 102.962H154.245C158.111 102.962 161.245 99.8277 161.245 95.9619V71Z"/>
</mask>
<path fill-rule="evenodd" clip-rule="evenodd" d="M161.245 71C161.245 67.1341 158.111 64.0002 154.245 64H32.0066C29.5513 64 27.3598 65.4543 25.319 66.8195C23.6187 67.957 21.4738 68.6357 19.1416 68.6357C16.5327 68.6357 14.1581 67.7863 12.3781 66.3956C10.797 65.1604 9.00641 64 7 64C3.13401 64 0 67.134 0 71V95.9619C9.48103e-05 99.8278 3.13407 102.962 7 102.962C8.40286 102.962 9.66464 103.741 10.6829 104.706C12.6786 106.597 15.7073 107.816 19.1024 107.816C21.8322 107.816 24.3301 107.028 26.2451 105.736C28.2621 104.376 30.4491 102.962 32.8822 102.962H154.245C158.111 102.962 161.245 99.8277 161.245 95.9619V71Z" fill="#CCB3F8"/>
<path d="M154.245 64L154.245 62.5H154.245V64ZM19.1416 68.6357L19.1416 70.1357H19.1416V68.6357ZM0 95.9619L-1.5 95.9619L-1.5 95.962L0 95.9619ZM7 102.962L7 104.462H7V102.962ZM154.245 102.962L154.245 104.462L154.245 104.462L154.245 102.962ZM161.245 95.9619L162.745 95.9619V95.9619H161.245ZM10.6829 104.706L11.7147 103.617L10.6829 104.706ZM25.319 66.8195L24.485 65.5728L25.319 66.8195ZM154.245 64L154.245 65.5C157.283 65.5002 159.745 67.9626 159.745 71H161.245H162.745C162.745 66.3056 158.939 62.5003 154.245 62.5L154.245 64ZM32.0066 64V65.5H154.245V64V62.5H32.0066V64ZM19.1416 68.6357V70.1357C21.7633 70.1357 24.1998 69.3729 26.1531 68.0663L25.319 66.8195L24.485 65.5728C23.0375 66.5411 21.1842 67.1357 19.1416 67.1357V68.6357ZM12.3781 66.3956L11.4546 67.5777C13.5076 69.1816 16.21 70.1357 19.1416 70.1357L19.1416 68.6357L19.1416 67.1357C16.8555 67.1357 14.8086 66.391 13.3015 65.2136L12.3781 66.3956ZM0 71H1.5C1.5 67.9624 3.96243 65.5 7 65.5V64V62.5C2.30558 62.5 -1.5 66.3056 -1.5 71H0ZM0 95.9619H1.5V71H0H-1.5V95.9619H0ZM7 102.962L7 101.462C3.96253 101.462 1.50007 98.9994 1.5 95.9619L0 95.9619L-1.5 95.962C-1.49988 100.656 2.30561 104.462 7 104.462L7 102.962ZM19.1024 107.816V106.316C16.0523 106.316 13.4047 105.219 11.7147 103.617L10.6829 104.706L9.6512 105.795C11.9524 107.975 15.3622 109.316 19.1024 109.316V107.816ZM26.2451 105.736L25.4063 104.493C23.752 105.609 21.5492 106.316 19.1024 106.316V107.816V109.316C22.1152 109.316 24.9082 108.447 27.084 106.98L26.2451 105.736ZM154.245 102.962V101.462H32.8822V102.962V104.462H154.245V102.962ZM161.245 95.9619L159.745 95.9619C159.745 98.9992 157.282 101.462 154.245 101.462L154.245 102.962L154.245 104.462C158.939 104.462 162.745 100.656 162.745 95.9619L161.245 95.9619ZM161.245 71H159.745V95.9619H161.245H162.745V71H161.245ZM26.2451 105.736L27.084 106.98C29.1668 105.575 30.98 104.462 32.8822 104.462V102.962V101.462C29.9183 101.462 27.3575 103.176 25.4063 104.493L26.2451 105.736ZM7 102.962V104.462C7.84311 104.462 8.75027 104.941 9.6512 105.795L10.6829 104.706L11.7147 103.617C10.579 102.541 8.96261 101.462 7 101.462V102.962ZM12.3781 66.3956L13.3015 65.2136C11.7111 63.9711 9.562 62.5 7 62.5V64V65.5C8.45082 65.5 9.88284 66.3497 11.4546 67.5777L12.3781 66.3956ZM32.0066 64V62.5C29.0154 62.5 26.4389 64.2657 24.485 65.5728L25.319 66.8195L26.1531 68.0663C28.2808 66.643 30.0872 65.5 32.0066 65.5V64Z" fill="#A67AF4" mask="url(#path-3-inside-1_6010_7673)"/>
<path d="M12.1582 88.8437C11.3689 88.8437 10.7075 88.705 10.1742 88.4277C9.64087 88.1504 9.17687 87.7664 8.7822 87.2757L9.9022 86.2517C10.2115 86.625 10.5529 86.9184 10.9262 87.1317C11.3102 87.3344 11.7529 87.4357 12.2542 87.4357C12.7662 87.4357 13.1449 87.3397 13.3902 87.1477C13.6462 86.945 13.7742 86.6677 13.7742 86.3157C13.7742 86.049 13.6835 85.825 13.5022 85.6437C13.3315 85.4517 13.0275 85.329 12.5902 85.2757L11.8222 85.1797C10.9689 85.073 10.2969 84.8277 9.8062 84.4437C9.3262 84.049 9.0862 83.4677 9.0862 82.6997C9.0862 82.2944 9.16087 81.937 9.3102 81.6277C9.45954 81.3077 9.66754 81.041 9.9342 80.8277C10.2115 80.6037 10.5369 80.433 10.9102 80.3157C11.2942 80.1984 11.7155 80.1397 12.1742 80.1397C12.9209 80.1397 13.5289 80.257 13.9982 80.4917C14.4782 80.7264 14.9049 81.0517 15.2782 81.4677L14.2062 82.4917C13.9929 82.2357 13.7102 82.017 13.3582 81.8357C13.0169 81.6437 12.6222 81.5477 12.1742 81.5477C11.6942 81.5477 11.3369 81.6437 11.1022 81.8357C10.8782 82.0277 10.7662 82.2784 10.7662 82.5877C10.7662 82.9077 10.8675 83.1477 11.0702 83.3077C11.2729 83.4677 11.5982 83.585 12.0462 83.6597L12.8142 83.7557C13.7315 83.8944 14.3982 84.1664 14.8142 84.5717C15.2409 84.9664 15.4542 85.4997 15.4542 86.1717C15.4542 86.577 15.3742 86.945 15.2142 87.2757C15.0649 87.5957 14.8462 87.873 14.5582 88.1077C14.2702 88.3424 13.9235 88.5237 13.5182 88.6517C13.1129 88.7797 12.6595 88.8437 12.1582 88.8437ZM19.6191 88.6517C19.0111 88.6517 18.5524 88.497 18.2431 88.1877C17.9337 87.8677 17.7791 87.4197 17.7791 86.8437V81.7557H16.4831V80.3317H17.1871C17.4751 80.3317 17.6724 80.2677 17.7791 80.1397C17.8964 80.0117 17.9551 79.8037 17.9551 79.5157V78.0597H19.5231V80.3317H21.2671V81.7557H19.5231V87.2277H21.1391V88.6517H19.6191ZM29.2548 88.6517C28.7962 88.6517 28.4442 88.5237 28.1988 88.2677C27.9535 88.001 27.8042 87.665 27.7508 87.2597H27.6708C27.5108 87.7824 27.2175 88.177 26.7908 88.4437C26.3642 88.7104 25.8468 88.8437 25.2388 88.8437C24.3748 88.8437 23.7082 88.6197 23.2388 88.1717C22.7802 87.7237 22.5508 87.121 22.5508 86.3637C22.5508 85.5317 22.8495 84.9077 23.4468 84.4917C24.0548 84.0757 24.9402 83.8677 26.1028 83.8677H27.6068V83.1637C27.6068 82.6517 27.4682 82.257 27.1908 81.9797C26.9135 81.7024 26.4815 81.5637 25.8948 81.5637C25.4042 81.5637 25.0042 81.6704 24.6948 81.8837C24.3855 82.097 24.1242 82.369 23.9108 82.6997L22.8708 81.7557C23.1482 81.2864 23.5375 80.9024 24.0388 80.6037C24.5402 80.2944 25.1962 80.1397 26.0068 80.1397C27.0842 80.1397 27.9108 80.3904 28.4868 80.8917C29.0628 81.393 29.3508 82.113 29.3508 83.0517V87.2277H30.2308V88.6517H29.2548ZM25.7348 87.5157C26.2788 87.5157 26.7268 87.3984 27.0788 87.1637C27.4308 86.9184 27.6068 86.593 27.6068 86.1877V84.9877H26.1348C24.9295 84.9877 24.3268 85.361 24.3268 86.1077V86.3957C24.3268 86.769 24.4495 87.0517 24.6948 87.2437C24.9508 87.425 25.2975 87.5157 25.7348 87.5157ZM31.9401 88.6517V80.3317H33.6841V81.9317H33.7641C33.8814 81.505 34.1267 81.1317 34.5001 80.8117C34.8734 80.4917 35.3907 80.3317 36.0521 80.3317H36.5161V82.0117H35.8281C35.1347 82.0117 34.6014 82.1237 34.2281 82.3477C33.8654 82.5717 33.6841 82.9024 33.6841 83.3397V88.6517H31.9401ZM40.4316 88.6517C39.8236 88.6517 39.3649 88.497 39.0556 88.1877C38.7462 87.8677 38.5916 87.4197 38.5916 86.8437V81.7557H37.2956V80.3317H37.9996C38.2876 80.3317 38.4849 80.2677 38.5916 80.1397C38.7089 80.0117 38.7676 79.8037 38.7676 79.5157V78.0597H40.3356V80.3317H42.0796V81.7557H40.3356V87.2277H41.9516V88.6517H40.4316ZM50.0566 88.6517C49.4486 88.6517 48.9899 88.497 48.6806 88.1877C48.3712 87.8677 48.2166 87.4197 48.2166 86.8437V81.7557H46.9206V80.3317H47.6246C47.9126 80.3317 48.1099 80.2677 48.2166 80.1397C48.3339 80.0117 48.3926 79.8037 48.3926 79.5157V78.0597H49.9606V80.3317H51.7046V81.7557H49.9606V87.2277H51.5766V88.6517H50.0566ZM53.5963 88.6517V80.3317H55.3403V81.9317H55.4203C55.5377 81.505 55.783 81.1317 56.1563 80.8117C56.5297 80.4917 57.047 80.3317 57.7083 80.3317H58.1723V82.0117H57.4843C56.791 82.0117 56.2577 82.1237 55.8843 82.3477C55.5217 82.5717 55.3403 82.9024 55.3403 83.3397V88.6517H53.5963ZM65.6923 88.6517C65.2337 88.6517 64.8817 88.5237 64.6363 88.2677C64.391 88.001 64.2417 87.665 64.1883 87.2597H64.1083C63.9483 87.7824 63.655 88.177 63.2283 88.4437C62.8017 88.7104 62.2843 88.8437 61.6763 88.8437C60.8123 88.8437 60.1457 88.6197 59.6763 88.1717C59.2177 87.7237 58.9883 87.121 58.9883 86.3637C58.9883 85.5317 59.287 84.9077 59.8843 84.4917C60.4923 84.0757 61.3777 83.8677 62.5403 83.8677H64.0443V83.1637C64.0443 82.6517 63.9057 82.257 63.6283 81.9797C63.351 81.7024 62.919 81.5637 62.3323 81.5637C61.8417 81.5637 61.4417 81.6704 61.1323 81.8837C60.823 82.097 60.5617 82.369 60.3483 82.6997L59.3083 81.7557C59.5857 81.2864 59.975 80.9024 60.4763 80.6037C60.9777 80.2944 61.6337 80.1397 62.4443 80.1397C63.5217 80.1397 64.3483 80.3904 64.9243 80.8917C65.5003 81.393 65.7883 82.113 65.7883 83.0517V87.2277H66.6683V88.6517H65.6923ZM62.1723 87.5157C62.7163 87.5157 63.1643 87.3984 63.5163 87.1637C63.8683 86.9184 64.0443 86.593 64.0443 86.1877V84.9877H62.5723C61.367 84.9877 60.7643 85.361 60.7643 86.1077V86.3957C60.7643 86.769 60.887 87.0517 61.1323 87.2437C61.3883 87.425 61.735 87.5157 62.1723 87.5157ZM69.2576 78.8437C68.8949 78.8437 68.6282 78.7584 68.4576 78.5877C68.2976 78.417 68.2176 78.1984 68.2176 77.9317V77.6597C68.2176 77.393 68.2976 77.1744 68.4576 77.0037C68.6282 76.833 68.8949 76.7477 69.2576 76.7477C69.6202 76.7477 69.8816 76.833 70.0416 77.0037C70.2016 77.1744 70.2816 77.393 70.2816 77.6597V77.9317C70.2816 78.1984 70.2016 78.417 70.0416 78.5877C69.8816 78.7584 69.6202 78.8437 69.2576 78.8437ZM68.3776 80.3317H70.1216V88.6517H68.3776V80.3317ZM74.388 88.6517C73.7906 88.6517 73.3426 88.5024 73.044 88.2037C72.756 87.8944 72.612 87.4677 72.612 86.9237V76.8117H74.356V87.2277H75.508V88.6517H74.388Z" fill="#181818"/>
<path fill-rule="evenodd" clip-rule="evenodd" d="M0 105.798C0 102.82 2.42439 100.407 5.41503 100.407H6.49085C8.41783 100.407 10.1307 101.507 11.5264 102.829C13.4617 104.664 16.0691 105.798 18.9403 105.798C21.8152 105.798 24.4313 104.661 26.3732 102.822C27.7673 101.503 29.4782 100.407 31.4019 100.407H181.404C184.394 100.407 186.818 102.82 186.818 105.798V138.143C186.818 141.12 184.394 143.534 181.404 143.534H31.4019C29.4782 143.534 27.7673 144.63 26.3732 145.95C24.4313 147.788 21.8152 148.925 18.9403 148.925C16.0691 148.925 13.4617 147.791 11.5264 145.957C10.1307 144.634 8.41783 143.534 6.49085 143.534H5.41503C2.42439 143.534 0 141.12 0 138.143V105.798Z" fill="#A0C6FF"/>
<mask id="mask0_6010_7673" style="mask-type:luminance" maskUnits="userSpaceOnUse" x="0" y="100" width="187" height="49">
<path fill-rule="evenodd" clip-rule="evenodd" d="M0 105.798C0 102.82 2.42439 100.407 5.41503 100.407H6.49085C8.41783 100.407 10.1307 101.507 11.5264 102.829C13.4617 104.664 16.0691 105.798 18.9403 105.798C21.8152 105.798 24.4313 104.661 26.3732 102.822C27.7673 101.503 29.4782 100.407 31.4019 100.407H181.404C184.394 100.407 186.818 102.82 186.818 105.798V138.143C186.818 141.12 184.394 143.534 181.404 143.534H31.4019C29.4782 143.534 27.7673 144.63 26.3732 145.95C24.4313 147.788 21.8152 148.925 18.9403 148.925C16.0691 148.925 13.4617 147.791 11.5264 145.957C10.1307 144.634 8.41783 143.534 6.49085 143.534H5.41503C2.42439 143.534 0 141.12 0 138.143V105.798Z" fill="white"/>
</mask>
<g mask="url(#mask0_6010_7673)">
<path d="M6.49084 99.0589H5.41503V101.754H6.49084V99.0589ZM18.9403 104.45C16.4352 104.45 14.1572 103.462 12.4599 101.853L10.593 103.806C12.7661 105.865 15.703 107.145 18.9403 107.145V104.45ZM25.4403 101.846C23.736 103.459 21.449 104.45 18.9403 104.45V107.145C22.1814 107.145 25.1265 105.862 27.306 103.799L25.4403 101.846ZM181.404 99.0589H31.4019V101.754H181.404V99.0589ZM188.172 138.143V105.798H185.464V138.143H188.172ZM31.4019 144.882H181.404V142.186H31.4019V144.882ZM25.4403 144.973C23.736 146.586 21.449 147.577 18.9403 147.577V150.272C22.1814 150.272 25.1265 148.99 27.306 146.926L25.4403 144.973ZM18.9403 147.577C16.4352 147.577 14.1572 146.589 12.4599 144.981L10.593 146.933C12.7661 148.992 15.703 150.272 18.9403 150.272V147.577ZM5.41503 144.882H6.49084V142.186H5.41503V144.882ZM-1.35376 105.798V138.143H1.35375V105.798H-1.35376ZM5.41503 142.186C3.17205 142.186 1.35375 140.376 1.35375 138.143H-1.35376C-1.35376 141.865 1.67673 144.882 5.41503 144.882V142.186ZM12.4599 144.981C10.9751 143.573 8.93883 142.186 6.49084 142.186V144.882C7.89688 144.882 9.2864 145.694 10.593 146.933L12.4599 144.981ZM31.4019 142.186C28.9582 142.186 26.9241 143.568 25.4403 144.973L27.306 146.926C28.6104 145.692 29.9982 144.882 31.4019 144.882V142.186ZM181.404 101.754C183.646 101.754 185.464 103.565 185.464 105.798H188.172C188.172 102.076 185.142 99.0589 181.404 99.0589V101.754ZM27.306 103.799C28.6104 102.564 29.9982 101.754 31.4019 101.754V99.0589C28.9582 99.0589 26.9241 100.441 25.4403 101.846L27.306 103.799ZM5.41503 99.0589C1.67673 99.0589 -1.35376 102.076 -1.35376 105.798H1.35375C1.35375 103.565 3.17205 101.754 5.41503 101.754V99.0589ZM185.464 138.143C185.464 140.376 183.646 142.186 181.404 142.186V144.882C185.142 144.882 188.172 141.865 188.172 138.143H185.464ZM6.49084 101.754C7.89688 101.754 9.2864 102.567 10.593 103.806L12.4599 101.853C10.9751 100.446 8.93877 99.0589 6.49084 99.0589V101.754Z" fill="#3F76C9"/>
</g>
<path d="M139.323 128.413C138.522 128.413 137.85 128.273 137.309 127.993C136.767 127.713 136.296 127.325 135.895 126.829L137.033 125.794C137.347 126.171 137.693 126.467 138.073 126.683C138.462 126.888 138.912 126.99 139.421 126.99C139.94 126.99 140.325 126.893 140.574 126.699C140.834 126.494 140.964 126.214 140.964 125.858C140.964 125.589 140.872 125.362 140.688 125.179C140.515 124.985 140.206 124.861 139.762 124.807L138.982 124.71C138.116 124.602 137.433 124.354 136.935 123.966C136.448 123.567 136.204 122.979 136.204 122.203C136.204 121.793 136.28 121.432 136.432 121.12C136.583 120.796 136.794 120.527 137.065 120.311C137.347 120.085 137.677 119.912 138.056 119.793C138.446 119.675 138.874 119.616 139.34 119.616C140.098 119.616 140.715 119.734 141.191 119.971C141.679 120.209 142.112 120.537 142.491 120.958L141.403 121.993C141.186 121.734 140.899 121.513 140.541 121.33C140.195 121.136 139.795 121.039 139.34 121.039C138.852 121.039 138.489 121.136 138.251 121.33C138.024 121.524 137.91 121.777 137.91 122.09C137.91 122.413 138.013 122.656 138.218 122.818C138.424 122.979 138.755 123.098 139.209 123.174L139.989 123.271C140.921 123.411 141.597 123.686 142.02 124.095C142.453 124.494 142.67 125.033 142.67 125.713C142.67 126.122 142.588 126.494 142.426 126.829C142.275 127.152 142.052 127.432 141.76 127.67C141.468 127.907 141.115 128.09 140.704 128.219C140.292 128.349 139.832 128.413 139.323 128.413ZM146.898 128.219C146.281 128.219 145.815 128.063 145.501 127.75C145.188 127.427 145.03 126.974 145.03 126.392V121.249H143.715V119.81H144.429C144.721 119.81 144.922 119.745 145.03 119.616C145.149 119.486 145.209 119.276 145.209 118.985V117.513H146.801V119.81H148.572V121.249H146.801V126.78H148.441V128.219H146.898ZM153.743 128.413C153.136 128.413 152.595 128.311 152.118 128.106C151.642 127.901 151.236 127.61 150.9 127.233C150.565 126.845 150.304 126.381 150.12 125.842C149.947 125.292 149.86 124.683 149.86 124.015C149.86 123.346 149.947 122.742 150.12 122.203C150.304 121.653 150.565 121.19 150.9 120.812C151.236 120.424 151.642 120.128 152.118 119.923C152.595 119.718 153.136 119.616 153.743 119.616C154.361 119.616 154.901 119.723 155.368 119.939C155.844 120.155 156.239 120.457 156.553 120.845C156.868 121.222 157.1 121.664 157.252 122.171C157.414 122.678 157.495 123.222 157.495 123.804V124.467H151.696V124.742C151.696 125.389 151.886 125.923 152.265 126.343C152.655 126.753 153.207 126.958 153.922 126.958C154.441 126.958 154.88 126.845 155.238 126.618C155.595 126.392 155.898 126.085 156.147 125.696L157.187 126.715C156.873 127.233 156.418 127.648 155.822 127.961C155.227 128.263 154.533 128.413 153.743 128.413ZM153.743 120.99C153.44 120.99 153.158 121.044 152.898 121.152C152.649 121.26 152.433 121.411 152.249 121.605C152.075 121.799 151.94 122.031 151.842 122.3C151.745 122.57 151.696 122.866 151.696 123.19V123.303H155.628V123.141C155.628 122.494 155.46 121.977 155.124 121.589C154.788 121.19 154.328 120.99 153.743 120.99ZM159.456 119.81H161.226V121.2H161.308C161.492 120.694 161.79 120.306 162.201 120.036C162.623 119.756 163.117 119.616 163.679 119.616C164.752 119.616 165.58 120.004 166.165 120.78C166.75 121.545 167.042 122.624 167.042 124.015C167.042 125.405 166.75 126.489 166.165 127.265C165.58 128.031 164.752 128.413 163.679 128.413C163.117 128.413 162.623 128.273 162.201 127.993C161.79 127.713 161.492 127.325 161.308 126.829H161.226V131.454H159.456V119.81ZM163.144 126.893C163.761 126.893 164.253 126.699 164.622 126.311C164.99 125.912 165.174 125.389 165.174 124.742V123.287C165.174 122.64 164.99 122.122 164.622 121.734C164.253 121.335 163.761 121.136 163.144 121.136C162.602 121.136 162.147 121.271 161.779 121.54C161.41 121.799 161.226 122.144 161.226 122.575V125.454C161.226 125.885 161.41 126.236 161.779 126.505C162.147 126.764 162.602 126.893 163.144 126.893ZM171.75 128.413C170.949 128.413 170.277 128.273 169.736 127.993C169.194 127.713 168.723 127.325 168.322 126.829L169.459 125.794C169.774 126.171 170.12 126.467 170.499 126.683C170.889 126.888 171.339 126.99 171.848 126.99C172.367 126.99 172.752 126.893 173.001 126.699C173.261 126.494 173.391 126.214 173.391 125.858C173.391 125.589 173.299 125.362 173.115 125.179C172.941 124.985 172.633 124.861 172.189 124.807L171.409 124.71C170.542 124.602 169.86 124.354 169.362 123.966C168.875 123.567 168.631 122.979 168.631 122.203C168.631 121.793 168.707 121.432 168.859 121.12C169.01 120.796 169.221 120.527 169.492 120.311C169.774 120.085 170.104 119.912 170.483 119.793C170.873 119.675 171.3 119.616 171.766 119.616C172.524 119.616 173.142 119.734 173.618 119.971C174.105 120.209 174.539 120.537 174.918 120.958L173.829 121.993C173.613 121.734 173.326 121.513 172.969 121.33C172.622 121.136 172.221 121.039 171.766 121.039C171.279 121.039 170.916 121.136 170.678 121.33C170.45 121.524 170.337 121.777 170.337 122.09C170.337 122.413 170.44 122.656 170.645 122.818C170.851 122.979 171.182 123.098 171.637 123.174L172.416 123.271C173.347 123.411 174.024 123.686 174.447 124.095C174.88 124.494 175.096 125.033 175.096 125.713C175.096 126.122 175.015 126.494 174.853 126.829C174.701 127.152 174.479 127.432 174.187 127.67C173.894 127.907 173.543 128.09 173.131 128.219C172.72 128.349 172.259 128.413 171.75 128.413Z" fill="#181818"/>
<path d="M111.008 108.493H94.7628C87.2862 108.493 81.2252 114.527 81.2252 121.97C81.2252 129.413 87.2862 135.447 94.7628 135.447H111.008C118.484 135.447 124.545 129.413 124.545 121.97C124.545 114.527 118.484 108.493 111.008 108.493Z" fill="#FCFAF3"/>
<path d="M12.5358 121.249H11.2524V119.81H12.5358V118.419C12.5358 117.739 12.7145 117.211 13.0719 116.834C13.4293 116.446 13.9654 116.252 14.6801 116.252H16.0772V117.691H14.3065V119.81H16.0772V121.249H14.3065V128.219H12.5358V121.249ZM20.8685 128.413C20.2837 128.413 19.7476 128.311 19.2602 128.106C18.7838 127.901 18.3776 127.61 18.0419 127.233C17.7061 126.845 17.4462 126.381 17.2621 125.842C17.078 125.292 16.986 124.683 16.986 124.015C16.986 123.346 17.078 122.742 17.2621 122.203C17.4462 121.653 17.7061 121.19 18.0419 120.812C18.3776 120.424 18.7838 120.128 19.2602 119.923C19.7476 119.718 20.2837 119.616 20.8685 119.616C21.4533 119.616 21.984 119.718 22.4605 119.923C22.9479 120.128 23.3594 120.424 23.6951 120.812C24.0309 121.19 24.2908 121.653 24.4749 122.203C24.659 122.742 24.7511 123.346 24.7511 124.015C24.7511 124.683 24.659 125.292 24.4749 125.842C24.2908 126.381 24.0309 126.845 23.6951 127.233C23.3594 127.61 22.9479 127.901 22.4605 128.106C21.984 128.311 21.4533 128.413 20.8685 128.413ZM20.8685 126.958C21.475 126.958 21.9624 126.775 22.3306 126.408C22.6988 126.031 22.8829 125.47 22.8829 124.726V123.303C22.8829 122.559 22.6988 122.004 22.3306 121.637C21.9624 121.26 21.475 121.071 20.8685 121.071C20.2621 121.071 19.7747 121.26 19.4065 121.637C19.0382 122.004 18.8541 122.559 18.8541 123.303V124.726C18.8541 125.47 19.0382 126.031 19.4065 126.408C19.7747 126.775 20.2621 126.958 20.8685 126.958ZM26.7241 128.219V119.81H28.4948V121.427H28.5761C28.6952 120.996 28.9443 120.618 29.3233 120.295C29.7024 119.971 30.2276 119.81 30.8991 119.81H31.3702V121.508H30.6717C29.9677 121.508 29.4262 121.621 29.0472 121.847C28.679 122.074 28.4948 122.408 28.4948 122.85V128.219H26.7241ZM32.1775 119.81H33.8995L34.7605 123.335L35.524 126.521H35.5728L36.45 123.335L37.4734 119.81H39.0654L40.1051 123.335L40.9986 126.521H41.0473L41.7946 123.335L42.6719 119.81H44.3126L42.0383 128.219H40.0401L38.9355 124.387L38.2532 122.025H38.2207L37.5546 124.387L36.4337 128.219H34.4843L32.1775 119.81ZM52.0141 128.219C51.5485 128.219 51.1911 128.09 50.942 127.831C50.6929 127.562 50.5413 127.222 50.4871 126.812H50.4059C50.2435 127.341 49.9456 127.74 49.5124 128.009C49.0792 128.279 48.554 128.413 47.9366 128.413C47.0594 128.413 46.3825 128.187 45.906 127.734C45.4403 127.281 45.2075 126.672 45.2075 125.907C45.2075 125.066 45.5107 124.435 46.1172 124.015C46.7345 123.594 47.6334 123.384 48.8139 123.384H50.3409V122.672C50.3409 122.155 50.2001 121.756 49.9186 121.475C49.6369 121.195 49.1983 121.055 48.6027 121.055C48.1045 121.055 47.6984 121.163 47.3843 121.378C47.0703 121.594 46.8049 121.869 46.5883 122.203L45.5324 121.249C45.8139 120.775 46.2092 120.386 46.7183 120.085C47.2273 119.772 47.8934 119.616 48.7164 119.616C49.8102 119.616 50.6496 119.869 51.2344 120.376C51.8192 120.882 52.1116 121.61 52.1116 122.559V126.78H53.0051V128.219H52.0141ZM48.4403 127.071C48.9926 127.071 49.4475 126.953 49.8048 126.715C50.1622 126.467 50.3409 126.139 50.3409 125.729V124.516H48.8463C47.6226 124.516 47.0107 124.893 47.0107 125.648V125.939C47.0107 126.316 47.1352 126.602 47.3843 126.796C47.6442 126.98 47.9962 127.071 48.4403 127.071ZM54.7406 128.219V119.81H56.5113V121.427H56.5925C56.7116 120.996 56.9607 120.618 57.3397 120.295C57.7188 119.971 58.2441 119.81 58.9156 119.81H59.3864V121.508H58.6881C57.9842 121.508 57.4426 121.621 57.0636 121.847C56.6954 122.074 56.5113 122.408 56.5113 122.85V128.219H54.7406ZM66.1921 126.829H66.1107C65.9266 127.325 65.6234 127.713 65.2011 127.993C64.7899 128.273 64.3026 128.413 63.7393 128.413C62.6668 128.413 61.8386 128.031 61.2534 127.265C60.6688 126.489 60.3762 125.405 60.3762 124.015C60.3762 122.624 60.6688 121.545 61.2534 120.78C61.8386 120.004 62.6668 119.616 63.7393 119.616C64.3026 119.616 64.7899 119.756 65.2011 120.036C65.6234 120.306 65.9266 120.694 66.1107 121.2H66.1921V116.252H67.963V128.219H66.1921V126.829ZM64.2755 126.893C64.817 126.893 65.2719 126.764 65.64 126.505C66.0081 126.236 66.1921 125.885 66.1921 125.454V122.575C66.1921 122.144 66.0081 121.799 65.64 121.54C65.2719 121.271 64.817 121.136 64.2755 121.136C63.6579 121.136 63.1653 121.335 62.7972 121.734C62.4285 122.122 62.2444 122.64 62.2444 123.287V124.742C62.2444 125.389 62.4285 125.912 62.7972 126.311C63.1653 126.699 63.6579 126.893 64.2755 126.893Z" fill="#181818"/>
<path d="M99.3229 128V126.605H102.263V118.76H102.143L99.7129 121.355L98.6779 120.425L101.348 117.53H103.943V126.605H106.478V128H99.3229Z" fill="#1B1B1B"/>
<mask id="path-13-inside-2_6010_7673" fill="white">
<path fill-rule="evenodd" clip-rule="evenodd" d="M161.245 149C161.245 145.134 158.111 142 154.245 142H32.0066C29.5513 142 27.3598 143.454 25.319 144.82C23.6187 145.957 21.4738 146.636 19.1416 146.636C16.5327 146.636 14.1581 145.786 12.3781 144.396C10.797 143.16 9.00641 142 7 142C3.13401 142 0 145.134 0 149V173.962C9.48103e-05 177.828 3.13407 180.962 7 180.962C8.40286 180.962 9.66464 181.741 10.6829 182.706C12.6786 184.597 15.7073 185.816 19.1024 185.816C21.8322 185.816 24.3301 185.028 26.2451 183.736C28.2621 182.376 30.4491 180.962 32.8822 180.962H154.245C158.111 180.962 161.245 177.828 161.245 173.962V149Z"/>
</mask>
<path fill-rule="evenodd" clip-rule="evenodd" d="M161.245 149C161.245 145.134 158.111 142 154.245 142H32.0066C29.5513 142 27.3598 143.454 25.319 144.82C23.6187 145.957 21.4738 146.636 19.1416 146.636C16.5327 146.636 14.1581 145.786 12.3781 144.396C10.797 143.16 9.00641 142 7 142C3.13401 142 0 145.134 0 149V173.962C9.48103e-05 177.828 3.13407 180.962 7 180.962C8.40286 180.962 9.66464 181.741 10.6829 182.706C12.6786 184.597 15.7073 185.816 19.1024 185.816C21.8322 185.816 24.3301 185.028 26.2451 183.736C28.2621 182.376 30.4491 180.962 32.8822 180.962H154.245C158.111 180.962 161.245 177.828 161.245 173.962V149Z" fill="#CCB3F8"/>
<path d="M154.245 142L154.245 140.5H154.245V142ZM19.1416 146.636L19.1416 148.136H19.1416V146.636ZM0 173.962L-1.5 173.962L-1.5 173.962L0 173.962ZM7 180.962L7 182.462H7V180.962ZM154.245 180.962L154.245 182.462L154.245 182.462L154.245 180.962ZM161.245 173.962L162.745 173.962V173.962H161.245ZM10.6829 182.706L11.7147 181.617L10.6829 182.706ZM25.319 144.82L24.485 143.573L25.319 144.82ZM154.245 142L154.245 143.5C157.283 143.5 159.745 145.963 159.745 149H161.245H162.745C162.745 144.306 158.939 140.5 154.245 140.5L154.245 142ZM32.0066 142V143.5H154.245V142V140.5H32.0066V142ZM19.1416 146.636V148.136C21.7633 148.136 24.1998 147.373 26.1531 146.066L25.319 144.82L24.485 143.573C23.0375 144.541 21.1842 145.136 19.1416 145.136V146.636ZM12.3781 144.396L11.4546 145.578C13.5076 147.182 16.21 148.136 19.1416 148.136L19.1416 146.636L19.1416 145.136C16.8555 145.136 14.8086 144.391 13.3015 143.214L12.3781 144.396ZM0 149H1.5C1.5 145.962 3.96243 143.5 7 143.5V142V140.5C2.30558 140.5 -1.5 144.306 -1.5 149H0ZM0 173.962H1.5V149H0H-1.5V173.962H0ZM7 180.962L7 179.462C3.96253 179.462 1.50007 176.999 1.5 173.962L0 173.962L-1.5 173.962C-1.49988 178.656 2.30561 182.462 7 182.462L7 180.962ZM19.1024 185.816V184.316C16.0523 184.316 13.4047 183.219 11.7147 181.617L10.6829 182.706L9.6512 183.795C11.9524 185.975 15.3622 187.316 19.1024 187.316V185.816ZM26.2451 183.736L25.4063 182.493C23.752 183.609 21.5492 184.316 19.1024 184.316V185.816V187.316C22.1152 187.316 24.9082 186.447 27.084 184.98L26.2451 183.736ZM154.245 180.962V179.462H32.8822V180.962V182.462H154.245V180.962ZM161.245 173.962L159.745 173.962C159.745 176.999 157.282 179.462 154.245 179.462L154.245 180.962L154.245 182.462C158.939 182.462 162.745 178.656 162.745 173.962L161.245 173.962ZM161.245 149H159.745V173.962H161.245H162.745V149H161.245ZM26.2451 183.736L27.084 184.98C29.1668 183.575 30.98 182.462 32.8822 182.462V180.962V179.462C29.9183 179.462 27.3575 181.176 25.4063 182.493L26.2451 183.736ZM7 180.962V182.462C7.84311 182.462 8.75027 182.941 9.6512 183.795L10.6829 182.706L11.7147 181.617C10.579 180.541 8.96261 179.462 7 179.462V180.962ZM12.3781 144.396L13.3015 143.214C11.7111 141.971 9.562 140.5 7 140.5V142V143.5C8.45082 143.5 9.88284 144.35 11.4546 145.578L12.3781 144.396ZM32.0066 142V140.5C29.0154 140.5 26.4389 142.266 24.485 143.573L25.319 144.82L26.1531 146.066C28.2808 144.643 30.0872 143.5 32.0066 143.5V142Z" fill="#A67AF4" mask="url(#path-13-inside-2_6010_7673)"/>
<path d="M12.7822 166.844C12.1849 166.844 11.6515 166.742 11.1822 166.54C10.7129 166.337 10.3129 166.049 9.9822 165.676C9.65154 165.292 9.39554 164.833 9.2142 164.3C9.04354 163.756 8.9582 163.153 8.9582 162.492C8.9582 161.83 9.04354 161.233 9.2142 160.7C9.39554 160.156 9.65154 159.697 9.9822 159.324C10.3129 158.94 10.7129 158.646 11.1822 158.444C11.6515 158.241 12.1849 158.14 12.7822 158.14C13.3902 158.14 13.9235 158.246 14.3822 158.46C14.8515 158.673 15.2409 158.972 15.5502 159.356C15.8595 159.729 16.0889 160.166 16.2382 160.668C16.3982 161.169 16.4782 161.708 16.4782 162.284V162.94H10.7662V163.212C10.7662 163.852 10.9529 164.38 11.3262 164.796C11.7102 165.201 12.2542 165.404 12.9582 165.404C13.4702 165.404 13.9022 165.292 14.2542 165.068C14.6062 164.844 14.9049 164.54 15.1502 164.156L16.1742 165.164C15.8649 165.676 15.4169 166.086 14.8302 166.396C14.2435 166.694 13.5609 166.844 12.7822 166.844ZM12.7822 159.5C12.4835 159.5 12.2062 159.553 11.9502 159.66C11.7049 159.766 11.4915 159.916 11.3102 160.108C11.1395 160.3 11.0062 160.529 10.9102 160.796C10.8142 161.062 10.7662 161.356 10.7662 161.676V161.788H14.6382V161.628C14.6382 160.988 14.4729 160.476 14.1422 160.092C13.8115 159.697 13.3582 159.5 12.7822 159.5ZM18.4088 166.652V158.332H20.1528V159.708H20.2328C20.4142 159.26 20.6862 158.886 21.0488 158.588C21.4222 158.289 21.9288 158.14 22.5688 158.14C23.4222 158.14 24.0835 158.422 24.5528 158.988C25.0328 159.542 25.2728 160.337 25.2728 161.372V166.652H23.5288V161.596C23.5288 160.294 23.0062 159.644 21.9608 159.644C21.7368 159.644 21.5128 159.676 21.2888 159.74C21.0755 159.793 20.8835 159.878 20.7128 159.996C20.5422 160.113 20.4035 160.262 20.2968 160.444C20.2008 160.625 20.1528 160.838 20.1528 161.084V166.652H18.4088ZM32.9221 165.276H32.8421C32.6607 165.766 32.3621 166.15 31.9461 166.428C31.5407 166.705 31.0607 166.844 30.5061 166.844C29.4501 166.844 28.6341 166.465 28.0581 165.708C27.4821 164.94 27.1941 163.868 27.1941 162.492C27.1941 161.116 27.4821 160.049 28.0581 159.292C28.6341 158.524 29.4501 158.14 30.5061 158.14C31.0607 158.14 31.5407 158.278 31.9461 158.556C32.3621 158.822 32.6607 159.206 32.8421 159.708H32.9221V154.812H34.6661V166.652H32.9221V165.276ZM31.0341 165.34C31.5674 165.34 32.0154 165.212 32.3781 164.956C32.7407 164.689 32.9221 164.342 32.9221 163.916V161.068C32.9221 160.641 32.7407 160.3 32.3781 160.044C32.0154 159.777 31.5674 159.644 31.0341 159.644C30.4261 159.644 29.9407 159.841 29.5781 160.236C29.2154 160.62 29.0341 161.132 29.0341 161.772V163.212C29.0341 163.852 29.2154 164.369 29.5781 164.764C29.9407 165.148 30.4261 165.34 31.0341 165.34ZM43.2441 166.652C42.6361 166.652 42.1774 166.497 41.8681 166.188C41.5587 165.868 41.4041 165.42 41.4041 164.844V159.756H40.1081V158.332H40.8121C41.1001 158.332 41.2974 158.268 41.4041 158.14C41.5214 158.012 41.5801 157.804 41.5801 157.516V156.06H43.1481V158.332H44.8921V159.756H43.1481V165.228H44.7641V166.652H43.2441ZM46.7838 166.652V158.332H48.5278V159.932H48.6078C48.7252 159.505 48.9705 159.132 49.3438 158.812C49.7172 158.492 50.2345 158.332 50.8958 158.332H51.3598V160.012H50.6718C49.9785 160.012 49.4452 160.124 49.0718 160.348C48.7092 160.572 48.5278 160.902 48.5278 161.34V166.652H46.7838ZM58.8798 166.652C58.4212 166.652 58.0692 166.524 57.8238 166.268C57.5785 166.001 57.4292 165.665 57.3758 165.26H57.2958C57.1358 165.782 56.8425 166.177 56.4158 166.444C55.9892 166.71 55.4718 166.844 54.8638 166.844C53.9998 166.844 53.3332 166.62 52.8638 166.172C52.4052 165.724 52.1758 165.121 52.1758 164.364C52.1758 163.532 52.4745 162.908 53.0718 162.492C53.6798 162.076 54.5652 161.868 55.7278 161.868H57.2318V161.164C57.2318 160.652 57.0932 160.257 56.8158 159.98C56.5385 159.702 56.1065 159.564 55.5198 159.564C55.0292 159.564 54.6292 159.67 54.3198 159.884C54.0105 160.097 53.7492 160.369 53.5358 160.7L52.4958 159.756C52.7732 159.286 53.1625 158.902 53.6638 158.604C54.1652 158.294 54.8212 158.14 55.6318 158.14C56.7092 158.14 57.5358 158.39 58.1118 158.892C58.6878 159.393 58.9758 160.113 58.9758 161.052V165.228H59.8558V166.652H58.8798ZM55.3598 165.516C55.9038 165.516 56.3518 165.398 56.7038 165.164C57.0558 164.918 57.2318 164.593 57.2318 164.188V162.988H55.7598C54.5545 162.988 53.9518 163.361 53.9518 164.108V164.396C53.9518 164.769 54.0745 165.052 54.3198 165.244C54.5758 165.425 54.9225 165.516 55.3598 165.516ZM62.4451 156.844C62.0824 156.844 61.8157 156.758 61.6451 156.588C61.4851 156.417 61.4051 156.198 61.4051 155.932V155.66C61.4051 155.393 61.4851 155.174 61.6451 155.004C61.8157 154.833 62.0824 154.748 62.4451 154.748C62.8077 154.748 63.0691 154.833 63.2291 155.004C63.3891 155.174 63.4691 155.393 63.4691 155.66V155.932C63.4691 156.198 63.3891 156.417 63.2291 156.588C63.0691 156.758 62.8077 156.844 62.4451 156.844ZM61.5651 158.332H63.3091V166.652H61.5651V158.332ZM67.5755 166.652C66.9781 166.652 66.5301 166.502 66.2315 166.204C65.9435 165.894 65.7995 165.468 65.7995 164.924V154.812H67.5435V165.228H68.6955V166.652H67.5755Z" fill="#181818"/>
</svg>
