<svg width="172" height="103" viewBox="0 0 172 103" fill="none" xmlns="http://www.w3.org/2000/svg">
<mask id="path-1-inside-1_55_361" fill="white">
<path fill-rule="evenodd" clip-rule="evenodd" d="M12.4164 2.39382C10.837 1.15942 9.04811 2.35824e-05 7.04358 2.38873e-05C3.17759 2.44756e-05 0.0435792 3.13402 0.0435792 7.00001V15.0442C0.0148167 15.2747 1.20077e-08 15.5096 1.20077e-08 15.7479V80.8755C1.20077e-08 80.9021 0.000185117 80.9287 0.000554017 80.9552L1.20077e-08 90.5132C-0.000223998 94.3794 3.13385 97.5136 7.00001 97.5136C8.6455 97.5136 10.1374 98.3944 11.4182 99.4275C13.3971 101.024 16.1738 102.026 19.2516 102.026C21.9127 102.026 24.3534 101.277 26.2487 100.042C28.1801 98.7841 30.2702 97.5136 32.5753 97.5136L164 97.5136C167.866 97.5136 171 94.3799 171 90.514L171.001 80.2922C171.001 76.4261 167.867 73.2918 164.001 73.2918L41.5112 73.2918C39.0553 73.2918 36.8633 74.7469 34.8217 76.1119C33.1205 77.2493 30.9745 77.9278 28.6419 77.9278C25.3452 77.9278 22.4209 76.5724 20.5988 74.4816C19.9975 73.7917 19.1708 73.2918 18.2557 73.2918C14.3897 73.2918 11.2557 70.1578 11.2557 66.2918V45.9618C11.2557 42.9854 13.1133 40.4429 15.7324 39.4304C17.2474 38.8446 18.8603 39.5443 20.1697 40.5056C22.5513 42.254 25.3558 43.8211 28.7401 43.8211C31.4709 43.8211 33.9696 43.0323 35.8849 41.7397C37.9031 40.3776 40.0915 38.9618 42.5263 38.9618L164.044 38.9618C167.91 38.9618 171.044 35.8278 171.044 31.9618V7C171.044 3.13401 167.91 0 164.044 0L32.0548 2.00819e-05C29.5989 2.04556e-05 27.4069 1.45503 25.3653 2.82004C23.6641 3.95748 21.518 4.63599 19.1855 4.63599C16.5747 4.63599 14.1976 3.78596 12.4164 2.39382Z"/>
</mask>
<path fill-rule="evenodd" clip-rule="evenodd" d="M12.4164 2.39382C10.837 1.15942 9.04811 2.35824e-05 7.04358 2.38873e-05C3.17759 2.44756e-05 0.0435792 3.13402 0.0435792 7.00001V15.0442C0.0148167 15.2747 1.20077e-08 15.5096 1.20077e-08 15.7479V80.8755C1.20077e-08 80.9021 0.000185117 80.9287 0.000554017 80.9552L1.20077e-08 90.5132C-0.000223998 94.3794 3.13385 97.5136 7.00001 97.5136C8.6455 97.5136 10.1374 98.3944 11.4182 99.4275C13.3971 101.024 16.1738 102.026 19.2516 102.026C21.9127 102.026 24.3534 101.277 26.2487 100.042C28.1801 98.7841 30.2702 97.5136 32.5753 97.5136L164 97.5136C167.866 97.5136 171 94.3799 171 90.514L171.001 80.2922C171.001 76.4261 167.867 73.2918 164.001 73.2918L41.5112 73.2918C39.0553 73.2918 36.8633 74.7469 34.8217 76.1119C33.1205 77.2493 30.9745 77.9278 28.6419 77.9278C25.3452 77.9278 22.4209 76.5724 20.5988 74.4816C19.9975 73.7917 19.1708 73.2918 18.2557 73.2918C14.3897 73.2918 11.2557 70.1578 11.2557 66.2918V45.9618C11.2557 42.9854 13.1133 40.4429 15.7324 39.4304C17.2474 38.8446 18.8603 39.5443 20.1697 40.5056C22.5513 42.254 25.3558 43.8211 28.7401 43.8211C31.4709 43.8211 33.9696 43.0323 35.8849 41.7397C37.9031 40.3776 40.0915 38.9618 42.5263 38.9618L164.044 38.9618C167.91 38.9618 171.044 35.8278 171.044 31.9618V7C171.044 3.13401 167.91 0 164.044 0L32.0548 2.00819e-05C29.5989 2.04556e-05 27.4069 1.45503 25.3653 2.82004C23.6641 3.95748 21.518 4.63599 19.1855 4.63599C16.5747 4.63599 14.1976 3.78596 12.4164 2.39382Z" fill="#FFAE73"/>
<path d="M0.0435792 15.0442L1.53204 15.2299L1.54358 15.1374V15.0442H0.0435792ZM0.000554017 80.9552L1.50055 80.9553L1.50055 80.9449L1.50041 80.9344L0.000554017 80.9552ZM1.20077e-08 90.5132L-1.5 90.5132L1.20077e-08 90.5132ZM11.4182 99.4275L12.3599 98.26H12.3599L11.4182 99.4275ZM26.2487 100.042L27.0673 101.299H27.0673L26.2487 100.042ZM32.5753 97.5136V99.0136V97.5136ZM164 97.5136V96.0136V97.5136ZM171 90.514L172.5 90.5141L171 90.514ZM171.001 80.2922L169.501 80.2921L171.001 80.2922ZM164.001 73.2918V71.7918V73.2918ZM164.044 38.9618V37.4618V38.9618ZM164.044 0V-1.5V0ZM35.8849 41.7397L35.0458 40.4963L35.8849 41.7397ZM15.7324 39.4304L16.2732 40.8294L15.7324 39.4304ZM20.5988 74.4816L19.4679 75.4671L20.5988 74.4816ZM41.5112 73.2918V74.7918V73.2918ZM34.8217 76.1119L35.6555 77.3588L34.8217 76.1119ZM1.54358 7.00001C1.54358 3.96245 4.00601 1.50002 7.04358 1.50002L7.04358 -1.49998C2.34916 -1.49998 -1.45642 2.30559 -1.45642 7.00001H1.54358ZM1.54358 15.0442V7.00001H-1.45642V15.0442H1.54358ZM1.5 15.7479C1.5 15.5718 1.51094 15.399 1.53204 15.2299L-1.44488 14.8585C-1.48131 15.1505 -1.5 15.4474 -1.5 15.7479H1.5ZM1.5 80.8755V15.7479H-1.5V80.8755H1.5ZM1.50041 80.9344C1.50014 80.9148 1.5 80.8951 1.5 80.8755H-1.5C-1.5 80.909 -1.49977 80.9426 -1.4993 80.9761L1.50041 80.9344ZM1.5 90.5133L1.50055 80.9553L-1.49945 80.9552L-1.5 90.5132L1.5 90.5133ZM7.00001 96.0136C3.96231 96.0136 1.49982 93.551 1.5 90.5133L-1.5 90.5132C-1.50027 95.2078 2.30539 99.0136 7.00001 99.0136V96.0136ZM12.3599 98.26C11.0055 97.1675 9.17341 96.0136 7.00001 96.0136V99.0136C8.1176 99.0136 9.26931 99.6214 10.4765 100.595L12.3599 98.26ZM19.2516 100.526C16.4901 100.526 14.0523 99.625 12.3599 98.26L10.4765 100.595C12.7419 102.422 15.8575 103.526 19.2516 103.526V100.526ZM25.43 98.7853C23.7901 99.8535 21.6364 100.526 19.2516 100.526V103.526C22.189 103.526 24.9167 102.7 27.0673 101.299L25.43 98.7853ZM32.5753 96.0136C29.7622 96.0136 27.3153 97.5573 25.43 98.7853L27.0673 101.299C29.0449 100.011 30.7781 99.0136 32.5753 99.0136V96.0136ZM164 96.0136L32.5753 96.0136V99.0136L164 99.0136V96.0136ZM169.5 90.5139C169.5 93.5514 167.037 96.0136 164 96.0136V99.0136C168.694 99.0136 172.5 95.2083 172.5 90.5141L169.5 90.5139ZM169.501 80.2921L169.5 90.5139L172.5 90.5141L172.501 80.2923L169.501 80.2921ZM164.001 74.7918C167.038 74.7918 169.501 77.2544 169.501 80.2921L172.501 80.2923C172.501 75.5977 168.695 71.7918 164.001 71.7918V74.7918ZM41.5112 74.7918L164.001 74.7918V71.7918L41.5112 71.7918V74.7918ZM28.6419 79.4278C31.2638 79.4278 33.7013 78.6654 35.6555 77.3588L33.988 74.8649C32.5397 75.8332 30.6852 76.4278 28.6419 76.4278V79.4278ZM19.4679 75.4671C21.5953 77.9081 24.9435 79.4278 28.6419 79.4278V76.4278C25.7468 76.4278 23.2466 75.2367 21.7296 73.4961L19.4679 75.4671ZM9.75568 66.2918C9.75568 70.9863 13.5612 74.7918 18.2557 74.7918V71.7918C15.2181 71.7918 12.7557 69.3294 12.7557 66.2918H9.75568ZM9.75568 45.9618V66.2918H12.7557V45.9618H9.75568ZM15.1915 38.0313C12.0137 39.2598 9.75568 42.3452 9.75568 45.9618H12.7557C12.7557 43.6255 14.2129 41.626 16.2732 40.8294L15.1915 38.0313ZM28.7401 42.3211C25.8365 42.3211 23.3525 40.9813 21.0574 39.2964L19.2821 41.7147C21.7501 43.5266 24.8751 45.3211 28.7401 45.3211V42.3211ZM35.0458 40.4963C33.3913 41.613 31.1878 42.3211 28.7401 42.3211V45.3211C31.7539 45.3211 34.5479 44.4516 36.724 42.983L35.0458 40.4963ZM164.044 37.4618L42.5263 37.4618V40.4618L164.044 40.4618V37.4618ZM169.544 31.9618C169.544 34.9993 167.081 37.4618 164.044 37.4618V40.4618C168.738 40.4618 172.544 36.6562 172.544 31.9618H169.544ZM169.544 7V31.9618H172.544V7H169.544ZM164.044 1.5C167.081 1.5 169.544 3.96243 169.544 7H172.544C172.544 2.30558 168.738 -1.5 164.044 -1.5V1.5ZM32.0548 1.50002L164.044 1.5V-1.5L32.0548 -1.49998V1.50002ZM19.1855 6.13599C21.8073 6.13599 24.2449 5.37355 26.199 4.06699L24.5316 1.57308C23.0833 2.5414 21.2288 3.13599 19.1855 3.13599V6.13599ZM11.4927 3.57567C13.547 5.18131 16.2521 6.13599 19.1855 6.13599V3.13599C16.8974 3.13599 14.8481 2.39061 13.3401 1.21197L11.4927 3.57567ZM36.724 42.983C38.8083 41.5763 40.6227 40.4618 42.5263 40.4618V37.4618C39.5603 37.4618 36.9979 39.1788 35.0458 40.4963L36.724 42.983ZM7.04358 1.50002C8.49244 1.50002 9.92279 2.3487 11.4927 3.57567L13.3401 1.21197C11.7512 -0.0298488 9.60378 -1.49998 7.04358 -1.49998L7.04358 1.50002ZM16.2732 40.8294C17.0319 40.5362 18.0655 40.8216 19.2821 41.7147L21.0574 39.2964C19.6552 38.267 17.463 37.1531 15.1915 38.0313L16.2732 40.8294ZM32.0548 -1.49998C29.063 -1.49998 26.4858 0.266473 24.5316 1.57308L26.199 4.06699C28.3279 2.64358 30.1348 1.50002 32.0548 1.50002V-1.49998ZM21.7296 73.4961C20.9402 72.5904 19.7327 71.7918 18.2557 71.7918V74.7918C18.6089 74.7918 19.0548 74.993 19.4679 75.4671L21.7296 73.4961ZM41.5112 71.7918C38.5195 71.7918 35.9422 73.5583 33.988 74.8649L35.6555 77.3588C37.7844 75.9354 39.5912 74.7918 41.5112 74.7918V71.7918Z" fill="#F88532" mask="url(#path-1-inside-1_55_361)"/>
<path d="M8.81892 18.9092H7.55492V17.4852H8.81892V16.1092C8.81892 15.4372 8.99492 14.9145 9.34692 14.5412C9.69892 14.1572 10.2269 13.9652 10.9309 13.9652H12.3069V15.3892H10.5629V17.4852H12.3069V18.9092H10.5629V25.8052H8.81892V18.9092ZM17.0259 25.9972C16.4499 25.9972 15.9219 25.8958 15.4419 25.6932C14.9726 25.4905 14.5726 25.2025 14.2419 24.8292C13.9112 24.4452 13.6552 23.9865 13.4739 23.4532C13.2926 22.9092 13.2019 22.3065 13.2019 21.6452C13.2019 20.9838 13.2926 20.3865 13.4739 19.8532C13.6552 19.3092 13.9112 18.8505 14.2419 18.4772C14.5726 18.0932 14.9726 17.7998 15.4419 17.5972C15.9219 17.3945 16.4499 17.2932 17.0259 17.2932C17.6019 17.2932 18.1246 17.3945 18.5939 17.5972C19.0739 17.7998 19.4792 18.0932 19.8099 18.4772C20.1406 18.8505 20.3966 19.3092 20.5779 19.8532C20.7592 20.3865 20.8499 20.9838 20.8499 21.6452C20.8499 22.3065 20.7592 22.9092 20.5779 23.4532C20.3966 23.9865 20.1406 24.4452 19.8099 24.8292C19.4792 25.2025 19.0739 25.4905 18.5939 25.6932C18.1246 25.8958 17.6019 25.9972 17.0259 25.9972ZM17.0259 24.5572C17.6232 24.5572 18.1032 24.3758 18.4659 24.0132C18.8286 23.6398 19.0099 23.0852 19.0099 22.3492V20.9412C19.0099 20.2052 18.8286 19.6558 18.4659 19.2932C18.1032 18.9198 17.6232 18.7332 17.0259 18.7332C16.4286 18.7332 15.9486 18.9198 15.5859 19.2932C15.2232 19.6558 15.0419 20.2052 15.0419 20.9412V22.3492C15.0419 23.0852 15.2232 23.6398 15.5859 24.0132C15.9486 24.3758 16.4286 24.5572 17.0259 24.5572ZM22.7932 25.8052V17.4852H24.5372V19.0852H24.6172C24.7345 18.6585 24.9798 18.2852 25.3532 17.9652C25.7265 17.6452 26.2438 17.4852 26.9052 17.4852H27.3692V19.1652H26.6812C25.9878 19.1652 25.4545 19.2772 25.0812 19.5012C24.7185 19.7252 24.5372 20.0558 24.5372 20.4932V25.8052H22.7932ZM32.104 25.9972C31.5067 25.9972 30.9734 25.8958 30.504 25.6932C30.0347 25.4905 29.6347 25.2025 29.304 24.8292C28.9734 24.4452 28.7174 23.9865 28.536 23.4532C28.3654 22.9092 28.28 22.3065 28.28 21.6452C28.28 20.9838 28.3654 20.3865 28.536 19.8532C28.7174 19.3092 28.9734 18.8505 29.304 18.4772C29.6347 18.0932 30.0347 17.7998 30.504 17.5972C30.9734 17.3945 31.5067 17.2932 32.104 17.2932C32.712 17.2932 33.2454 17.3998 33.704 17.6132C34.1734 17.8265 34.5627 18.1252 34.872 18.5092C35.1814 18.8825 35.4107 19.3198 35.56 19.8212C35.72 20.3225 35.8 20.8612 35.8 21.4372V22.0932H30.088V22.3652C30.088 23.0052 30.2747 23.5332 30.648 23.9492C31.032 24.3545 31.576 24.5572 32.28 24.5572C32.792 24.5572 33.224 24.4452 33.576 24.2212C33.928 23.9972 34.2267 23.6932 34.472 23.3092L35.496 24.3172C35.1867 24.8292 34.7387 25.2398 34.152 25.5492C33.5654 25.8478 32.8827 25.9972 32.104 25.9972ZM32.104 18.6532C31.8054 18.6532 31.528 18.7065 31.272 18.8132C31.0267 18.9198 30.8134 19.0692 30.632 19.2612C30.4614 19.4532 30.328 19.6825 30.232 19.9492C30.136 20.2158 30.088 20.5092 30.088 20.8292V20.9412H33.96V20.7812C33.96 20.1412 33.7947 19.6292 33.464 19.2452C33.1334 18.8505 32.68 18.6532 32.104 18.6532ZM39.398 25.8052L36.566 17.4852H38.294L39.558 21.2772L40.406 24.1892H40.502L41.35 21.2772L42.646 17.4852H44.31L41.446 25.8052H39.398ZM48.9165 25.9972C48.3192 25.9972 47.7859 25.8958 47.3165 25.6932C46.8472 25.4905 46.4472 25.2025 46.1165 24.8292C45.7859 24.4452 45.5299 23.9865 45.3485 23.4532C45.1779 22.9092 45.0925 22.3065 45.0925 21.6452C45.0925 20.9838 45.1779 20.3865 45.3485 19.8532C45.5299 19.3092 45.7859 18.8505 46.1165 18.4772C46.4472 18.0932 46.8472 17.7998 47.3165 17.5972C47.7859 17.3945 48.3192 17.2932 48.9165 17.2932C49.5245 17.2932 50.0579 17.3998 50.5165 17.6132C50.9859 17.8265 51.3752 18.1252 51.6845 18.5092C51.9939 18.8825 52.2232 19.3198 52.3725 19.8212C52.5325 20.3225 52.6125 20.8612 52.6125 21.4372V22.0932H46.9005V22.3652C46.9005 23.0052 47.0872 23.5332 47.4605 23.9492C47.8445 24.3545 48.3885 24.5572 49.0925 24.5572C49.6045 24.5572 50.0365 24.4452 50.3885 24.2212C50.7405 23.9972 51.0392 23.6932 51.2845 23.3092L52.3085 24.3172C51.9992 24.8292 51.5512 25.2398 50.9645 25.5492C50.3779 25.8478 49.6952 25.9972 48.9165 25.9972ZM48.9165 18.6532C48.6179 18.6532 48.3405 18.7065 48.0845 18.8132C47.8392 18.9198 47.6259 19.0692 47.4445 19.2612C47.2739 19.4532 47.1405 19.6825 47.0445 19.9492C46.9485 20.2158 46.9005 20.5092 46.9005 20.8292V20.9412H50.7725V20.7812C50.7725 20.1412 50.6072 19.6292 50.2765 19.2452C49.9459 18.8505 49.4925 18.6532 48.9165 18.6532ZM54.5432 25.8052V17.4852H56.2872V19.0852H56.3672C56.4845 18.6585 56.7298 18.2852 57.1032 17.9652C57.4765 17.6452 57.9938 17.4852 58.6552 17.4852H59.1192V19.1652H58.4312C57.7378 19.1652 57.2045 19.2772 56.8312 19.5012C56.4685 19.7252 56.2872 20.0558 56.2872 20.4932V25.8052H54.5432Z" fill="#181818"/>
</svg>
