<svg width="172" height="103" viewBox="0 0 172 103" fill="none" xmlns="http://www.w3.org/2000/svg">
<mask id="path-1-inside-1_55_407" fill="white">
<path fill-rule="evenodd" clip-rule="evenodd" d="M12.4164 2.39382C10.837 1.15942 9.04811 2.35824e-05 7.04358 2.38873e-05C3.17759 2.44756e-05 0.0435792 3.13402 0.0435792 7.00001V15.0442C0.0148167 15.2747 1.20077e-08 15.5096 1.20077e-08 15.7479V80.8755C1.20077e-08 80.9021 0.000185117 80.9287 0.000554017 80.9552L1.20077e-08 90.5132C-0.000223998 94.3794 3.13385 97.5136 7.00001 97.5136C8.6455 97.5136 10.1374 98.3944 11.4182 99.4275C13.3971 101.024 16.1738 102.026 19.2516 102.026C21.9127 102.026 24.3534 101.277 26.2487 100.042C28.1801 98.7841 30.2702 97.5136 32.5753 97.5136L164 97.5136C167.866 97.5136 171 94.3799 171 90.514L171.001 80.2922C171.001 76.4261 167.867 73.2918 164.001 73.2918L41.5112 73.2918C39.0553 73.2918 36.8633 74.7469 34.8217 76.1119C33.1205 77.2493 30.9745 77.9278 28.6419 77.9278C25.3452 77.9278 22.4209 76.5724 20.5988 74.4816C19.9975 73.7917 19.1708 73.2918 18.2557 73.2918C14.3897 73.2918 11.2557 70.1578 11.2557 66.2918V45.9618C11.2557 42.9854 13.1133 40.4429 15.7324 39.4304C17.2474 38.8446 18.8603 39.5443 20.1697 40.5056C22.5513 42.254 25.3558 43.8211 28.7401 43.8211C31.4709 43.8211 33.9696 43.0323 35.8849 41.7397C37.9031 40.3776 40.0915 38.9618 42.5263 38.9618L164.044 38.9618C167.91 38.9618 171.044 35.8278 171.044 31.9618V7C171.044 3.13401 167.91 0 164.044 0L32.0548 2.00819e-05C29.5989 2.04556e-05 27.4069 1.45503 25.3653 2.82004C23.6641 3.95748 21.518 4.63599 19.1855 4.63599C16.5747 4.63599 14.1976 3.78596 12.4164 2.39382Z"/>
</mask>
<path fill-rule="evenodd" clip-rule="evenodd" d="M12.4164 2.39382C10.837 1.15942 9.04811 2.35824e-05 7.04358 2.38873e-05C3.17759 2.44756e-05 0.0435792 3.13402 0.0435792 7.00001V15.0442C0.0148167 15.2747 1.20077e-08 15.5096 1.20077e-08 15.7479V80.8755C1.20077e-08 80.9021 0.000185117 80.9287 0.000554017 80.9552L1.20077e-08 90.5132C-0.000223998 94.3794 3.13385 97.5136 7.00001 97.5136C8.6455 97.5136 10.1374 98.3944 11.4182 99.4275C13.3971 101.024 16.1738 102.026 19.2516 102.026C21.9127 102.026 24.3534 101.277 26.2487 100.042C28.1801 98.7841 30.2702 97.5136 32.5753 97.5136L164 97.5136C167.866 97.5136 171 94.3799 171 90.514L171.001 80.2922C171.001 76.4261 167.867 73.2918 164.001 73.2918L41.5112 73.2918C39.0553 73.2918 36.8633 74.7469 34.8217 76.1119C33.1205 77.2493 30.9745 77.9278 28.6419 77.9278C25.3452 77.9278 22.4209 76.5724 20.5988 74.4816C19.9975 73.7917 19.1708 73.2918 18.2557 73.2918C14.3897 73.2918 11.2557 70.1578 11.2557 66.2918V45.9618C11.2557 42.9854 13.1133 40.4429 15.7324 39.4304C17.2474 38.8446 18.8603 39.5443 20.1697 40.5056C22.5513 42.254 25.3558 43.8211 28.7401 43.8211C31.4709 43.8211 33.9696 43.0323 35.8849 41.7397C37.9031 40.3776 40.0915 38.9618 42.5263 38.9618L164.044 38.9618C167.91 38.9618 171.044 35.8278 171.044 31.9618V7C171.044 3.13401 167.91 0 164.044 0L32.0548 2.00819e-05C29.5989 2.04556e-05 27.4069 1.45503 25.3653 2.82004C23.6641 3.95748 21.518 4.63599 19.1855 4.63599C16.5747 4.63599 14.1976 3.78596 12.4164 2.39382Z" fill="#FFAE73"/>
<path d="M0.0435792 15.0442L1.53204 15.2299L1.54358 15.1374V15.0442H0.0435792ZM0.000554017 80.9552L1.50055 80.9553L1.50055 80.9449L1.50041 80.9344L0.000554017 80.9552ZM1.20077e-08 90.5132L-1.5 90.5132L1.20077e-08 90.5132ZM11.4182 99.4275L12.3599 98.26H12.3599L11.4182 99.4275ZM26.2487 100.042L27.0673 101.299H27.0673L26.2487 100.042ZM32.5753 97.5136V99.0136V97.5136ZM164 97.5136V96.0136V97.5136ZM171 90.514L172.5 90.5141L171 90.514ZM171.001 80.2922L169.501 80.2921L171.001 80.2922ZM164.001 73.2918V71.7918V73.2918ZM164.044 38.9618V37.4618V38.9618ZM164.044 0V-1.5V0ZM35.8849 41.7397L35.0458 40.4963L35.8849 41.7397ZM15.7324 39.4304L16.2732 40.8294L15.7324 39.4304ZM20.5988 74.4816L19.4679 75.4671L20.5988 74.4816ZM41.5112 73.2918V74.7918V73.2918ZM34.8217 76.1119L35.6555 77.3588L34.8217 76.1119ZM1.54358 7.00001C1.54358 3.96245 4.00601 1.50002 7.04358 1.50002L7.04358 -1.49998C2.34916 -1.49998 -1.45642 2.30559 -1.45642 7.00001H1.54358ZM1.54358 15.0442V7.00001H-1.45642V15.0442H1.54358ZM1.5 15.7479C1.5 15.5718 1.51094 15.399 1.53204 15.2299L-1.44488 14.8585C-1.48131 15.1505 -1.5 15.4474 -1.5 15.7479H1.5ZM1.5 80.8755V15.7479H-1.5V80.8755H1.5ZM1.50041 80.9344C1.50014 80.9148 1.5 80.8951 1.5 80.8755H-1.5C-1.5 80.909 -1.49977 80.9426 -1.4993 80.9761L1.50041 80.9344ZM1.5 90.5133L1.50055 80.9553L-1.49945 80.9552L-1.5 90.5132L1.5 90.5133ZM7.00001 96.0136C3.96231 96.0136 1.49982 93.551 1.5 90.5133L-1.5 90.5132C-1.50027 95.2078 2.30539 99.0136 7.00001 99.0136V96.0136ZM12.3599 98.26C11.0055 97.1675 9.17341 96.0136 7.00001 96.0136V99.0136C8.1176 99.0136 9.26931 99.6214 10.4765 100.595L12.3599 98.26ZM19.2516 100.526C16.4901 100.526 14.0523 99.625 12.3599 98.26L10.4765 100.595C12.7419 102.422 15.8575 103.526 19.2516 103.526V100.526ZM25.43 98.7853C23.7901 99.8535 21.6364 100.526 19.2516 100.526V103.526C22.189 103.526 24.9167 102.7 27.0673 101.299L25.43 98.7853ZM32.5753 96.0136C29.7622 96.0136 27.3153 97.5573 25.43 98.7853L27.0673 101.299C29.0449 100.011 30.7781 99.0136 32.5753 99.0136V96.0136ZM164 96.0136L32.5753 96.0136V99.0136L164 99.0136V96.0136ZM169.5 90.5139C169.5 93.5514 167.037 96.0136 164 96.0136V99.0136C168.694 99.0136 172.5 95.2083 172.5 90.5141L169.5 90.5139ZM169.501 80.2921L169.5 90.5139L172.5 90.5141L172.501 80.2923L169.501 80.2921ZM164.001 74.7918C167.038 74.7918 169.501 77.2544 169.501 80.2921L172.501 80.2923C172.501 75.5977 168.695 71.7918 164.001 71.7918V74.7918ZM41.5112 74.7918L164.001 74.7918V71.7918L41.5112 71.7918V74.7918ZM28.6419 79.4278C31.2638 79.4278 33.7013 78.6654 35.6555 77.3588L33.988 74.8649C32.5397 75.8332 30.6852 76.4278 28.6419 76.4278V79.4278ZM19.4679 75.4671C21.5953 77.9081 24.9435 79.4278 28.6419 79.4278V76.4278C25.7468 76.4278 23.2466 75.2367 21.7296 73.4961L19.4679 75.4671ZM9.75568 66.2918C9.75568 70.9863 13.5612 74.7918 18.2557 74.7918V71.7918C15.2181 71.7918 12.7557 69.3294 12.7557 66.2918H9.75568ZM9.75568 45.9618V66.2918H12.7557V45.9618H9.75568ZM15.1915 38.0313C12.0137 39.2598 9.75568 42.3452 9.75568 45.9618H12.7557C12.7557 43.6255 14.2129 41.626 16.2732 40.8294L15.1915 38.0313ZM28.7401 42.3211C25.8365 42.3211 23.3525 40.9813 21.0574 39.2964L19.2821 41.7147C21.7501 43.5266 24.8751 45.3211 28.7401 45.3211V42.3211ZM35.0458 40.4963C33.3913 41.613 31.1878 42.3211 28.7401 42.3211V45.3211C31.7539 45.3211 34.5479 44.4516 36.724 42.983L35.0458 40.4963ZM164.044 37.4618L42.5263 37.4618V40.4618L164.044 40.4618V37.4618ZM169.544 31.9618C169.544 34.9993 167.081 37.4618 164.044 37.4618V40.4618C168.738 40.4618 172.544 36.6562 172.544 31.9618H169.544ZM169.544 7V31.9618H172.544V7H169.544ZM164.044 1.5C167.081 1.5 169.544 3.96243 169.544 7H172.544C172.544 2.30558 168.738 -1.5 164.044 -1.5V1.5ZM32.0548 1.50002L164.044 1.5V-1.5L32.0548 -1.49998V1.50002ZM19.1855 6.13599C21.8073 6.13599 24.2449 5.37355 26.199 4.06699L24.5316 1.57308C23.0833 2.5414 21.2288 3.13599 19.1855 3.13599V6.13599ZM11.4927 3.57567C13.547 5.18131 16.2521 6.13599 19.1855 6.13599V3.13599C16.8974 3.13599 14.8481 2.39061 13.3401 1.21197L11.4927 3.57567ZM36.724 42.983C38.8083 41.5763 40.6227 40.4618 42.5263 40.4618V37.4618C39.5603 37.4618 36.9979 39.1788 35.0458 40.4963L36.724 42.983ZM7.04358 1.50002C8.49244 1.50002 9.92279 2.3487 11.4927 3.57567L13.3401 1.21197C11.7512 -0.0298488 9.60378 -1.49998 7.04358 -1.49998L7.04358 1.50002ZM16.2732 40.8294C17.0319 40.5362 18.0655 40.8216 19.2821 41.7147L21.0574 39.2964C19.6552 38.267 17.463 37.1531 15.1915 38.0313L16.2732 40.8294ZM32.0548 -1.49998C29.063 -1.49998 26.4858 0.266473 24.5316 1.57308L26.199 4.06699C28.3279 2.64358 30.1348 1.50002 32.0548 1.50002V-1.49998ZM21.7296 73.4961C20.9402 72.5904 19.7327 71.7918 18.2557 71.7918V74.7918C18.6089 74.7918 19.0548 74.993 19.4679 75.4671L21.7296 73.4961ZM41.5112 71.7918C38.5195 71.7918 35.9422 73.5583 33.988 74.8649L35.6555 77.3588C37.7844 75.9354 39.5912 74.7918 41.5112 74.7918V71.7918Z" fill="#F88532" mask="url(#path-1-inside-1_55_407)"/>
<path d="M8.38692 25.604V17.284H10.1309V18.884H10.2109C10.3282 18.4573 10.5736 18.084 10.9469 17.764C11.3202 17.444 11.8376 17.284 12.4989 17.284H12.9629V18.964H12.2749C11.5816 18.964 11.0482 19.076 10.6749 19.3C10.3122 19.524 10.1309 19.8546 10.1309 20.292V25.604H8.38692ZM17.6978 25.796C17.1005 25.796 16.5671 25.6946 16.0978 25.492C15.6285 25.2893 15.2285 25.0013 14.8978 24.628C14.5671 24.244 14.3111 23.7853 14.1298 23.252C13.9591 22.708 13.8738 22.1053 13.8738 21.444C13.8738 20.7826 13.9591 20.1853 14.1298 19.652C14.3111 19.108 14.5671 18.6493 14.8978 18.276C15.2285 17.892 15.6285 17.5986 16.0978 17.396C16.5671 17.1933 17.1005 17.092 17.6978 17.092C18.3058 17.092 18.8391 17.1986 19.2978 17.412C19.7671 17.6253 20.1565 17.924 20.4658 18.308C20.7751 18.6813 21.0045 19.1186 21.1538 19.62C21.3138 20.1213 21.3938 20.66 21.3938 21.236V21.892H15.6818V22.164C15.6818 22.804 15.8685 23.332 16.2418 23.748C16.6258 24.1533 17.1698 24.356 17.8738 24.356C18.3858 24.356 18.8178 24.244 19.1698 24.02C19.5218 23.796 19.8205 23.492 20.0658 23.108L21.0898 24.116C20.7805 24.628 20.3325 25.0386 19.7458 25.348C19.1591 25.6466 18.4765 25.796 17.6978 25.796ZM17.6978 18.452C17.3991 18.452 17.1218 18.5053 16.8658 18.612C16.6205 18.7186 16.4071 18.868 16.2258 19.06C16.0551 19.252 15.9218 19.4813 15.8258 19.748C15.7298 20.0146 15.6818 20.308 15.6818 20.628V20.74H19.5538V20.58C19.5538 19.94 19.3885 19.428 19.0578 19.044C18.7271 18.6493 18.2738 18.452 17.6978 18.452ZM23.3244 17.284H25.0684V18.66H25.1484C25.3297 18.1586 25.6231 17.7746 26.0284 17.508C26.4444 17.2306 26.9297 17.092 27.4844 17.092C28.5404 17.092 29.3564 17.476 29.9324 18.244C30.5084 19.0013 30.7964 20.068 30.7964 21.444C30.7964 22.82 30.5084 23.892 29.9324 24.66C29.3564 25.4173 28.5404 25.796 27.4844 25.796C26.9297 25.796 26.4444 25.6573 26.0284 25.38C25.6231 25.1026 25.3297 24.7186 25.1484 24.228H25.0684V28.804H23.3244V17.284ZM26.9564 24.292C27.5644 24.292 28.0497 24.1 28.4124 23.716C28.7751 23.3213 28.9564 22.804 28.9564 22.164V20.724C28.9564 20.084 28.7751 19.572 28.4124 19.188C28.0497 18.7933 27.5644 18.596 26.9564 18.596C26.4231 18.596 25.9751 18.7293 25.6124 18.996C25.2497 19.252 25.0684 19.5933 25.0684 20.02V22.868C25.0684 23.2946 25.2497 23.6413 25.6124 23.908C25.9751 24.164 26.4231 24.292 26.9564 24.292ZM36.0572 25.796C35.4598 25.796 34.9265 25.6946 34.4572 25.492C33.9878 25.2893 33.5878 25.0013 33.2572 24.628C32.9265 24.244 32.6705 23.7853 32.4892 23.252C32.3185 22.708 32.2332 22.1053 32.2332 21.444C32.2332 20.7826 32.3185 20.1853 32.4892 19.652C32.6705 19.108 32.9265 18.6493 33.2572 18.276C33.5878 17.892 33.9878 17.5986 34.4572 17.396C34.9265 17.1933 35.4598 17.092 36.0572 17.092C36.6652 17.092 37.1985 17.1986 37.6572 17.412C38.1265 17.6253 38.5158 17.924 38.8252 18.308C39.1345 18.6813 39.3638 19.1186 39.5132 19.62C39.6732 20.1213 39.7532 20.66 39.7532 21.236V21.892H34.0412V22.164C34.0412 22.804 34.2278 23.332 34.6012 23.748C34.9852 24.1533 35.5292 24.356 36.2332 24.356C36.7452 24.356 37.1772 24.244 37.5292 24.02C37.8812 23.796 38.1798 23.492 38.4252 23.108L39.4492 24.116C39.1398 24.628 38.6918 25.0386 38.1052 25.348C37.5185 25.6466 36.8358 25.796 36.0572 25.796ZM36.0572 18.452C35.7585 18.452 35.4812 18.5053 35.2252 18.612C34.9798 18.7186 34.7665 18.868 34.5852 19.06C34.4145 19.252 34.2812 19.4813 34.1852 19.748C34.0892 20.0146 34.0412 20.308 34.0412 20.628V20.74H37.9132V20.58C37.9132 19.94 37.7478 19.428 37.4172 19.044C37.0865 18.6493 36.6332 18.452 36.0572 18.452ZM47.7798 25.604C47.3211 25.604 46.9691 25.476 46.7238 25.22C46.4785 24.9533 46.3291 24.6173 46.2758 24.212H46.1958C46.0358 24.7346 45.7425 25.1293 45.3158 25.396C44.8891 25.6626 44.3718 25.796 43.7638 25.796C42.8998 25.796 42.2331 25.572 41.7638 25.124C41.3051 24.676 41.0758 24.0733 41.0758 23.316C41.0758 22.484 41.3745 21.86 41.9718 21.444C42.5798 21.028 43.4651 20.82 44.6278 20.82H46.1318V20.116C46.1318 19.604 45.9931 19.2093 45.7158 18.932C45.4385 18.6546 45.0065 18.516 44.4198 18.516C43.9291 18.516 43.5291 18.6226 43.2198 18.836C42.9105 19.0493 42.6491 19.3213 42.4358 19.652L41.3958 18.708C41.6731 18.2386 42.0625 17.8546 42.5638 17.556C43.0651 17.2466 43.7211 17.092 44.5318 17.092C45.6091 17.092 46.4358 17.3426 47.0118 17.844C47.5878 18.3453 47.8758 19.0653 47.8758 20.004V24.18H48.7558V25.604H47.7798ZM44.2598 24.468C44.8038 24.468 45.2518 24.3506 45.6038 24.116C45.9558 23.8706 46.1318 23.5453 46.1318 23.14V21.94H44.6598C43.4545 21.94 42.8518 22.3133 42.8518 23.06V23.348C42.8518 23.7213 42.9745 24.004 43.2198 24.196C43.4758 24.3773 43.8225 24.468 44.2598 24.468ZM52.7222 25.604C52.1142 25.604 51.6555 25.4493 51.3462 25.14C51.0368 24.82 50.8822 24.372 50.8822 23.796V18.708H49.5862V17.284H50.2902C50.5782 17.284 50.7755 17.22 50.8822 17.092C50.9995 16.964 51.0582 16.756 51.0582 16.468V15.012H52.6262V17.284H54.3702V18.708H52.6262V24.18H54.2422V25.604H52.7222Z" fill="#181818"/>
<rect x="126.844" y="8.2883" width="33.2388" height="24" rx="12" fill="#FCFAF3"/>
<path d="M136.3 25.416V24.114H139.044V16.792H138.932L136.664 19.214L135.698 18.346L138.19 15.644H140.612V24.114H142.978V25.416H136.3ZM147.663 25.584C147.047 25.584 146.51 25.472 146.053 25.248C145.605 25.0147 145.232 24.6834 144.933 24.254C144.644 23.8247 144.429 23.2974 144.289 22.672C144.149 22.0467 144.079 21.3327 144.079 20.53C144.079 19.7367 144.149 19.0274 144.289 18.402C144.429 17.7674 144.644 17.2354 144.933 16.806C145.232 16.3767 145.605 16.05 146.053 15.826C146.51 15.5927 147.047 15.476 147.663 15.476C148.279 15.476 148.811 15.5927 149.259 15.826C149.716 16.05 150.09 16.3767 150.379 16.806C150.678 17.2354 150.897 17.7674 151.037 18.402C151.177 19.0274 151.247 19.7367 151.247 20.53C151.247 21.3327 151.177 22.0467 151.037 22.672C150.897 23.2974 150.678 23.8247 150.379 24.254C150.09 24.6834 149.716 25.0147 149.259 25.248C148.811 25.472 148.279 25.584 147.663 25.584ZM147.663 24.296C148.372 24.296 148.876 24.0347 149.175 23.512C149.483 22.98 149.637 22.266 149.637 21.37V19.69C149.637 18.794 149.483 18.0847 149.175 17.562C148.876 17.03 148.372 16.764 147.663 16.764C147.308 16.764 147.005 16.834 146.753 16.974C146.501 17.1047 146.296 17.3007 146.137 17.562C145.978 17.814 145.862 18.122 145.787 18.486C145.722 18.8407 145.689 19.242 145.689 19.69V21.37C145.689 21.818 145.722 22.224 145.787 22.588C145.862 22.9427 145.978 23.2507 146.137 23.512C146.296 23.764 146.501 23.96 146.753 24.1C147.005 24.2307 147.308 24.296 147.663 24.296ZM147.663 21.356C147.336 21.356 147.108 21.2907 146.977 21.16C146.856 21.0294 146.795 20.8707 146.795 20.684V20.376C146.795 20.1894 146.856 20.0307 146.977 19.9C147.108 19.7694 147.336 19.704 147.663 19.704C147.99 19.704 148.214 19.7694 148.335 19.9C148.466 20.0307 148.531 20.1894 148.531 20.376V20.684C148.531 20.8707 148.466 21.0294 148.335 21.16C148.214 21.2907 147.99 21.356 147.663 21.356Z" fill="#181818"/>
<rect x="134.684" y="12.0071" width="17.9827" height="16.9249" fill="#FCFAF3"/>
</svg>
