<svg width="317" height="84" viewBox="0 0 317 84" fill="none" xmlns="http://www.w3.org/2000/svg">
<mask id="path-1-inside-1_2404_3889" fill="white">
<path fill-rule="evenodd" clip-rule="evenodd" d="M0 9.87187C0 4.80218 4.1098 0.692383 9.17949 0.692383H11.0032C14.2698 0.692383 17.1735 2.56551 19.5394 4.81786C22.8201 7.94107 27.2402 9.87188 32.1074 9.87188C36.9809 9.87188 41.4156 7.93618 44.7075 4.80601C47.0707 2.55885 49.9711 0.692383 53.2321 0.692383H307.513C312.583 0.692383 316.692 4.8022 316.692 9.87189V64.9488C316.692 70.0185 312.583 74.1283 307.513 74.1283H53.2321C49.9711 74.1283 47.0707 75.9947 44.7075 78.2419C41.4156 81.3721 36.9809 83.3078 32.1074 83.3078C27.2402 83.3078 22.8201 81.377 19.5394 78.2538C17.1735 76.0014 14.2698 74.1283 11.0032 74.1283H9.17949C4.1098 74.1283 0 70.0185 0 64.9488V9.87187Z"/>
</mask>
<path fill-rule="evenodd" clip-rule="evenodd" d="M0 9.87187C0 4.80218 4.1098 0.692383 9.17949 0.692383H11.0032C14.2698 0.692383 17.1735 2.56551 19.5394 4.81786C22.8201 7.94107 27.2402 9.87188 32.1074 9.87188C36.9809 9.87188 41.4156 7.93618 44.7075 4.80601C47.0707 2.55885 49.9711 0.692383 53.2321 0.692383H307.513C312.583 0.692383 316.692 4.8022 316.692 9.87189V64.9488C316.692 70.0185 312.583 74.1283 307.513 74.1283H53.2321C49.9711 74.1283 47.0707 75.9947 44.7075 78.2419C41.4156 81.3721 36.9809 83.3078 32.1074 83.3078C27.2402 83.3078 22.8201 81.377 19.5394 78.2538C17.1735 76.0014 14.2698 74.1283 11.0032 74.1283H9.17949C4.1098 74.1283 0 70.0185 0 64.9488V9.87187Z" fill="#A0C6FF"/>
<path d="M19.5394 78.2538L17.9571 79.9159L19.5394 78.2538ZM44.7075 78.2419L43.1261 76.5788L44.7075 78.2419ZM11.0032 -1.60249H9.17949V2.98725H11.0032V-1.60249ZM32.1074 7.577C27.8608 7.577 23.9991 5.89502 21.1218 3.15575L17.9571 6.47998C21.641 9.98712 26.6196 12.1667 32.1074 12.1667V7.577ZM43.1261 3.14296C40.237 5.89016 36.3601 7.577 32.1074 7.577V12.1667C37.6016 12.1667 42.5942 9.98221 46.2888 6.46906L43.1261 3.14296ZM307.513 -1.60249H53.2321V2.98725H307.513V-1.60249ZM318.987 64.9488V9.87189H314.397V64.9488H318.987ZM53.2321 76.4231H307.513V71.8334H53.2321V76.4231ZM43.1261 76.5788C40.237 79.3261 36.3601 81.0129 32.1074 81.0129V85.6026C37.6016 85.6026 42.5942 83.4181 46.2888 79.905L43.1261 76.5788ZM32.1074 81.0129C27.8608 81.0129 23.9991 79.3309 21.1218 76.5916L17.9571 79.9159C21.641 83.423 26.6196 85.6026 32.1074 85.6026V81.0129ZM9.17949 76.4231H11.0032V71.8334H9.17949V76.4231ZM-2.29487 9.87187V64.9488H2.29487V9.87187H-2.29487ZM9.17949 71.8334C5.37723 71.8334 2.29487 68.7511 2.29487 64.9488H-2.29487C-2.29487 71.2859 2.84237 76.4231 9.17949 76.4231V71.8334ZM21.1218 76.5916C18.6048 74.1955 15.153 71.8334 11.0032 71.8334V76.4231C13.3867 76.4231 15.7422 77.8073 17.9571 79.9159L21.1218 76.5916ZM53.2321 71.8334C49.0895 71.8334 45.6414 74.1871 43.1261 76.5788L46.2888 79.905C48.5 77.8024 50.8526 76.4231 53.2321 76.4231V71.8334ZM307.513 2.98725C311.315 2.98725 314.397 6.06961 314.397 9.87189H318.987C318.987 3.53478 313.85 -1.60249 307.513 -1.60249V2.98725ZM46.2888 6.46906C48.5 4.36652 50.8526 2.98725 53.2321 2.98725V-1.60249C49.0895 -1.60249 45.6414 0.751177 43.1261 3.14296L46.2888 6.46906ZM9.17949 -1.60249C2.84238 -1.60249 -2.29487 3.53476 -2.29487 9.87187H2.29487C2.29487 6.0696 5.37722 2.98725 9.17949 2.98725V-1.60249ZM314.397 64.9488C314.397 68.7511 311.315 71.8334 307.513 71.8334V76.4231C313.85 76.4231 318.987 71.2859 318.987 64.9488H314.397ZM11.0032 2.98725C13.3867 2.98725 15.7422 4.37141 17.9571 6.47998L21.1218 3.15575C18.6048 0.759608 15.1529 -1.60249 11.0032 -1.60249V2.98725Z" fill="#3F76C9" mask="url(#path-1-inside-1_2404_3889)"/>
<path d="M236.179 48.3817C234.82 48.3817 233.682 48.1431 232.764 47.6657C231.846 47.1884 231.048 46.5275 230.368 45.683L232.296 43.9205C232.829 44.5631 233.416 45.0679 234.059 45.4351C234.719 45.7839 235.481 45.9583 236.344 45.9583C237.225 45.9583 237.877 45.7931 238.299 45.4627C238.74 45.1138 238.96 44.6365 238.96 44.0307C238.96 43.5717 238.804 43.1861 238.492 42.874C238.199 42.5436 237.675 42.3324 236.923 42.2407L235.601 42.0754C234.132 41.8918 232.975 41.4696 232.131 40.8087C231.305 40.1294 230.892 39.1288 230.892 37.807C230.892 37.1093 231.02 36.4943 231.277 35.9619C231.534 35.4111 231.892 34.9521 232.351 34.585C232.829 34.1994 233.388 33.9057 234.031 33.7037C234.692 33.5018 235.417 33.4008 236.207 33.4008C237.492 33.4008 238.538 33.6028 239.346 34.0067C240.172 34.4106 240.906 34.9705 241.549 35.6865L239.704 37.449C239.337 37.0083 238.85 36.632 238.244 36.3199C237.657 35.9894 236.978 35.8242 236.207 35.8242C235.38 35.8242 234.765 35.9894 234.361 36.3199C233.976 36.6503 233.783 37.0818 233.783 37.6142C233.783 38.165 233.958 38.578 234.306 38.8534C234.655 39.1288 235.215 39.3308 235.986 39.4593L237.308 39.6245C238.887 39.8632 240.034 40.3313 240.75 41.029C241.485 41.7082 241.852 42.6262 241.852 43.7828C241.852 44.4804 241.714 45.1138 241.439 45.683C241.182 46.2337 240.805 46.7111 240.31 47.115C239.814 47.5189 239.217 47.831 238.52 48.0513C237.822 48.2716 237.042 48.3817 236.179 48.3817ZM249.02 48.0513C247.974 48.0513 247.184 47.7851 246.652 47.2527C246.12 46.7019 245.853 45.9308 245.853 44.9394V36.1822H243.623V33.7313H244.834C245.33 33.7313 245.67 33.6211 245.853 33.4008C246.055 33.1805 246.156 32.8225 246.156 32.3268V29.8208H248.855V33.7313H251.857V36.1822H248.855V45.6003H251.636V48.0513H249.02ZM260.623 48.3817C259.595 48.3817 258.677 48.2073 257.869 47.8585C257.061 47.5097 256.373 47.014 255.804 46.3714C255.235 45.7105 254.794 44.9211 254.482 44.0031C254.188 43.0668 254.041 42.0295 254.041 40.8913C254.041 39.753 254.188 38.7249 254.482 37.807C254.794 36.8707 255.235 36.0812 255.804 35.4387C256.373 34.7777 257.061 34.2729 257.869 33.924C258.677 33.5752 259.595 33.4008 260.623 33.4008C261.67 33.4008 262.587 33.5844 263.377 33.9516C264.185 34.3188 264.855 34.8328 265.387 35.4937C265.92 36.1363 266.314 36.889 266.571 37.7519C266.847 38.6148 266.984 39.5419 266.984 40.5333V41.6623H257.153V42.1305C257.153 43.232 257.475 44.1408 258.117 44.8568C258.778 45.5544 259.714 45.9033 260.926 45.9033C261.807 45.9033 262.551 45.7105 263.157 45.325C263.762 44.9394 264.277 44.4162 264.699 43.7553L266.461 45.4902C265.929 46.3714 265.158 47.0782 264.148 47.6107C263.138 48.1247 261.963 48.3817 260.623 48.3817ZM260.623 35.7416C260.109 35.7416 259.632 35.8334 259.191 36.017C258.769 36.2006 258.402 36.4576 258.09 36.788C257.796 37.1185 257.566 37.5132 257.401 37.9722C257.236 38.4312 257.153 38.936 257.153 39.4868V39.6796H263.818V39.4042C263.818 38.3027 263.533 37.4214 262.964 36.7605C262.395 36.0812 261.614 35.7416 260.623 35.7416ZM270.307 33.7313H273.309V36.0996H273.447C273.759 35.2367 274.264 34.5758 274.961 34.1168C275.677 33.6395 276.513 33.4008 277.467 33.4008C279.285 33.4008 280.689 34.0617 281.681 35.3836C282.672 36.6871 283.168 38.523 283.168 40.8913C283.168 43.2596 282.672 45.1047 281.681 46.4265C280.689 47.73 279.285 48.3817 277.467 48.3817C276.513 48.3817 275.677 48.1431 274.961 47.6657C274.264 47.1884 273.759 46.5275 273.447 45.683H273.309V53.559H270.307V33.7313ZM276.559 45.7931C277.605 45.7931 278.44 45.4627 279.065 44.8017C279.689 44.1224 280.001 43.232 280.001 42.1305V39.652C280.001 38.5505 279.689 37.6693 279.065 37.0083C278.44 36.3291 277.605 35.9894 276.559 35.9894C275.641 35.9894 274.87 36.2189 274.245 36.6779C273.621 37.1185 273.309 37.706 273.309 38.4403V43.3422C273.309 44.0766 273.621 44.6732 274.245 45.1322C274.87 45.5728 275.641 45.7931 276.559 45.7931ZM291.148 48.3817C289.79 48.3817 288.652 48.1431 287.734 47.6657C286.816 47.1884 286.017 46.5275 285.338 45.683L287.265 43.9205C287.798 44.5631 288.385 45.0679 289.028 45.4351C289.689 45.7839 290.451 45.9583 291.314 45.9583C292.195 45.9583 292.847 45.7931 293.269 45.4627C293.709 45.1138 293.93 44.6365 293.93 44.0307C293.93 43.5717 293.774 43.1861 293.462 42.874C293.168 42.5436 292.645 42.3324 291.892 42.2407L290.57 42.0754C289.101 41.8918 287.945 41.4696 287.1 40.8087C286.274 40.1294 285.861 39.1288 285.861 37.807C285.861 37.1093 285.99 36.4943 286.247 35.9619C286.504 35.4111 286.862 34.9521 287.321 34.585C287.798 34.1994 288.358 33.9057 289 33.7037C289.661 33.5018 290.386 33.4008 291.176 33.4008C292.461 33.4008 293.508 33.6028 294.315 34.0067C295.141 34.4106 295.876 34.9705 296.518 35.6865L294.673 37.449C294.306 37.0083 293.82 36.632 293.214 36.3199C292.626 35.9894 291.947 35.8242 291.176 35.8242C290.35 35.8242 289.735 35.9894 289.331 36.3199C288.945 36.6503 288.753 37.0818 288.753 37.6142C288.753 38.165 288.927 38.578 289.276 38.8534C289.625 39.1288 290.185 39.3308 290.956 39.4593L292.277 39.6245C293.856 39.8632 295.004 40.3313 295.72 41.029C296.454 41.7082 296.821 42.6262 296.821 43.7828C296.821 44.4804 296.684 45.1138 296.408 45.683C296.151 46.2337 295.775 46.7111 295.279 47.115C294.783 47.5189 294.187 47.831 293.489 48.0513C292.792 48.2716 292.011 48.3817 291.148 48.3817Z" fill="black"/>
<rect x="137.692" y="14.4614" width="73.4359" height="45.8974" rx="22.9487" fill="#FCFAF3"/>
<path d="M21.2505 36.1822H19.075V33.7313H21.2505V31.363C21.2505 30.2063 21.5535 29.3068 22.1593 28.6642C22.7652 28.0033 23.6739 27.6728 24.8856 27.6728H27.2539V30.1237H24.2522V33.7313H27.2539V36.1822H24.2522V48.0513H21.2505V36.1822ZM35.3761 48.3817C34.3847 48.3817 33.4759 48.2073 32.6497 47.8585C31.842 47.5097 31.1535 47.014 30.5844 46.3714C30.0152 45.7105 29.5746 44.9211 29.2625 44.0031C28.9504 43.0668 28.7944 42.0295 28.7944 40.8913C28.7944 39.753 28.9504 38.7249 29.2625 37.807C29.5746 36.8707 30.0152 36.0812 30.5844 35.4387C31.1535 34.7777 31.842 34.2729 32.6497 33.924C33.4759 33.5752 34.3847 33.4008 35.3761 33.4008C36.3674 33.4008 37.267 33.5752 38.0748 33.924C38.901 34.2729 39.5986 34.7777 40.1677 35.4387C40.7369 36.0812 41.1775 36.8707 41.4896 37.807C41.8017 38.7249 41.9577 39.753 41.9577 40.8913C41.9577 42.0295 41.8017 43.0668 41.4896 44.0031C41.1775 44.9211 40.7369 45.7105 40.1677 46.3714C39.5986 47.014 38.901 47.5097 38.0748 47.8585C37.267 48.2073 36.3674 48.3817 35.3761 48.3817ZM35.3761 45.9033C36.4042 45.9033 37.2303 45.5912 37.8545 44.967C38.4787 44.3244 38.7908 43.3697 38.7908 42.103V39.6796C38.7908 38.4128 38.4787 37.4673 37.8545 36.8431C37.2303 36.2006 36.4042 35.8793 35.3761 35.8793C34.348 35.8793 33.5218 36.2006 32.8976 36.8431C32.2734 37.4673 31.9613 38.4128 31.9613 39.6796V42.103C31.9613 43.3697 32.2734 44.3244 32.8976 44.967C33.5218 45.5912 34.348 45.9033 35.3761 45.9033ZM45.3024 48.0513V33.7313H48.3041V36.4851H48.4418C48.6437 35.7508 49.066 35.1082 49.7085 34.5574C50.3511 34.0067 51.2415 33.7313 52.3798 33.7313H53.1784V36.6228H51.9942C50.8009 36.6228 49.8829 36.8156 49.2404 37.2011C48.6162 37.5867 48.3041 38.1558 48.3041 38.9085V48.0513H45.3024ZM54.5469 33.7313H57.466L58.9255 39.7347L60.2198 45.1597H60.3025L61.7895 39.7347L63.5245 33.7313H66.2232L67.9857 39.7347L69.5003 45.1597H69.5829L70.8497 39.7347L72.3368 33.7313H75.1181L71.2628 48.0513H67.8755L66.0029 41.5247L64.8463 37.504H64.7912L63.6621 41.5247L61.762 48.0513H58.4574L54.5469 33.7313ZM88.1737 48.0513C87.3843 48.0513 86.7785 47.831 86.3562 47.3903C85.9339 46.9314 85.6769 46.3531 85.5851 45.6554H85.4474C85.1721 46.555 84.6672 47.2343 83.9328 47.6933C83.1985 48.1522 82.3081 48.3817 81.2616 48.3817C79.7745 48.3817 78.6271 47.9962 77.8193 47.2251C77.0298 46.454 76.6351 45.4168 76.6351 44.1133C76.6351 42.6813 77.1492 41.6073 78.1773 40.8913C79.2237 40.1753 80.7475 39.8173 82.7487 39.8173H85.3373V38.6056C85.3373 37.7243 85.0986 37.0451 84.6213 36.5677C84.1439 36.0904 83.4004 35.8517 82.3907 35.8517C81.5462 35.8517 80.8577 36.0353 80.3253 36.4025C79.7929 36.7697 79.3431 37.2378 78.9759 37.807L77.1859 36.1822C77.6632 35.3744 78.3333 34.7135 79.1962 34.1994C80.0591 33.667 81.1882 33.4008 82.5834 33.4008C84.4377 33.4008 85.8605 33.8322 86.8519 34.6951C87.8433 35.558 88.339 36.7972 88.339 38.4128V45.6003H89.8536V48.0513H88.1737ZM82.1153 46.096C83.0516 46.096 83.8227 45.8941 84.4285 45.4902C85.0344 45.0679 85.3373 44.508 85.3373 43.8103V41.745H82.8037C80.7292 41.745 79.6919 42.3875 79.6919 43.6727V44.1683C79.6919 44.8109 79.903 45.2974 80.3253 45.6279C80.7659 45.94 81.3626 46.096 82.1153 46.096ZM92.7955 48.0513V33.7313H95.7972V36.4851H95.9349C96.1368 35.7508 96.5591 35.1082 97.2016 34.5574C97.8442 34.0067 98.7346 33.7313 99.8729 33.7313H100.671V36.6228H99.4873C98.294 36.6228 97.376 36.8156 96.7335 37.2011C96.1093 37.5867 95.7972 38.1558 95.7972 38.9085V48.0513H92.7955ZM112.208 45.683H112.07C111.758 46.5275 111.244 47.1884 110.528 47.6657C109.831 48.1431 109.005 48.3817 108.05 48.3817C106.232 48.3817 104.828 47.73 103.836 46.4265C102.845 45.1047 102.349 43.2596 102.349 40.8913C102.349 38.523 102.845 36.6871 103.836 35.3836C104.828 34.0617 106.232 33.4008 108.05 33.4008C109.005 33.4008 109.831 33.6395 110.528 34.1168C111.244 34.5758 111.758 35.2367 112.07 36.0996H112.208V27.6728L115.21 27.6728V48.0513H112.208V45.683ZM108.959 45.7931C109.877 45.7931 110.648 45.5728 111.272 45.1322C111.896 44.6732 112.208 44.0766 112.208 43.3422V38.4403C112.208 37.706 111.896 37.1185 111.272 36.6779C110.648 36.2189 109.877 35.9894 108.959 35.9894C107.912 35.9894 107.077 36.3291 106.453 37.0083C105.828 37.6693 105.516 38.5505 105.516 39.652V42.1305C105.516 43.232 105.828 44.1224 106.453 44.8017C107.077 45.4627 107.912 45.7931 108.959 45.7931Z" fill="black"/>
</svg>
