<svg width="358" height="84" viewBox="0 0 358 84" fill="none" xmlns="http://www.w3.org/2000/svg">
<mask id="path-1-inside-1_2404_4123" fill="white">
<path fill-rule="evenodd" clip-rule="evenodd" d="M0 9.87187C0 4.80218 4.1098 0.692383 9.17949 0.692383H11.0032C14.2698 0.692383 17.1735 2.56551 19.5394 4.81786C22.8201 7.94107 27.2402 9.87188 32.1074 9.87188C36.9809 9.87188 41.4156 7.93619 44.7075 4.80601C47.0707 2.55885 49.9711 0.692383 53.2321 0.692383H348.821C353.89 0.692383 358 4.8022 358 9.87189V64.9488C358 70.0185 353.89 74.1283 348.821 74.1283H53.2321C49.9711 74.1283 47.0707 75.9948 44.7075 78.2419C41.4156 81.3721 36.9809 83.3078 32.1074 83.3078C27.2402 83.3078 22.8201 81.377 19.5394 78.2538C17.1735 76.0014 14.2698 74.1283 11.0032 74.1283H9.17949C4.1098 74.1283 0 70.0185 0 64.9488V9.87187Z"/>
</mask>
<path fill-rule="evenodd" clip-rule="evenodd" d="M0 9.87187C0 4.80218 4.1098 0.692383 9.17949 0.692383H11.0032C14.2698 0.692383 17.1735 2.56551 19.5394 4.81786C22.8201 7.94107 27.2402 9.87188 32.1074 9.87188C36.9809 9.87188 41.4156 7.93619 44.7075 4.80601C47.0707 2.55885 49.9711 0.692383 53.2321 0.692383H348.821C353.89 0.692383 358 4.8022 358 9.87189V64.9488C358 70.0185 353.89 74.1283 348.821 74.1283H53.2321C49.9711 74.1283 47.0707 75.9948 44.7075 78.2419C41.4156 81.3721 36.9809 83.3078 32.1074 83.3078C27.2402 83.3078 22.8201 81.377 19.5394 78.2538C17.1735 76.0014 14.2698 74.1283 11.0032 74.1283H9.17949C4.1098 74.1283 0 70.0185 0 64.9488V9.87187Z" fill="#A0C6FF"/>
<path d="M19.5394 78.2538L21.1218 76.5917L19.5394 78.2538ZM44.7075 78.2419L43.1261 76.5789L44.7075 78.2419ZM44.7075 4.80601L43.1261 3.14296L44.7075 4.80601ZM11.0032 -1.60249H9.17949V2.98725H11.0032V-1.60249ZM32.1074 7.577C27.8608 7.577 23.9991 5.89502 21.1218 3.15575L17.9571 6.47998C21.641 9.98712 26.6196 12.1667 32.1074 12.1667V7.577ZM43.1261 3.14296C40.237 5.89016 36.3601 7.577 32.1074 7.577V12.1667C37.6016 12.1667 42.5942 9.98221 46.2888 6.46906L43.1261 3.14296ZM348.821 -1.60249H53.2321V2.98725H348.821V-1.60249ZM360.295 64.9488V9.87189H355.705V64.9488H360.295ZM53.2321 76.4231H348.821V71.8334H53.2321V76.4231ZM43.1261 76.5789C40.237 79.3261 36.3601 81.0129 32.1074 81.0129V85.6026C37.6016 85.6026 42.5942 83.4181 46.2888 79.905L43.1261 76.5789ZM32.1074 81.0129C27.8608 81.0129 23.9991 79.3309 21.1218 76.5917L17.9571 79.9159C21.641 83.423 26.6196 85.6026 32.1074 85.6026V81.0129ZM9.17949 76.4231H11.0032V71.8334H9.17949V76.4231ZM-2.29487 9.87187V64.9488H2.29487V9.87187H-2.29487ZM9.17949 71.8334C5.37722 71.8334 2.29487 68.7511 2.29487 64.9488H-2.29487C-2.29487 71.2859 2.84237 76.4231 9.17949 76.4231V71.8334ZM21.1218 76.5917C18.6048 74.1955 15.1529 71.8334 11.0032 71.8334V76.4231C13.3867 76.4231 15.7422 77.8073 17.9571 79.9159L21.1218 76.5917ZM53.2321 71.8334C49.0895 71.8334 45.6414 74.1871 43.1261 76.5789L46.2888 79.905C48.5 77.8024 50.8526 76.4231 53.2321 76.4231V71.8334ZM348.821 2.98725C352.623 2.98725 355.705 6.06961 355.705 9.87189H360.295C360.295 3.53478 355.158 -1.60249 348.821 -1.60249V2.98725ZM46.2888 6.46906C48.5 4.36653 50.8526 2.98725 53.2321 2.98725V-1.60249C49.0895 -1.60249 45.6414 0.751179 43.1261 3.14296L46.2888 6.46906ZM9.17949 -1.60249C2.84237 -1.60249 -2.29487 3.53476 -2.29487 9.87187H2.29487C2.29487 6.0696 5.37722 2.98725 9.17949 2.98725V-1.60249ZM355.705 64.9488C355.705 68.7511 352.623 71.8334 348.821 71.8334V76.4231C355.158 76.4231 360.295 71.2859 360.295 64.9488H355.705ZM11.0032 2.98725C13.3867 2.98725 15.7422 4.37141 17.9571 6.47998L21.1218 3.15575C18.6048 0.75961 15.1529 -1.60249 11.0032 -1.60249V2.98725Z" fill="#3F76C9" mask="url(#path-1-inside-1_2404_4123)"/>
<path d="M247.525 45.683H247.387C247.075 46.5275 246.561 47.1884 245.845 47.6657C245.147 48.1431 244.321 48.3817 243.367 48.3817C241.549 48.3817 240.145 47.73 239.153 46.4265C238.162 45.1047 237.666 43.2596 237.666 40.8913C237.666 38.523 238.162 36.6871 239.153 35.3836C240.145 34.0617 241.549 33.4008 243.367 33.4008C244.321 33.4008 245.147 33.6395 245.845 34.1168C246.561 34.5758 247.075 35.2367 247.387 36.0996H247.525V27.6728H250.527V48.0513H247.525V45.683ZM244.275 45.7931C245.193 45.7931 245.964 45.5728 246.589 45.1322C247.213 44.6732 247.525 44.0766 247.525 43.3422V38.4403C247.525 37.706 247.213 37.1185 246.589 36.6779C245.964 36.2189 245.193 35.9894 244.275 35.9894C243.229 35.9894 242.394 36.3291 241.769 37.0083C241.145 37.6693 240.833 38.5505 240.833 39.652V42.1305C240.833 43.232 241.145 44.1224 241.769 44.8017C242.394 45.4627 243.229 45.7931 244.275 45.7931ZM260.435 48.3817C259.407 48.3817 258.489 48.2073 257.681 47.8585C256.873 47.5097 256.185 47.014 255.616 46.3714C255.046 45.7105 254.606 44.9211 254.294 44.0031C254 43.0668 253.853 42.0295 253.853 40.8913C253.853 39.753 254 38.7249 254.294 37.807C254.606 36.8707 255.046 36.0812 255.616 35.4387C256.185 34.7777 256.873 34.2729 257.681 33.924C258.489 33.5752 259.407 33.4008 260.435 33.4008C261.481 33.4008 262.399 33.5844 263.189 33.9516C263.996 34.3188 264.667 34.8328 265.199 35.4937C265.731 36.1363 266.126 36.889 266.383 37.7519C266.659 38.6148 266.796 39.5419 266.796 40.5333V41.6623H256.965V42.1305C256.965 43.232 257.286 44.1408 257.929 44.8568C258.59 45.5544 259.526 45.9033 260.738 45.9033C261.619 45.9033 262.363 45.7105 262.968 45.325C263.574 44.9394 264.088 44.4162 264.511 43.7553L266.273 45.4902C265.741 46.3714 264.97 47.0782 263.96 47.6107C262.95 48.1247 261.775 48.3817 260.435 48.3817ZM260.435 35.7416C259.921 35.7416 259.443 35.8334 259.003 36.017C258.581 36.2006 258.213 36.4576 257.901 36.788C257.608 37.1185 257.378 37.5132 257.213 37.9722C257.048 38.4312 256.965 38.936 256.965 39.4868V39.6796H263.629V39.4042C263.629 38.3027 263.345 37.4214 262.776 36.7605C262.206 36.0812 261.426 35.7416 260.435 35.7416ZM282.677 49.4007C282.677 50.8877 282.108 52.0076 280.969 52.7603C279.831 53.5131 277.977 53.8894 275.407 53.8894C274.232 53.8894 273.231 53.8068 272.405 53.6416C271.597 53.4947 270.927 53.2744 270.395 52.9807C269.88 52.6869 269.504 52.3289 269.265 51.9067C269.027 51.4844 268.907 50.9979 268.907 50.4471C268.907 49.6577 269.119 49.0427 269.541 48.602C269.981 48.1614 270.587 47.8585 271.358 47.6933V47.3903C270.275 47.0415 269.734 46.3072 269.734 45.1873C269.734 44.4529 269.981 43.893 270.477 43.5074C270.973 43.1035 271.569 42.819 272.267 42.6537V42.5436C271.423 42.1397 270.771 41.5797 270.312 40.8637C269.871 40.1294 269.651 39.2757 269.651 38.3027C269.651 36.8339 270.137 35.6498 271.111 34.7502C272.102 33.8506 273.516 33.4008 275.351 33.4008C276.361 33.4008 277.224 33.5477 277.94 33.8414V33.4559C277.94 32.8133 278.087 32.3176 278.381 31.9688C278.693 31.6016 279.17 31.418 279.813 31.418H282.016V33.8414H279.097V34.4197C279.739 34.842 280.235 35.3928 280.584 36.072C280.933 36.733 281.107 37.4765 281.107 38.3027C281.107 39.753 280.611 40.928 279.62 41.8276C278.629 42.7088 277.215 43.1494 275.379 43.1494C274.681 43.1494 274.057 43.076 273.506 42.9291C273.139 43.0576 272.818 43.2412 272.543 43.4799C272.267 43.7002 272.129 43.9939 272.129 44.3611C272.129 44.7467 272.304 45.022 272.653 45.1873C273.001 45.3525 273.497 45.4351 274.14 45.4351H277.665C279.427 45.4351 280.703 45.7931 281.493 46.5091C282.282 47.2068 282.677 48.1706 282.677 49.4007ZM279.868 49.7311C279.868 49.2354 279.675 48.8407 279.289 48.547C278.922 48.2532 278.243 48.1063 277.252 48.1063H272.405C271.744 48.4919 271.413 49.0427 271.413 49.7587C271.413 50.3461 271.643 50.8143 272.102 51.1631C272.579 51.5303 273.378 51.7139 274.498 51.7139H276.37C278.702 51.7139 279.868 51.053 279.868 49.7311ZM275.379 40.9739C276.26 40.9739 276.939 40.7811 277.417 40.3956C277.913 39.9917 278.16 39.3767 278.16 38.5505V37.9997C278.16 37.1736 277.913 36.5677 277.417 36.1822C276.939 35.7783 276.26 35.5763 275.379 35.5763C274.498 35.5763 273.809 35.7783 273.314 36.1822C272.836 36.5677 272.598 37.1736 272.598 37.9997V38.5505C272.598 39.3767 272.836 39.9917 273.314 40.3956C273.809 40.7811 274.498 40.9739 275.379 40.9739ZM284.91 48.0513V33.7313H287.912V36.4851H288.05C288.252 35.7508 288.674 35.1082 289.316 34.5574C289.959 34.0067 290.849 33.7313 291.988 33.7313H292.786V36.6228H291.602C290.409 36.6228 289.491 36.8156 288.848 37.2011C288.224 37.5867 287.912 38.1558 287.912 38.9085V48.0513H284.91ZM300.936 48.3817C299.908 48.3817 298.99 48.2073 298.182 47.8585C297.374 47.5097 296.686 47.014 296.117 46.3714C295.547 45.7105 295.107 44.9211 294.795 44.0031C294.501 43.0668 294.354 42.0295 294.354 40.8913C294.354 39.753 294.501 38.7249 294.795 37.807C295.107 36.8707 295.547 36.0812 296.117 35.4387C296.686 34.7777 297.374 34.2729 298.182 33.924C298.99 33.5752 299.908 33.4008 300.936 33.4008C301.982 33.4008 302.9 33.5844 303.69 33.9516C304.497 34.3188 305.167 34.8328 305.7 35.4937C306.232 36.1363 306.627 36.889 306.884 37.7519C307.159 38.6148 307.297 39.5419 307.297 40.5333V41.6623H297.466V42.1305C297.466 43.232 297.787 44.1408 298.43 44.8568C299.091 45.5544 300.027 45.9033 301.239 45.9033C302.12 45.9033 302.863 45.7105 303.469 45.325C304.075 44.9394 304.589 44.4162 305.011 43.7553L306.774 45.4902C306.241 46.3714 305.47 47.0782 304.461 47.6107C303.451 48.1247 302.276 48.3817 300.936 48.3817ZM300.936 35.7416C300.422 35.7416 299.944 35.8334 299.504 36.017C299.081 36.2006 298.714 36.4576 298.402 36.788C298.108 37.1185 297.879 37.5132 297.714 37.9722C297.549 38.4312 297.466 38.936 297.466 39.4868V39.6796H304.13V39.4042C304.13 38.3027 303.846 37.4214 303.277 36.7605C302.707 36.0812 301.927 35.7416 300.936 35.7416ZM316.238 48.3817C315.21 48.3817 314.292 48.2073 313.484 47.8585C312.676 47.5097 311.988 47.014 311.419 46.3714C310.85 45.7105 310.409 44.9211 310.097 44.0031C309.803 43.0668 309.656 42.0295 309.656 40.8913C309.656 39.753 309.803 38.7249 310.097 37.807C310.409 36.8707 310.85 36.0812 311.419 35.4387C311.988 34.7777 312.676 34.2729 313.484 33.924C314.292 33.5752 315.21 33.4008 316.238 33.4008C317.284 33.4008 318.202 33.5844 318.992 33.9516C319.8 34.3188 320.47 34.8328 321.002 35.4937C321.534 36.1363 321.929 36.889 322.186 37.7519C322.462 38.6148 322.599 39.5419 322.599 40.5333V41.6623H312.768V42.1305C312.768 43.232 313.089 44.1408 313.732 44.8568C314.393 45.5544 315.329 45.9033 316.541 45.9033C317.422 45.9033 318.166 45.7105 318.771 45.325C319.377 44.9394 319.891 44.4162 320.314 43.7553L322.076 45.4902C321.544 46.3714 320.773 47.0782 319.763 47.6107C318.753 48.1247 317.578 48.3817 316.238 48.3817ZM316.238 35.7416C315.724 35.7416 315.247 35.8334 314.806 36.017C314.384 36.2006 314.016 36.4576 313.704 36.788C313.411 37.1185 313.181 37.5132 313.016 37.9722C312.851 38.4312 312.768 38.936 312.768 39.4868V39.6796H319.432V39.4042C319.432 38.3027 319.148 37.4214 318.579 36.7605C318.01 36.0812 317.229 35.7416 316.238 35.7416ZM330.466 48.3817C329.107 48.3817 327.969 48.1431 327.051 47.6657C326.133 47.1884 325.335 46.5275 324.655 45.683L326.583 43.9205C327.116 44.5631 327.703 45.0679 328.346 45.4351C329.006 45.7839 329.768 45.9583 330.631 45.9583C331.512 45.9583 332.164 45.7931 332.586 45.4627C333.027 45.1138 333.247 44.6365 333.247 44.0307C333.247 43.5717 333.091 43.1861 332.779 42.874C332.486 42.5436 331.962 42.3324 331.21 42.2407L329.888 42.0754C328.419 41.8918 327.262 41.4696 326.418 40.8087C325.592 40.1294 325.179 39.1288 325.179 37.807C325.179 37.1093 325.307 36.4943 325.564 35.9619C325.821 35.4111 326.179 34.9521 326.638 34.585C327.116 34.1994 327.675 33.9057 328.318 33.7037C328.979 33.5018 329.704 33.4008 330.494 33.4008C331.779 33.4008 332.825 33.6028 333.633 34.0067C334.459 34.4106 335.193 34.9705 335.836 35.6865L333.991 37.449C333.624 37.0083 333.137 36.632 332.531 36.3199C331.944 35.9894 331.265 35.8242 330.494 35.8242C329.667 35.8242 329.052 35.9894 328.648 36.3199C328.263 36.6503 328.07 37.0818 328.07 37.6142C328.07 38.165 328.245 38.578 328.593 38.8534C328.942 39.1288 329.502 39.3308 330.273 39.4593L331.595 39.6245C333.174 39.8632 334.321 40.3313 335.037 41.029C335.772 41.7082 336.139 42.6262 336.139 43.7828C336.139 44.4804 336.001 45.1138 335.726 45.683C335.469 46.2337 335.092 46.7111 334.597 47.115C334.101 47.5189 333.504 47.831 332.807 48.0513C332.109 48.2716 331.329 48.3817 330.466 48.3817Z" fill="black"/>
<rect x="144.577" y="14.4614" width="73.4359" height="45.8974" rx="22.9487" fill="#FCFAF3"/>
<path d="M122.776 45.4425C122.776 45.7468 122.655 46.0386 122.44 46.2538C122.224 46.469 121.933 46.5899 121.628 46.5899C121.324 46.5899 121.032 46.469 120.817 46.2538C120.602 46.0386 120.481 45.7468 120.481 45.4425C120.48 42.9755 119.756 40.5628 118.398 38.5028C117.041 36.4428 115.11 34.8257 112.843 33.8516C110.577 32.8774 108.074 32.5888 105.645 33.0214C103.217 33.4541 100.968 34.589 99.1772 36.2859L102.934 40.0409C103.094 40.2014 103.204 40.4059 103.248 40.6286C103.292 40.8513 103.27 41.0822 103.183 41.292C103.096 41.5017 102.949 41.681 102.76 41.8071C102.571 41.9331 102.349 42.0003 102.122 42.0002H92.9424C92.638 42.0002 92.3462 41.8793 92.131 41.6641C91.9158 41.4489 91.7949 41.157 91.7949 40.8527V31.6732C91.7947 31.4462 91.8619 31.2241 91.988 31.0353C92.1141 30.8464 92.2934 30.6992 92.5031 30.6123C92.7129 30.5254 92.9438 30.5027 93.1665 30.547C93.3892 30.5913 93.5937 30.7008 93.7542 30.8614L97.5522 34.6594C99.6641 32.6408 102.322 31.2867 105.197 30.7654C108.072 30.244 111.036 30.5783 113.723 31.7267C116.409 32.8751 118.699 34.7871 120.308 37.2254C121.918 39.6637 122.776 42.5209 122.776 45.4425Z" fill="black"/>
<path d="M24.4725 48.0513C23.4261 48.0513 22.6367 47.7851 22.1042 47.2527C21.5718 46.7019 21.3056 45.9308 21.3056 44.9394V36.1822H19.075V33.7313H20.2867C20.7824 33.7313 21.122 33.6211 21.3056 33.4008C21.5076 33.1805 21.6085 32.8225 21.6085 32.3268V29.8208H24.3073V33.7313H27.309V36.1822H24.3073V45.6003H27.0887V48.0513H24.4725ZM39.2396 45.683H39.1295C39.001 46.0318 38.8265 46.3714 38.6062 46.7019C38.4043 47.0323 38.1381 47.3261 37.8076 47.5831C37.4955 47.8218 37.11 48.0146 36.651 48.1614C36.2104 48.3083 35.6963 48.3817 35.1088 48.3817C33.6218 48.3817 32.4652 47.9044 31.639 46.9497C30.8312 45.9951 30.4273 44.6273 30.4273 42.8465V33.7313H33.429V42.461C33.429 44.6824 34.347 45.7931 36.1828 45.7931C36.5684 45.7931 36.9447 45.7472 37.3119 45.6554C37.6791 45.5453 38.0004 45.3892 38.2758 45.1873C38.5695 44.9853 38.799 44.7283 38.9642 44.4162C39.1478 44.1041 39.2396 43.7369 39.2396 43.3147V33.7313H42.2413V48.0513H39.2396V45.683ZM46.5395 48.0513V33.7313H49.5412V36.4851H49.6788C49.8808 35.7508 50.3031 35.1082 50.9456 34.5574C51.5882 34.0067 52.4786 33.7313 53.6168 33.7313H54.4155V36.6228H53.2313C52.038 36.6228 51.12 36.8156 50.4775 37.2011C49.8533 37.5867 49.5412 38.1558 49.5412 38.9085V48.0513H46.5395ZM57.0815 48.0513V33.7313H60.0832V36.0996H60.2209C60.533 35.3285 61.0012 34.6859 61.6254 34.1719C62.2679 33.6578 63.14 33.4008 64.2415 33.4008C65.7102 33.4008 66.8485 33.8873 67.6563 34.8603C68.4825 35.815 68.8955 37.1828 68.8955 38.9636V48.0513H65.8938V39.3491C65.8938 37.1093 64.9942 35.9894 63.1951 35.9894C62.8095 35.9894 62.424 36.0445 62.0385 36.1547C61.6713 36.2464 61.3408 36.3933 61.0471 36.5953C60.7533 36.7972 60.5147 37.0542 60.3311 37.3663C60.1658 37.6784 60.0832 38.0456 60.0832 38.4679V48.0513H57.0815Z" fill="black"/>
</svg>
