<?xml version="1.0" encoding="UTF-8"?>
<svg id="Layer_2" data-name="Layer 2" xmlns="http://www.w3.org/2000/svg" xmlns:xlink="http://www.w3.org/1999/xlink" viewBox="0 0 181.05 80.12">
  <defs>
    <mask id="mask" x="0" y="0" width="163.4" height="44.35" maskUnits="userSpaceOnUse">
      <g id="path-1-inside-1_2404_3889" data-name="path-1-inside-1 2404 3889">
        <path d="M1.17,5.84C1.17,3.26,3.26,1.17,5.84,1.17h.93c1.66,0,3.14.95,4.34,2.1,1.67,1.59,3.92,2.57,6.39,2.57s4.73-.98,6.41-2.58c1.2-1.14,2.68-2.09,4.34-2.09h129.33c2.58,0,4.67,2.09,4.67,4.67v28.01c0,2.58-2.09,4.67-4.67,4.67H28.24c-1.66,0-3.13.95-4.34,2.09-1.67,1.59-3.93,2.58-6.41,2.58s-4.72-.98-6.39-2.57c-1.2-1.15-2.68-2.1-4.34-2.1h-.93c-2.58,0-4.67-2.09-4.67-4.67V5.84Z" style="fill: #fff; fill-rule: evenodd; stroke-width: 0px;"/>
      </g>
    </mask>
    <mask id="mask-1" x="0" y="36.58" width="181.05" height="43.54" maskUnits="userSpaceOnUse">
      <g id="path-1-inside-1_2404_4086" data-name="path-1-inside-1 2404 4086">
        <path d="M1.15,42.31c0-2.53,2.05-4.58,4.58-4.58h.91c1.63,0,3.08.94,4.26,2.06,1.64,1.56,3.85,2.52,6.28,2.52s4.65-.97,6.29-2.53c1.18-1.12,2.63-2.05,4.26-2.05h147.59c2.53,0,4.58,2.05,4.58,4.58v27.5c0,2.53-2.05,4.58-4.58,4.58H27.73c-1.63,0-3.08.93-4.26,2.05-1.64,1.56-3.86,2.53-6.29,2.53s-4.64-.96-6.28-2.52c-1.18-1.12-2.63-2.06-4.26-2.06h-.91c-2.53,0-4.58-2.05-4.58-4.58v-27.5Z" style="fill: #fff; fill-rule: evenodd; stroke-width: 0px;"/>
      </g>
    </mask>
  </defs>
  <g id="Layer_1-2" data-name="Layer 1">
    <g>
      <path d="M1.17,5.84C1.17,3.26,3.26,1.17,5.84,1.17h.93c1.66,0,3.14.95,4.34,2.1,1.67,1.59,3.92,2.57,6.39,2.57s4.73-.98,6.41-2.58c1.2-1.14,2.68-2.09,4.34-2.09h129.33c2.58,0,4.67,2.09,4.67,4.67v28.01c0,2.58-2.09,4.67-4.67,4.67H28.24c-1.66,0-3.13.95-4.34,2.09-1.67,1.59-3.93,2.58-6.41,2.58s-4.72-.98-6.39-2.57c-1.2-1.15-2.68-2.1-4.34-2.1h-.93c-2.58,0-4.67-2.09-4.67-4.67V5.84Z" style="fill: #a0c6ff; fill-rule: evenodd; stroke-width: 0px;"/>
      <g style="mask: url(#mask);">
        <path d="M11.1,40.62l-.8.85.8-.85ZM23.91,40.61l-.8-.85.8.85ZM6.76,0h-.93v2.33h.93V0ZM17.5,4.67c-2.16,0-4.12-.86-5.59-2.25l-1.61,1.69c1.87,1.78,4.41,2.89,7.2,2.89v-2.33ZM23.1,2.41c-1.47,1.4-3.44,2.26-5.6,2.26v2.33c2.79,0,5.33-1.11,7.21-2.9l-1.61-1.69ZM157.57,0H28.24v2.33h129.33V0ZM163.4,33.85V5.84h-2.33v28.01h2.33ZM28.24,39.68h129.33v-2.33H28.24v2.33ZM23.1,39.76c-1.47,1.4-3.44,2.26-5.6,2.26v2.33c2.79,0,5.33-1.11,7.21-2.9l-1.61-1.69ZM17.5,42.02c-2.16,0-4.12-.86-5.59-2.25l-1.61,1.69c1.87,1.78,4.41,2.89,7.2,2.89v-2.33ZM5.84,39.68h.93v-2.33h-.93v2.33ZM0,5.84v28.01h2.33V5.84H0ZM5.84,37.35c-1.93,0-3.5-1.57-3.5-3.5H0c0,3.22,2.61,5.84,5.84,5.84v-2.33ZM11.91,39.77c-1.28-1.22-3.04-2.42-5.15-2.42v2.33c1.21,0,2.41.7,3.54,1.78l1.61-1.69ZM28.24,37.35c-2.11,0-3.86,1.2-5.14,2.41l1.61,1.69c1.12-1.07,2.32-1.77,3.53-1.77v-2.33ZM157.57,2.33c1.93,0,3.5,1.57,3.5,3.5h2.33c0-3.22-2.61-5.84-5.84-5.84v2.33ZM24.71,4.11c1.12-1.07,2.32-1.77,3.53-1.77V0c-2.11,0-3.86,1.2-5.14,2.41l1.61,1.69ZM5.84,0C2.61,0,0,2.61,0,5.84h2.33c0-1.93,1.57-3.5,3.5-3.5V0ZM161.07,33.85c0,1.93-1.57,3.5-3.5,3.5v2.33c3.22,0,5.84-2.61,5.84-5.84h-2.33ZM6.76,2.33c1.21,0,2.41.7,3.54,1.78l1.61-1.69c-1.28-1.22-3.04-2.42-5.15-2.42v2.33Z" style="fill: #3f76c9; stroke-width: 0px;"/>
      </g>
      <path d="M121.29,25.42c-.69,0-1.27-.12-1.74-.36-.47-.24-.87-.58-1.22-1.01l.98-.9c.27.33.57.58.9.77.34.18.72.27,1.16.27s.78-.08.99-.25c.22-.18.34-.42.34-.73,0-.23-.08-.43-.24-.59-.15-.17-.42-.28-.8-.32l-.67-.08c-.75-.09-1.34-.31-1.76-.64-.42-.35-.63-.85-.63-1.53,0-.35.07-.67.2-.94.13-.28.31-.51.55-.7.24-.2.53-.35.85-.45.34-.1.7-.15,1.11-.15.65,0,1.19.1,1.6.31.42.21.79.49,1.12.85l-.94.9c-.19-.22-.43-.42-.74-.57-.3-.17-.64-.25-1.04-.25-.42,0-.73.08-.94.25-.2.17-.29.39-.29.66s.09.49.27.63c.18.14.46.24.85.31l.67.08c.8.12,1.39.36,1.75.71.37.35.56.81.56,1.4,0,.35-.07.68-.21.97-.13.28-.32.52-.57.73-.25.21-.56.36-.91.48-.36.11-.75.17-1.19.17ZM127.82,25.25c-.53,0-.93-.14-1.2-.41-.27-.28-.41-.67-.41-1.18v-4.45h-1.13v-1.25h.62c.25,0,.43-.06.52-.17.1-.11.15-.29.15-.55v-1.27h1.37v1.99h1.53v1.25h-1.53v4.79h1.41v1.25h-1.33ZM133.72,25.42c-.52,0-.99-.09-1.4-.27-.41-.18-.76-.43-1.05-.76-.29-.34-.51-.74-.67-1.2-.15-.48-.22-1-.22-1.58s.07-1.1.22-1.57c.16-.48.38-.88.67-1.2.29-.34.64-.59,1.05-.77.41-.18.88-.27,1.4-.27s1,.09,1.4.28c.41.19.75.45,1.02.78.27.33.47.71.6,1.15.14.44.21.91.21,1.41v.57h-5v.24c0,.56.16,1.02.49,1.39.34.35.81.53,1.43.53.45,0,.83-.1,1.13-.29.31-.2.57-.46.78-.8l.9.88c-.27.45-.66.81-1.18,1.08-.51.26-1.11.39-1.79.39ZM133.72,18.99c-.26,0-.5.05-.73.14-.21.09-.4.22-.56.39-.15.17-.27.37-.35.6s-.13.49-.13.77v.1h3.39v-.14c0-.56-.14-1.01-.43-1.34-.29-.35-.69-.52-1.19-.52ZM138.65,17.97h1.53v1.2h.07c.16-.44.42-.78.77-1.01.36-.24.79-.36,1.27-.36.92,0,1.64.34,2.14,1.01.5.66.76,1.6.76,2.8s-.25,2.14-.76,2.82c-.5.66-1.22.99-2.14.99-.49,0-.91-.12-1.27-.36-.35-.24-.61-.58-.77-1.01h-.07v4.01h-1.53v-10.08ZM141.83,24.11c.53,0,.96-.17,1.27-.5.32-.35.48-.8.48-1.36v-1.26c0-.56-.16-1.01-.48-1.34-.32-.35-.74-.52-1.27-.52-.47,0-.86.12-1.18.35-.32.22-.48.52-.48.9v2.49c0,.37.16.68.48.91.32.22.71.34,1.18.34ZM149.25,25.42c-.69,0-1.27-.12-1.74-.36-.47-.24-.87-.58-1.22-1.01l.98-.9c.27.33.57.58.9.77.34.18.72.27,1.16.27s.78-.08.99-.25c.22-.18.34-.42.34-.73,0-.23-.08-.43-.24-.59-.15-.17-.42-.28-.8-.32l-.67-.08c-.75-.09-1.34-.31-1.76-.64-.42-.35-.63-.85-.63-1.53,0-.35.07-.67.2-.94.13-.28.31-.51.55-.7.24-.2.53-.35.85-.45.34-.1.7-.15,1.11-.15.65,0,1.19.1,1.6.31.42.21.79.49,1.12.85l-.94.9c-.19-.22-.43-.42-.74-.57-.3-.17-.64-.25-1.04-.25-.42,0-.73.08-.94.25-.2.17-.29.39-.29.66s.09.49.27.63c.18.14.46.24.85.31l.67.08c.8.12,1.39.36,1.75.71.37.35.56.81.56,1.4,0,.35-.07.68-.21.97-.13.28-.32.52-.57.73s-.56.36-.91.48c-.35.11-.75.17-1.19.17Z" style="fill: #181818; stroke-width: 0px;"/>
      <path d="M82.87,8.17h14.01c6.45,0,11.67,5.23,11.67,11.67h0c0,6.45-5.23,11.67-11.67,11.67h-14.01c-6.45,0-11.67-5.23-11.67-11.67h0c0-6.45,5.23-11.67,11.67-11.67Z" style="fill: #fcfaf3; stroke-width: 0px;"/>
      <path d="M11.98,19.22h-1.11v-1.25h1.11v-1.2c0-.59.15-1.05.46-1.37.31-.34.77-.5,1.39-.5h1.2v1.25h-1.53v1.83h1.53v1.25h-1.53v6.04h-1.53v-6.04ZM19.16,25.42c-.5,0-.97-.09-1.39-.27-.41-.18-.76-.43-1.05-.76-.29-.34-.51-.74-.67-1.2-.16-.48-.24-1-.24-1.58s.08-1.1.24-1.57c.16-.48.38-.88.67-1.2.29-.34.64-.59,1.05-.77.42-.18.88-.27,1.39-.27s.96.09,1.37.27c.42.18.78.43,1.06.77.29.33.51.73.67,1.2.16.47.24.99.24,1.57s-.08,1.11-.24,1.58c-.16.47-.38.87-.67,1.2-.29.33-.64.58-1.06.76-.41.18-.87.27-1.37.27ZM19.16,24.16c.52,0,.94-.16,1.26-.48.32-.33.48-.81.48-1.46v-1.23c0-.64-.16-1.13-.48-1.44-.32-.33-.74-.49-1.26-.49s-.94.16-1.26.49c-.32.32-.48.8-.48,1.44v1.23c0,.64.16,1.13.48,1.46.32.32.74.48,1.26.48ZM24.21,25.25v-7.28h1.53v1.4h.07c.1-.37.32-.7.64-.98.33-.28.78-.42,1.36-.42h.41v1.47h-.6c-.61,0-1.07.1-1.4.29-.32.2-.48.49-.48.87v4.65h-1.53ZM28.91,17.97h1.48l.74,3.05.66,2.76h.04l.76-2.76.88-3.05h1.37l.9,3.05.77,2.76h.04l.64-2.76.76-3.05h1.41l-1.96,7.28h-1.72l-.95-3.32-.59-2.04h-.03l-.57,2.04-.97,3.32h-1.68l-1.99-7.28ZM46.01,25.25c-.4,0-.71-.11-.92-.34-.21-.23-.35-.53-.39-.88h-.07c-.14.46-.4.8-.77,1.04-.37.23-.83.35-1.36.35-.76,0-1.34-.2-1.75-.59-.4-.39-.6-.92-.6-1.58,0-.73.26-1.27.78-1.64.53-.36,1.31-.55,2.33-.55h1.32v-.62c0-.45-.12-.79-.36-1.04-.24-.24-.62-.36-1.13-.36-.43,0-.78.09-1.05.28-.27.19-.5.42-.69.71l-.91-.83c.24-.41.58-.75,1.02-1.01.44-.27,1.01-.41,1.72-.41.94,0,1.67.22,2.17.66s.76,1.07.76,1.89v3.66h.77v1.25h-.85ZM42.93,24.26c.48,0,.87-.1,1.18-.31.31-.21.46-.5.46-.85v-1.05h-1.29c-1.06,0-1.58.33-1.58.98v.25c0,.33.11.57.32.74.22.16.53.24.91.24ZM48.36,25.25v-7.28h1.53v1.4h.07c.1-.37.32-.7.64-.98.33-.28.78-.42,1.36-.42h.41v1.47h-.6c-.61,0-1.07.1-1.4.29-.32.2-.48.49-.48.87v4.65h-1.53ZM58.24,24.05h-.07c-.16.43-.42.77-.78,1.01-.35.24-.77.36-1.26.36-.92,0-1.64-.33-2.14-.99-.5-.67-.76-1.61-.76-2.82s.25-2.14.76-2.8c.5-.67,1.22-1.01,2.14-1.01.49,0,.91.12,1.26.36.36.23.63.57.78,1.01h.07v-4.29h1.53v10.36h-1.53v-1.2ZM56.58,24.11c.47,0,.86-.11,1.18-.34.32-.23.48-.54.48-.91v-2.49c0-.37-.16-.67-.48-.9-.32-.23-.71-.35-1.18-.35-.53,0-.96.17-1.27.52-.32.34-.48.78-.48,1.34v1.26c0,.56.16,1.01.48,1.36.32.34.74.5,1.27.5Z" style="fill: #181818; stroke-width: 0px;"/>
    </g>
    <path d="M92.95,16.33h-4.7l-.27,3.68h.12c.24-.41.52-.73.86-.96.34-.25.8-.37,1.38-.37.45,0,.86.07,1.23.22.39.15.72.36.99.64.29.28.51.62.67,1.02.17.4.25.85.25,1.35s-.08.99-.25,1.42c-.17.43-.41.8-.73,1.11-.32.31-.71.55-1.17.73-.47.17-.99.25-1.59.25-.47,0-.88-.05-1.25-.16-.36-.1-.68-.23-.96-.4-.28-.18-.52-.38-.73-.59-.21-.23-.39-.46-.55-.7l1.22-.95c.13.2.26.39.4.56.15.17.31.32.49.45s.38.23.61.3c.24.07.5.1.8.1.64,0,1.13-.17,1.47-.52.34-.36.5-.84.5-1.44v-.12c0-.6-.17-1.07-.52-1.41-.34-.34-.82-.5-1.45-.5-.47,0-.83.08-1.1.25s-.5.36-.7.56l-1.38-.19.39-5.77h5.97v1.44Z" style="fill: #1b1b1b; stroke-width: 0px;"/>
    <g>
      <g>
        <path d="M1.15,42.31c0-2.53,2.05-4.58,4.58-4.58h.91c1.63,0,3.08.94,4.26,2.06,1.64,1.56,3.85,2.52,6.28,2.52s4.65-.97,6.29-2.53c1.18-1.12,2.63-2.05,4.26-2.05h147.59c2.53,0,4.58,2.05,4.58,4.58v27.5c0,2.53-2.05,4.58-4.58,4.58H27.73c-1.63,0-3.08.93-4.26,2.05-1.64,1.56-3.86,2.53-6.29,2.53s-4.64-.96-6.28-2.52c-1.18-1.12-2.63-2.06-4.26-2.06h-.91c-2.53,0-4.58-2.05-4.58-4.58v-27.5Z" style="fill: #a0c6ff; fill-rule: evenodd; stroke-width: 0px;"/>
        <g style="mask: url(#mask-1);">
          <path d="M10.9,76.45l.79-.83-.79.83ZM23.47,76.44l-.79-.83.79.83ZM23.47,39.78l-.79-.83.79.83ZM6.64,36.58h-.91v2.29h.91v-2.29ZM17.18,41.16c-2.12,0-4.05-.84-5.49-2.21l-1.58,1.66c1.84,1.75,4.33,2.84,7.07,2.84v-2.29ZM22.68,38.95c-1.44,1.37-3.38,2.21-5.5,2.21v2.29c2.74,0,5.24-1.09,7.08-2.84l-1.58-1.66ZM175.32,36.58H27.73v2.29h147.59v-2.29ZM181.05,69.81v-27.5h-2.29v27.5h2.29ZM27.73,75.54h147.59v-2.29H27.73v2.29ZM22.68,75.61c-1.44,1.37-3.38,2.21-5.5,2.21v2.29c2.74,0,5.24-1.09,7.08-2.84l-1.58-1.66ZM17.18,77.83c-2.12,0-4.05-.84-5.49-2.21l-1.58,1.66c1.84,1.75,4.33,2.84,7.07,2.84v-2.29ZM5.73,75.54h.91v-2.29h-.91v2.29ZM0,42.31v27.5h2.29v-27.5H0ZM5.73,73.24c-1.9,0-3.44-1.54-3.44-3.44H0c0,3.16,2.57,5.73,5.73,5.73v-2.29ZM11.69,75.62c-1.26-1.2-2.98-2.38-5.05-2.38v2.29c1.19,0,2.37.69,3.47,1.74l1.58-1.66ZM27.73,73.24c-2.07,0-3.79,1.18-5.05,2.37l1.58,1.66c1.1-1.05,2.28-1.74,3.47-1.74v-2.29ZM175.32,38.87c1.9,0,3.44,1.54,3.44,3.44h2.29c0-3.16-2.57-5.73-5.73-5.73v2.29ZM24.26,40.61c1.1-1.05,2.28-1.74,3.47-1.74v-2.29c-2.07,0-3.79,1.18-5.05,2.37l1.58,1.66ZM5.73,36.58c-3.16,0-5.73,2.57-5.73,5.73h2.29c0-1.9,1.54-3.44,3.44-3.44v-2.29ZM178.76,69.81c0,1.9-1.54,3.44-3.44,3.44v2.29c3.16,0,5.73-2.57,5.73-5.73h-2.29ZM6.64,38.87c1.19,0,2.37.69,3.47,1.74l1.58-1.66c-1.26-1.2-2.98-2.38-5.05-2.38v2.29Z" style="fill: #3f76c9; stroke-width: 0px;"/>
        </g>
        <path d="M124.74,60.19h-.07c-.16.42-.41.75-.77.99-.35.24-.76.36-1.24.36-.91,0-1.61-.33-2.1-.98-.49-.66-.74-1.58-.74-2.76s.25-2.1.74-2.75c.5-.66,1.2-.99,2.1-.99.48,0,.89.12,1.24.36.36.23.61.56.77.99h.07v-4.21h1.5v10.18h-1.5v-1.18ZM123.12,60.24c.46,0,.84-.11,1.16-.33.31-.23.47-.53.47-.89v-2.45c0-.37-.16-.66-.47-.88-.31-.23-.7-.34-1.16-.34-.52,0-.94.17-1.25.51-.31.33-.47.77-.47,1.32v1.24c0,.55.16.99.47,1.33.31.33.73.5,1.25.5ZM131.19,61.53c-.51,0-.97-.09-1.38-.26-.4-.17-.75-.42-1.03-.74-.28-.33-.5-.72-.66-1.18-.15-.47-.22-.99-.22-1.55s.07-1.08.22-1.54c.16-.47.38-.86.66-1.18.28-.33.63-.58,1.03-.76.4-.17.86-.26,1.38-.26s.98.09,1.38.28c.4.18.74.44,1,.77.27.32.46.7.59,1.13.14.43.21.89.21,1.39v.56h-4.91v.23c0,.55.16,1,.48,1.36.33.35.8.52,1.4.52.44,0,.81-.1,1.11-.29.3-.19.56-.45.77-.78l.88.87c-.27.44-.65.79-1.15,1.06-.5.26-1.09.38-1.76.38ZM131.19,55.22c-.26,0-.5.05-.72.14-.21.09-.39.22-.55.38-.15.17-.26.36-.34.59-.08.23-.12.48-.12.76v.1h3.33v-.14c0-.55-.14-.99-.43-1.32-.28-.34-.67-.51-1.17-.51ZM142.29,62.04c0,.74-.28,1.3-.85,1.68-.57.38-1.49.56-2.78.56-.59,0-1.09-.04-1.5-.12-.4-.07-.74-.18-1-.33-.26-.15-.44-.33-.56-.54-.12-.21-.18-.45-.18-.73,0-.39.11-.7.32-.92.22-.22.52-.37.91-.45v-.15c-.54-.17-.81-.54-.81-1.1,0-.37.12-.65.37-.84.25-.2.55-.34.89-.43v-.05c-.42-.2-.75-.48-.98-.84-.22-.37-.33-.79-.33-1.28,0-.73.24-1.32.73-1.77.49-.45,1.2-.67,2.12-.67.5,0,.94.07,1.29.22v-.19c0-.32.07-.57.22-.74.16-.18.39-.28.72-.28h1.1v1.21h-1.46v.29c.32.21.57.49.74.83.17.33.26.7.26,1.11,0,.72-.25,1.31-.74,1.76-.49.44-1.2.66-2.12.66-.35,0-.66-.04-.94-.11-.18.06-.34.16-.48.28-.14.11-.21.26-.21.44,0,.19.09.33.26.41.17.08.42.12.74.12h1.76c.88,0,1.52.18,1.91.54.39.35.59.83.59,1.44ZM140.89,62.21c0-.25-.1-.44-.29-.59-.18-.15-.52-.22-1.02-.22h-2.42c-.33.19-.5.47-.5.83,0,.29.11.53.34.7.24.18.64.28,1.2.28h.93c1.16,0,1.75-.33,1.75-.99ZM138.65,57.84c.44,0,.78-.1,1.02-.29.25-.2.37-.51.37-.92v-.28c0-.41-.12-.72-.37-.91-.24-.2-.58-.3-1.02-.3s-.78.1-1.03.3c-.24.19-.36.5-.36.91v.28c0,.41.12.72.36.92.25.19.59.29,1.03.29ZM143.41,61.37v-7.15h1.5v1.38h.07c.1-.37.31-.69.63-.96.32-.27.77-.41,1.33-.41h.4v1.44h-.59c-.6,0-1.05.1-1.38.29-.31.19-.47.48-.47.85v4.57h-1.5ZM151.41,61.53c-.51,0-.97-.09-1.38-.26-.4-.17-.75-.42-1.03-.74-.28-.33-.5-.72-.66-1.18-.15-.47-.22-.99-.22-1.55s.07-1.08.22-1.54c.16-.47.38-.86.66-1.18.28-.33.63-.58,1.03-.76.4-.17.86-.26,1.38-.26s.98.09,1.38.28c.4.18.74.44,1,.77.27.32.46.7.59,1.13.14.43.21.89.21,1.39v.56h-4.91v.23c0,.55.16,1,.48,1.36.33.35.8.52,1.4.52.44,0,.81-.1,1.11-.29.3-.19.56-.45.77-.78l.88.87c-.27.44-.65.79-1.15,1.06-.5.26-1.09.38-1.76.38ZM151.41,55.22c-.26,0-.5.05-.72.14-.21.09-.39.22-.55.38-.15.17-.26.36-.34.59-.08.23-.12.48-.12.76v.1h3.33v-.14c0-.55-.14-.99-.43-1.32-.28-.34-.67-.51-1.17-.51ZM159.05,61.53c-.51,0-.97-.09-1.38-.26-.4-.17-.75-.42-1.03-.74-.28-.33-.5-.72-.66-1.18-.15-.47-.22-.99-.22-1.55s.07-1.08.22-1.54c.16-.47.38-.86.66-1.18.28-.33.63-.58,1.03-.76.4-.17.86-.26,1.38-.26s.98.09,1.38.28c.4.18.74.44,1,.77.27.32.46.7.59,1.13.14.43.21.89.21,1.39v.56h-4.91v.23c0,.55.16,1,.48,1.36.33.35.8.52,1.4.52.44,0,.81-.1,1.11-.29.3-.19.56-.45.77-.78l.88.87c-.27.44-.65.79-1.15,1.06-.5.26-1.09.38-1.76.38ZM159.05,55.22c-.26,0-.49.05-.72.14-.21.09-.39.22-.55.38-.15.17-.26.36-.34.59-.08.23-.12.48-.12.76v.1h3.33v-.14c0-.55-.14-.99-.43-1.32-.28-.34-.67-.51-1.17-.51ZM166.16,61.53c-.68,0-1.25-.12-1.71-.36-.46-.24-.86-.57-1.2-.99l.96-.88c.27.32.56.57.88.76.33.17.71.26,1.14.26s.77-.08.98-.25c.22-.17.33-.41.33-.72,0-.23-.08-.42-.23-.58-.15-.16-.41-.27-.78-.32l-.66-.08c-.73-.09-1.31-.3-1.73-.63-.41-.34-.62-.84-.62-1.5,0-.35.06-.66.19-.92.13-.28.31-.5.54-.69.24-.19.52-.34.84-.44.33-.1.69-.15,1.09-.15.64,0,1.16.1,1.57.3.41.2.78.48,1.1.84l-.92.88c-.18-.22-.43-.41-.73-.56-.29-.17-.63-.25-1.02-.25-.41,0-.72.08-.92.25-.19.16-.29.38-.29.65s.09.48.26.62c.17.14.45.24.84.3l.66.08c.79.12,1.36.35,1.72.7.37.34.55.8.55,1.38,0,.35-.07.66-.21.95-.13.27-.32.51-.56.72-.25.2-.55.36-.89.47-.35.11-.74.16-1.17.16Z" style="stroke-width: 0px;"/>
        <path d="M84.8,44.6h13.75c6.33,0,11.46,5.13,11.46,11.46h0c0,6.33-5.13,11.46-11.46,11.46h-13.75c-6.33,0-11.46-5.13-11.46-11.46h0c0-6.33,5.13-11.46,11.46-11.46Z" style="fill: #fcfaf3; stroke-width: 0px;"/>
        <path d="M63.02,53.19v4.58c0,.15-.06.3-.17.41-.11.11-.25.17-.41.17h-4.58c-.11,0-.22-.03-.32-.1-.09-.06-.17-.15-.21-.26-.04-.1-.05-.22-.03-.33.02-.11.08-.21.16-.29l1.88-1.88c-.89-.85-2.02-1.41-3.23-1.63-1.21-.22-2.46-.07-3.59.41-1.13.49-2.1,1.29-2.77,2.32-.68,1.03-1.04,2.23-1.04,3.47,0,.15-.06.3-.17.41s-.25.17-.41.17-.3-.06-.41-.17c-.11-.11-.17-.25-.17-.41,0-1.46.43-2.89,1.23-4.1.8-1.22,1.95-2.17,3.29-2.75,1.34-.57,2.82-.74,4.26-.48s2.76.94,3.82,1.94l1.9-1.9c.08-.08.18-.13.29-.16.11-.02.23-.01.33.03.1.04.19.12.26.21.06.09.1.21.1.32Z" style="stroke-width: 0px;"/>
        <path d="M13.37,61.37c-.52,0-.92-.13-1.18-.4-.27-.28-.4-.66-.4-1.16v-4.37h-1.11v-1.22h.61c.25,0,.42-.06.51-.17.1-.11.15-.29.15-.54v-1.25h1.35v1.95h1.5v1.22h-1.5v4.7h1.39v1.22h-1.31ZM20.74,60.19h-.06c-.06.17-.15.34-.26.51-.1.16-.23.31-.4.44-.16.12-.35.22-.58.29-.22.07-.48.11-.77.11-.74,0-1.32-.24-1.73-.72-.4-.48-.61-1.16-.61-2.05v-4.55h1.5v4.36c0,1.11.46,1.66,1.38,1.66.19,0,.38-.02.56-.07.18-.05.34-.13.48-.23.15-.1.26-.23.34-.39.09-.16.14-.34.14-.55v-4.79h1.5v7.15h-1.5v-1.18ZM24.38,61.37v-7.15h1.5v1.38h.07c.1-.37.31-.69.63-.96.32-.27.77-.41,1.33-.41h.4v1.44h-.59c-.6,0-1.05.1-1.38.29-.31.19-.47.48-.47.85v4.57h-1.5ZM29.65,61.37v-7.15h1.5v1.18h.07c.16-.39.39-.71.7-.96.32-.26.76-.39,1.31-.39.73,0,1.3.24,1.71.73.41.48.62,1.16.62,2.05v4.54h-1.5v-4.35c0-1.12-.45-1.68-1.35-1.68-.19,0-.38.03-.58.08-.18.05-.35.12-.5.22-.15.1-.27.23-.36.38-.08.16-.12.34-.12.55v4.79h-1.5Z" style="stroke-width: 0px;"/>
      </g>
      <path d="M90.73,54.7c0,.86-.13,1.66-.39,2.42-.26.76-.6,1.45-1.02,2.08-.42.63-.88,1.2-1.39,1.69s-1.01.9-1.51,1.22h-2.54c.68-.49,1.29-.95,1.83-1.4s1.01-.91,1.4-1.39c.41-.47.74-.97,1.02-1.49.27-.53.48-1.12.63-1.76l-.12-.03c-.12.24-.27.46-.44.68-.17.2-.37.38-.59.54s-.49.28-.78.37c-.29.09-.63.14-1,.14-.51,0-.98-.08-1.4-.25-.43-.17-.8-.41-1.12-.73-.32-.33-.56-.72-.74-1.17-.17-.45-.25-.96-.25-1.52s.1-1.12.29-1.61c.2-.5.49-.92.85-1.27.37-.35.82-.62,1.34-.81.52-.2,1.09-.3,1.73-.3s1.24.11,1.76.32c.53.21.98.52,1.34.93.36.39.64.87.83,1.44.19.56.29,1.2.29,1.91ZM86.53,56.26c.71,0,1.26-.19,1.66-.58.39-.39.59-.95.59-1.66v-.17c0-.71-.2-1.26-.59-1.64-.39-.39-.95-.59-1.66-.59s-1.28.2-1.68.59c-.39.38-.59.93-.59,1.64v.17c0,.71.2,1.26.59,1.66.39.38.95.58,1.68.58ZM96.69,62.32c-.74,0-1.39-.14-1.95-.41-.54-.28-.99-.68-1.35-1.2-.35-.52-.61-1.16-.78-1.91-.17-.76-.25-1.62-.25-2.59s.08-1.82.25-2.57c.17-.77.43-1.41.78-1.93.36-.52.81-.91,1.35-1.18.55-.28,1.2-.42,1.95-.42s1.39.14,1.93.42c.55.27,1,.67,1.35,1.18.36.52.63,1.16.8,1.93.17.76.25,1.61.25,2.57s-.08,1.83-.25,2.59c-.17.76-.43,1.39-.8,1.91-.35.52-.8.92-1.35,1.2-.54.27-1.18.41-1.93.41ZM96.69,60.76c.86,0,1.47-.32,1.83-.95.37-.64.56-1.51.56-2.59v-2.03c0-1.08-.19-1.94-.56-2.57-.36-.64-.97-.96-1.83-.96-.43,0-.8.08-1.1.25-.3.16-.55.39-.74.71-.19.3-.33.68-.42,1.12-.08.43-.12.91-.12,1.46v2.03c0,.54.04,1.03.12,1.47.09.43.23.8.42,1.12.19.3.44.54.74.71.3.16.67.24,1.1.24ZM96.69,57.2c-.39,0-.67-.08-.83-.24-.15-.16-.22-.35-.22-.58v-.37c0-.23.07-.42.22-.58.16-.16.43-.24.83-.24s.67.08.81.24c.16.16.24.35.24.58v.37c0,.23-.08.42-.24.58-.15.16-.42.24-.81.24Z" style="fill: #1b1b1b; stroke-width: 0px;"/>
    </g>
  </g>
</svg>