<svg width="171" height="71" viewBox="0 0 171 71" fill="none" xmlns="http://www.w3.org/2000/svg">
<path d="M85.4297 0.75C104.359 0.75004 115.692 4.46746 124.618 7.39551C127.542 8.35453 130.238 9.23949 132.854 9.87598C133.421 10.0137 133.997 10.0752 134.567 10.0752H163.96C167.412 10.0752 170.21 12.8734 170.21 16.3252V58.8623C170.21 62.3141 167.412 65.1123 163.96 65.1123H32.9639C30.239 65.1125 27.8398 66.7119 25.834 68.0479C24.056 69.232 21.7073 69.9639 19.1143 69.9639C15.8476 69.9638 12.9777 68.8038 11.1416 67.0498C10.0842 66.0396 8.66465 65.1123 7 65.1123C3.54822 65.1123 0.75 62.3141 0.75 58.8623V16.3252C0.75 12.8734 3.54822 10.0752 7 10.0752H36.4404C37.0089 10.0752 37.5836 10.0139 38.1484 9.87695C40.7945 9.23535 43.5082 8.34101 46.4492 7.37207C55.3246 4.44806 66.5479 0.75 85.4297 0.75Z" fill="#FFD06A" stroke="#FFB109" stroke-width="1.5"/>
<path d="M9.21458 25.3812H10.9106L11.7586 28.8692L12.5106 32.0212H12.5586L13.4226 28.8692L14.4306 25.3812H15.9986L17.0226 28.8692L17.9026 32.0212H17.9506L18.6866 28.8692L19.5506 25.3812H21.1666L18.9266 33.7012H16.9586L15.8706 29.9092L15.1986 27.5732H15.1666L14.5106 29.9092L13.4066 33.7012H11.4866L9.21458 25.3812ZM22.8278 21.8612H24.5718V26.7572H24.6518C24.8332 26.3092 25.1052 25.9358 25.4678 25.6372C25.8412 25.3385 26.3478 25.1892 26.9878 25.1892C27.8412 25.1892 28.5025 25.4718 28.9718 26.0372C29.4518 26.5918 29.6918 27.3865 29.6918 28.4212V33.7012H27.9478V28.6292C27.9478 27.3385 27.4252 26.6932 26.3798 26.6932C26.1558 26.6932 25.9318 26.7252 25.7078 26.7892C25.4945 26.8425 25.3025 26.9278 25.1318 27.0452C24.9612 27.1625 24.8225 27.3118 24.7158 27.4932C24.6198 27.6745 24.5718 27.8825 24.5718 28.1172V33.7012H22.8278V21.8612ZM35.3731 33.8932C34.7758 33.8932 34.2424 33.7918 33.7731 33.5892C33.3038 33.3865 32.9038 33.0985 32.5731 32.7252C32.2424 32.3412 31.9864 31.8825 31.8051 31.3492C31.6344 30.8052 31.5491 30.2025 31.5491 29.5412C31.5491 28.8798 31.6344 28.2825 31.8051 27.7492C31.9864 27.2052 32.2424 26.7465 32.5731 26.3732C32.9038 25.9892 33.3038 25.6958 33.7731 25.4932C34.2424 25.2905 34.7758 25.1892 35.3731 25.1892C35.9811 25.1892 36.5144 25.2958 36.9731 25.5092C37.4424 25.7225 37.8318 26.0212 38.1411 26.4052C38.4504 26.7785 38.6798 27.2158 38.8291 27.7172C38.9891 28.2185 39.0691 28.7572 39.0691 29.3332V29.9892H33.3571V30.2612C33.3571 30.9012 33.5438 31.4292 33.9171 31.8452C34.3011 32.2505 34.8451 32.4532 35.5491 32.4532C36.0611 32.4532 36.4931 32.3412 36.8451 32.1172C37.1971 31.8932 37.4958 31.5892 37.7411 31.2052L38.7651 32.2132C38.4558 32.7252 38.0078 33.1358 37.4211 33.4452C36.8344 33.7438 36.1518 33.8932 35.3731 33.8932ZM35.3731 26.5492C35.0744 26.5492 34.7971 26.6025 34.5411 26.7092C34.2958 26.8158 34.0824 26.9652 33.9011 27.1572C33.7304 27.3492 33.5971 27.5785 33.5011 27.8452C33.4051 28.1118 33.3571 28.4052 33.3571 28.7252V28.8372H37.2291V28.6772C37.2291 28.0372 37.0638 27.5252 36.7331 27.1412C36.4024 26.7465 35.9491 26.5492 35.3731 26.5492ZM40.9997 33.7012V25.3812H42.7437V26.7572H42.8237C43.005 26.3092 43.277 25.9358 43.6397 25.6372C44.013 25.3385 44.5197 25.1892 45.1597 25.1892C46.013 25.1892 46.6744 25.4718 47.1437 26.0372C47.6237 26.5918 47.8637 27.3865 47.8637 28.4212V33.7012H46.1197V28.6452C46.1197 27.3438 45.597 26.6932 44.5517 26.6932C44.3277 26.6932 44.1037 26.7252 43.8797 26.7892C43.6664 26.8425 43.4744 26.9278 43.3037 27.0452C43.133 27.1625 42.9944 27.3118 42.8877 27.4932C42.7917 27.6745 42.7437 27.8878 42.7437 28.1332V33.7012H40.9997ZM57.2782 33.8932C56.6809 33.8932 56.1475 33.7918 55.6782 33.5892C55.2089 33.3865 54.8142 33.0985 54.4942 32.7252C54.1742 32.3412 53.9289 31.8825 53.7582 31.3492C53.5875 30.8052 53.5022 30.2025 53.5022 29.5412C53.5022 28.8798 53.5875 28.2825 53.7582 27.7492C53.9289 27.2052 54.1742 26.7465 54.4942 26.3732C54.8142 25.9892 55.2089 25.6958 55.6782 25.4932C56.1475 25.2905 56.6809 25.1892 57.2782 25.1892C58.1102 25.1892 58.7929 25.3758 59.3262 25.7492C59.8595 26.1225 60.2489 26.6185 60.4942 27.2372L59.0542 27.9092C58.9369 27.5252 58.7289 27.2212 58.4302 26.9972C58.1422 26.7625 57.7582 26.6452 57.2782 26.6452C56.6382 26.6452 56.1529 26.8478 55.8222 27.2532C55.5022 27.6478 55.3422 28.1652 55.3422 28.8052V30.2932C55.3422 30.9332 55.5022 31.4558 55.8222 31.8612C56.1529 32.2558 56.6382 32.4532 57.2782 32.4532C57.7902 32.4532 58.1955 32.3305 58.4942 32.0852C58.8035 31.8292 59.0489 31.4932 59.2302 31.0772L60.5582 31.7812C60.2809 32.4638 59.8649 32.9865 59.3102 33.3492C58.7555 33.7118 58.0782 33.8932 57.2782 33.8932ZM62.2185 21.8612H63.9625V26.7572H64.0425C64.2238 26.3092 64.4958 25.9358 64.8585 25.6372C65.2318 25.3385 65.7385 25.1892 66.3785 25.1892C67.2318 25.1892 67.8931 25.4718 68.3625 26.0372C68.8425 26.5918 69.0825 27.3865 69.0825 28.4212V33.7012H67.3385V28.6292C67.3385 27.3385 66.8158 26.6932 65.7705 26.6932C65.5465 26.6932 65.3225 26.7252 65.0985 26.7892C64.8851 26.8425 64.6931 26.9278 64.5225 27.0452C64.3518 27.1625 64.2131 27.3118 64.1065 27.4932C64.0105 27.6745 63.9625 27.8825 63.9625 28.1172V33.7012H62.2185V21.8612ZM77.5957 33.7012C77.137 33.7012 76.785 33.5732 76.5397 33.3172C76.2944 33.0505 76.145 32.7145 76.0917 32.3092H76.0117C75.8517 32.8318 75.5584 33.2265 75.1317 33.4932C74.705 33.7598 74.1877 33.8932 73.5797 33.8932C72.7157 33.8932 72.049 33.6692 71.5797 33.2212C71.121 32.7732 70.8917 32.1705 70.8917 31.4132C70.8917 30.5812 71.1904 29.9572 71.7877 29.5412C72.3957 29.1252 73.281 28.9172 74.4437 28.9172H75.9477V28.2132C75.9477 27.7012 75.809 27.3065 75.5317 27.0292C75.2544 26.7518 74.8224 26.6132 74.2357 26.6132C73.745 26.6132 73.345 26.7198 73.0357 26.9332C72.7264 27.1465 72.465 27.4185 72.2517 27.7492L71.2117 26.8052C71.489 26.3358 71.8784 25.9518 72.3797 25.6532C72.881 25.3438 73.537 25.1892 74.3477 25.1892C75.425 25.1892 76.2517 25.4398 76.8277 25.9412C77.4037 26.4425 77.6917 27.1625 77.6917 28.1012V32.2772H78.5717V33.7012H77.5957ZM74.0757 32.5652C74.6197 32.5652 75.0677 32.4478 75.4197 32.2132C75.7717 31.9678 75.9477 31.6425 75.9477 31.2372V30.0372H74.4757C73.2704 30.0372 72.6677 30.4105 72.6677 31.1572V31.4452C72.6677 31.8185 72.7904 32.1012 73.0357 32.2932C73.2917 32.4745 73.6384 32.5652 74.0757 32.5652ZM80.281 33.7012V25.3812H82.025V26.9812H82.105C82.2223 26.5545 82.4676 26.1812 82.841 25.8612C83.2143 25.5412 83.7316 25.3812 84.393 25.3812H84.857V27.0612H84.169C83.4756 27.0612 82.9423 27.1732 82.569 27.3972C82.2063 27.6212 82.025 27.9518 82.025 28.3892V33.7012H80.281ZM92.377 33.7012C91.9183 33.7012 91.5663 33.5732 91.321 33.3172C91.0756 33.0505 90.9263 32.7145 90.873 32.3092H90.793C90.633 32.8318 90.3396 33.2265 89.913 33.4932C89.4863 33.7598 88.969 33.8932 88.361 33.8932C87.497 33.8932 86.8303 33.6692 86.361 33.2212C85.9023 32.7732 85.673 32.1705 85.673 31.4132C85.673 30.5812 85.9716 29.9572 86.569 29.5412C87.177 29.1252 88.0623 28.9172 89.225 28.9172H90.729V28.2132C90.729 27.7012 90.5903 27.3065 90.313 27.0292C90.0356 26.7518 89.6036 26.6132 89.017 26.6132C88.5263 26.6132 88.1263 26.7198 87.817 26.9332C87.5076 27.1465 87.2463 27.4185 87.033 27.7492L85.993 26.8052C86.2703 26.3358 86.6596 25.9518 87.161 25.6532C87.6623 25.3438 88.3183 25.1892 89.129 25.1892C90.2063 25.1892 91.033 25.4398 91.609 25.9412C92.185 26.4425 92.473 27.1625 92.473 28.1012V32.2772H93.353V33.7012H92.377ZM88.857 32.5652C89.401 32.5652 89.849 32.4478 90.201 32.2132C90.553 31.9678 90.729 31.6425 90.729 31.2372V30.0372H89.257C88.0516 30.0372 87.449 30.4105 87.449 31.1572V31.4452C87.449 31.8185 87.5716 32.1012 87.817 32.2932C88.073 32.4745 88.4196 32.5652 88.857 32.5652ZM98.2782 33.8932C97.6809 33.8932 97.1475 33.7918 96.6782 33.5892C96.2089 33.3865 95.8142 33.0985 95.4942 32.7252C95.1742 32.3412 94.9289 31.8825 94.7582 31.3492C94.5875 30.8052 94.5022 30.2025 94.5022 29.5412C94.5022 28.8798 94.5875 28.2825 94.7582 27.7492C94.9289 27.2052 95.1742 26.7465 95.4942 26.3732C95.8142 25.9892 96.2089 25.6958 96.6782 25.4932C97.1475 25.2905 97.6809 25.1892 98.2782 25.1892C99.1102 25.1892 99.7929 25.3758 100.326 25.7492C100.86 26.1225 101.249 26.6185 101.494 27.2372L100.054 27.9092C99.9369 27.5252 99.7289 27.2212 99.4302 26.9972C99.1422 26.7625 98.7582 26.6452 98.2782 26.6452C97.6382 26.6452 97.1529 26.8478 96.8222 27.2532C96.5022 27.6478 96.3422 28.1652 96.3422 28.8052V30.2932C96.3422 30.9332 96.5022 31.4558 96.8222 31.8612C97.1529 32.2558 97.6382 32.4532 98.2782 32.4532C98.7902 32.4532 99.1955 32.3305 99.4942 32.0852C99.8035 31.8292 100.049 31.4932 100.23 31.0772L101.558 31.7812C101.281 32.4638 100.865 32.9865 100.31 33.3492C99.7555 33.7118 99.0782 33.8932 98.2782 33.8932ZM105.522 33.7012C104.914 33.7012 104.456 33.5465 104.146 33.2372C103.837 32.9172 103.682 32.4692 103.682 31.8932V26.8052H102.386V25.3812H103.09C103.378 25.3812 103.576 25.3172 103.682 25.1892C103.8 25.0612 103.858 24.8532 103.858 24.5652V23.1092H105.426V25.3812H107.17V26.8052L105.426 26.8052V32.2772H107.042V33.7012H105.522ZM112.264 33.8932C111.666 33.8932 111.133 33.7918 110.664 33.5892C110.194 33.3865 109.794 33.0985 109.464 32.7252C109.133 32.3412 108.877 31.8825 108.696 31.3492C108.525 30.8052 108.44 30.2025 108.44 29.5412C108.44 28.8798 108.525 28.2825 108.696 27.7492C108.877 27.2052 109.133 26.7465 109.464 26.3732C109.794 25.9892 110.194 25.6958 110.664 25.4932C111.133 25.2905 111.666 25.1892 112.264 25.1892C112.872 25.1892 113.405 25.2958 113.864 25.5092C114.333 25.7225 114.722 26.0212 115.032 26.4052C115.341 26.7785 115.57 27.2158 115.72 27.7172C115.88 28.2185 115.96 28.7572 115.96 29.3332V29.9892H110.248V30.2612C110.248 30.9012 110.434 31.4292 110.808 31.8452C111.192 32.2505 111.736 32.4532 112.44 32.4532C112.952 32.4532 113.384 32.3412 113.736 32.1172C114.088 31.8932 114.386 31.5892 114.632 31.2052L115.656 32.2132C115.346 32.7252 114.898 33.1358 114.312 33.4452C113.725 33.7438 113.042 33.8932 112.264 33.8932ZM112.264 26.5492C111.965 26.5492 111.688 26.6025 111.432 26.7092C111.186 26.8158 110.973 26.9652 110.792 27.1572C110.621 27.3492 110.488 27.5785 110.392 27.8452C110.296 28.1118 110.248 28.4052 110.248 28.7252V28.8372H114.12V28.6772C114.12 28.0372 113.954 27.5252 113.624 27.1412C113.293 26.7465 112.84 26.5492 112.264 26.5492ZM117.89 33.7012V25.3812H119.634V26.9812H119.714C119.832 26.5545 120.077 26.1812 120.45 25.8612C120.824 25.5412 121.341 25.3812 122.002 25.3812H122.466V27.0612H121.778C121.085 27.0612 120.552 27.1732 120.178 27.3972C119.816 27.6212 119.634 27.9518 119.634 28.3892V33.7012H117.89ZM16.1426 52.7012C15.6839 52.7012 15.3319 52.5732 15.0866 52.3172C14.8413 52.0505 14.6919 51.7145 14.6386 51.3092H14.5586C14.3986 51.8318 14.1053 52.2265 13.6786 52.4932C13.2519 52.7598 12.7346 52.8932 12.1266 52.8932C11.2626 52.8932 10.5959 52.6692 10.1266 52.2212C9.66792 51.7732 9.43858 51.1705 9.43858 50.4132C9.43858 49.5812 9.73725 48.9572 10.3346 48.5412C10.9426 48.1252 11.8279 47.9172 12.9906 47.9172H14.4946V47.2132C14.4946 46.7012 14.3559 46.3065 14.0786 46.0292C13.8013 45.7518 13.3693 45.6132 12.7826 45.6132C12.2919 45.6132 11.8919 45.7198 11.5826 45.9332C11.2733 46.1465 11.0119 46.4185 10.7986 46.7492L9.75858 45.8052C10.0359 45.3358 10.4253 44.9518 10.9266 44.6532C11.4279 44.3438 12.0839 44.1892 12.8946 44.1892C13.9719 44.1892 14.7986 44.4398 15.3746 44.9412C15.9506 45.4425 16.2386 46.1625 16.2386 47.1012V51.2772H17.1186V52.7012H16.1426ZM12.6226 51.5652C13.1666 51.5652 13.6146 51.4478 13.9666 51.2132C14.3186 50.9678 14.4946 50.6425 14.4946 50.2372V49.0372H13.0226C11.8173 49.0372 11.2146 49.4105 11.2146 50.1572V50.4452C11.2146 50.8185 11.3373 51.1012 11.5826 51.2932C11.8386 51.4745 12.1853 51.5652 12.6226 51.5652ZM18.8278 52.7012V44.3812H20.5718V45.7572H20.6518C20.8332 45.3092 21.1052 44.9358 21.4678 44.6372C21.8412 44.3385 22.3478 44.1892 22.9878 44.1892C23.8412 44.1892 24.5025 44.4718 24.9718 45.0372C25.4518 45.5918 25.6918 46.3865 25.6918 47.4212V52.7012H23.9478V47.6452C23.9478 46.3438 23.4252 45.6932 22.3798 45.6932C22.1558 45.6932 21.9318 45.7252 21.7078 45.7892C21.4945 45.8425 21.3025 45.9278 21.1318 46.0452C20.9612 46.1625 20.8225 46.3118 20.7158 46.4932C20.6198 46.6745 20.5718 46.8878 20.5718 47.1332V52.7012H18.8278ZM33.3411 51.3252H33.2611C33.0798 51.8158 32.7811 52.1998 32.3651 52.4772C31.9598 52.7545 31.4798 52.8932 30.9251 52.8932C29.8691 52.8932 29.0531 52.5145 28.4771 51.7572C27.9011 50.9892 27.6131 49.9172 27.6131 48.5412C27.6131 47.1652 27.9011 46.0985 28.4771 45.3412C29.0531 44.5732 29.8691 44.1892 30.9251 44.1892C31.4798 44.1892 31.9598 44.3278 32.3651 44.6052C32.7811 44.8718 33.0798 45.2558 33.2611 45.7572H33.3411V40.8612H35.0851V52.7012H33.3411V51.3252ZM31.4531 51.3892C31.9864 51.3892 32.4344 51.2612 32.7971 51.0052C33.1598 50.7385 33.3411 50.3918 33.3411 49.9652V47.1172C33.3411 46.6905 33.1598 46.3492 32.7971 46.0932C32.4344 45.8265 31.9864 45.6932 31.4531 45.6932C30.8451 45.6932 30.3598 45.8905 29.9971 46.2852C29.6344 46.6692 29.4531 47.1812 29.4531 47.8212V49.2612C29.4531 49.9012 29.6344 50.4185 29.9971 50.8132C30.3598 51.1972 30.8451 51.3892 31.4531 51.3892ZM44.6231 52.8932C44.0471 52.8932 43.5191 52.7918 43.0391 52.5892C42.5698 52.3865 42.1698 52.0985 41.8391 51.7252C41.5084 51.3412 41.2524 50.8825 41.0711 50.3492C40.8898 49.8052 40.7991 49.2025 40.7991 48.5412C40.7991 47.8798 40.8898 47.2825 41.0711 46.7492C41.2524 46.2052 41.5084 45.7465 41.8391 45.3732C42.1698 44.9892 42.5698 44.6958 43.0391 44.4932C43.5191 44.2905 44.0471 44.1892 44.6231 44.1892C45.1991 44.1892 45.7218 44.2905 46.1911 44.4932C46.6711 44.6958 47.0764 44.9892 47.4071 45.3732C47.7378 45.7465 47.9938 46.2052 48.1751 46.7492C48.3564 47.2825 48.4471 47.8798 48.4471 48.5412C48.4471 49.2025 48.3564 49.8052 48.1751 50.3492C47.9938 50.8825 47.7378 51.3412 47.4071 51.7252C47.0764 52.0985 46.6711 52.3865 46.1911 52.5892C45.7218 52.7918 45.1991 52.8932 44.6231 52.8932ZM44.6231 51.4532C45.2204 51.4532 45.7004 51.2718 46.0631 50.9092C46.4258 50.5358 46.6071 49.9812 46.6071 49.2452V47.8372C46.6071 47.1012 46.4258 46.5518 46.0631 46.1892C45.7004 45.8158 45.2204 45.6292 44.6231 45.6292C44.0258 45.6292 43.5458 45.8158 43.1831 46.1892C42.8204 46.5518 42.6391 47.1012 42.6391 47.8372V49.2452C42.6391 49.9812 42.8204 50.5358 43.1831 50.9092C43.5458 51.2718 44.0258 51.4532 44.6231 51.4532ZM50.3903 40.8612H52.1343V45.7572H52.2143C52.3957 45.2558 52.689 44.8718 53.0943 44.6052C53.5103 44.3278 53.9957 44.1892 54.5503 44.1892C55.6063 44.1892 56.4223 44.5732 56.9983 45.3412C57.5743 46.0985 57.8623 47.1652 57.8623 48.5412C57.8623 49.9172 57.5743 50.9892 56.9983 51.7572C56.4223 52.5145 55.6063 52.8932 54.5503 52.8932C53.9957 52.8932 53.5103 52.7545 53.0943 52.4772C52.689 52.1998 52.3957 51.8158 52.2143 51.3252H52.1343V52.7012H50.3903V40.8612ZM54.0223 51.3892C54.6303 51.3892 55.1157 51.1972 55.4783 50.8132C55.841 50.4185 56.0223 49.9012 56.0223 49.2612V47.8212C56.0223 47.1812 55.841 46.6692 55.4783 46.2852C55.1157 45.8905 54.6303 45.6932 54.0223 45.6932C53.489 45.6932 53.041 45.8265 52.6783 46.0932C52.3157 46.3492 52.1343 46.6905 52.1343 47.1172V49.9652C52.1343 50.3918 52.3157 50.7385 52.6783 51.0052C53.041 51.2612 53.489 51.3892 54.0223 51.3892ZM59.8591 44.3812H61.6031V53.8212C61.6031 54.4612 61.4378 54.9678 61.1071 55.3412C60.7871 55.7145 60.2751 55.9012 59.5711 55.9012H58.5631V54.4772H59.8591V44.3812ZM60.7391 42.8932C60.3764 42.8932 60.1098 42.8078 59.9391 42.6372C59.7791 42.4665 59.6991 42.2478 59.6991 41.9812V41.7092C59.6991 41.4425 59.7791 41.2238 59.9391 41.0532C60.1098 40.8825 60.3764 40.7972 60.7391 40.7972C61.1018 40.7972 61.3631 40.8825 61.5231 41.0532C61.6831 41.2238 61.7631 41.4425 61.7631 41.7092V41.9812C61.7631 42.2478 61.6831 42.4665 61.5231 42.6372C61.3631 42.8078 61.1018 42.8932 60.7391 42.8932ZM67.3575 52.8932C66.7601 52.8932 66.2268 52.7918 65.7575 52.5892C65.2881 52.3865 64.8881 52.0985 64.5575 51.7252C64.2268 51.3412 63.9708 50.8825 63.7895 50.3492C63.6188 49.8052 63.5335 49.2025 63.5335 48.5412C63.5335 47.8798 63.6188 47.2825 63.7895 46.7492C63.9708 46.2052 64.2268 45.7465 64.5575 45.3732C64.8881 44.9892 65.2881 44.6958 65.7575 44.4932C66.2268 44.2905 66.7601 44.1892 67.3575 44.1892C67.9655 44.1892 68.4988 44.2958 68.9575 44.5092C69.4268 44.7225 69.8161 45.0212 70.1255 45.4052C70.4348 45.7785 70.6641 46.2158 70.8135 46.7172C70.9735 47.2185 71.0535 47.7572 71.0535 48.3332V48.9892H65.3415V49.2612C65.3415 49.9012 65.5281 50.4292 65.9015 50.8452C66.2855 51.2505 66.8295 51.4532 67.5335 51.4532C68.0455 51.4532 68.4775 51.3412 68.8295 51.1172C69.1815 50.8932 69.4801 50.5892 69.7255 50.2052L70.7495 51.2132C70.4401 51.7252 69.9921 52.1358 69.4055 52.4452C68.8188 52.7438 68.1361 52.8932 67.3575 52.8932ZM67.3575 45.5492C67.0588 45.5492 66.7815 45.6025 66.5255 45.7092C66.2801 45.8158 66.0668 45.9652 65.8855 46.1572C65.7148 46.3492 65.5815 46.5785 65.4855 46.8452C65.3895 47.1118 65.3415 47.4052 65.3415 47.7252V47.8372H69.2135V47.6772C69.2135 47.0372 69.0481 46.5252 68.7175 46.1412C68.3868 45.7465 67.9335 45.5492 67.3575 45.5492ZM76.2001 52.8932C75.6028 52.8932 75.0694 52.7918 74.6001 52.5892C74.1308 52.3865 73.7361 52.0985 73.4161 51.7252C73.0961 51.3412 72.8508 50.8825 72.6801 50.3492C72.5094 49.8052 72.4241 49.2025 72.4241 48.5412C72.4241 47.8798 72.5094 47.2825 72.6801 46.7492C72.8508 46.2052 73.0961 45.7465 73.4161 45.3732C73.7361 44.9892 74.1308 44.6958 74.6001 44.4932C75.0694 44.2905 75.6028 44.1892 76.2001 44.1892C77.0321 44.1892 77.7148 44.3758 78.2481 44.7492C78.7814 45.1225 79.1708 45.6185 79.4161 46.2372L77.9761 46.9092C77.8588 46.5252 77.6508 46.2212 77.3521 45.9972C77.0641 45.7625 76.6801 45.6452 76.2001 45.6452C75.5601 45.6452 75.0748 45.8478 74.7441 46.2532C74.4241 46.6478 74.2641 47.1652 74.2641 47.8052V49.2932C74.2641 49.9332 74.4241 50.4558 74.7441 50.8612C75.0748 51.2558 75.5601 51.4532 76.2001 51.4532C76.7121 51.4532 77.1174 51.3305 77.4161 51.0852C77.7254 50.8292 77.9708 50.4932 78.1521 50.0772L79.4801 50.7812C79.2028 51.4638 78.7868 51.9865 78.2321 52.3492C77.6774 52.7118 77.0001 52.8932 76.2001 52.8932ZM83.4443 52.7012C82.8363 52.7012 82.3777 52.5465 82.0683 52.2372C81.759 51.9172 81.6043 51.4692 81.6043 50.8932V45.8052H80.3083V44.3812H81.0123C81.3003 44.3812 81.4977 44.3172 81.6043 44.1892C81.7217 44.0612 81.7803 43.8532 81.7803 43.5652V42.1092H83.3483V44.3812H85.0923V45.8052H83.3483V51.2772H84.9643V52.7012H83.4443ZM93.9813 52.8932C93.384 52.8932 92.8507 52.7918 92.3813 52.5892C91.912 52.3865 91.5173 52.0985 91.1973 51.7252C90.8773 51.3412 90.632 50.8825 90.4613 50.3492C90.2907 49.8052 90.2053 49.2025 90.2053 48.5412C90.2053 47.8798 90.2907 47.2825 90.4613 46.7492C90.632 46.2052 90.8773 45.7465 91.1973 45.3732C91.5173 44.9892 91.912 44.6958 92.3813 44.4932C92.8507 44.2905 93.384 44.1892 93.9813 44.1892C94.8133 44.1892 95.496 44.3758 96.0293 44.7492C96.5627 45.1225 96.952 45.6185 97.1973 46.2372L95.7573 46.9092C95.64 46.5252 95.432 46.2212 95.1333 45.9972C94.8453 45.7625 94.4613 45.6452 93.9813 45.6452C93.3413 45.6452 92.856 45.8478 92.5253 46.2532C92.2053 46.6478 92.0453 47.1652 92.0453 47.8052V49.2932C92.0453 49.9332 92.2053 50.4558 92.5253 50.8612C92.856 51.2558 93.3413 51.4532 93.9813 51.4532C94.4933 51.4532 94.8987 51.3305 95.1973 51.0852C95.5067 50.8292 95.752 50.4932 95.9333 50.0772L97.2613 50.7812C96.984 51.4638 96.568 51.9865 96.0133 52.3492C95.4587 52.7118 94.7813 52.8932 93.9813 52.8932ZM102.092 52.8932C101.516 52.8932 100.988 52.7918 100.508 52.5892C100.039 52.3865 99.6385 52.0985 99.3078 51.7252C98.9772 51.3412 98.7212 50.8825 98.5398 50.3492C98.3585 49.8052 98.2678 49.2025 98.2678 48.5412C98.2678 47.8798 98.3585 47.2825 98.5398 46.7492C98.7212 46.2052 98.9772 45.7465 99.3078 45.3732C99.6385 44.9892 100.039 44.6958 100.508 44.4932C100.988 44.2905 101.516 44.1892 102.092 44.1892C102.668 44.1892 103.191 44.2905 103.66 44.4932C104.14 44.6958 104.545 44.9892 104.876 45.3732C105.207 45.7465 105.463 46.2052 105.644 46.7492C105.825 47.2825 105.916 47.8798 105.916 48.5412C105.916 49.2025 105.825 49.8052 105.644 50.3492C105.463 50.8825 105.207 51.3412 104.876 51.7252C104.545 52.0985 104.14 52.3865 103.66 52.5892C103.191 52.7918 102.668 52.8932 102.092 52.8932ZM102.092 51.4532C102.689 51.4532 103.169 51.2718 103.532 50.9092C103.895 50.5358 104.076 49.9812 104.076 49.2452V47.8372C104.076 47.1012 103.895 46.5518 103.532 46.1892C103.169 45.8158 102.689 45.6292 102.092 45.6292C101.495 45.6292 101.015 45.8158 100.652 46.1892C100.289 46.5518 100.108 47.1012 100.108 47.8372V49.2452C100.108 49.9812 100.289 50.5358 100.652 50.9092C101.015 51.2718 101.495 51.4532 102.092 51.4532ZM109.635 52.7012C109.038 52.7012 108.59 52.5518 108.291 52.2532C108.003 51.9438 107.859 51.5172 107.859 50.9732V40.8612H109.603V51.2772H110.755V52.7012H109.635ZM114.104 52.7012C113.507 52.7012 113.059 52.5518 112.76 52.2532C112.472 51.9438 112.328 51.5172 112.328 50.9732V40.8612H114.072V51.2772H115.224V52.7012H114.104ZM117.77 42.8932C117.408 42.8932 117.141 42.8078 116.97 42.6372C116.81 42.4665 116.73 42.2478 116.73 41.9812V41.7092C116.73 41.4425 116.81 41.2238 116.97 41.0532C117.141 40.8825 117.408 40.7972 117.77 40.7972C118.133 40.7972 118.394 40.8825 118.554 41.0532C118.714 41.2238 118.794 41.4425 118.794 41.7092V41.9812C118.794 42.2478 118.714 42.4665 118.554 42.6372C118.394 42.8078 118.133 42.8932 117.77 42.8932ZM116.89 44.3812H118.634V52.7012H116.89V44.3812ZM126.357 51.3252H126.277C126.095 51.8158 125.797 52.1998 125.381 52.4772C124.975 52.7545 124.495 52.8932 123.941 52.8932C122.885 52.8932 122.069 52.5145 121.493 51.7572C120.917 50.9892 120.629 49.9172 120.629 48.5412C120.629 47.1652 120.917 46.0985 121.493 45.3412C122.069 44.5732 122.885 44.1892 123.941 44.1892C124.495 44.1892 124.975 44.3278 125.381 44.6052C125.797 44.8718 126.095 45.2558 126.277 45.7572H126.357V40.8612H128.101V52.7012H126.357V51.3252ZM124.469 51.3892C125.002 51.3892 125.45 51.2612 125.813 51.0052C126.175 50.7385 126.357 50.3918 126.357 49.9652V47.1172C126.357 46.6905 126.175 46.3492 125.813 46.0932C125.45 45.8265 125.002 45.6932 124.469 45.6932C123.861 45.6932 123.375 45.8905 123.013 46.2852C122.65 46.6692 122.469 47.1812 122.469 47.8212V49.2612C122.469 49.9012 122.65 50.4185 123.013 50.8132C123.375 51.1972 123.861 51.3892 124.469 51.3892ZM133.857 52.8932C133.26 52.8932 132.727 52.7918 132.257 52.5892C131.788 52.3865 131.388 52.0985 131.057 51.7252C130.727 51.3412 130.471 50.8825 130.289 50.3492C130.119 49.8052 130.033 49.2025 130.033 48.5412C130.033 47.8798 130.119 47.2825 130.289 46.7492C130.471 46.2052 130.727 45.7465 131.057 45.3732C131.388 44.9892 131.788 44.6958 132.257 44.4932C132.727 44.2905 133.26 44.1892 133.857 44.1892C134.465 44.1892 134.999 44.2958 135.457 44.5092C135.927 44.7225 136.316 45.0212 136.625 45.4052C136.935 45.7785 137.164 46.2158 137.313 46.7172C137.473 47.2185 137.553 47.7572 137.553 48.3332V48.9892H131.841V49.2612C131.841 49.9012 132.028 50.4292 132.401 50.8452C132.785 51.2505 133.329 51.4532 134.033 51.4532C134.545 51.4532 134.977 51.3412 135.329 51.1172C135.681 50.8932 135.98 50.5892 136.225 50.2052L137.249 51.2132C136.94 51.7252 136.492 52.1358 135.905 52.4452C135.319 52.7438 134.636 52.8932 133.857 52.8932ZM133.857 45.5492C133.559 45.5492 133.281 45.6025 133.025 45.7092C132.78 45.8158 132.567 45.9652 132.385 46.1572C132.215 46.3492 132.081 46.5785 131.985 46.8452C131.889 47.1118 131.841 47.4052 131.841 47.7252V47.8372H135.713V47.6772C135.713 47.0372 135.548 46.5252 135.217 46.1412C134.887 45.7465 134.433 45.5492 133.857 45.5492Z" fill="#181818"/>
</svg>
