<svg width="171" height="71" viewBox="0 0 171 71" fill="none" xmlns="http://www.w3.org/2000/svg">
<path d="M85.4297 0.75C104.359 0.75004 115.692 4.46746 124.618 7.39551C127.542 8.35453 130.238 9.23949 132.854 9.87598C133.421 10.0137 133.997 10.0752 134.567 10.0752H163.96C167.412 10.0752 170.21 12.8734 170.21 16.3252V58.8623C170.21 62.3141 167.412 65.1123 163.96 65.1123H32.9639C30.239 65.1125 27.8398 66.7119 25.834 68.0479C24.056 69.232 21.7073 69.9639 19.1143 69.9639C15.8476 69.9638 12.9777 68.8038 11.1416 67.0498C10.0842 66.0396 8.66465 65.1123 7 65.1123C3.54822 65.1123 0.75 62.3141 0.75 58.8623V16.3252C0.75 12.8734 3.54822 10.0752 7 10.0752H36.4404C37.0089 10.0752 37.5836 10.0139 38.1484 9.87695C40.7945 9.23535 43.5082 8.34101 46.4492 7.37207C55.3246 4.44806 66.5479 0.75 85.4297 0.75Z" fill="#FFD06A" stroke="#FFB109" stroke-width="1.5"/>
<path d="M9.21458 25.3812H10.9106L11.7586 28.8692L12.5106 32.0212H12.5586L13.4226 28.8692L14.4306 25.3812H15.9986L17.0226 28.8692L17.9026 32.0212H17.9506L18.6866 28.8692L19.5506 25.3812H21.1666L18.9266 33.7012H16.9586L15.8706 29.9092L15.1986 27.5732H15.1666L14.5106 29.9092L13.4066 33.7012H11.4866L9.21458 25.3812ZM22.8278 21.8612H24.5718V26.7572H24.6518C24.8332 26.3092 25.1052 25.9358 25.4678 25.6372C25.8412 25.3385 26.3478 25.1892 26.9878 25.1892C27.8412 25.1892 28.5025 25.4718 28.9718 26.0372C29.4518 26.5918 29.6918 27.3865 29.6918 28.4212V33.7012H27.9478V28.6292C27.9478 27.3385 27.4252 26.6932 26.3798 26.6932C26.1558 26.6932 25.9318 26.7252 25.7078 26.7892C25.4945 26.8425 25.3025 26.9278 25.1318 27.0452C24.9612 27.1625 24.8225 27.3118 24.7158 27.4932C24.6198 27.6745 24.5718 27.8825 24.5718 28.1172V33.7012H22.8278V21.8612ZM35.3731 33.8932C34.7758 33.8932 34.2424 33.7918 33.7731 33.5892C33.3038 33.3865 32.9038 33.0985 32.5731 32.7252C32.2424 32.3412 31.9864 31.8825 31.8051 31.3492C31.6344 30.8052 31.5491 30.2025 31.5491 29.5412C31.5491 28.8798 31.6344 28.2825 31.8051 27.7492C31.9864 27.2052 32.2424 26.7465 32.5731 26.3732C32.9038 25.9892 33.3038 25.6958 33.7731 25.4932C34.2424 25.2905 34.7758 25.1892 35.3731 25.1892C35.9811 25.1892 36.5144 25.2958 36.9731 25.5092C37.4424 25.7225 37.8318 26.0212 38.1411 26.4052C38.4504 26.7785 38.6798 27.2158 38.8291 27.7172C38.9891 28.2185 39.0691 28.7572 39.0691 29.3332V29.9892H33.3571V30.2612C33.3571 30.9012 33.5438 31.4292 33.9171 31.8452C34.3011 32.2505 34.8451 32.4532 35.5491 32.4532C36.0611 32.4532 36.4931 32.3412 36.8451 32.1172C37.1971 31.8932 37.4958 31.5892 37.7411 31.2052L38.7651 32.2132C38.4558 32.7252 38.0078 33.1358 37.4211 33.4452C36.8344 33.7438 36.1518 33.8932 35.3731 33.8932ZM35.3731 26.5492C35.0744 26.5492 34.7971 26.6025 34.5411 26.7092C34.2958 26.8158 34.0824 26.9652 33.9011 27.1572C33.7304 27.3492 33.5971 27.5785 33.5011 27.8452C33.4051 28.1118 33.3571 28.4052 33.3571 28.7252V28.8372H37.2291V28.6772C37.2291 28.0372 37.0638 27.5252 36.7331 27.1412C36.4024 26.7465 35.9491 26.5492 35.3731 26.5492ZM40.9997 33.7012V25.3812H42.7437V26.7572H42.8237C43.005 26.3092 43.277 25.9358 43.6397 25.6372C44.013 25.3385 44.5197 25.1892 45.1597 25.1892C46.013 25.1892 46.6744 25.4718 47.1437 26.0372C47.6237 26.5918 47.8637 27.3865 47.8637 28.4212V33.7012H46.1197V28.6452C46.1197 27.3438 45.597 26.6932 44.5517 26.6932C44.3277 26.6932 44.1037 26.7252 43.8797 26.7892C43.6664 26.8425 43.4744 26.9278 43.3037 27.0452C43.133 27.1625 42.9944 27.3118 42.8877 27.4932C42.7917 27.6745 42.7437 27.8878 42.7437 28.1332V33.7012H40.9997ZM57.2782 33.8932C56.6809 33.8932 56.1475 33.7918 55.6782 33.5892C55.2089 33.3865 54.8142 33.0985 54.4942 32.7252C54.1742 32.3412 53.9289 31.8825 53.7582 31.3492C53.5875 30.8052 53.5022 30.2025 53.5022 29.5412C53.5022 28.8798 53.5875 28.2825 53.7582 27.7492C53.9289 27.2052 54.1742 26.7465 54.4942 26.3732C54.8142 25.9892 55.2089 25.6958 55.6782 25.4932C56.1475 25.2905 56.6809 25.1892 57.2782 25.1892C58.1102 25.1892 58.7929 25.3758 59.3262 25.7492C59.8595 26.1225 60.2489 26.6185 60.4942 27.2372L59.0542 27.9092C58.9369 27.5252 58.7289 27.2212 58.4302 26.9972C58.1422 26.7625 57.7582 26.6452 57.2782 26.6452C56.6382 26.6452 56.1529 26.8478 55.8222 27.2532C55.5022 27.6478 55.3422 28.1652 55.3422 28.8052V30.2932C55.3422 30.9332 55.5022 31.4558 55.8222 31.8612C56.1529 32.2558 56.6382 32.4532 57.2782 32.4532C57.7902 32.4532 58.1955 32.3305 58.4942 32.0852C58.8035 31.8292 59.0489 31.4932 59.2302 31.0772L60.5582 31.7812C60.2809 32.4638 59.8649 32.9865 59.3102 33.3492C58.7555 33.7118 58.0782 33.8932 57.2782 33.8932ZM62.2185 21.8612H63.9625V26.7572H64.0425C64.2238 26.3092 64.4958 25.9358 64.8585 25.6372C65.2318 25.3385 65.7385 25.1892 66.3785 25.1892C67.2318 25.1892 67.8931 25.4718 68.3625 26.0372C68.8425 26.5918 69.0825 27.3865 69.0825 28.4212V33.7012H67.3385V28.6292C67.3385 27.3385 66.8158 26.6932 65.7705 26.6932C65.5465 26.6932 65.3225 26.7252 65.0985 26.7892C64.8851 26.8425 64.6931 26.9278 64.5225 27.0452C64.3518 27.1625 64.2131 27.3118 64.1065 27.4932C64.0105 27.6745 63.9625 27.8825 63.9625 28.1172V33.7012H62.2185V21.8612ZM77.5957 33.7012C77.137 33.7012 76.785 33.5732 76.5397 33.3172C76.2944 33.0505 76.145 32.7145 76.0917 32.3092H76.0117C75.8517 32.8318 75.5584 33.2265 75.1317 33.4932C74.705 33.7598 74.1877 33.8932 73.5797 33.8932C72.7157 33.8932 72.049 33.6692 71.5797 33.2212C71.121 32.7732 70.8917 32.1705 70.8917 31.4132C70.8917 30.5812 71.1904 29.9572 71.7877 29.5412C72.3957 29.1252 73.281 28.9172 74.4437 28.9172H75.9477V28.2132C75.9477 27.7012 75.809 27.3065 75.5317 27.0292C75.2544 26.7518 74.8224 26.6132 74.2357 26.6132C73.745 26.6132 73.345 26.7198 73.0357 26.9332C72.7264 27.1465 72.465 27.4185 72.2517 27.7492L71.2117 26.8052C71.489 26.3358 71.8784 25.9518 72.3797 25.6532C72.881 25.3438 73.537 25.1892 74.3477 25.1892C75.425 25.1892 76.2517 25.4398 76.8277 25.9412C77.4037 26.4425 77.6917 27.1625 77.6917 28.1012V32.2772H78.5717V33.7012H77.5957ZM74.0757 32.5652C74.6197 32.5652 75.0677 32.4478 75.4197 32.2132C75.7717 31.9678 75.9477 31.6425 75.9477 31.2372V30.0372H74.4757C73.2704 30.0372 72.6677 30.4105 72.6677 31.1572V31.4452C72.6677 31.8185 72.7904 32.1012 73.0357 32.2932C73.2917 32.4745 73.6384 32.5652 74.0757 32.5652ZM80.281 33.7012V25.3812H82.025V26.9812H82.105C82.2223 26.5545 82.4676 26.1812 82.841 25.8612C83.2143 25.5412 83.7316 25.3812 84.393 25.3812H84.857V27.0612H84.169C83.4756 27.0612 82.9423 27.1732 82.569 27.3972C82.2063 27.6212 82.025 27.9518 82.025 28.3892V33.7012H80.281ZM92.377 33.7012C91.9183 33.7012 91.5663 33.5732 91.321 33.3172C91.0756 33.0505 90.9263 32.7145 90.873 32.3092H90.793C90.633 32.8318 90.3396 33.2265 89.913 33.4932C89.4863 33.7598 88.969 33.8932 88.361 33.8932C87.497 33.8932 86.8303 33.6692 86.361 33.2212C85.9023 32.7732 85.673 32.1705 85.673 31.4132C85.673 30.5812 85.9716 29.9572 86.569 29.5412C87.177 29.1252 88.0623 28.9172 89.225 28.9172H90.729V28.2132C90.729 27.7012 90.5903 27.3065 90.313 27.0292C90.0356 26.7518 89.6036 26.6132 89.017 26.6132C88.5263 26.6132 88.1263 26.7198 87.817 26.9332C87.5076 27.1465 87.2463 27.4185 87.033 27.7492L85.993 26.8052C86.2703 26.3358 86.6596 25.9518 87.161 25.6532C87.6623 25.3438 88.3183 25.1892 89.129 25.1892C90.2063 25.1892 91.033 25.4398 91.609 25.9412C92.185 26.4425 92.473 27.1625 92.473 28.1012V32.2772H93.353V33.7012H92.377ZM88.857 32.5652C89.401 32.5652 89.849 32.4478 90.201 32.2132C90.553 31.9678 90.729 31.6425 90.729 31.2372V30.0372H89.257C88.0516 30.0372 87.449 30.4105 87.449 31.1572V31.4452C87.449 31.8185 87.5716 32.1012 87.817 32.2932C88.073 32.4745 88.4196 32.5652 88.857 32.5652ZM98.2782 33.8932C97.6809 33.8932 97.1475 33.7918 96.6782 33.5892C96.2089 33.3865 95.8142 33.0985 95.4942 32.7252C95.1742 32.3412 94.9289 31.8825 94.7582 31.3492C94.5875 30.8052 94.5022 30.2025 94.5022 29.5412C94.5022 28.8798 94.5875 28.2825 94.7582 27.7492C94.9289 27.2052 95.1742 26.7465 95.4942 26.3732C95.8142 25.9892 96.2089 25.6958 96.6782 25.4932C97.1475 25.2905 97.6809 25.1892 98.2782 25.1892C99.1102 25.1892 99.7929 25.3758 100.326 25.7492C100.86 26.1225 101.249 26.6185 101.494 27.2372L100.054 27.9092C99.9369 27.5252 99.7289 27.2212 99.4302 26.9972C99.1422 26.7625 98.7582 26.6452 98.2782 26.6452C97.6382 26.6452 97.1529 26.8478 96.8222 27.2532C96.5022 27.6478 96.3422 28.1652 96.3422 28.8052V30.2932C96.3422 30.9332 96.5022 31.4558 96.8222 31.8612C97.1529 32.2558 97.6382 32.4532 98.2782 32.4532C98.7902 32.4532 99.1955 32.3305 99.4942 32.0852C99.8035 31.8292 100.049 31.4932 100.23 31.0772L101.558 31.7812C101.281 32.4638 100.865 32.9865 100.31 33.3492C99.7555 33.7118 99.0782 33.8932 98.2782 33.8932ZM105.522 33.7012C104.914 33.7012 104.456 33.5465 104.146 33.2372C103.837 32.9172 103.682 32.4692 103.682 31.8932V26.8052H102.386V25.3812H103.09C103.378 25.3812 103.576 25.3172 103.682 25.1892C103.8 25.0612 103.858 24.8532 103.858 24.5652V23.1092H105.426V25.3812H107.17V26.8052L105.426 26.8052V32.2772H107.042V33.7012H105.522ZM112.264 33.8932C111.666 33.8932 111.133 33.7918 110.664 33.5892C110.194 33.3865 109.794 33.0985 109.464 32.7252C109.133 32.3412 108.877 31.8825 108.696 31.3492C108.525 30.8052 108.44 30.2025 108.44 29.5412C108.44 28.8798 108.525 28.2825 108.696 27.7492C108.877 27.2052 109.133 26.7465 109.464 26.3732C109.794 25.9892 110.194 25.6958 110.664 25.4932C111.133 25.2905 111.666 25.1892 112.264 25.1892C112.872 25.1892 113.405 25.2958 113.864 25.5092C114.333 25.7225 114.722 26.0212 115.032 26.4052C115.341 26.7785 115.57 27.2158 115.72 27.7172C115.88 28.2185 115.96 28.7572 115.96 29.3332V29.9892H110.248V30.2612C110.248 30.9012 110.434 31.4292 110.808 31.8452C111.192 32.2505 111.736 32.4532 112.44 32.4532C112.952 32.4532 113.384 32.3412 113.736 32.1172C114.088 31.8932 114.386 31.5892 114.632 31.2052L115.656 32.2132C115.346 32.7252 114.898 33.1358 114.312 33.4452C113.725 33.7438 113.042 33.8932 112.264 33.8932ZM112.264 26.5492C111.965 26.5492 111.688 26.6025 111.432 26.7092C111.186 26.8158 110.973 26.9652 110.792 27.1572C110.621 27.3492 110.488 27.5785 110.392 27.8452C110.296 28.1118 110.248 28.4052 110.248 28.7252V28.8372H114.12V28.6772C114.12 28.0372 113.954 27.5252 113.624 27.1412C113.293 26.7465 112.84 26.5492 112.264 26.5492ZM117.89 33.7012V25.3812H119.634V26.9812H119.714C119.832 26.5545 120.077 26.1812 120.45 25.8612C120.824 25.5412 121.341 25.3812 122.002 25.3812H122.466V27.0612H121.778C121.085 27.0612 120.552 27.1732 120.178 27.3972C119.816 27.6212 119.634 27.9518 119.634 28.3892V33.7012H117.89ZM10.9266 42.8932C10.5639 42.8932 10.2973 42.8078 10.1266 42.6372C9.96658 42.4665 9.88658 42.2478 9.88658 41.9812V41.7092C9.88658 41.4425 9.96658 41.2238 10.1266 41.0532C10.2973 40.8825 10.5639 40.7972 10.9266 40.7972C11.2893 40.7972 11.5506 40.8825 11.7106 41.0532C11.8706 41.2238 11.9506 41.4425 11.9506 41.7092V41.9812C11.9506 42.2478 11.8706 42.4665 11.7106 42.6372C11.5506 42.8078 11.2893 42.8932 10.9266 42.8932ZM10.0466 44.3812H11.7906V52.7012H10.0466V44.3812ZM16.921 52.8932C16.1316 52.8932 15.4703 52.7545 14.937 52.4772C14.4036 52.1998 13.9396 51.8158 13.545 51.3252L14.665 50.3012C14.9743 50.6745 15.3156 50.9678 15.689 51.1812C16.073 51.3838 16.5156 51.4852 17.017 51.4852C17.529 51.4852 17.9076 51.3892 18.153 51.1972C18.409 50.9945 18.537 50.7172 18.537 50.3652C18.537 50.0985 18.4463 49.8745 18.265 49.6932C18.0943 49.5012 17.7903 49.3785 17.353 49.3252L16.585 49.2292C15.7316 49.1225 15.0596 48.8772 14.569 48.4932C14.089 48.0985 13.849 47.5172 13.849 46.7492C13.849 46.3438 13.9236 45.9865 14.073 45.6772C14.2223 45.3572 14.4303 45.0905 14.697 44.8772C14.9743 44.6532 15.2996 44.4825 15.673 44.3652C16.057 44.2478 16.4783 44.1892 16.937 44.1892C17.6836 44.1892 18.2916 44.3065 18.761 44.5412C19.241 44.7758 19.6676 45.1012 20.041 45.5172L18.969 46.5412C18.7556 46.2852 18.473 46.0665 18.121 45.8852C17.7796 45.6932 17.385 45.5972 16.937 45.5972C16.457 45.5972 16.0996 45.6932 15.865 45.8852C15.641 46.0772 15.529 46.3278 15.529 46.6372C15.529 46.9572 15.6303 47.1972 15.833 47.3572C16.0356 47.5172 16.361 47.6345 16.809 47.7092L17.577 47.8052C18.4943 47.9438 19.161 48.2158 19.577 48.6212C20.0036 49.0158 20.217 49.5492 20.217 50.2212C20.217 50.6265 20.137 50.9945 19.977 51.3252C19.8276 51.6452 19.609 51.9225 19.321 52.1572C19.033 52.3918 18.6863 52.5732 18.281 52.7012C17.8756 52.8292 17.4223 52.8932 16.921 52.8932ZM28.2725 52.7012C27.6645 52.7012 27.2058 52.5465 26.8965 52.2372C26.5871 51.9172 26.4325 51.4692 26.4325 50.8932V45.8052H25.1365V44.3812H25.8405C26.1285 44.3812 26.3258 44.3172 26.4325 44.1892C26.5498 44.0612 26.6085 43.8532 26.6085 43.5652V42.1092H28.1765V44.3812H29.9205V45.8052H28.1765V51.2772H29.7925V52.7012H28.2725ZM35.0137 52.8932C34.4377 52.8932 33.9097 52.7918 33.4297 52.5892C32.9604 52.3865 32.5604 52.0985 32.2297 51.7252C31.899 51.3412 31.643 50.8825 31.4617 50.3492C31.2804 49.8052 31.1897 49.2025 31.1897 48.5412C31.1897 47.8798 31.2804 47.2825 31.4617 46.7492C31.643 46.2052 31.899 45.7465 32.2297 45.3732C32.5604 44.9892 32.9604 44.6958 33.4297 44.4932C33.9097 44.2905 34.4377 44.1892 35.0137 44.1892C35.5897 44.1892 36.1124 44.2905 36.5817 44.4932C37.0617 44.6958 37.467 44.9892 37.7977 45.3732C38.1284 45.7465 38.3844 46.2052 38.5657 46.7492C38.747 47.2825 38.8377 47.8798 38.8377 48.5412C38.8377 49.2025 38.747 49.8052 38.5657 50.3492C38.3844 50.8825 38.1284 51.3412 37.7977 51.7252C37.467 52.0985 37.0617 52.3865 36.5817 52.5892C36.1124 52.7918 35.5897 52.8932 35.0137 52.8932ZM35.0137 51.4532C35.611 51.4532 36.091 51.2718 36.4537 50.9092C36.8164 50.5358 36.9977 49.9812 36.9977 49.2452V47.8372C36.9977 47.1012 36.8164 46.5518 36.4537 46.1892C36.091 45.8158 35.611 45.6292 35.0137 45.6292C34.4164 45.6292 33.9364 45.8158 33.5737 46.1892C33.211 46.5518 33.0297 47.1012 33.0297 47.8372V49.2452C33.0297 49.9812 33.211 50.5358 33.5737 50.9092C33.9364 51.2718 34.4164 51.4532 35.0137 51.4532ZM45.821 51.3252H45.757C45.6823 51.5278 45.581 51.7252 45.453 51.9172C45.3356 52.1092 45.181 52.2798 44.989 52.4292C44.8076 52.5678 44.5836 52.6798 44.317 52.7652C44.061 52.8505 43.7623 52.8932 43.421 52.8932C42.557 52.8932 41.885 52.6158 41.405 52.0612C40.9356 51.5065 40.701 50.7118 40.701 49.6772V44.3812H42.445V49.4532C42.445 50.7438 42.9783 51.3892 44.045 51.3892C44.269 51.3892 44.4876 51.3625 44.701 51.3092C44.9143 51.2452 45.101 51.1545 45.261 51.0372C45.4316 50.9198 45.565 50.7705 45.661 50.5892C45.7676 50.4078 45.821 50.1945 45.821 49.9492V44.3812H47.565V52.7012H45.821V51.3252ZM53.2782 52.8932C52.6809 52.8932 52.1475 52.7918 51.6782 52.5892C51.2089 52.3865 50.8142 52.0985 50.4942 51.7252C50.1742 51.3412 49.9289 50.8825 49.7582 50.3492C49.5875 49.8052 49.5022 49.2025 49.5022 48.5412C49.5022 47.8798 49.5875 47.2825 49.7582 46.7492C49.9289 46.2052 50.1742 45.7465 50.4942 45.3732C50.8142 44.9892 51.2089 44.6958 51.6782 44.4932C52.1475 44.2905 52.6809 44.1892 53.2782 44.1892C54.1102 44.1892 54.7929 44.3758 55.3262 44.7492C55.8595 45.1225 56.2489 45.6185 56.4942 46.2372L55.0542 46.9092C54.9369 46.5252 54.7289 46.2212 54.4302 45.9972C54.1422 45.7625 53.7582 45.6452 53.2782 45.6452C52.6382 45.6452 52.1529 45.8478 51.8222 46.2532C51.5022 46.6478 51.3422 47.1652 51.3422 47.8052V49.2932C51.3422 49.9332 51.5022 50.4558 51.8222 50.8612C52.1529 51.2558 52.6382 51.4532 53.2782 51.4532C53.7902 51.4532 54.1955 51.3305 54.4942 51.0852C54.8035 50.8292 55.0489 50.4932 55.2302 50.0772L56.5582 50.7812C56.2809 51.4638 55.8649 51.9865 55.3102 52.3492C54.7555 52.7118 54.0782 52.8932 53.2782 52.8932ZM58.2185 40.8612H59.9625V45.7572H60.0425C60.2238 45.3092 60.4958 44.9358 60.8585 44.6372C61.2318 44.3385 61.7385 44.1892 62.3785 44.1892C63.2318 44.1892 63.8931 44.4718 64.3625 45.0372C64.8425 45.5918 65.0825 46.3865 65.0825 47.4212V52.7012H63.3385V47.6292C63.3385 46.3385 62.8158 45.6932 61.7705 45.6932C61.5465 45.6932 61.3225 45.7252 61.0985 45.7892C60.8851 45.8425 60.6931 45.9278 60.5225 46.0452C60.3518 46.1625 60.2131 46.3118 60.1065 46.4932C60.0105 46.6745 59.9625 46.8825 59.9625 47.1172V52.7012H58.2185V40.8612ZM70.7637 52.8932C70.1664 52.8932 69.633 52.7918 69.1637 52.5892C68.6944 52.3865 68.2944 52.0985 67.9637 51.7252C67.633 51.3412 67.377 50.8825 67.1957 50.3492C67.025 49.8052 66.9397 49.2025 66.9397 48.5412C66.9397 47.8798 67.025 47.2825 67.1957 46.7492C67.377 46.2052 67.633 45.7465 67.9637 45.3732C68.2944 44.9892 68.6944 44.6958 69.1637 44.4932C69.633 44.2905 70.1664 44.1892 70.7637 44.1892C71.3717 44.1892 71.905 44.2958 72.3637 44.5092C72.833 44.7225 73.2224 45.0212 73.5317 45.4052C73.841 45.7785 74.0704 46.2158 74.2197 46.7172C74.3797 47.2185 74.4597 47.7572 74.4597 48.3332V48.9892H68.7477V49.2612C68.7477 49.9012 68.9344 50.4292 69.3077 50.8452C69.6917 51.2505 70.2357 51.4532 70.9397 51.4532C71.4517 51.4532 71.8837 51.3412 72.2357 51.1172C72.5877 50.8932 72.8864 50.5892 73.1317 50.2052L74.1557 51.2132C73.8464 51.7252 73.3984 52.1358 72.8117 52.4452C72.225 52.7438 71.5424 52.8932 70.7637 52.8932ZM70.7637 45.5492C70.465 45.5492 70.1877 45.6025 69.9317 45.7092C69.6864 45.8158 69.473 45.9652 69.2917 46.1572C69.121 46.3492 68.9877 46.5785 68.8917 46.8452C68.7957 47.1118 68.7477 47.4052 68.7477 47.7252V47.8372H72.6197V47.6772C72.6197 47.0372 72.4544 46.5252 72.1237 46.1412C71.793 45.7465 71.3397 45.5492 70.7637 45.5492ZM81.6223 51.3252H81.5423C81.361 51.8158 81.0623 52.1998 80.6463 52.4772C80.241 52.7545 79.761 52.8932 79.2063 52.8932C78.1503 52.8932 77.3343 52.5145 76.7583 51.7572C76.1823 50.9892 75.8943 49.9172 75.8943 48.5412C75.8943 47.1652 76.1823 46.0985 76.7583 45.3412C77.3343 44.5732 78.1503 44.1892 79.2063 44.1892C79.761 44.1892 80.241 44.3278 80.6463 44.6052C81.0623 44.8718 81.361 45.2558 81.5423 45.7572H81.6223V40.8612H83.3663V52.7012H81.6223V51.3252ZM79.7343 51.3892C80.2677 51.3892 80.7157 51.2612 81.0783 51.0052C81.441 50.7385 81.6223 50.3918 81.6223 49.9652V47.1172C81.6223 46.6905 81.441 46.3492 81.0783 46.0932C80.7157 45.8265 80.2677 45.6932 79.7343 45.6932C79.1263 45.6932 78.641 45.8905 78.2783 46.2852C77.9157 46.6692 77.7343 47.1812 77.7343 47.8212V49.2612C77.7343 49.9012 77.9157 50.4185 78.2783 50.8132C78.641 51.1972 79.1263 51.3892 79.7343 51.3892Z" fill="#181818"/>
</svg>
